<?xml version="1.0" encoding="utf-8"?>
<svg width="291" height="137" viewBox="0 0 291 137" fill="none" xmlns="http://www.w3.org/2000/svg">
<path d="M64.62 116.844C64.3616 114.675 65.1907 112.753 65.5753 110.741C65.5938 110.615 65.9415 110.566 66.5845 110.292C65.3769 112.604 65.4184 114.879 64.62 116.844ZM18.4452 73.7309C18.4221 76.0002 18.2406 78.1989 16.8776 80.4269C16.9545 77.7374 18.3852 75.9466 18.4452 73.7309ZM290.335 1.13664C290.624 0.856049 291.135 0.658234 290.967 -0.00109863C290.324 0.0295715 289.729 0.196793 289.272 0.658325C286.249 3.67133 282.626 5.71364 279.633 8.80331C278.611 9.85211 277.825 11.1279 276.845 12.2059C276.124 13.0017 274.941 13.086 274.561 14.5181C274.159 16.0208 273.318 17.3686 271.755 17.7289C271.19 17.8593 270.95 18.4404 270.625 18.9203C270.355 19.3266 269.97 20.0043 269.712 19.9629C268.45 19.759 268.264 20.8599 267.915 21.717C267.183 23.5555 265.607 24.4188 264.4 25.6639C262.14 27.9884 260.266 30.7561 257.868 32.9059C254.731 35.7027 252.472 39.5359 249.347 42.4048C247.46 44.1421 245.952 46.4605 244.143 48.3772C242.712 49.8798 241.186 51.3242 240.009 53.06C238.873 54.7436 236.596 54.8463 235.988 57.1754C235.916 57.4637 235.442 58.0433 234.708 57.5235C235.477 56.9485 236.007 56.2355 235.893 55.1515C235.862 54.8463 236.007 54.3787 236.211 54.2054C237.653 52.9772 238.068 50.7784 239.636 49.5931C240.448 48.9875 241.24 48.023 241.24 46.6583C241.24 46.4069 241.211 46.1493 241.463 46.0113C243.001 45.0759 243.789 43.0396 245.591 42.4355C246.312 42.1963 247.015 41.5247 246.92 40.3747C246.107 40.0696 245.861 41.4173 245.111 41.0033C245.46 39.2308 246.101 37.6974 247.28 36.4033C248.013 35.6014 248.53 34.5955 249.37 33.8227C250.482 32.7862 251.475 31.463 251.63 29.557C251.69 28.8272 251.678 27.5039 252.953 27.6465C253.338 26.4367 254.124 26.0181 255.194 25.9997C255.716 25.9936 255.908 25.5151 256.011 24.9509C256.336 22.9744 257.008 21.2678 258.637 20.2312C259.394 19.7406 258.865 18.8007 258.793 18.2917C258.722 17.663 257.916 18.1061 257.465 18.3744C255.885 19.3159 254.539 20.6576 253.042 21.9747C252.628 20.538 253.578 20.0886 254.25 19.5489C255.327 18.6918 256.359 17.8424 256.743 16.2554C255.157 15.8291 253.758 15.6313 252.442 16.7997C252.821 16.0392 253.151 15.2602 253.679 14.9183C254.779 14.2482 255.201 13.4463 254.876 12.0203C254.779 11.6063 254.581 10.8105 255.337 10.4992C256.077 10.1925 256.084 9.72029 255.356 9.31242C254.996 9.12076 254.816 8.79112 254.641 8.3848C253.908 6.67206 252.387 6.61678 251.312 8.36018C251.018 7.73151 250.958 6.98938 250.453 6.57538C247.935 4.53911 245.357 2.72372 242.063 3.53333C241.74 3.60999 241.409 3.76633 241.079 3.28793C240.417 2.32959 238.44 2.27441 238.44 3.05948C238.434 4.56369 237.696 4.04231 237.173 4.01164C236.133 3.95184 235.07 3.79701 234.162 3.20361C233.548 2.80188 232.965 2.69452 232.492 3.11311C231.398 4.08984 232.305 4.21562 232.978 4.40115C232.978 4.40115 232.972 4.48547 232.948 4.66489C232.022 4.65875 230.929 4.29996 230.172 4.72469C228.652 5.58795 226.801 5.90991 225.935 8.1087C225.346 9.60065 223.748 10.3612 223.328 12.1337C223.231 12.5707 222.732 12.8713 222.282 13.0262C220.569 13.6012 219.097 14.5181 217.619 15.7938C216.074 17.1232 215.028 18.9801 213.418 20.1715C211.621 21.5009 210.835 24.011 208.947 25.2392C208.533 25.5152 208.449 26.1316 208.118 26.4137C206.874 27.4487 206.321 29.2887 204.843 30.0247C204.061 30.4019 203.941 31.1026 204.218 31.9414C204.549 32.9242 204.014 33.2891 203.383 33.72C201.826 34.8163 199.446 34.7918 199.165 37.6914C199.159 37.8171 198.979 37.9674 198.846 38.0333C197.031 38.9855 197.079 42.345 194.573 42.4048C194.538 42.4048 194.484 42.5428 194.478 42.6149C194.351 44.2203 193.005 44.6573 192.284 45.6938C191.486 46.8316 189.544 46.945 189.881 49.1193C188.606 49.6652 188.426 51.8456 187.561 52.0725C185.951 52.485 186.017 54.1087 185.175 54.9827C185.128 55.0425 185.055 55.1085 184.989 55.1208C184.785 55.1637 184.52 55.2833 184.375 55.1928C184.106 55.0134 183.968 54.6117 184.141 54.3127C184.508 53.6779 184.898 53.0492 185.272 52.4374C186.077 51.1387 186.155 49.2159 187.237 48.3772C188.469 47.4249 188.955 46.0833 189.676 44.8137C190.036 44.1667 190.446 43.5012 190.962 43.0335C193.018 41.1766 194.255 38.5179 195.301 35.9971C196.725 32.5471 198.408 29.4252 200.619 26.6468C201.1 26.035 201.28 25.3404 201.46 24.586C201.946 22.4776 201.779 20.0994 203.551 18.5124C204.026 18.0877 203.809 17.1585 203.281 16.6985C202.649 16.1465 202.362 16.8304 202.066 17.3149C201.514 18.2318 200.72 18.8175 199.808 19.2438C200.829 20.6207 200.829 20.6208 199.562 21.507C199.111 20.3095 198.75 19.1181 199.37 18.0279C198.859 17.5127 198.365 18.3269 197.963 17.5909C198.263 16.8595 198.611 16.105 198.876 15.3077C199.086 14.6974 199.808 14.2666 199.49 13.4816C199.182 12.7394 198.408 12.7455 197.47 12.2411C199.051 11.5771 198.216 9.88746 199.045 8.88773C199.496 8.33727 198.93 7.92325 198.534 7.76224C196.851 7.09064 196.082 4.3889 193.828 4.95163C193.702 4.97617 193.468 4.66484 193.342 4.46704C192.819 3.62218 192.025 3.40758 191.209 3.22205C189.183 2.77892 187.158 2.28059 185.134 1.86812C184.172 1.67032 183.186 1.55685 182.388 2.45538C182.086 2.78966 181.708 2.72371 181.342 2.78351C176.21 3.6161 172.141 6.25806 169.672 11.7029C169.269 12.5953 168.638 13.6732 167.9 13.9492C166.24 14.5779 165.411 16.6556 163.597 16.8902C163.086 16.9622 163.362 17.5419 163.272 17.8961C162.779 19.7882 161.505 21.0762 160.417 22.8196C160.142 21.6757 161.097 20.6207 159.889 20.0518C159.191 20.6866 158.897 21.7891 157.917 22.059C157.407 22.2016 157.022 22.1188 156.747 21.6389C156.493 21.1789 156.751 20.8369 157.022 20.5257C157.454 20.0335 157.864 19.5429 158.29 19.0583C158.67 18.6321 158.74 18.1598 158.387 17.6982C158.014 17.2367 157.774 17.824 157.479 17.8961C156.554 18.1123 155.953 18.9617 155.027 19.2914C153.538 19.8372 153.195 19.897 153.399 18.1766C153.507 17.2137 153.159 17.1416 152.647 17.0327C151.344 16.7583 150.25 16.2002 149.698 14.6791C149.535 14.2176 149.121 14.0872 148.76 14.1577C147.69 14.3678 147.077 13.7085 146.241 13.0139C145.292 12.212 144.018 11.8041 142.985 10.9654C142.666 10.7139 141.945 10.6479 141.699 10.8825C140.882 11.6599 140.166 11.2291 139.368 10.9654C138.407 10.6541 137.584 11.6124 136.556 11.4683C135.33 11.295 133.978 11.1402 133.209 12.7809C133.105 12.9909 132.679 13.0568 132.392 13.0737C130.655 13.1703 129.764 14.6438 128.935 16.0453C127.481 18.5002 126.82 21.6097 124.332 23.1968C124.045 23.3823 123.912 23.8914 123.695 24.2456C122.608 26.0181 121.611 27.8811 120.385 29.5218C119.688 30.4617 118.942 31.1992 119.045 32.5822C119.099 33.1986 118.979 33.72 118.131 33.4992C117.302 33.2769 116.785 33.9654 116.611 34.8639C116.461 35.6796 116.256 36.3558 115.451 36.5291C115.193 36.5828 115.007 36.7928 115.127 37.0504C115.854 38.6251 114.645 39.7522 114.628 41.2732C112.958 39.7276 112.842 39.6739 112.069 41.5906C111.449 43.1178 110.752 44.6097 109.844 45.8548C108.678 47.4602 108.564 49.2266 108.504 51.108C108.486 51.6048 108.734 52.1385 108.378 52.6C106.744 51.8027 106.534 51.91 106.877 53.8634C107.092 55.0855 106.78 55.7203 105.818 56.5759C106.004 54.9827 106.414 53.6901 105.614 52.5509C105.409 52.2703 105.103 52.2228 104.821 52.4972C104.797 53.0968 105.405 53.5338 105.103 54.3971C103.409 54.5044 102.549 55.432 102.976 57.7213C103.126 58.5048 102.502 59.7806 101.613 59.661C100.465 59.5 100.236 60.2237 99.8388 61.0624C99.202 62.4041 98.1205 63.663 98.7943 65.3098C99.1896 66.2911 98.8712 66.334 98.2897 66.9504C97.399 67.8965 96.3668 68.6939 95.5668 69.5985C94.3946 70.9157 93.3855 72.7066 92.9886 74.8149C92.724 76.2041 92.5747 77.8095 91.5594 78.912C91.0841 78.6007 90.7118 78.2772 90.2903 78.1085C90.0442 78.0135 89.6596 78.038 89.4442 78.1928C89.0289 78.4872 89.2396 78.9349 89.3781 79.3367C89.455 79.5759 89.455 79.9485 89.5996 80.0497C91.1856 81.1522 90.3334 81.9786 89.3889 82.8051C89.1197 83.0443 89.1258 83.6193 88.752 83.6438C88.2351 82.7085 87.7367 81.8345 87.1844 80.8286C86.3429 81.6306 86.1383 82.6135 85.8922 83.5779C85.6815 84.4397 85.7476 85.5728 84.5462 85.5728C84.2754 85.5728 84.24 85.8902 84.18 86.1417C83.3201 89.8186 81.0249 92.6154 79.5819 95.9289C79.4143 96.3061 79.1681 96.8566 78.8974 96.9041C77.1483 97.2399 77.396 100.055 75.6222 100.288C75.0454 102.355 73.3394 103.464 72.4071 105.23C72.0764 105.859 71.3626 106.405 72.3302 107.11C72.5763 107.285 72.4194 107.656 72.221 107.614C71.1641 107.368 70.8749 108.573 70.2027 109.022C69.595 109.422 69.1689 109.41 68.8736 108.812C68.2075 107.44 67.5644 107.41 66.6445 108.53C66.4045 108.83 65.7922 108.734 65.203 108.835C65.5999 107.093 65.863 105.482 66.4045 103.882C66.9091 102.384 67.426 100.721 67.1798 98.9527C66.946 97.3534 67.2814 95.7725 67.9844 94.3404C68.2428 93.8083 68.4659 93.2564 68.3751 92.6461C68.2613 91.9086 68.3751 91.1541 68.772 90.6925C70.4303 88.759 70.7011 86.1049 71.6318 83.7987C72.1425 82.5536 72.3717 81.307 72.4071 79.8703C72.4563 78.1867 72.2087 75.9342 74.4146 75.3178C74.5716 75.2826 74.7746 74.9345 74.7746 74.7428C74.7746 73.6649 75.4961 72.7066 75.473 71.8387C75.4361 70.4005 76.7945 70.425 76.8237 69.9267C76.9206 68.3581 78.242 67.4411 78.0805 65.6747C77.8821 63.6078 78.9574 61.9855 80.7188 61.1468C81.151 60.9367 81.4756 60.6193 81.5479 60.0627C81.1141 59.2485 80.4111 60.1286 79.9188 59.7208C80.0881 58.7502 79.8588 57.5771 81.1264 57.2827C81.451 57.2122 81.6264 56.7262 81.5356 56.211C81.2772 54.7083 82.2387 53.75 82.8448 52.6414C83.1155 52.1384 83.6508 51.7735 83.8016 51.2522C84.2462 49.682 84.6969 48.2683 86.5229 48.6041C86.8829 48.67 87.0213 48.3051 87.1244 47.9693C87.2444 47.5737 87.2737 46.8668 87.4659 46.807C88.6751 46.4421 88.9812 45.5849 88.6859 44.3046C90.1227 43.4413 89.0766 42.2316 88.8489 41.3208C88.632 40.4529 88.8366 40.3563 89.335 39.7997C89.9488 39.1296 90.8672 38.1882 90.6641 37.0873C90.5011 36.2363 90.5795 35.9786 91.1503 35.4757C92.184 34.5588 92.7732 33.3014 92.6886 31.7022C92.6517 30.9539 92.8332 30.1872 92.8686 29.4252C92.8994 28.749 92.664 27.8443 93.3609 27.6051C94.6408 27.1619 93.0732 26.4137 93.6193 25.8326C95.1161 24.2624 94.5454 21.921 95.0869 19.9737C95.3622 18.974 94.6531 17.8776 93.7347 17.6016C92.9286 17.3624 91.8887 16.2783 91.198 17.7105C90.7841 18.5722 90.7241 17.824 90.5011 17.6569C89.3535 16.7093 88.2782 15.6313 86.7152 15.6144C84.7861 15.5715 82.8401 15.5055 80.9172 15.2909C79.2343 15.0931 77.719 15.9793 76.6206 16.9254C74.9607 18.3805 73.6039 20.2911 71.6149 21.3046C71.3626 21.4303 71.2118 21.8014 71.0072 22.059C69.7996 23.6337 68.0505 24.6764 67.4737 26.8921C67.4014 27.1558 67.0598 27.4073 66.7891 27.5208C65.6107 28.0007 64.9508 29.0311 64.2416 30.1566C63.7478 30.9708 63.1771 31.7972 62.1018 32.1806C61.1465 32.5102 60.2819 33.5882 59.8419 34.8762C58.9528 37.3985 57.7452 39.6203 55.5823 41.0218C54.77 41.5492 54.7823 43.0044 55.5454 43.8722C55.8161 44.1789 56.2191 44.2679 55.7207 44.9456C54.7592 44.0762 54.0855 44.6159 53.1717 45.4424C52.0964 46.4129 51.4057 47.5737 50.6549 48.8265C49.6443 50.4855 48.1121 51.7075 47.5783 53.7729C47.2706 54.9168 46.2384 55.4566 45.6015 56.2892C44.0739 58.2963 43.2817 61.1468 40.8542 62.2247C40.4927 62.3872 40.1988 62.95 40.0188 63.3992C39.2435 65.3266 37.6206 66.6453 37.1945 68.838C37.0683 69.4835 36.4668 70.1367 35.9315 70.5139C35.3977 70.885 34.9408 71.3772 34.6516 71.9046C33.6901 73.7247 32.3148 75.1676 31.3165 76.9539C30.3196 78.7556 29.8027 80.9666 27.9998 82.0798C27.3752 84.8061 25.4277 86.5066 24.1124 88.6931C22.1895 91.8549 20.3081 95.0534 18.379 98.2105C17.8144 99.1213 17.1653 99.9585 16.5161 100.774C16.2515 101.104 15.8007 101.234 15.5915 100.684C15.1346 99.5046 15.6869 98.2764 15.5423 97.0605C17.3037 96.0899 15.7777 95.5686 15.1408 94.6639C15.8561 94.7667 16.5945 95.012 16.8114 94.1978C16.9791 93.497 17.1053 92.1431 17.0576 92.0956C15.6515 90.8843 16.8345 90.2924 17.4776 89.6453C18.3498 88.7529 18.6621 87.77 18.2652 86.4283C17.8929 85.171 17.9406 84.0088 19.2266 83.3142C19.6528 83.0873 19.7374 82.3558 19.4312 81.9602C18.6559 80.9835 19.0528 80.2828 19.6774 79.5345C20.1035 79.0193 20.2066 78.3125 20.3265 77.6485C21.1434 73.0715 21.9664 68.5022 23.054 63.9972C23.1694 63.5372 23.3125 62.9668 22.6879 62.4409C22.2249 63.5725 21.4988 64.4296 21.168 65.71C20.7404 67.3644 20.5188 69.0588 20.0373 70.6887C19.8343 71.3772 19.6774 72.1132 18.5775 72.4137C19.4912 68.7537 20.3266 65.4232 21.1434 62.0806C21.4495 60.8355 22.1172 59.5827 21.2157 58.3131C20.6696 58.0923 20.585 59.4279 19.7727 58.6613C20.4819 55.4321 18.3436 54.5933 16.2038 53.6242C15.8008 53.9294 15.8131 54.2943 15.7346 54.6178C15.5069 55.547 15.3623 56.5652 14.1486 55.7203C13.7471 55.4382 13.4394 55.8706 13.4225 56.3613C13.3071 58.9848 12.3579 61.3323 11.6011 63.7519C10.1643 68.2737 9.09513 72.9166 7.92907 77.5335C7.3768 79.7507 6.41534 81.8222 6.07229 84.1406C5.62155 87.195 5.11081 90.2326 4.31241 93.1904C2.97251 98.1017 1.98029 103.097 1.28342 108.171C0.983444 110.381 0.814236 112.609 0.154288 114.729C0.0573723 115.059 -0.104156 115.401 0.0942902 115.694C1.44034 117.652 0.863447 120.258 1.82953 122.33C2.19104 123.109 1.69724 124.145 2.20951 124.822C3.39865 126.409 3.81244 128.488 4.88928 130.153C6.24764 132.249 7.01683 132.591 9.05975 131.435C9.51664 131.171 9.94274 130.794 10.3273 130.392C11.5595 129.123 12.8687 127.979 14.3239 127.074C21.1557 122.876 25.9153 116.203 30.2473 109.123C30.8611 108.124 31.7856 107.602 32.2548 106.553C33.8593 103.014 36.593 100.265 37.7406 96.395C37.8437 96.0899 38.0405 95.748 38.2821 95.5932C39.2189 94.9936 39.4835 93.8804 39.9465 92.9221C40.4757 91.8196 40.788 90.4472 42.2664 90.5914C42.5002 90.6159 42.6617 90.4656 42.7832 90.2203C43.8155 88.1534 44.9754 86.1478 45.8599 84.0026C46.2737 82.9906 46.7968 82.1994 47.5844 81.7563C49.2058 80.847 50.6011 79.8457 50.4796 77.42C50.4688 77.2222 50.655 76.8987 50.8165 76.8098C51.8918 76.2517 52.1148 74.9222 52.584 73.9409C53.3593 72.3355 54.6439 71.1732 55.7807 70.4066C56.8375 69.6936 57.5944 68.9146 57.9021 67.8306C58.3759 66.1838 59.3435 64.836 60.2988 63.8363C61.2541 62.8304 61.3265 60.4092 63.3632 60.8232C63.4894 60.8539 63.7601 60.3387 63.8801 60.0381C64.4816 58.5355 65.6477 57.6063 66.5722 56.4333C68.0628 54.5335 68.8689 52.0372 70.6288 50.3659C70.4365 48.3833 72.624 48.6946 72.9548 47.2149C74.39 47.8313 74.15 46.4958 74.3008 45.6693C74.4208 45.0345 74.5715 44.5008 75.4069 44.4656C75.1423 45.6156 75.7422 46.922 74.5823 47.8497C74.3424 48.0352 74.2762 48.6286 74.2701 49.0411C74.247 49.7479 73.6808 50.257 73.7962 51.0007C73.9039 51.7137 73.8501 52.462 73.3393 52.9113C72.3471 53.7791 73.4286 54.0305 73.6393 54.5519C72.9901 54.5519 72.4609 54.762 72.2456 55.5517C72.0117 56.3965 71.8425 57.2828 72.6594 57.8286C73.3809 58.3132 72.9486 58.8222 72.5933 58.882C70.8996 59.1764 71.1041 60.6914 70.8334 61.6497C71.4164 62.5728 71.6502 61.225 72.6425 62.0085C70.858 62.0453 70.7134 63.8776 69.4689 64.2379C69.1628 64.3207 68.7966 65.0583 69.0966 65.5551C69.4273 66.1117 69.4566 66.4122 68.9228 66.7587C68.6874 66.9151 68.3751 67.3752 68.7966 67.55C70.0888 68.0652 69.2289 68.7889 69.0243 69.5019C68.772 70.4188 68.2259 71.4723 69.6981 71.7789C69.9734 71.8387 70.0934 72.2818 69.9504 72.6406C69.8181 72.9703 69.5765 73.2217 69.2473 73.1911C67.5044 73.0423 67.2337 74.9222 66.3138 76.0247C66.9029 75.4022 67.8167 77.3848 68.2074 75.5877C68.2674 75.3117 68.6582 75.3654 68.7305 75.5877C68.9166 76.1811 69.3135 77.1026 68.5551 77.2881C67.1983 77.6178 67.2337 78.984 67.1137 79.8703C66.8245 82.0323 65.9184 83.6438 64.4816 84.9425C64.0247 85.3565 63.6709 85.7997 63.8631 86.4345C64.1385 87.3867 63.7478 88.2622 63.7785 89.1715C63.7847 89.6085 63.394 90.1789 64.1216 90.4304C64.5662 90.5791 64.8062 90.0517 65.263 90.0348C64.8969 91.3044 64.3616 92.1431 63.2924 92.4421C62.7094 92.6092 62.1925 92.8729 61.8372 93.5323C61.1403 94.8264 61.4526 96.5867 60.305 97.6417C61.2849 99.8098 59.4466 101.049 59.0128 102.763C58.8928 103.247 58.5328 103.678 58.4959 104.171C58.2144 107.625 56.9222 110.854 56.693 114.34C56.6453 115.119 56.7422 116.137 55.9238 116.64C55.0469 117.198 55.1731 117.94 55.4977 118.832C55.8469 119.778 56.2791 120.809 55.7207 121.786C54.9992 123.031 55.3115 123.941 56.0622 124.99C56.513 125.619 56.6637 126.547 56.8853 127.362C57.0545 127.937 57.1391 128.5 57.6436 128.877C59.0789 129.937 59.9142 131.584 60.6665 133.279C61.7648 135.777 63.5986 136.897 65.9415 136.969C67.9967 137.016 69.8904 136.472 71.5057 134.8C73.7839 132.447 75.6653 129.518 78.4112 127.841C81.3249 126.05 83.0201 122.923 85.243 120.366C86.1922 119.282 87.3106 118.282 87.9351 116.969C88.8058 115.137 89.6596 113.43 91.3903 112.507C91.6425 112.369 91.9486 112.083 92.0102 111.8C92.4117 109.944 94.0347 109.165 94.7731 107.559C95.5361 105.912 96.7806 105.972 97.779 107.417C98.2051 108.021 98.5712 108.668 99.1789 109.063C100.176 109.729 100.885 110.65 101.443 111.837C101.943 112.878 102.729 113.754 103.619 114.399C104.129 114.783 104.695 115.089 104.977 115.706C106.011 117.958 107.898 118.785 109.803 119.63C112.284 120.743 114.808 121.792 117.23 123.08C119.194 124.121 120.805 124.026 122.62 122.515C124.711 120.774 126.946 119.162 129.315 117.987C132.259 116.526 134.584 114.185 136.994 111.914C137.968 111.005 139.037 110.387 140.214 109.579C140.545 112.136 140.996 114.424 141.099 116.724C141.266 120.401 142.949 122.87 145.604 124.415C148.16 125.893 150.581 127.882 153.592 128.152C153.988 128.193 154.348 128.679 154.739 128.919C155.928 129.638 157.1 130.86 158.327 130.932C160.208 131.039 161.602 131.925 162.977 133.135C163.531 133.615 164.137 133.879 164.828 134.005C167.052 134.399 169.184 135.124 171.113 136.519C171.919 137.1 172.784 137.094 173.716 136.814C176.57 135.921 178.553 133.836 179.893 130.907C180.596 129.392 181.449 127.985 182.183 126.499C182.735 125.361 183.943 124.667 184.034 123.379C184.141 121.905 184.952 121.126 185.657 120.133C187.146 118.018 189.052 116.19 189.76 113.49C190.193 111.842 191.49 110.687 191.552 108.853C191.569 108.53 191.984 108.159 192.284 107.943C193.672 106.931 194.604 105.446 195.294 103.841C196.322 101.457 197.963 99.5706 199.045 97.2583C199.729 95.7909 200.877 94.8986 201.851 93.8559C202.055 93.9755 202.175 94.0061 202.175 94.0536C202.494 97.2874 204.675 99.3958 205.847 102.116C206.021 102.51 206.315 102.829 206.687 102.906C207.835 103.163 208.755 103.66 209.41 104.907C209.698 105.475 210.533 106.003 211.11 105.985C212.901 105.937 214.17 107.165 215.551 108.074C216.417 108.639 217.319 108.847 218.231 109.177C219.896 109.77 221.392 110.807 223.208 111.153C224.109 111.316 225.166 112.268 226.127 112.921C227.257 113.699 228.472 113.837 229.696 113.016C230.141 112.717 230.773 112.328 231.164 112.477C233.218 113.268 234.282 111.316 235.701 110.43C236.379 109.991 236.817 108.728 237.696 110.207C237.948 110.626 238.537 110.261 238.856 109.836C239.251 109.303 239.443 108.68 239.613 108.004C239.991 106.405 241.331 105.206 242.346 105.374C243.872 105.626 244.786 104.493 246.03 104.356C245.778 101.541 245.958 100.828 247.904 99.3007C248.866 98.5402 249.552 97.6831 250.079 96.5039C250.513 95.5333 251.041 94.1732 251.936 94.0536C253.048 93.9034 253.211 93.1076 253.578 92.3286C254.101 91.2139 255.079 90.1007 254.701 88.8188C254.034 86.5311 256.547 87.9494 256.57 86.4468C256.613 84.9426 258.457 83.9674 257.663 82.1167C257.634 82.0323 257.766 81.81 257.868 81.7211C258 81.6183 258.102 81.7272 258.186 81.8943C259.04 83.6561 258.962 81.6076 259.369 81.511C258.865 80.5588 259.514 79.924 259.851 79.1819C260.434 77.8632 261.738 77.2284 262.231 75.8039C262.357 75.4375 262.638 75.3838 262.958 75.6169C263.709 76.1566 263.924 75.623 263.883 74.8992C263.829 74.1142 264.183 73.6235 264.58 73.0899C265.121 72.3769 265.5 71.6041 265.138 70.6396C264.7 70.6335 264.544 71.3649 264.051 70.885C264.557 68.6938 265.95 67.1605 267.243 65.3098C267.464 65.9446 267.381 66.8124 268.24 66.4889C268.281 65.5842 268.343 64.6688 268.372 63.7335C268.403 62.7997 268.847 61.9319 268.643 60.9613C268.539 60.4645 268.756 60.098 269.141 59.9431C270.462 59.385 270.535 57.9727 270.601 56.7629C270.679 55.5348 271.389 54.2407 270.342 52.9956C269.226 51.6539 269.249 50.0362 270.049 48.4124C270.445 47.6044 270.884 46.7902 270.764 45.7475C270.613 44.4841 271.124 43.4291 271.682 42.3879C273.744 38.5423 275.739 34.6661 277.819 30.8327C278.365 29.8146 279.111 28.9528 278.979 27.5989C278.919 26.9825 279.622 26.9581 279.843 26.6529C280.714 25.4186 282.637 24.7362 281.731 22.4056C281.622 22.1311 281.863 21.4901 282.103 21.2616C282.992 20.4536 283.305 19.0813 284.32 18.4296C284.814 18.0999 285.155 17.3685 285.083 16.9438C284.747 14.9137 285.924 13.8403 286.91 12.6075C287.456 11.9129 288.01 11.2122 288.052 10.1757C288.166 7.82661 289.127 5.89313 290.419 4.15585C288.893 2.56273 288.906 2.56879 290.335 1.13664Z" fill="#FFD600"/>
</svg>
