<?xml version="1.0" encoding="utf-8"?>
<svg width="55" height="48" viewBox="0 0 55 48" fill="none" xmlns="http://www.w3.org/2000/svg">
<path fill-rule="evenodd" clip-rule="evenodd" d="M25.1225 27.3848C25.1475 27.3217 25.1754 27.2601 25.1974 27.2015C27.5634 21.6338 29.7195 15.9151 28.9034 9.75484C28.651 7.85397 28.3764 5.35763 27.2977 3.7325C27.1392 3.49049 26.7135 2.90527 26.3583 2.94488C25.6245 3.02261 24.8158 4.99387 24.5986 5.57763C24.261 6.48846 23.8442 7.86277 23.7546 8.83667C23.3231 13.5918 23.3672 18.762 24.283 23.4569C24.5399 24.7711 24.8246 26.0809 25.1225 27.3848ZM34.4147 28.8456C34.3222 28.476 34.2063 28.1108 34.0595 27.7544C34.0478 27.7251 34.0389 27.7045 34.0301 27.6767C33.9201 27.2719 33.7263 26.8098 33.3491 26.584C32.605 26.1395 31.2885 26.7204 30.534 27.1149C30.2655 27.6547 30.0071 28.3836 30.2478 28.9424C30.647 29.8738 32.3731 30.1877 33.4152 30.305C33.7836 29.843 34.1079 29.3517 34.4147 28.8456ZM27.5927 28.8515C27.5061 29.0568 27.4137 29.2622 27.3256 29.4661C26.9425 30.3388 26.5961 31.2291 26.2512 32.115L26.6489 33.7489C27.1245 35.6893 27.7101 38.4878 29.2879 39.8445C29.8222 40.3036 30.5106 40.7099 31.243 40.5324C33.2317 40.0499 34.5395 35.9079 34.6672 34.1229C34.6936 33.7503 34.717 33.3749 34.7332 33.0008C32.5976 34.56 29.6329 34.9853 28.2561 32.1252C27.8055 31.1894 27.6001 30.1466 27.5927 29.1126C27.5913 29.026 27.5927 28.9395 27.5927 28.8515ZM13.3397 35.0425C12.8201 35.2919 12.2183 35.4591 11.5447 35.5177C9.6689 35.6879 9.56321 32.8116 11.4258 32.6415C11.9688 32.5946 12.5456 32.4127 12.7995 31.8891C13.2354 30.987 12.5925 29.7286 11.9233 29.1126C11.2481 28.4936 10.3968 28.2604 9.50739 28.5684C7.58761 29.2387 5.99959 30.66 4.94283 32.3775C3.38998 34.89 2.40069 37.863 3.17124 40.8126C4.24268 44.9443 8.7354 46.92 11.2217 42.6049C12.1875 40.9328 12.8303 39.1127 13.1973 37.2206C13.1518 36.496 13.1973 35.7583 13.3397 35.0425ZM24.5413 36.2819C23.7385 38.0229 22.7742 39.7302 21.4782 41.1191C19.35 43.3969 16.7228 43.8208 14.8969 41.719C13.4571 45.2846 10.8239 48.2826 6.56607 47.9775C5.46674 47.8983 4.44821 47.5404 3.54849 46.9009C0.165389 44.4911 -0.74466 38.4937 0.588033 34.7741C2.31114 29.9603 7.85914 22.7338 13.5745 26.7233C15.8949 28.3426 16.3969 31.097 15.3607 33.0962C15.9698 33.2238 16.4806 33.7093 16.4307 34.5116C16.3617 35.6409 16.2164 36.7747 16.0006 37.885C16.0667 38.3705 16.2091 38.8443 16.4615 39.2667C18.101 39.5468 19.6097 39.3165 20.3715 37.6459C20.3832 37.6254 20.392 37.6063 20.4052 37.5843C20.7854 36.9404 21.1479 36.2819 21.4752 35.6057C22.0814 34.3532 22.6568 33.0918 23.2174 31.8172C22.8285 30.2361 22.5027 28.6403 22.2223 27.0386C21.6411 23.7415 21.2272 20.39 20.963 17.0532C20.8001 15.0292 20.6063 12.6399 20.7325 10.6114C20.8382 8.89682 21.1391 7.04728 21.6 5.39722C22.4601 2.30538 24.4297 -1.44354 28.2238 0.564396C32.3789 2.76154 32.2043 11.6088 31.8594 15.6408C31.6172 18.4275 30.807 21.094 29.7943 23.6931C31.265 22.4845 33.3242 22.4067 35.4788 24.4909C35.8369 24.8371 36.1422 25.2331 36.4005 25.6585C37.1578 24.6142 38.0546 23.6711 39.3022 23.2061C42.1921 22.1281 45.0953 22.2659 47.7416 23.8104C50.1267 23.5699 51.4168 25.151 51.0661 27.5696C50.9031 28.7004 49.3532 29.0862 48.6164 28.2604C48.1922 27.7867 47.7049 27.3584 47.1883 26.9844C46.3032 27.4038 44.6888 28.4012 44.3336 28.9424C43.5557 30.2141 42.452 32.0621 42.6457 33.6095C42.8732 35.44 45.0263 37.181 46.7803 36.0766C49.8801 34.1258 51.9437 29.6494 52.1155 26.0691C52.205 24.1976 55.0861 24.2563 54.998 26.1307C54.794 30.4693 52.5132 35.2772 49.0949 37.9994C45.7881 40.6278 41.291 38.809 39.9451 35.0146C38.7225 31.5664 41.0767 27.6239 43.9212 25.4678C41.8972 25.0072 39.9113 25.4692 38.6535 27.4332C38.2851 28.0052 37.9666 28.6124 37.6422 29.2123C38.2645 32.8175 37.6906 38.6506 34.9783 41.2673C33.6808 42.5213 31.9533 43.6404 30.0673 43.2473C27.3065 42.6694 25.5629 39.1053 24.5413 36.2819Z" fill="#FFD600"/>
</svg>
