<?xml version="1.0" encoding="utf-8"?>
<svg width="51" height="68" viewBox="0 0 51 68" fill="none" xmlns="http://www.w3.org/2000/svg">
<path fill-rule="evenodd" clip-rule="evenodd" d="M28.7205 52.2471C28.6432 52.2367 28.5672 52.2189 28.4925 52.2008C28.4645 52.1899 28.4405 52.182 28.4138 52.1727C27.5631 51.818 26.6298 53.8779 26.5912 54.4847C26.5472 55.1497 27.1138 56.5137 27.9738 56.182C29.1632 55.7273 30.1605 53.0367 28.7205 52.2471ZM18.1032 49.2763C18.0272 49.2617 17.9512 49.2461 17.8752 49.2273C17.8485 49.218 17.8245 49.2096 17.7965 49.1992C16.9472 48.8456 16.0125 50.9033 15.9738 51.5123C15.9312 52.1763 16.4952 53.5404 17.3565 53.2112C18.5458 52.7539 19.5445 50.0607 18.1032 49.2763ZM8.54848 46.0899C8.47248 46.0779 8.39648 46.0607 8.32048 46.0419C8.29381 46.0352 8.26983 46.0257 8.24183 46.0153C7.3925 45.6607 6.45781 47.7205 6.41915 48.3284C6.37515 48.9951 6.9405 50.3549 7.80183 50.0247C8.99116 49.5685 9.98981 46.8795 8.54848 46.0899ZM10.8845 36.6404C10.8071 36.6299 10.7325 36.6137 10.6565 36.594C10.6285 36.5856 10.6045 36.5779 10.5778 36.5643C9.72717 36.2112 8.79515 38.27 8.75381 38.8795C8.71115 39.5461 9.2765 40.9071 10.1392 40.5763C11.3272 40.1189 12.3245 37.4299 10.8845 36.6404ZM21.0765 39.1883C20.9992 39.1763 20.9245 39.1607 20.8485 39.1404C20.8205 39.1325 20.7965 39.1247 20.7698 39.1153C19.9192 38.7607 18.9858 40.8189 18.9458 41.4273C18.9031 42.0913 19.4685 43.4539 20.3298 43.1232C21.5178 42.6685 22.5165 39.9763 21.0765 39.1883ZM32.0125 42.3737C31.9351 42.3607 31.8591 42.3445 31.7845 42.3247C31.7565 42.3189 31.7325 42.3112 31.7058 42.2976C30.8538 41.9461 29.9218 44.0019 29.8805 44.6128C29.8378 45.2795 30.4045 46.6393 31.2658 46.3096C32.4538 45.8523 33.4525 43.1632 32.0125 42.3737ZM34.1352 32.6085C34.0578 32.594 33.9832 32.5795 33.9072 32.558C33.8792 32.5497 33.8552 32.5419 33.8285 32.5309C32.9792 32.1779 32.0445 34.2352 32.0058 34.8419C31.9618 35.5085 32.5271 36.8737 33.3885 36.5419C34.5765 36.0847 35.5752 33.3951 34.1352 32.6085ZM23.8378 30.0607C23.7605 30.0461 23.6845 30.0299 23.6098 30.0096C23.5805 30.0033 23.5565 29.9951 23.5312 29.9847C22.6805 29.6284 21.7472 31.6856 21.7072 32.2965C21.6632 32.9607 22.2298 34.3232 23.0912 33.9951C24.2805 33.5393 25.2778 30.8471 23.8378 30.0607ZM14.2831 26.9795C14.2058 26.9685 14.1285 26.9513 14.0551 26.9325C14.0258 26.9247 14.0018 26.9153 13.9765 26.906C13.1245 26.5513 12.1925 28.6112 12.1525 29.218C12.1085 29.8831 12.6738 31.2471 13.5365 30.9153C14.7245 30.4591 15.7231 27.7685 14.2831 26.9795ZM31.5685 13.4499C34.0658 13.7552 36.6231 15.0379 37.1898 17.6976C37.5471 19.3737 40.0818 18.7164 39.7285 17.0592C38.9098 13.2179 35.3378 11.2832 31.7032 10.8392C30.0045 10.6339 29.8885 13.2445 31.5685 13.4499ZM17.2085 7.18719C15.4218 8.55519 14.0165 15.2485 14.2258 17.4432C16.8045 21.858 32.3565 24.7309 37.5392 25.3367C39.8458 23.4419 41.1512 18.9008 41.0778 16.0619C41.0112 13.4512 38.2005 12.7779 36.2312 11.9365C35.1045 11.4539 33.7458 11.0659 32.5712 10.7072C30.5605 10.0899 28.5312 9.51386 26.4952 8.98319C24.6512 8.50052 22.7832 8.04318 20.9112 7.67518C19.8205 7.46185 18.3525 7.17253 17.2085 7.18719ZM28.7272 49.358C26.6485 48.8752 24.7125 51.5795 24.1778 53.2913C23.4045 55.7643 25.0898 59.0367 27.9378 58.8445C32.3845 58.5429 33.7752 49.97 28.7272 49.358ZM18.1112 46.3856C16.0312 45.9033 14.0965 48.6085 13.5605 50.3189C12.7872 52.7899 14.4712 56.0643 17.3232 55.8711C21.7685 55.5711 23.1592 46.9976 18.1112 46.3856ZM8.55648 43.2008C6.47648 42.7189 4.5405 45.4205 4.00583 47.1309C3.2325 49.6044 4.91649 52.8795 7.76716 52.6856C12.2138 52.3872 13.6032 43.8112 8.55648 43.2008ZM10.8925 33.7513C8.81249 33.27 6.8765 35.9711 6.3405 37.6831C5.5685 40.1565 7.2525 43.4299 10.1032 43.2367C14.5498 42.9367 15.9392 34.3632 10.8925 33.7513ZM32.0191 39.4847C29.9391 39.0033 28.0045 41.706 27.4685 43.4153C26.6965 45.8883 28.3805 49.1643 31.2298 48.97C35.6765 48.6711 37.0672 40.0951 32.0191 39.4847ZM34.1432 29.718C32.0632 29.2341 30.1272 31.9393 29.5912 33.6487C28.8192 36.1216 30.5031 39.3965 33.3538 39.2044C37.7991 38.9033 39.1912 30.3284 34.1432 29.718ZM14.2885 24.0913C12.2098 23.6085 10.2738 26.3096 9.73917 28.0216C8.96583 30.4951 10.6512 33.7711 13.5005 33.5752C17.9472 33.2763 19.3378 24.7019 14.2885 24.0913ZM18.3618 4.50586C17.8698 4.3672 16.9698 4.42052 16.5138 4.59252C12.7658 5.99785 11.4472 14.6165 11.3632 18.1336C11.3618 18.1872 11.3658 18.2341 11.3791 18.2872C12.3258 22.2523 20.5858 24.7367 23.9831 25.6872C26.7578 26.4617 29.5952 27.094 32.4298 27.606C33.4898 27.794 34.5565 27.9711 35.6245 28.118C36.2392 28.2033 36.8965 28.2951 37.5178 28.3247C38.8191 28.5429 40.1098 27.0513 40.7818 26.1284C41.9018 24.5965 42.7778 22.6779 43.3058 20.8565C44.0112 18.4325 44.3098 15.3885 42.9392 13.1299C42.6445 12.6472 42.2805 12.2125 41.8511 11.8419C37.0245 7.66185 24.7285 5.64053 18.3618 4.50586ZM22.2165 36.6096C22.4818 36.6591 22.7632 36.6737 23.0552 36.6565C27.5018 36.3549 28.8925 27.7804 23.8432 27.17C21.7658 26.6872 19.8285 29.3913 19.2938 31.1019C18.6845 33.0513 19.6018 35.5008 21.4151 36.3523C21.3085 36.3309 21.1978 36.3137 21.0845 36.2992C19.0045 35.8164 17.0685 38.5189 16.5325 40.2309C15.7605 42.706 17.4445 45.9779 20.2952 45.7856C24.3712 45.5112 25.8791 38.2847 22.2165 36.6096ZM33.6112 58.0137C35.9458 50.7085 38.2978 43.4273 40.3965 36.0471C41.3885 32.5549 42.3312 29.0404 43.1578 25.5044C43.8618 22.5019 44.5098 19.4205 44.8992 16.3605C45.0112 15.4752 45.2245 14.5979 45.3778 13.7192C45.6885 11.9192 45.8631 9.99119 43.8845 9.14986C42.1085 8.39386 40.1618 7.80186 38.3085 7.26719C35.8952 6.56986 33.4551 5.94986 31.0125 5.36586C26.7805 4.35252 22.4725 3.41386 18.1871 2.65119C17.5258 2.53386 17.1151 2.55919 16.5205 2.88186C13.6378 4.44585 12.2205 9.96453 11.1725 12.8699C10.2672 15.3725 9.50317 17.9847 8.7725 20.5429C7.7805 24.0164 6.86184 27.5153 6.01117 31.0299C5.0325 35.0711 4.11784 39.182 3.4445 43.2872C3.1245 45.2487 2.52448 48.9632 2.85515 51.006C3.43248 51.5591 4.13383 52.0831 4.76716 52.5497C5.33783 52.9669 5.91783 53.3727 6.5085 53.7632C6.8245 53.97 7.22182 54.2471 7.56182 54.4112C10.6298 55.894 13.8298 57.106 17.1005 58.0617C19.7272 58.8299 22.5285 59.471 25.2298 59.882C26.5045 60.0752 27.8125 60.2232 29.1032 60.2471C29.9778 60.2617 31.5445 60.3377 32.3112 59.8497C32.9032 59.4752 33.3178 58.6352 33.6112 58.0137ZM5.27784 56.1965C6.1645 57.0523 7.15116 57.77 8.26449 58.3112C11.3205 59.8019 14.3578 60.906 17.6165 61.8513C20.5045 62.6913 23.4125 63.4257 26.2871 64.3189C28.4685 64.7924 31.6925 65.4085 33.7232 64.1711C34.8458 63.4856 35.5765 62.3096 36.1338 61.1513C37.0338 59.2737 37.6725 57.0913 38.2592 55.0976C39.4565 51.018 40.6791 46.9497 41.8151 42.8513C43.4698 36.8737 45.0418 30.87 46.3912 24.8153C46.9325 22.3847 47.4565 19.9404 47.3218 17.4952C46.2005 23.7487 44.8592 29.9924 43.3418 36.1497C41.5125 43.5847 39.3752 51.2763 36.5445 58.3924C35.5978 60.7685 34.0165 62.3377 31.4485 62.7044C27.2471 63.3033 21.1205 61.9669 17.0618 60.7804C13.0365 59.606 8.97384 58.218 5.27784 56.1965ZM1.98848 57.3659C-4.35818 49.382 6.18047 17.5045 10.0125 8.69252C11.2538 5.83918 12.6498 2.11119 15.4738 0.467194C16.7405 -0.268806 17.8485 0.0271988 19.1912 0.255196C23.9578 1.06186 44.8365 4.71652 47.2312 8.13119C48.4605 9.88719 50.1418 16.5299 50.0005 18.6779C49.7912 21.8659 49.1125 24.9976 48.3551 28.0924C46.6685 34.9737 44.9031 41.8393 42.8805 48.6309C42.2525 50.7429 41.6911 52.87 41.1538 55.0071C40.7298 56.694 40.3245 58.394 39.8511 60.0669C39.2151 62.3033 38.3511 65.018 36.4485 66.5071C35.0471 67.6071 33.3152 67.9033 31.5765 67.9033C28.9565 67.9019 26.0432 67.2643 23.5072 66.6461C18.2285 65.3591 5.30715 61.5377 1.98848 57.3659Z" fill="#FFD600"/>
</svg>
