<?xml version="1.0" encoding="utf-8"?>
<svg width="97" height="103" viewBox="0 0 97 103" fill="none" xmlns="http://www.w3.org/2000/svg">
<path fill-rule="evenodd" clip-rule="evenodd" d="M42.5514 23.4943C42.1088 24.0437 41.6235 24.773 41.3408 25.1823C40.3861 26.5676 39.4794 28.0077 38.6328 29.4637C37.7888 30.9184 36.9435 32.473 36.3141 34.033C36.1568 34.425 35.5501 36.061 35.7475 36.457C37.1901 38.6836 39.1821 40.7783 41.0848 42.617C43.4514 44.901 45.9821 47.0397 48.5435 49.101C53.0861 52.7583 57.8168 56.125 62.4075 59.6943C63.8595 56.8877 65.5341 54.497 67.5408 52.0037C68.2768 51.089 70.0301 49.1383 70.0608 47.9223C70.0701 47.5103 69.9208 47.133 69.7101 46.785C68.5461 44.8556 66.1528 42.6756 64.4755 41.1743C61.7395 38.729 58.8501 36.421 55.9661 34.1543C53.3568 32.105 50.7235 30.085 48.1088 28.0383C46.2461 26.577 44.3208 25.0797 42.5514 23.4943ZM28.8901 54.549C27.9648 55.8703 30.3701 57.9863 31.2141 58.7743C33.1648 60.5956 35.3395 62.2943 37.4501 63.9303C39.2808 65.3477 41.1315 66.737 42.9715 68.1397C44.0101 68.9343 45.3541 69.8823 46.2795 70.7916C47.9168 72.3983 50.3941 69.8943 48.7608 68.289C43.9354 63.549 38.1248 59.957 32.8928 55.701C32.0781 55.0397 31.1141 53.701 29.9421 53.861C29.4955 53.921 29.1448 54.1836 28.8901 54.549ZM25.6755 59.725C24.7515 61.049 27.1554 63.1663 27.9994 63.953C29.9514 65.7757 32.1248 67.4743 34.2355 69.1103C36.0661 70.5277 37.9154 71.9157 39.7568 73.3183C40.7954 74.113 42.1394 75.0623 43.0648 75.9703C44.7008 77.5797 47.1795 75.0717 45.5461 73.4677C40.7208 68.7276 34.9101 65.1343 29.6781 60.8796C28.8635 60.2183 27.8994 58.8797 26.7288 59.0397C26.2821 59.101 25.9301 59.3623 25.6755 59.725ZM22.2835 64.5477C21.3581 65.8703 23.7621 67.9877 24.6075 68.7743C26.5581 70.597 28.7315 72.2956 30.8421 73.9316C32.6728 75.349 34.5234 76.737 36.3634 78.141C37.4034 78.933 38.7475 79.8836 39.6715 80.7916C41.3088 82.3996 43.7874 79.8943 42.1541 78.2903C37.3274 73.5476 31.5168 69.957 26.2848 65.701C25.4701 65.0397 24.5061 63.701 23.3354 63.861C22.8888 63.9223 22.5355 64.185 22.2835 64.5477ZM38.3715 11.4983C37.2115 13.1263 36.1488 14.849 34.9381 16.433C33.2288 18.6704 31.4835 20.881 29.8488 23.1716C24.6261 30.4836 20.1115 38.4117 15.7155 46.2423C11.9368 52.977 8.22745 59.7743 4.19945 66.3637C6.91412 68.253 9.59144 70.2237 12.2594 72.1757C16.2821 75.1197 20.2901 78.0797 24.3008 81.041C28.9341 84.4597 33.5648 87.8837 38.2208 91.2717C39.9608 92.5397 41.7021 93.801 43.4581 95.0423C44.4781 95.7623 45.5354 96.5237 46.5994 97.1743C51.7994 100.356 53.9101 96.1023 56.3688 92.109C62.6581 81.8957 69.8755 72.281 75.9754 61.949C76.6341 60.833 77.4994 59.7156 78.2888 58.6876C79.3741 57.273 80.4874 55.8757 81.5914 54.473C82.6968 53.0703 83.8008 51.6583 84.8528 50.2156C85.5448 49.2676 86.3941 48.109 86.8954 47.0503C87.9328 44.861 82.5488 39.829 81.2034 38.5956C76.1501 33.9583 70.1888 29.7236 64.5261 25.8543C59.3621 22.3303 54.0901 18.9464 48.7688 15.6664C45.7128 13.7797 42.6221 11.8983 39.5048 10.1063C39.1315 10.5757 38.7595 11.0517 38.3715 11.4983ZM43.8888 8.62502C46.5834 10.261 49.2555 11.9503 51.9128 13.641C56.5341 16.5823 61.1221 19.5743 65.6701 22.629C69.5488 25.2343 73.4061 27.8837 77.1914 30.6223C79.9661 32.6317 82.7848 34.7157 85.4088 36.937C86.0208 36.0943 86.5914 35.4437 87.2968 34.7304C86.3034 34.2397 85.3235 33.6823 84.3808 33.1343C82.5928 32.097 80.8341 31.001 79.0874 29.8943C74.7768 27.161 70.5208 24.3343 66.2475 21.5436C61.0821 18.169 55.8235 14.7117 50.4421 11.6983C48.6501 10.6957 46.6941 9.63567 44.7701 8.91434C44.6301 8.861 44.2808 8.73968 43.8888 8.62502ZM44.2314 5.073C50.9368 6.30633 62.8981 14.5316 67.3768 17.541C72.0875 20.7063 76.7355 23.9743 81.4781 27.0943C83.2648 28.2677 85.0861 29.4423 86.9488 30.4957C87.8155 30.985 89.0208 31.657 90.0528 31.9917C90.2794 31.7557 90.5061 31.5183 90.7288 31.2796C91.4221 30.5396 92.4821 29.2583 92.2034 28.1463C91.8874 26.8796 89.8381 25.7743 88.7821 25.217C85.8168 23.653 82.8181 22.1543 79.8034 20.693C73.5061 17.6396 67.2154 14.5703 61.1581 11.0596C58.4474 9.48898 55.6608 8.05698 52.8541 6.66232C51.0021 5.74232 48.1314 3.75565 45.9861 3.99565C45.4088 4.21432 44.7994 4.62099 44.2314 5.073ZM45.5128 0.0810013C50.5661 -0.73233 57.2621 4.72897 61.4314 7.14363C69.4168 11.773 77.7168 15.813 86.0034 19.865C86.7221 20.2157 87.5141 20.5143 88.2554 20.825C89.3474 21.2823 90.4315 21.761 91.4821 22.305C93.3915 23.293 96.1994 24.985 96.5248 27.3263C96.6141 27.957 96.5114 28.581 96.2568 29.1623C95.2781 31.4036 93.6301 33.2023 91.9674 34.9557C91.8248 35.193 91.6355 35.3956 91.4074 35.5463C90.2381 36.7783 89.1008 38.009 88.0808 39.361C88.5648 39.8437 89.0394 40.361 89.4328 40.901C91.2008 43.3357 91.5434 46.1383 89.9661 48.7743C89.1488 50.1436 88.1914 51.4837 87.2608 52.7783C86.0608 54.449 84.8314 56.101 83.6034 57.753C82.3834 59.3957 81.1621 61.037 79.9661 62.6983C79.0621 63.9557 78.1288 65.257 77.3288 66.5837C71.9181 75.5757 65.5408 83.9343 60.0408 92.8677C57.0968 97.6517 52.8448 105.126 46.1408 101.025C43.1461 99.1943 40.1621 97.0836 37.2661 95.0956C32.4528 91.789 27.6675 88.4357 22.9088 85.0503C18.5101 81.921 14.1288 78.761 9.80746 75.525C8.08212 74.233 6.36212 72.925 4.67145 71.5876C3.49145 70.653 2.2888 69.6903 1.18213 68.669C1.1048 68.5983 1.02479 68.5316 0.944794 68.4636C0.146128 67.785 -0.345891 67.0103 0.292776 65.9837C3.17944 61.3383 5.88211 56.5303 8.59411 51.7823C12.0394 45.757 15.4835 39.7303 19.0461 33.773C23.1955 26.8343 27.5301 19.853 32.3075 13.3263C35.4248 9.06898 40.0168 3.16768 44.5274 0.355675C44.8248 0.170341 45.1635 0.0730057 45.5128 0.0810013Z" fill="#FFD600"/>
</svg>
