<?xml version="1.0" encoding="utf-8"?>
<svg width="94" height="76" viewBox="0 0 94 76" fill="none" xmlns="http://www.w3.org/2000/svg">
<path fill-rule="evenodd" clip-rule="evenodd" d="M12.0373 27.9957C12.2699 34.3476 13.4262 42.0683 16.0357 47.9086C22.4324 42.1376 29.0146 36.5725 35.8231 31.2925C37.7013 29.833 39.6019 28.4055 41.4998 26.9736C41.7227 26.8054 42.2851 26.401 42.794 26.0098C42.6407 26.0191 42.5005 26.0262 42.3795 26.0337C41.0994 26.0835 39.8201 26.154 38.5388 26.2239C34.8298 26.428 31.1212 26.6593 27.4128 26.8985C24.2149 27.1045 21.0134 27.3198 17.8143 27.5508C15.8929 27.687 13.9574 27.8187 12.0373 27.9957ZM45.6108 23.3204C40.4313 23.5097 35.2508 23.7364 30.0788 24.037C26.2721 24.2572 22.4561 24.5145 18.6586 24.883C17.124 25.0357 15.5842 25.2049 14.0593 25.426C12.9718 25.5876 11.8288 25.7692 10.7664 26.0594C10.7252 26.0719 10.6887 26.0866 10.6501 26.108C10.3404 26.2775 10.1074 26.5425 10.0178 26.8831C10.0128 26.8974 10.0075 26.9159 9.99777 26.9328C9.4403 28.3582 9.70605 31.4838 9.86462 33.0006C10.1891 36.1257 10.7996 39.3059 11.5916 42.347C12.2951 45.0432 13.187 47.818 14.3904 50.3335C14.7635 51.1088 15.6962 51.4729 16.435 50.9462C27.1289 43.327 35.7079 33.0069 46.7146 25.7737C48.0303 24.9085 47.0246 23.0365 45.6108 23.3204ZM70.2733 5.66441C65.9168 6.06719 61.5628 6.45911 57.2174 6.95677C57.6098 8.03692 57.9798 9.12664 58.4523 10.1757C59.1835 11.8032 56.6347 12.7877 55.9079 11.1766C55.3384 9.91094 54.9131 8.58802 54.4251 7.29348C51.807 7.62378 49.1906 8.00275 46.5898 8.45446C45.4952 8.64427 44.4014 8.83042 43.3065 9.01738C43.5045 9.91225 43.5805 10.1893 44.2663 11.2113C44.5244 11.5988 44.5823 12.0626 44.3892 12.4932C43.9579 13.449 42.6265 13.6761 42.0008 12.7435C41.3589 11.7837 40.7319 10.6517 40.5458 9.4827C37.3329 10.024 34.1222 10.5687 30.9154 11.1534C31.0555 11.9573 31.254 12.7385 31.6228 13.4706C32.4242 15.0642 29.8934 16.086 29.0992 14.5107C28.6468 13.6068 28.4007 12.6432 28.2297 11.6555C27.0095 11.8896 25.7885 12.1321 24.571 12.3849C22.2983 12.8559 20.03 13.3534 17.7536 13.8188C18.0038 14.3403 18.2895 14.8479 18.6056 15.3265C19.585 16.805 17.3164 18.3275 16.3375 16.8523C15.8217 16.0756 15.3679 15.2305 15.0017 14.3659C14.3801 14.4824 13.7594 14.6002 13.134 14.706C11.7735 14.9472 10.4051 15.1299 9.03817 15.3417C9.08779 16.4263 9.35776 17.4825 9.65468 18.5311C9.96064 19.6179 8.89366 20.5881 7.86414 20.2513C7.4515 20.1196 7.1726 19.7904 7.05572 19.3778C6.72506 18.2069 6.41626 17.0305 6.32839 15.8217C5.17534 16.0658 4.03961 16.3754 2.9369 16.7964C3.29214 20.2903 3.5987 23.7926 3.91442 27.2893C4.45809 33.2617 4.98327 39.2301 5.49558 45.2033C5.94489 50.4199 6.3804 55.6373 6.79182 60.8568C7.0543 64.1625 7.31972 67.4776 7.51852 70.7906C7.85872 70.4387 8.2154 70.0973 8.55699 69.7718C9.61541 68.752 10.7097 67.7626 11.803 66.7814C15.0064 63.9159 18.277 61.1116 21.5404 58.3183C30.5369 50.6152 39.5756 42.9692 48.5007 35.1884C57.637 27.2216 66.9992 19.5296 76.5344 12.0462C79.4158 9.78448 82.3154 7.5482 85.2079 5.30601C85.9461 4.73432 86.6857 4.15993 87.4131 3.57917C86.6487 3.71113 85.8787 3.8369 85.1097 3.95451C81.1438 4.56245 77.1343 5.01111 73.1379 5.39688C73.4586 6.38689 73.5587 7.48773 73.6511 8.49641C73.8137 10.263 71.0908 10.4963 70.9282 8.72972C70.8866 8.26896 70.7801 5.98886 70.2733 5.66441ZM4.96964 75.1908C4.76418 74.594 4.59025 72.7052 4.53708 72.2317C4.28354 69.963 4.06767 67.686 3.86069 65.413C3.24138 58.6841 2.69498 51.9474 2.17582 45.2109C1.65213 38.3846 1.15047 31.5482 0.76569 24.7126C0.638783 22.4427 0.51382 20.1586 0.460181 17.8837C0.445094 17.2296 0.431787 16.5613 0.457097 15.9056C0.474844 15.5088 0.469893 14.8823 0.897869 14.689C2.53869 13.941 4.38064 13.4299 6.13108 13.0128C8.21268 12.5174 10.3265 12.1323 12.4338 11.7737C15.8042 11.2028 19.2496 10.7442 22.5862 10.0267C41.8911 5.8731 61.5026 4.6858 81.0031 1.94007C84.8133 1.40348 88.6138 0.805835 92.3999 0.108168C93.9406 -0.174179 94.5187 2.28165 93.1134 2.78063C87.3947 7.25696 81.7918 11.9029 76.2318 16.5757C69.7227 22.0456 63.2674 27.5806 56.8285 33.1336C45.178 43.188 33.6111 53.3507 21.8794 63.3076C18.0923 66.523 14.261 69.783 10.3249 72.812C9.31666 73.5894 8.25592 74.3962 7.17478 75.0695C6.68835 75.3732 5.67152 76.0475 5.14373 75.5083C5.05612 75.4206 4.99884 75.3086 4.96964 75.1908Z" fill="#FFD600"/>
</svg>
