<?xml version="1.0" encoding="utf-8"?>
<svg width="40" height="49" viewBox="0 0 40 49" fill="none" xmlns="http://www.w3.org/2000/svg">
<path fill-rule="evenodd" clip-rule="evenodd" d="M16.8888 40.2511C17.1395 39.8391 17.2568 38.9044 17.2861 38.4311C17.3448 37.4871 17.2408 36.4751 16.9075 35.5831C15.8835 32.8404 13.2181 32.5511 10.6488 33.0298C6.97275 33.7138 3.52615 36.6644 3.21282 40.5484C3.09415 42.0297 3.30878 43.6711 4.57278 44.6271C6.48211 46.0724 9.75945 45.3418 11.7754 44.5058C13.6034 43.7431 16.0314 42.2177 16.8514 40.3231C16.8621 40.2964 16.8755 40.2751 16.8888 40.2511ZM18.9594 33.7018C20.4861 22.9698 21.4115 12.1551 23.1221 1.44574C23.4555 -0.655598 26.7221 -0.727558 26.1674 2.98577C26.5861 8.90311 39.5941 10.4604 38.9981 18.0564C38.8088 20.4657 37.2901 22.3151 35.2568 23.4938C33.3941 24.5724 30.6315 25.4097 29.3555 27.2044C27.2275 30.1991 30.3528 32.4098 32.6568 33.8831C34.3621 34.9698 32.9114 37.7431 31.1928 36.6444C28.5634 34.9671 25.6555 32.2378 25.7915 28.8418C25.9195 25.6391 28.7101 23.4098 31.3301 22.0524C35.0941 20.1058 37.4368 17.7364 33.5555 14.2457C31.0488 11.9911 27.9861 11.4191 25.6021 9.06845C25.2888 12.8405 25.1461 16.6364 24.8928 20.4138C24.3701 28.1284 23.4088 38.9764 17.5034 44.6364C14.9594 47.0711 11.8288 48.2831 8.35676 48.6311C2.98076 49.1698 -0.705881 45.4804 0.114119 40.0844C0.684786 36.3551 3.02747 33.2605 6.33547 31.5018C9.21681 29.9671 12.9048 29.4724 15.9088 30.9644C17.1981 31.6058 18.2154 32.5458 18.9594 33.7018Z" fill="#FFD600"/>
</svg>
