<?xml version="1.0" encoding="utf-8"?>
<svg width="127" height="103" viewBox="0 0 127 103" fill="none" xmlns="http://www.w3.org/2000/svg">
<path fill-rule="evenodd" clip-rule="evenodd" d="M115.959 70.6676C117.786 69.6216 119.612 68.57 121.43 67.5092C118.755 66.2147 115.861 65.0574 113.071 63.9947C113.882 66.2072 114.782 68.3938 115.876 70.4858C115.906 70.5433 115.935 70.6045 115.959 70.6676ZM72.6409 95.9403C85.594 87.5723 99.1517 80.2058 112.565 72.5982C112.522 72.5352 112.483 72.4647 112.444 72.3961C110.701 69.0652 108.944 65.5655 107.979 61.9138C107.499 61.3945 107.351 60.649 107.549 59.9757C107.39 59.0466 107.293 58.1007 107.295 57.1568C96.2487 60.738 76.9536 69.5029 70.2146 77.9562C65.2471 84.1988 67.7624 90.7567 72.6409 95.9403ZM56.3749 90.7771C57.9479 91.9956 59.5339 93.2011 61.1439 94.3713C63.0879 95.7864 65.631 97.6688 67.8347 98.7241C68.1111 98.6573 68.3763 98.572 68.636 98.4737C62.5907 94.0041 61.5316 83.4384 64.6423 76.9566C62.4461 74.6327 60.0161 72.5352 57.6455 70.3838C53.6425 73.5867 51.9991 77.7132 53.0471 82.8023C53.4255 84.6291 54.1062 86.391 54.9317 88.062C55.2341 88.674 55.5568 89.2749 55.8889 89.8702C56.041 90.1465 56.2321 90.4692 56.3749 90.7771ZM67.5435 44.5231C66.9481 45.2427 67.3877 46.9861 67.831 47.6426C68.4376 48.5384 69.8399 48.9 70.5985 47.982C71.2849 47.1474 71.5056 45.7583 71.1124 44.7531C70.8249 44.0224 70.2201 43.9223 69.5394 44.0057C69.2333 44.1782 68.8846 44.2487 68.5414 44.232C68.3838 44.2821 68.2298 44.3358 68.0777 44.3952C67.9071 44.4619 67.7271 44.5064 67.5435 44.5231ZM68.1352 40.2854C63.7891 40.2668 62.5666 45.1407 63.9207 48.5606C65.2507 51.9138 69.4949 53.7091 72.5704 51.4687C74.8984 49.7699 75.7108 46.4798 74.9243 43.785C74.0154 40.6711 71.0809 39.64 68.1352 40.2854ZM40.9325 40.0091C49.1425 34.5064 57.6752 29.5583 66.2969 24.7363C68.5693 23.7348 67.3413 20.0757 64.9873 21.0475C64.9558 21.0605 64.928 21.0753 64.8965 21.092C55.8036 26.1236 46.5919 30.7119 38.317 37.088C38.2836 37.114 38.2613 37.1362 38.2298 37.1622C36.4453 38.9389 39.1221 41.6745 40.9325 40.0091ZM60.0588 34.8996C61.9416 33.7497 63.8299 32.6017 65.7201 31.463C67.319 30.4986 68.9366 29.4934 70.5689 28.5884C71.9601 27.8113 71.8155 25.9214 70.5188 25.1759C69.9197 24.8291 69.2203 24.8439 68.6193 25.1777C67.0185 26.068 65.4252 27.0583 63.8559 28.0079C61.2831 29.5676 58.7102 31.1347 56.1374 32.7019C53.3513 34.4062 50.5633 36.1069 47.7698 37.8002C46.7922 38.3918 45.8147 38.9834 44.8316 39.5621C44.4031 39.8217 43.904 40.1426 43.4551 40.3577C43.4106 40.38 43.3754 40.3985 43.3365 40.4282C41.003 42.025 43.0211 45.239 45.0968 43.8759C46.6475 43.1007 48.3077 42.0232 49.7991 41.1274C50.8694 40.4838 51.9397 39.8384 53.0063 39.1875C52.5129 40.0907 52.8468 41.311 53.8336 41.8674C54.4346 42.2012 55.1209 42.1771 55.7163 41.8451C59.9623 39.4601 64.2046 37.0714 68.4487 34.6845C69.8436 33.9 69.6823 31.9934 68.3745 31.259C67.7754 30.9252 67.089 30.9474 66.4936 31.2794C64.3474 32.4886 62.2031 33.6941 60.0588 34.8996ZM100.153 41.8952C92.9395 36.6578 85.8221 31.2293 78.9495 25.5598C74.6071 21.9748 70.3241 18.2712 66.2599 14.3728C63.0768 11.3183 59.8325 7.99661 57.141 4.46358C50.6116 8.03741 43.9968 11.4685 37.4173 14.9533C29.6859 19.0557 21.8154 23.2378 14.3808 27.878C14.5793 28.0412 14.7555 28.1878 14.8557 28.2675C16.1022 29.2616 17.3431 30.2538 18.5841 31.2516C22.333 34.2523 26.0706 37.2624 29.8046 40.278C33.3643 43.1545 36.9202 46.0346 40.465 48.9315C41.7097 49.9534 42.9562 50.9735 44.1916 52.0065C44.7907 52.5091 45.4938 53.058 46.0465 53.6089C47.8477 55.4041 45.0782 58.1842 43.2696 56.3871C41.4073 54.5306 39.1202 52.7057 37.0872 51.0291C33.7483 48.2676 30.3629 45.5525 26.961 42.8633C23.5609 40.1797 20.1366 37.522 16.6735 34.9182C15.3398 33.9148 14.0005 32.9207 12.6427 31.9563C11.973 31.4815 11.2811 30.9864 10.5799 30.5376C8.08319 32.9764 6.33029 35.8992 5.49742 39.3136C4.99473 41.3703 4.93349 43.11 4.96503 45.1482C15.8684 53.8222 25.707 63.4977 35.8796 72.9858C40.4464 77.2459 45.0709 81.4354 49.8752 85.4265C48.176 80.5359 47.6325 75.2058 51.0215 70.8197C54.1526 66.7692 59.6006 64.6865 63.9301 62.1809C69.148 59.1653 74.3864 56.1886 79.6507 53.2509C86.4528 49.4583 92.9952 45.0146 100.153 41.8952ZM61.0716 68.1972C63.0156 69.9684 64.9577 71.7674 66.8256 73.6127C72.7132 67.7466 80.8806 63.4865 88.3653 60.1223C92.9674 58.0581 97.6566 56.1979 102.34 54.3155C105.802 52.9227 109.315 51.5206 112.698 49.9256C109.545 48.4197 106.878 46.6096 103.934 44.5788C95.733 47.676 88.2409 52.9375 80.6301 57.205C75.7034 59.9609 70.7896 62.7447 65.9056 65.5748C64.4216 66.4372 62.5722 67.2403 61.0716 68.1972ZM111.502 59.2209C116.301 60.9513 120.855 63.2844 125.633 65.0629C126.442 65.3615 127 66.0515 127 66.9342C127 68.06 125.047 69.5437 124.249 70.1835C122.207 71.8137 119.986 73.3271 117.812 74.7885C111.443 79.0634 104.83 83.1009 98.2354 87.016C94.455 89.2563 70.9325 103.138 67.5361 102.999C63.6407 102.958 53.0267 93.2048 49.6897 90.4674C32.8764 76.6617 17.0259 61.8823 1.10307 47.0769C-0.967053 45.3651 0.400081 40.1185 1.00479 37.9671C1.57983 35.9196 2.70391 32.4756 3.8651 30.6785C6.89423 25.1536 48.3837 4.64166 56.6976 0.236969C57.5323 -0.20443 58.4821 -0.0115814 59.0887 0.66906C59.2797 0.802597 59.4429 0.969536 59.5765 1.16056C60.6505 2.69803 62.1308 4.2318 63.4385 5.57082C65.5439 7.72588 67.7494 9.79934 69.9735 11.8283C75.7016 17.0601 81.6744 22.0972 87.7178 26.9581C93.496 31.6058 99.4207 36.17 105.507 40.4059C107.939 42.0973 110.419 43.7535 112.964 45.2706C114.678 46.2924 116.599 47.3886 118.473 48.0896C118.579 48.1285 118.679 48.1749 118.775 48.2305C120.476 48.3047 121.394 50.801 119.693 51.8989C117.07 53.5829 114.245 54.8311 111.313 55.8585C111.307 55.8938 111.304 55.9309 111.296 55.9661C111.107 57.014 111.259 58.1675 111.502 59.2209Z" fill="#FFD600"/>
</svg>
