<?xml version="1.0" encoding="utf-8"?>
<svg width="363" height="101" viewBox="0 0 363 101" fill="none" xmlns="http://www.w3.org/2000/svg">
<path d="M121.59 65.3474C124.503 60.9823 127.517 56.6762 132.637 53.2095C129.334 57.4089 126.009 61.6082 121.59 65.3474ZM360.568 6.80991C357.742 5.01122 354.561 3.55859 351.236 2.27171C344.196 -0.447502 337.023 -1.09368 328.961 2.38587C327.817 2.89032 326.685 3.35061 325.267 3.35797C323.983 3.35797 322.976 3.7887 321.934 4.2195C318.318 5.70153 315.653 8.05988 311.502 9.06693C311.278 9.124 311.074 9.28971 310.922 9.42595C308.155 11.7641 303.917 13.016 300.983 15.2382C300.128 15.877 299.258 16.1071 298.448 15.1939C295.926 12.39 292.269 10.4699 288.181 8.63622C284.088 6.79519 279.678 5.90966 275.047 5.48622C271.926 5.21191 268.449 5.36287 265.557 6.40674C259.944 8.44845 254.806 10.9799 249.562 13.3971C247.179 14.5036 245.309 16.0353 242.412 17.0792C241.383 15.3173 240.84 13.6346 238.942 12.2667C236.884 10.7939 234.523 9.61377 231.988 8.70061C226.452 6.70125 220.801 4.78104 214.021 6.09739C211.775 6.52819 209.791 7.06024 208.001 8.09675C205.393 9.60639 202.719 11.1106 199.785 12.333C194.997 14.3453 190.941 16.9061 186.579 19.2497C185.073 20.0708 183.587 20.9122 181.935 21.8254C181.588 21.321 181.277 21.0834 181.284 20.868C181.516 16.525 177.538 14.1942 172.171 12.3605C168.302 11.024 164.115 10.3409 160.116 9.29706C157.666 8.66374 155.024 8.89397 152.683 9.78687C146.606 12.0808 140.599 14.4686 135.449 17.6039C131.211 20.185 127.233 22.9466 123.125 25.6142C122.584 25.9751 122.125 26.5071 120.894 26.2328C120.555 25.594 119.844 24.9238 119.887 24.1046C120.054 21.4443 118.12 19.3878 115.534 17.5099C114.729 16.9134 113.939 16.3096 113.231 15.6763C110.724 13.3824 107.573 11.6554 103.363 10.908C100.763 10.4477 98.1108 10.1237 95.4662 9.76474C88.5116 8.82213 82.2172 10.0887 76.8556 12.8355C72.1116 15.2583 67.0042 17.3885 62.9037 20.3654C59.6731 22.7164 55.7674 24.6735 52.4718 26.9601C46.7913 30.887 41.3444 34.9924 36.3464 39.3225C32.615 42.5517 28.7742 45.7293 25.0874 48.9732C20.2711 53.2168 15.4029 57.4384 10.8518 61.8108C7.69345 64.8522 4.97651 68.1034 1.52146 71.0288C0.130536 72.2163 -0.333122 73.5474 0.239938 75.0202C0.529249 75.7824 0.775901 76.5666 1.02256 77.3435C2.57854 82.1266 8.80987 84.4923 16.0037 83.0618C18.7781 82.5077 21.024 81.4068 23.3348 80.3426C27.7023 78.3286 30.5213 75.3516 34.1933 72.9214C41.4891 68.0887 47.8633 62.7313 55.1294 57.9041C56.9191 56.7185 57.8909 55.1371 59.7232 53.9146C63.5918 51.3464 67.3807 48.6989 70.8283 45.895C76.0878 41.6091 82.7105 38.2363 88.4837 34.302C89.4462 33.6485 90.9318 33.3024 92.2207 32.7998C92.8512 33.8197 92.395 34.6684 92.0037 35.5043C90.1343 39.5527 88.1573 43.5643 86.3528 47.6219C83.0202 55.1646 78.6824 62.4791 74.5671 69.8432C74.1461 70.5907 73.6899 71.3031 72.7552 71.8775C68.8736 74.2377 68.2356 77.1134 69.8806 80.3003C70.1773 80.8526 70.0327 81.335 69.7137 81.8174C68.9088 83.0619 69.6414 84.0395 70.858 84.9674C72.8868 86.5194 74.7488 88.1891 75.7558 90.0946C76.965 92.418 79.7246 94.0786 81.1879 96.2639C81.377 96.5603 81.8759 96.8898 82.3247 96.9616C84.5205 97.3151 85.4775 98.4511 86.657 99.5373C88.1147 100.896 90.418 101.399 92.2503 100.658C93.9899 99.968 95.6052 99.8539 97.5674 100.005C100.038 100.191 101.653 99.552 101.864 98.2356C102.226 96.0411 103.407 93.9626 103.929 91.8344C105.138 86.7715 106.912 81.8891 111.187 77.5093C111.708 76.9699 111.629 76.3145 111.94 75.7622C112.868 74.0077 114.201 72.3673 116.317 71.0951C117.177 70.5612 118.07 70.6275 118.431 71.4818C118.648 71.9862 118.78 72.5109 118.902 73.0356C119.54 75.6314 120.011 78.2567 123.06 80.3058C123.756 80.7734 123.96 81.5651 124.336 82.2205C126.632 86.1898 129.523 89.8995 134.392 92.8414C136.493 94.1136 136.752 94.1725 138.963 92.8414C140.135 92.1289 141.027 91.1661 142.628 90.8071C146.381 89.951 148.004 87.8357 148.047 85.6725C148.084 82.6292 149.784 80.2414 152.422 77.9401C153.56 76.9552 154.508 75.8836 155.458 74.8121C160.812 68.8361 166.759 63.14 173.517 57.79C177.351 54.7615 181.088 51.6851 184.891 48.6345C187.05 46.902 189.702 45.4495 191.52 43.4925C192.347 42.6088 192.831 41.6165 194.07 40.8322C197.641 38.5806 201.669 36.6108 204.488 33.8639C204.88 33.4828 205.364 32.9434 206.727 33.1514C205.386 35.6552 203.596 38.0062 201.772 40.3223C197.758 45.4127 192.686 50.1238 189.216 55.4095C188.398 56.6614 187.406 57.6814 185.537 58.416C182.66 59.5519 181.451 61.3561 181.414 63.5506C181.386 65.1044 181.523 66.708 180.973 68.1881C180.437 69.6278 180.995 70.692 181.9 71.9365C183.515 74.1863 186.486 75.9555 187.551 78.3286C189.709 83.0968 193.955 86.9151 199.025 90.518C202.482 92.985 206.211 93.4029 210.675 92.267C214.709 91.2231 216.695 89.1171 217.274 86.4052C217.47 85.4479 217.615 84.4353 217.324 83.5074C216.628 81.2484 217.63 79.1846 218.273 77.0269C219.599 72.6839 222.954 68.908 226.699 65.4635C229.366 63.0333 231.624 60.4429 234.341 58.0422C235.306 57.1935 235.717 56.1423 236.914 55.3727C240.84 52.8284 244.274 49.995 247.896 47.2684C252.084 44.1331 256.501 41.1415 261.733 38.113C261.509 38.7684 261.472 39.0132 261.335 39.236C258.575 43.7447 254.662 47.8944 251.09 52.1233C248.599 55.0928 245.832 58.0845 240.869 59.7672C239.022 60.3931 237.883 61.6156 237.21 62.8528C235.899 65.2627 235.385 67.7868 236.196 70.3311C236.537 71.375 237.016 72.4612 236.724 73.4609C235.971 76.0568 238.03 77.9327 240.037 79.8602C240.725 80.5157 241.455 81.1545 242.071 81.8247C245.389 85.5343 248.223 89.4319 252.707 92.6482C253.974 93.5613 255.467 94.4744 256.105 95.5735C257.082 97.2636 258.69 97.6963 261.118 97.4864C261.913 97.4146 262.696 97.3575 263.508 97.5305C265.849 97.9908 267.948 97.3869 269.411 96.3652C271.904 94.6401 274.483 92.6039 275.134 90.3965C276.366 86.2247 278.467 82.2334 279.915 78.1206C281.458 73.7702 283.4 69.44 287.067 65.5573C289.457 63.0111 292.102 60.5221 293.854 57.7974C296.063 54.3804 300.627 52.1454 303.229 48.9585C303.793 48.2681 305.562 48.2037 305.989 47.1819C306.973 44.7941 309.894 43.1114 312.29 41.4802C317.39 38.0136 322.368 34.4971 327.171 30.8574C327.518 30.5849 327.932 30.261 328.512 30.434C329.315 30.6568 329.141 31.1374 328.909 31.5626C328.627 32.0524 328.308 32.5402 327.961 33.0152C325.028 36.8906 322.882 40.9611 320.608 45.0169C317.398 50.7057 316.675 56.6761 315.304 62.5803C315.182 63.105 315.291 63.6445 315.304 64.1692C315.356 65.4855 316.231 66.2477 318.333 66.5496C320.434 66.8294 320.84 65.8868 321.55 65.0529C322.637 63.7365 323.166 62.1127 325.128 61.2788C327.353 60.3362 328.547 58.9627 329.388 57.5377C332.75 51.8857 337.067 46.5633 341.674 41.3219C344.014 38.6745 345.839 35.8117 348.514 33.3319C350.441 31.5184 352.215 29.6847 353.562 27.7074C354.591 26.1904 355.409 24.6367 356.59 23.1344C359.604 19.294 362.212 15.3596 362.937 10.9725C363.233 9.19034 362.495 8.03973 360.568 6.80991Z" fill="#FFD600"/>
</svg>
