<?xml version="1.0" encoding="utf-8"?>
<svg width="385" height="145" viewBox="0 0 385 145" fill="none" xmlns="http://www.w3.org/2000/svg">
<path d="M328.168 93.3633C327.629 93.4241 327.095 93.2288 327.037 92.7522C326.969 92.2573 327.463 92.0491 327.996 91.9547C328.557 91.9559 329.084 92.0602 329.135 92.5566C329.174 93.0198 328.69 93.3188 328.168 93.3633ZM295.012 108.844C294.165 109.772 293.226 110.728 291.608 110.857C292.414 109.64 292.211 108.409 291.814 107.194C291.454 106.109 291.643 105.087 292.241 104.069C292.438 103.737 293.336 103.577 293.665 103.798C295.001 104.758 295.914 107.842 295.012 108.844ZM288.171 103.785C287.494 103.783 287.358 103.362 287.246 102.93C287.152 102.222 287.551 101.707 288.166 101.746C288.811 101.783 289.084 102.124 289.17 102.558C289.289 103.172 288.789 103.781 288.171 103.785ZM274.864 109.17C274.524 109.506 274.087 109.777 273.496 109.694C272.911 109.611 272.615 109.279 272.486 108.84C272.151 107.744 272.827 106.763 273.15 105.737C273.181 105.617 273.578 105.56 273.803 105.464C273.924 105.496 274.082 105.491 274.178 105.541C275.62 106.368 275.947 108.045 274.864 109.17ZM268.454 103.508C268.369 103.964 267.968 104.28 267.323 104.252C266.585 104.223 266.555 103.776 266.543 103.153C266.67 102.285 266.533 101.149 268.015 100.515C268.12 100.464 268.345 100.445 268.407 100.491C269.725 101.444 268.627 102.494 268.454 103.508ZM261.214 113.194C261.095 113.379 260.893 113.547 260.705 113.704C259.695 114.505 258.521 114.84 257.816 114.533C257.035 114.182 256.977 113.497 257.618 112.211C257.825 111.801 257.957 111.357 258.251 111C258.448 110.766 258.875 110.655 259.123 110.528C260.278 110.553 261.051 110.902 261.499 111.64C261.83 112.185 261.506 112.704 261.214 113.194ZM248.458 113.698C247.722 113.769 247.089 113.597 246.862 113.001C246.52 112.125 247.246 111.147 248.295 110.983C249.598 110.78 250.713 111.31 250.7 112.127C250.691 112.926 249.825 113.548 248.458 113.698ZM245.833 118.3C245.322 119.159 244.241 119.733 243.203 119.613C242.242 119.505 241.418 119.174 241.176 118.296C241.032 117.784 240.79 117.28 240.554 116.668C240.576 116.457 240.64 116.128 240.683 115.817C240.814 114.724 241.227 114.265 242.154 114.077C243.199 113.88 243.561 114.49 244.029 114.991C244.507 115.5 245.01 115.997 245.521 116.494C246.076 117.039 246.236 117.633 245.833 118.3ZM221.888 119.314C221.188 119.531 220.32 118.957 220.274 118.32C220.054 117.216 220.903 116.385 221.318 115.485C221.525 115.052 222.25 115.122 222.728 115.348C223.572 115.743 224.222 116.286 224.095 117.153C223.951 118.231 223.151 118.94 221.888 119.314ZM140.272 129.144C139.495 129.242 138.862 128.863 138.96 128.356C139.061 127.856 139.513 127.659 140.019 127.525C140.646 127.531 141.043 127.795 141.123 128.23C141.196 128.681 140.907 129.038 140.272 129.144ZM117.61 128.625C116.953 128.581 116.89 128.113 116.912 127.696C116.921 127.395 116.993 127.065 117.515 127.004C118.126 127.126 118.261 127.53 118.263 127.954C118.266 128.288 118.073 128.663 117.61 128.625ZM67.1367 132.115C66.6714 132.255 66.1278 131.952 66.0318 131.528C65.882 130.95 66.3134 130.413 66.9735 130.399C67.5819 130.382 67.9095 130.712 67.9404 131.15C67.9678 131.572 67.6985 131.952 67.1367 132.115ZM47.4821 132.391C46.8979 132.492 46.3811 132.327 46.2546 131.823C46.1387 131.34 46.4186 130.984 47.0645 130.829C47.6317 130.806 48.206 130.866 48.2836 131.4C48.3739 131.857 48.1174 132.288 47.4821 132.391ZM377.633 57.2086C375.04 57.1887 372.967 56.3086 370.847 55.3578C369.952 54.9588 368.547 55.0614 367.891 54.527C367.219 53.9941 367.294 52.914 366.877 52.142C366.136 50.799 365.167 49.7246 362.886 50.1255C361.973 50.2863 360.887 50.3042 360.062 50.0336C358.395 49.5023 356.671 49.3912 354.899 49.2907C353.951 49.2309 353.01 49.0874 352.113 48.8633C351.19 48.6266 350.413 48.143 350.17 47.3562C349.545 45.3109 351.213 43.3878 353.885 43.0772C354.697 42.9932 355.615 43.2729 356.285 42.7898C357.61 41.8695 358.639 40.5845 360.727 40.7816C360.82 40.7908 361.107 40.4233 361.101 40.2492C361.052 39.1966 362.597 39.0735 362.956 38.2782C361.339 37.4592 359.859 37.6427 358.375 38.5595C358.049 38.7619 357.582 38.578 357.54 38.1811C357.514 37.9829 357.612 37.7426 357.773 37.5797C358.349 36.9809 359.288 37.1246 360.028 36.8635C361.451 36.3162 362.09 35.5801 361.374 34.5269C360.858 33.7718 360.9 33.3848 361.612 32.9086C362.151 32.5538 362.773 32.3092 363.332 31.9867C364.768 31.1912 365.255 29.8437 364.7 28.3335C364.46 27.6722 365.07 26.9705 365.94 26.8879C366.819 26.8045 367.577 26.9913 368.149 27.4902C368.681 27.9626 369.089 28.5351 369.599 29.0242C369.872 29.2823 370.274 29.3823 370.7 29.1884C371.127 28.9944 371.278 28.6065 371.085 28.331C370.338 27.2889 369.814 26.3429 370.729 25.025C371.326 24.1752 369.034 22.1801 367.747 22.3984C366.199 22.6707 364.841 22.6203 363.467 21.9895C362.666 21.6337 361.652 21.4857 360.72 21.45C357.617 21.3222 355.046 20.1754 352.338 19.2086C350.492 18.5413 348.745 17.1753 346.368 18.411C346.136 18.5202 345.546 18.3723 345.272 18.1954C344.396 17.6116 343.286 17.54 342.275 17.2511C338.999 16.2836 335.418 16.237 332.005 16.0205C328.762 15.83 325.935 15.0225 323.074 14.1178C322.036 13.7822 321.068 13.5238 319.942 13.8434C319.551 13.9597 319.133 14.072 318.742 14.0797C317.629 14.0744 316.949 12.9498 315.766 13.3083C314.642 13.647 313.727 14.1893 312.367 14.2305C310.7 14.2808 309.147 14.6795 307.852 13.5242C307.562 13.2591 306.724 13.1132 306.333 13.2551C304.678 13.9457 303.111 13.3804 301.518 13.3413C297.931 13.2376 294.402 13.2142 291.164 14.9387C290.484 15.2949 289.666 15.5221 288.893 15.7563C287.963 16.0251 287.23 15.8553 287.075 15.012C286.844 13.7832 286.078 13.3392 284.515 13.7238C284.187 13.8006 283.729 13.616 283.39 13.4531C282.643 13.1247 282.165 13.3146 281.685 13.8646C280.954 14.7002 279.98 15.3243 278.858 15.7948C277.348 16.4304 276.175 15.8058 276.245 14.4598C276.261 14.3434 276.344 14.2447 276.341 14.1278C276.445 12.7874 276.175 12.561 274.663 12.5641C273.142 12.5764 271.94 12.8875 271.719 14.3296C271.67 14.6426 271.43 14.9615 271.185 15.2252C270.194 16.3237 268.787 16.3113 267.481 15.3061C266.871 14.8254 266.292 14.4848 266.764 13.6691C267.066 13.1704 266.687 12.8363 266.055 12.773C265.37 12.7056 264.65 12.5922 264.008 12.715C260.999 13.2866 258.002 13.0516 255.013 12.9056C253.194 12.8198 251.478 12.9979 249.888 13.8576C248.697 14.4916 247.426 14.6915 245.965 14.5006C243.349 14.1395 240.833 14.4134 238.632 15.9643C237.813 16.5433 236.748 16.9003 235.764 17.3079C233.834 18.1135 232.194 17.8121 231.116 16.2315C230.743 15.6965 230.559 15.3969 229.774 15.3956C228.947 15.4085 227.987 15.5243 227.361 15.2282C225.56 14.4058 223.692 14.7332 221.778 14.7449C218.664 14.7948 216.191 15.6787 214.508 17.9035C214.213 18.2865 213.831 18.8005 213.299 18.7307C211.188 18.3927 208.567 19.4 207.098 17.2859C206.547 16.4913 205.206 16.4477 204.171 16.4783C203.071 16.5038 203.424 17.507 203.042 18.0466C202.558 18.7462 201.781 18.9445 200.99 18.4792C199.916 17.8547 198.998 16.9764 197.504 17.0205C195.312 17.0899 193.217 17.6177 191.084 17.9911C188.903 18.394 186.492 17.841 184.203 18.3533C183.283 18.5552 182.444 19.0101 181.608 19.3902C181.1 19.6082 180.525 19.9234 180.089 19.626C178.811 18.7441 177.426 19.0623 175.907 19.0915C173.635 19.1188 171.421 18.8258 169.238 19.702C168.938 19.8192 168.445 19.6118 168.046 19.5542C165.885 19.2055 163.781 19.1185 161.868 20.4212C161.394 20.7449 160.803 20.5864 160.386 20.2811C158.469 18.8784 156.079 19.2821 153.761 19.3559C153.029 19.3756 152.417 19.6535 152.085 20.1803C151.293 21.4792 150.091 21.9885 148.381 21.644C147.53 21.4757 147.086 21.8374 146.937 22.4488C146.816 22.9832 146.794 23.5347 146.766 24.0867C146.721 25.1132 145.864 25.6528 144.839 26.0809C143.896 26.4872 142.873 26.1568 142.506 25.3975C142.073 24.5353 142.344 23.69 142.462 22.8128C142.583 21.8715 142.127 21.4266 141.151 21.644C139.88 21.9439 138.694 21.9448 137.556 21.5495C136.206 21.0999 135.272 22.3192 134.018 22.1171C133.755 22.0649 133.497 21.9718 133.23 21.986C131.73 22.0306 130.219 22.0591 128.726 22.1863C127.074 22.3355 126.773 22.6274 126.986 24.1475C127.084 24.789 126.969 25.2313 126.284 25.5219C125.427 25.8696 124.528 26.189 123.602 26.4171C121.867 26.8566 121.065 26.1751 121.507 24.5906C121.698 23.8905 121.381 23.6022 120.683 23.3526C120.037 23.1243 119.375 23.0976 118.681 23.2163C115.043 23.7584 111.417 24.376 107.78 24.8604C105.218 25.2106 102.637 25.914 100.072 25.2334C97.4207 24.5344 94.9563 24.9444 92.5708 26.0807C91.7123 26.5032 90.9127 26.6374 89.8619 26.5607C87.6081 26.4032 85.2967 26.3486 83.0279 26.5184C78.7917 26.8279 74.5929 27.4773 70.3596 27.7206C65.5925 28.0029 60.8198 29.074 56.0377 28.1751C55.5526 28.0822 54.9408 28.1599 54.4344 28.2946C52.3565 28.8209 50.0919 28.6387 48.1618 29.7192C47.2331 30.2222 46.0725 30.3126 44.978 30.0245C42.0716 29.2898 40.2665 30.4575 38.8847 32.3989C38.5488 32.877 38.1895 33.3572 37.7941 33.8149C37.3768 34.317 36.7683 34.6351 36.0461 34.4964C34.2449 34.1512 32.838 34.9186 31.4186 35.6147C30.4795 36.0696 29.5996 36.6431 28.6512 37.0903C27.4868 37.639 26.4835 37.2407 26.2611 36.2114C26.1749 35.7777 26.2459 35.3307 26.1358 34.9161C26.0884 34.7625 25.8053 34.5778 25.5745 34.5314C24.5286 34.3115 22.7864 34.7603 22.3525 35.545C21.3211 37.48 19.248 38.3639 17.0512 39.0772C15.5695 39.5443 14.5437 40.3389 13.4222 41.2163C10.4694 43.5557 8.69335 46.4467 6.93488 49.3427C4.54205 53.2578 2.47568 57.2622 3.15578 61.7061C3.20015 62.0261 3.15408 62.3645 3.13047 62.6904C2.6881 67.3215 3.02195 71.8203 5.24584 76.1498C6.57712 78.7166 7.61806 81.4169 6.81834 84.4144C6.4997 85.5729 6.89773 86.8046 7.567 87.9044C8.30693 89.1304 8.25035 90.4263 7.99463 91.7456C7.77947 92.8377 7.59617 93.9271 7.41361 95.0249C6.79692 98.4884 8.79726 101.373 10.3216 104.348C10.6115 104.913 11.289 105.405 11.9373 105.757C14.2756 107.006 16.3978 108.558 19.0577 109.363C20.6613 109.85 21.4885 110.619 21.5771 111.96C21.6242 112.614 21.8752 113.3 21.7027 113.914C21.0251 116.26 21.9934 118.208 23.5602 120.022C24.0599 120.588 24.2785 121.094 24.0132 121.824C23.4955 123.283 23.8495 124.601 24.9804 125.819C25.7717 126.668 25.892 127.881 27.0437 128.539C28.3724 129.316 27.1538 130.711 28.1516 131.549C28.6748 131.988 28.5633 132.538 28.308 133.084C27.9677 133.812 27.6295 134.54 27.4351 135.298C27.037 136.804 27.7764 138.023 29.5001 138.842C30.1274 139.146 30.8149 139.154 31.3392 138.651C31.7041 138.313 31.9706 137.924 32.2299 137.527C32.9365 136.502 33.9437 136.141 35.3292 136.43C36.7844 136.732 38.2154 136.651 39.7514 136.32C41.8683 135.873 43.9325 136.041 46.1486 136.559C49.9443 137.459 51.0291 137.433 52.6607 134.805C52.7294 134.708 52.8385 134.632 52.9503 134.563C53.5136 134.217 54.0382 134.296 54.2802 134.776C54.6749 135.567 54.8797 136.414 56.0509 135.141C56.702 134.444 57.519 134.715 58.1994 135.141C59.1516 135.718 59.9199 135.619 60.6269 134.8C60.938 134.433 61.2938 134.087 61.6933 133.778C62.2374 133.383 63.1168 133.608 63.3317 134.172C63.9638 135.79 63.9638 135.79 65.6414 135.764C66.0414 135.762 66.4841 135.659 66.8594 135.744C68.732 136.149 70.0381 135.857 70.6253 134.132C70.8898 133.394 71.8727 133.353 72.7302 133.42C73.597 133.498 74.2326 133.876 74.7918 134.361C75.4789 134.967 76.3931 135.098 77.3533 135.191C78.2213 135.283 79.0286 135.24 79.3619 134.43C79.8164 133.309 80.6431 132.789 82.1555 132.984C82.7886 133.056 83.5243 132.951 84.1505 132.765C85.266 132.421 85.7465 132.661 85.557 133.577C85.4087 134.273 85.7697 134.592 86.5328 134.733C87.7983 134.969 89.1295 134.896 89.9698 134.059C91.35 132.702 92.6925 132.837 94.269 133.585C94.955 133.901 95.7939 134.028 96.5572 134.246L96.4851 134.304C96.4943 134.311 96.5048 134.334 96.514 134.342C96.5288 134.315 96.5283 134.309 96.5353 134.291C97.6763 133.944 98.9439 133.728 99.9186 133.187C101.738 132.184 103.047 132.829 104.369 133.632C104.997 134.02 105.468 134.553 106.074 134.985C107.052 135.692 108.221 135.867 109.496 135.518C110.622 135.196 110.756 134.429 110.848 133.628C110.879 133.319 111.009 132.984 111.185 132.686C111.694 131.801 112.57 131.585 114.373 131.756C115.606 131.885 115.972 132.361 115.644 133.311C115.475 133.784 115.799 134.349 116.377 134.274C118.669 134.004 121.447 134.707 122.645 132.091C122.965 131.425 123.967 131.331 124.805 131.551C125.311 131.683 125.727 131.98 126.189 132.198C127.715 132.934 129.092 133.025 130.672 131.925C132.1 130.93 133.92 130.707 135.688 131.347C136.922 131.792 137.989 131.752 139.074 130.952C139.441 130.661 140.128 130.387 140.553 130.46C142.716 130.825 144.848 129.579 146.99 130.278C147.71 130.498 148.305 130.224 148.621 129.607C148.974 128.927 149.96 128.451 149.481 127.518C149.232 127.058 149.151 126.406 150.087 126.194C150.875 126.019 151.372 126.483 151.759 126.9C152.154 127.324 152.465 127.831 152.625 128.333C152.854 129.054 152.594 130.033 153.104 130.514C154.004 131.353 154.769 129.565 155.991 130.059C156.589 130.3 157.508 130.007 157.224 129.238C156.86 128.204 157.827 127.583 158.29 126.828C159.076 125.553 160.282 125.493 161.589 126.395C162.549 127.064 162.728 128.088 163.469 128.849C163.753 129.149 164.229 129.126 164.452 128.806C165.229 127.734 165.995 127.678 166.958 128.584C167.485 129.089 167.983 129.138 168.454 128.391C170.256 125.5 172.445 125.098 174.97 127.28C176.053 128.211 177.236 129.034 178.46 129.87C178.649 129.553 178.899 129.342 178.847 129.213C178.416 127.992 178.474 126.89 179.645 125.823C180.812 124.793 182.036 124.946 183.38 125.33C183.536 125.377 184.019 125.061 183.99 125.021C183.341 123.587 185.012 122.878 185.65 121.85C185.884 121.457 186.317 121.037 186.923 121.277C187.372 121.445 187.761 121.796 187.993 122.151C188.611 123.129 188.298 123.981 187.353 124.86C185.727 126.379 185.738 126.713 186.974 128.254C187.387 128.777 187.781 129.391 189.002 129.505C189.018 128.988 189.203 128.422 189.016 127.98C188.487 126.802 189.163 126.195 190.362 125.552C191.578 124.907 192.617 124.836 193.773 125.445C194.15 125.653 194.488 126.183 195.141 125.612C194.967 125.343 194.777 125.076 194.612 124.792C193.468 122.85 193.79 121.824 195.971 120.622C196.648 120.24 197.245 120.39 197.746 120.863C198.648 121.734 198.881 122.805 199.163 123.863C199.316 124.474 198.875 125.202 199.614 125.714C201.453 123.66 201.453 123.66 203.978 124.367C204.576 123.044 205.156 121.695 205.77 120.38C205.984 119.935 206.832 119.788 207.105 120.149C207.959 121.233 208.868 122.287 209.576 123.435C210.236 124.527 211.385 124.961 212.745 125.218C213.755 125.399 214.514 124.993 214.271 124.192C213.592 122.027 214.933 120.106 215.515 118.101C215.58 117.878 216.108 117.593 216.439 117.564C216.787 117.535 217.372 117.711 217.481 117.917C218.709 120.268 221.401 122.036 221.315 124.764C221.809 124.864 222.058 124.952 222.326 124.961C224.525 124.974 224.49 124.943 225.391 123.46C225.967 122.554 226.35 121.648 226.515 120.644C226.638 119.926 227.679 119.596 228.408 120.007C229.498 120.622 230.503 121.344 231.578 121.977C231.745 122.08 232.118 122.039 232.352 121.951C232.773 121.792 232.863 121.467 232.751 121.135C232.327 119.891 231.068 118.956 230.926 117.571C230.774 116.086 231.067 115.196 232.045 114.996C232.89 114.823 234.324 115.483 234.989 116.4C235.253 116.761 235.359 117.21 235.574 117.599C235.878 118.197 236.21 118.778 236.528 119.376C239.008 118.14 239.008 118.14 240.671 119.421C241.047 119.721 241.425 120.039 241.802 120.341C243.305 121.485 244.337 121.647 246.118 120.672C247.171 120.074 248.086 119.631 249.468 119.654C250.976 119.692 251.733 118.963 251.786 117.825C251.83 117.165 251.75 116.522 251.276 115.955C250.633 115.194 251.375 114.756 252.034 114.35C253.043 113.74 253.86 113.705 254.643 114.188C256.715 115.45 257.268 117.418 255.804 119.373C254.927 120.555 255.088 121.647 255.311 122.811C255.348 122.94 255.732 123.033 255.979 123.095C256.083 123.126 256.313 123.092 256.358 123.02C256.568 122.744 256.726 122.441 256.902 122.143C257.767 120.646 258.193 120.418 259.96 120.666C260.72 120.769 261.462 120.938 262.339 121.104C262.006 119.761 261.014 118.712 260.932 117.355C260.86 116.405 261.051 115.705 261.883 114.969C262.465 114.444 263.032 114.047 263.887 113.882C264.777 113.723 265.484 113.889 266.089 114.411C266.251 114.531 266.619 114.657 266.783 114.592C267.21 114.407 267.181 114.06 267.093 113.735C267.06 113.621 267.025 113.515 266.966 113.42C266.664 112.821 266.289 112.229 266.807 111.554C267.276 110.965 267.98 110.604 268.724 110.3C269.088 110.152 269.51 110.099 269.857 110.361C270.951 111.225 271.616 113.548 270.522 114.25C268.558 115.506 268.114 116.984 268.064 118.753C268.055 119.128 267.483 119.501 267.199 119.883C266.936 120.232 266.317 120.908 266.788 120.934C268.621 121.07 269.61 118.847 271.814 119.499C272.122 119.59 272.363 119.077 272.426 118.739C272.933 115.95 273.091 115.845 276.421 115.77C276.937 115.758 277.466 115.781 277.977 115.804C277.961 114.731 278.03 113.66 277.873 112.617C277.784 111.951 277.754 111.321 278.01 110.683C278.271 110.028 278.568 109.404 279.629 109.372C280.028 109.355 280.453 109.351 280.849 109.276C282.295 108.987 282.434 108.832 282.359 107.275C282.33 106.636 282.67 106.232 283.26 105.899C284.034 105.468 284.489 105.879 284.966 106.28C286.072 107.208 286.103 107.472 285.501 108.548C284.991 109.439 284.128 109.805 283.009 110.115C281.883 110.437 281.903 111.251 282.991 111.757C283.45 111.95 284.039 111.983 284.166 112.496C284.296 113.044 283.624 113.218 283.311 113.56C283.234 113.632 283.125 113.742 283.127 113.833C283.112 114.161 283.005 114.568 283.196 114.752C283.405 114.935 283.933 114.956 284.312 114.906C285.39 114.806 285.961 114.25 286.318 113.438C286.803 112.355 286.46 111.261 286.635 110.181C286.734 109.574 287.153 109.198 287.87 108.977C288.586 108.758 289.229 108.852 289.742 109.267C290.364 109.789 290.929 110.34 291.518 110.88C291.51 110.88 291.502 110.89 291.485 110.891C291.503 110.907 291.52 110.905 291.536 110.912C291.554 110.919 291.564 110.944 291.59 110.95C291.59 110.942 291.589 110.933 291.596 110.916C292.604 111.371 293.716 111.56 294.964 111.694C295.675 109.735 296.359 107.873 297.044 105.991C297.24 105.45 297.272 104.94 297.018 104.403C296.474 103.218 297.422 102.081 297.439 100.897C297.442 100.831 297.893 100.658 298.097 100.692C298.327 100.721 298.652 100.928 298.664 101.067C298.712 101.928 298.778 102.798 298.675 103.655C298.429 105.566 299.105 107.321 299.584 109.128C299.661 109.43 300.057 109.654 300.499 109.55C300.693 109.483 300.997 109.208 300.977 109.077C300.608 107.202 301.929 105.434 301.727 103.561C301.699 103.332 302.094 102.972 302.407 102.805C302.919 102.529 303.481 102.647 303.884 102.979C304.873 103.792 305.832 104.652 306.816 105.499C307.861 104.528 306.317 104.07 306.537 103.301C306.742 102.568 306.794 101.798 307.007 101.064C307.342 99.7959 308.195 98.9244 308.807 99.1301C309.831 99.4924 309.958 100.281 310.04 101.041C310.166 102.144 310.963 103.058 311.307 104.069C311.727 105.256 309.691 105.796 309.52 106.927C309.468 107.289 309.503 107.61 309.9 107.768C310.497 108 310.961 107.735 311.224 107.306C311.748 106.403 312.205 105.482 312.748 104.579C313.581 103.176 313.59 103.184 315.807 103.304C316.313 102.285 316.778 101.266 316.718 100.163C316.676 99.4592 317.084 98.8834 317.418 98.2734C317.729 97.7057 318.489 97.6815 319.065 98.0905C319.894 98.6782 319.684 100.06 321.337 100.019C322.389 98.0481 320.793 95.5891 323.581 93.9859C324.663 94.3263 325.824 94.5193 327.024 94.658C327.622 94.7242 328.234 95.1217 328.657 95.4926C329.065 95.8584 328.821 96.3373 328.292 96.5889C327.81 96.8303 327.265 96.9171 326.72 96.6972C326.444 96.5886 326.182 96.0528 325.834 96.598C325.674 96.8716 325.676 97.2698 325.775 97.5617C325.94 98.0377 326.603 98.2646 327.055 98.1601C328.302 97.8792 329.64 97.6139 330.659 97.0116C331.535 96.496 330.545 95.5727 330.701 94.8456C330.853 94.1659 330.827 93.5864 330.376 92.9835C329.816 92.2152 330.039 91.2886 329.909 90.4432C329.685 88.8963 330.766 87.9478 332.088 87.079C332.238 86.9831 332.65 86.9971 332.825 87.0908C333.018 87.198 333.123 87.4489 333.149 87.6534C333.189 87.8502 333.17 88.1095 333.051 88.2859C332.202 89.5065 332.477 90.8659 332.093 92.1385C331.896 92.7881 332.348 93.1736 333.251 93.005C333.82 92.8969 334.345 92.8778 334.781 93.1815C335.137 93.443 335.673 94.0558 335.731 94.0339C336.537 93.5988 335.931 93.1348 335.796 92.6371C335.644 92.1259 335.571 91.5676 335.601 91.0409C335.704 89.0166 335.901 88.8678 338.694 88.2891C338.694 88.2891 338.597 88.4294 338.588 88.4301C338.623 88.4357 338.641 88.4428 338.674 88.457C338.672 88.4316 338.671 88.4232 338.679 88.414C339.342 88.3341 340.005 88.1859 340.222 87.5922C340.49 86.8215 341.102 86.2369 341.624 85.5831C342.296 84.7526 342.961 84.7044 344.048 84.8952C345.398 85.1467 346.305 84.2109 345.807 83.188C345.083 81.6517 344.398 80.1868 346.084 78.6797C346.471 78.3229 346.392 77.8716 346.113 77.4628C345.864 77.075 345.68 76.6752 345.502 76.2664C345.353 75.9041 345.587 75.5754 346.004 75.4823C346.366 75.4025 346.889 75.3642 347.144 75.5172C348.039 76.0248 348.592 76.7255 348.608 77.6829C348.612 78.0405 349.087 78.2067 349.515 78.0381C349.701 77.9563 349.874 77.6582 349.867 77.4755C349.73 75.7552 349.568 74.056 349.414 72.354C349.34 71.4868 350.309 70.8717 351.286 71.1635C351.415 71.2015 351.536 71.2402 351.648 71.2988C354.952 72.4811 354.957 72.4637 355.319 69.4544C355.411 68.7393 355.329 68.1881 354.808 67.6423C354.687 67.5098 354.717 67.175 354.855 67.0396C355.005 66.9182 355.414 66.8173 355.578 66.8864C356.433 67.2035 357.226 67.5941 358.066 67.938C358.517 68.1254 358.803 67.8432 359.075 67.5942C359.446 67.2558 359.815 66.8664 359.576 66.4202C359.366 66.0141 359.009 65.561 359.656 65.2907C360.388 64.9706 360.983 65.3694 361.363 65.8185C361.586 66.0744 361.582 66.4243 361.734 66.7266C362.207 67.6621 362.947 67.7312 363.753 66.8977C364.092 66.5514 364.315 66.1339 364.611 65.7678C365.153 65.0719 365.854 64.9547 366.707 65.3465C367.037 65.5016 367.418 65.6609 367.8 65.72C368.681 65.8687 369.533 65.3638 369.295 64.6277C368.955 63.5744 369.354 62.9587 370.472 62.4459C370.835 62.2829 371.159 62.0636 371.473 61.8366C372.325 61.2315 372.505 61.6911 372.837 62.2445C373.069 62.6167 373.351 62.384 373.657 62.0512C374.739 60.8426 374.931 60.8348 375.992 61.7011C376.098 61.7751 376.159 61.8786 376.249 61.954C377.347 62.8938 378.203 62.738 378.702 61.513C379.053 60.6415 378.452 59.4612 380.02 58.9464C380.095 58.9229 380.113 58.4634 379.972 58.3923C379.224 57.9489 378.437 57.2254 377.633 57.2086Z" fill="#F5F5F9"/>
</svg>
