<?xml version="1.0" encoding="utf-8"?>
<svg width="21" height="19" viewBox="0 0 21 19" fill="none" xmlns="http://www.w3.org/2000/svg">
<path d="M14.1772 18.5401C14.2572 18.5004 14.3441 18.4804 14.431 18.4804C14.518 18.4804 14.6049 18.5003 14.6849 18.5401L15.5115 18.9517C15.6915 19.0412 15.9032 18.911 15.9032 18.7107V14.8559C15.4474 15.0373 14.9509 15.1382 14.431 15.1382C13.911 15.1382 13.4146 15.0374 12.9589 14.8559V18.7107C12.9589 18.911 13.1706 19.0412 13.3506 18.9517L14.1772 18.5401Z" fill="#313131"/>
<path d="M14.431 8.34429C12.8627 8.34429 11.5868 9.61462 11.5868 11.1761C11.5868 12.7376 12.8627 14.0079 14.431 14.0079C15.9994 14.0079 17.2753 12.7376 17.2753 11.1761C17.2753 9.61462 15.9994 8.34429 14.431 8.34429Z" fill="#313131"/>
<path d="M20.2905 0.980469H0.709475C0.317687 0.980469 0 1.29677 0 1.68684V16.3084C0 16.6985 0.317687 17.0148 0.709475 17.0148H11.8238V14.1654C10.9841 13.4385 10.4516 12.3684 10.4516 11.176C10.4516 8.99139 12.2368 7.21405 14.431 7.21405C16.6253 7.21405 18.4104 8.99139 18.4104 11.176C18.4104 12.3683 17.878 13.4384 17.0383 14.1654V17.0148H20.2905C20.6823 17.0148 21 16.6985 21 16.3084V1.68684C21 1.29677 20.6823 0.980469 20.2905 0.980469ZM6.82854 13.2181H3.15707C2.84363 13.2181 2.5895 12.9651 2.5895 12.6531C2.5895 12.341 2.84363 12.088 3.15707 12.088H6.82854C7.14198 12.088 7.3961 12.341 7.3961 12.6531C7.3961 12.9651 7.14198 13.2181 6.82854 13.2181ZM8.05233 9.56273H3.15707C2.84363 9.56273 2.5895 9.30972 2.5895 8.99765C2.5895 8.68558 2.84363 8.43257 3.15707 8.43257H8.05233C8.36578 8.43257 8.6199 8.68558 8.6199 8.99765C8.6199 9.30972 8.36578 9.56273 8.05233 9.56273ZM11.7238 5.90733H3.15707C2.84363 5.90733 2.5895 5.65432 2.5895 5.34225C2.5895 5.03017 2.84363 4.77716 3.15707 4.77716H11.7238C12.0372 4.77716 12.2914 5.03017 12.2914 5.34225C12.2914 5.65432 12.0372 5.90733 11.7238 5.90733Z" fill="#313131"/>
</svg>
