<?xml version="1.0" encoding="utf-8"?>
<svg width="247" height="226" viewBox="0 0 247 226" fill="none" xmlns="http://www.w3.org/2000/svg">
<path d="M170.657 214.946C172.029 216.636 171.789 219.089 170.117 220.47C168.46 221.839 165.981 221.586 164.622 219.91C163.234 218.232 163.493 215.768 165.148 214.397L165.225 214.337C166.887 213.038 169.309 213.314 170.657 214.946ZM181.504 203.732C183.116 205.161 183.263 207.634 181.828 209.254C180.392 210.876 177.91 210.999 176.312 209.556C174.689 208.112 174.541 205.639 175.977 204.019C176.138 203.843 176.312 203.686 176.496 203.542C177.959 202.399 180.07 202.438 181.504 203.732ZM190.466 190.931C192.291 192.093 192.821 194.516 191.64 196.335C190.474 198.142 188.056 198.666 186.245 197.489C184.42 196.327 183.889 193.904 185.07 192.085C185.297 191.709 185.603 191.371 185.927 191.118C187.203 190.12 189.017 189.997 190.466 190.931ZM197.306 176.875C199.278 177.749 200.181 180.079 199.317 182.049C198.451 184.019 196.126 184.915 194.156 184.043C192.183 183.168 191.28 180.84 192.146 178.869C192.412 178.26 192.809 177.75 193.302 177.366C194.41 176.5 195.942 176.273 197.306 176.875ZM201.886 161.925C203.963 162.49 205.222 164.642 204.665 166.719C204.12 168.813 201.962 170.051 199.885 169.484C197.791 168.93 196.543 166.794 197.089 164.7C197.332 163.838 197.821 163.132 198.467 162.627C199.407 161.893 200.643 161.603 201.886 161.925ZM204.088 146.438C206.249 146.666 207.801 148.589 207.581 150.752C207.351 152.898 205.42 154.457 203.286 154.233C201.126 154.004 199.562 152.068 199.793 149.919C199.898 148.816 200.474 147.872 201.274 147.246C202.044 146.645 203.028 146.32 204.088 146.438ZM203.874 130.776C206.033 130.686 207.867 132.336 207.996 134.5C208.1 136.662 206.44 138.503 204.282 138.596C202.138 138.707 200.289 137.04 200.171 134.889C200.095 133.555 200.698 132.362 201.669 131.604C202.284 131.123 203.032 130.812 203.874 130.776ZM201.249 115.331C203.354 114.884 205.433 116.243 205.886 118.378C206.327 120.497 204.963 122.558 202.859 123.008C200.744 123.441 198.664 122.08 198.223 119.96C197.905 118.442 198.502 116.954 199.641 116.065C200.087 115.716 200.634 115.466 201.249 115.331ZM196.227 100.464C198.241 99.7117 200.517 100.721 201.276 102.741C202.049 104.775 201.038 107.034 199.022 107.788C197.005 108.567 194.746 107.548 193.973 105.511C193.334 103.869 193.887 102.071 195.211 101.037C195.504 100.808 195.846 100.612 196.227 100.464ZM188.968 86.5738C190.84 85.5123 193.227 86.158 194.298 88.0339C195.395 89.9141 194.744 92.3172 192.872 93.3793C190.986 94.4545 188.611 93.7963 187.514 91.9155C186.55 90.2079 186.99 88.0722 188.499 86.8936C188.637 86.7856 188.802 86.6788 188.968 86.5738ZM185.159 74.5945C186.501 76.2807 186.22 78.7435 184.55 80.0955C182.853 81.4457 180.394 81.1526 179.05 79.4651C177.691 77.7893 177.962 75.3125 179.643 73.974C181.367 72.6269 183.799 72.9168 185.159 74.5945ZM174.033 62.7022C175.626 64.1706 175.746 66.6402 174.285 68.2297C172.838 69.8334 170.359 69.9289 168.765 68.4612C167.156 67.0058 167.052 64.5232 168.513 62.9343C168.658 62.7707 168.815 62.6231 168.984 62.491C170.461 61.3371 172.605 61.3823 174.033 62.7022ZM161.208 52.6663C163.014 53.866 163.516 56.2858 162.323 58.0892C161.141 59.9087 158.715 60.3886 156.908 59.1876C155.112 57.999 154.597 55.5643 155.792 53.7597C156.032 53.401 156.317 53.1002 156.64 52.8476C157.933 51.8376 159.775 51.7202 161.208 52.6663ZM146.979 44.7666C148.949 45.6693 149.824 47.9947 148.93 49.962C148.039 51.9281 145.717 52.7967 143.749 51.8953C141.782 50.9959 140.904 48.6672 141.799 46.7018C142.079 46.1094 142.486 45.6147 142.963 45.2418C144.071 44.3762 145.619 44.1368 146.979 44.7666ZM131.721 39.1678C133.797 39.7604 135.014 41.9205 134.455 43.9998C133.884 46.0891 131.732 47.3008 129.639 46.718C127.55 46.1379 126.333 43.9779 126.906 41.8874C127.146 41.0528 127.621 40.3585 128.267 39.8535C129.206 39.1201 130.466 38.8291 131.721 39.1678ZM115.794 36.0106C117.935 36.2755 119.474 38.2122 119.225 40.3701C118.968 42.5147 117.039 44.0439 114.881 43.7886C112.752 43.5365 111.204 41.5877 111.436 39.4407C111.579 38.3552 112.123 37.435 112.924 36.8096C113.709 36.1959 114.721 35.8751 115.794 36.0106ZM99.5644 35.3515C101.707 35.2706 103.539 36.9497 103.624 39.1203C103.713 41.2662 102.027 43.1058 99.8745 43.1731C97.7144 43.265 95.8968 41.5742 95.8118 39.4006C95.7604 38.0999 96.348 36.9159 97.3025 36.1701C97.9187 35.6886 98.6958 35.3831 99.5644 35.3515ZM83.4175 37.2134C85.5454 36.7951 87.5949 38.1803 88.0207 40.3116C88.4495 42.4156 87.0708 44.4915 84.9581 44.8947C82.8325 45.3143 80.7813 43.9274 80.3555 41.7961C80.0612 40.3087 80.6432 38.8336 81.7675 37.955C82.2431 37.5834 82.7923 37.3317 83.4175 37.2134ZM67.7814 41.5662C69.8094 40.8309 72.0652 41.8776 72.81 43.9089C73.5547 45.9403 72.5325 48.1857 70.4889 48.9331C68.464 49.6723 66.2203 48.61 65.4596 46.5911C64.8653 44.9399 65.4136 43.1674 66.7221 42.145C67.0286 41.9055 67.4024 41.7161 67.7814 41.5662ZM53.0265 48.3167C54.9098 47.2682 57.3079 47.9579 58.3619 49.8473C59.4158 51.7366 58.7523 54.1217 56.8537 55.1821C54.9717 56.2327 52.5878 55.5287 51.5341 53.6392C50.5694 51.9291 51.0341 49.8268 52.5265 48.6607C52.6806 48.5403 52.8603 48.4217 53.0265 48.3167ZM45.0181 57.9591C46.3599 59.6764 46.0494 62.1342 44.3563 63.4571C42.648 64.7919 40.2025 64.4877 38.8607 62.7704C37.5324 61.0705 37.818 58.6105 39.5263 57.2757C41.2194 55.9528 43.6899 56.2592 45.0181 57.9591Z" fill="#E51C00"/>
<path d="M156.028 199.868C157.351 201.562 157.072 204.014 155.371 205.343C153.697 206.673 151.236 206.364 149.913 204.671C148.578 202.963 148.87 200.528 150.559 199.184C152.244 197.867 154.705 198.175 156.028 199.868ZM166.726 188.584C168.358 190.011 168.552 192.466 167.159 194.096C165.743 195.723 163.292 195.903 161.657 194.503C160.024 193.077 159.832 190.624 161.251 188.995C161.415 188.795 161.6 188.623 161.8 188.467C163.224 187.354 165.292 187.349 166.726 188.584ZM174.999 175.426C176.868 176.494 177.541 178.869 176.484 180.736C175.437 182.62 173.069 183.281 171.199 182.214C169.315 181.16 168.642 178.782 169.687 176.899C169.965 176.435 170.303 176.049 170.687 175.749C171.897 174.804 173.584 174.626 174.999 175.426ZM180.525 160.87C182.566 161.556 183.69 163.751 183.027 165.807C182.366 167.836 180.162 168.963 178.122 168.276C176.077 167.618 174.957 165.394 175.618 163.366C175.877 162.593 176.327 161.969 176.923 161.503C177.904 160.737 179.242 160.46 180.525 160.87ZM183.109 145.514C185.259 145.771 186.785 147.724 186.528 149.858C186.271 151.992 184.338 153.531 182.204 153.261C180.073 152.996 178.544 151.039 178.785 148.917C178.929 147.838 179.47 146.919 180.251 146.309C181.033 145.698 182.053 145.397 183.109 145.514ZM182.679 129.935C184.821 129.773 186.708 131.397 186.868 133.528C187.025 135.686 185.426 137.556 183.283 137.718C181.129 137.864 179.268 136.244 179.097 134.097C179.009 132.752 179.589 131.506 180.57 130.74C181.167 130.273 181.881 129.988 182.679 129.935ZM179.221 114.713C181.291 114.14 183.432 115.364 184.016 117.437C184.599 119.509 183.398 121.666 181.329 122.239C179.261 122.813 177.102 121.599 176.534 119.515C176.085 117.959 176.669 116.338 177.879 115.393C178.262 115.093 178.719 114.858 179.221 114.713ZM172.846 100.457C174.765 99.503 177.115 100.27 178.077 102.195C179.054 104.109 178.3 106.459 176.378 107.44C174.458 108.395 172.123 107.617 171.146 105.702C170.295 104.015 170.759 101.988 172.199 100.863C172.4 100.707 172.623 100.582 172.846 100.457ZM169.299 88.4038C170.622 90.097 170.342 92.5472 168.641 93.8763C166.956 95.1931 164.508 94.9023 163.172 93.1918C161.85 91.5005 162.13 89.0478 163.83 87.7193C165.515 86.4031 167.964 86.6952 169.299 88.4038ZM158.014 76.5497C159.645 77.9742 159.836 80.4311 158.434 82.0442C157.029 83.6878 154.566 83.8523 152.946 82.4406C151.309 81.0424 151.121 78.5893 152.523 76.9449C152.687 76.7427 152.876 76.5732 153.074 76.4183C154.499 75.3048 156.578 75.3135 158.014 76.5497ZM144.641 67.139C146.526 68.1948 147.183 70.5819 146.125 72.4499C145.068 74.3168 142.698 74.979 140.829 73.9135C138.959 72.8461 138.288 70.4701 139.346 68.6026C139.595 68.1321 139.933 67.7442 140.33 67.4333C141.525 66.4999 143.225 66.3398 144.641 67.139ZM129.701 60.4924C131.742 61.1785 132.851 63.3864 132.203 65.4296C131.529 67.4717 129.339 68.5849 127.282 67.9111C125.243 67.227 124.117 65.0294 124.782 62.9732C125.038 62.2303 125.503 61.5914 126.085 61.1367C127.066 60.3705 128.42 60.084 129.701 60.4924ZM113.754 56.9143C115.905 57.1704 117.431 59.1234 117.158 61.2704C116.918 63.394 114.973 64.9142 112.839 64.645C110.706 64.3779 109.19 62.4385 109.432 60.316C109.563 59.2223 110.116 58.319 110.898 57.7083C111.678 57.0981 112.689 56.7798 113.754 56.9143ZM97.4586 56.4864C99.5992 56.3229 101.486 57.9471 101.631 60.0901C101.803 62.2363 100.189 64.1173 98.049 64.2524C95.9069 64.4171 94.0331 62.8072 93.8751 60.6469C93.7609 59.3014 94.3517 58.0681 95.348 57.2896C95.9299 56.8349 96.6591 56.5378 97.4586 56.4864ZM81.3746 59.2371C83.4538 58.6785 85.611 59.8902 86.1804 61.977C86.7625 64.0477 85.5489 66.189 83.4797 66.7615C81.412 67.336 79.2688 66.1102 78.6862 64.0368C78.2491 62.4695 78.8186 60.8594 80.0281 59.9143C80.4118 59.6145 80.8699 59.3805 81.3746 59.2371ZM66.1758 65.1108C68.0987 64.1288 70.4343 64.9068 71.4236 66.836C72.3858 68.7645 71.6189 71.096 69.7116 72.0657C67.7895 73.047 65.4541 72.2689 64.4648 70.3397C63.6131 68.6502 64.1067 66.6283 65.5308 65.5156C65.7305 65.3595 65.9407 65.2201 66.1758 65.1108ZM57.9002 74.5054C59.2337 76.212 58.9254 78.6593 57.2403 79.976C55.5401 81.3045 53.1053 81.0007 51.7718 79.294C50.4488 77.6009 50.7412 75.1629 52.4415 73.8344C54.1266 72.5177 56.5772 72.8122 57.9002 74.5054Z" fill="#E51C00"/>
<path d="M144.175 182.339C145.554 184.009 145.33 186.462 143.67 187.833C142.011 189.204 139.575 188.954 138.195 187.284C136.829 185.628 137.052 183.177 138.699 181.818L138.79 181.747C140.441 180.457 142.833 180.717 144.175 182.339ZM153.72 170.623C155.467 171.882 155.868 174.316 154.648 176.062C153.402 177.806 150.957 178.203 149.212 176.946C147.476 175.7 147.048 173.262 148.294 171.521C148.513 171.201 148.78 170.946 149.07 170.719C150.384 169.692 152.279 169.598 153.72 170.623ZM159.914 156.822C161.914 157.589 162.934 159.837 162.194 161.851C161.442 163.849 159.202 164.854 157.187 164.101C155.187 163.337 154.153 161.1 154.907 159.075C155.157 158.387 155.598 157.817 156.148 157.387C157.172 156.588 158.588 156.323 159.914 156.822ZM162.326 141.866C164.473 142.094 166.034 143.997 165.817 146.144C165.616 148.281 163.713 149.843 161.58 149.603C159.433 149.374 157.874 147.474 158.092 145.326C158.194 144.228 158.747 143.3 159.557 142.667C160.32 142.071 161.301 141.751 162.326 141.866ZM160.878 126.757C162.994 126.44 164.982 127.883 165.338 130.006C165.666 132.126 164.224 134.123 162.119 134.452C159.989 134.78 158.001 133.338 157.661 131.205C157.418 129.758 158.027 128.366 159.097 127.53C159.601 127.136 160.2 126.866 160.878 126.757ZM155.576 112.506C157.535 111.647 159.839 112.545 160.71 114.51C161.584 116.48 160.715 118.768 158.754 119.629C156.779 120.503 154.489 119.619 153.618 117.654C152.875 115.978 153.38 114.074 154.754 113C155 112.808 155.269 112.65 155.576 112.506ZM152.264 100.711C153.629 102.396 153.349 104.839 151.693 106.183C150.026 107.513 147.577 107.245 146.227 105.58C144.877 103.884 145.129 101.434 146.812 100.094C148.524 98.757 150.94 99.0471 152.264 100.711ZM140.601 89.4996C142.345 90.7863 142.718 93.2174 141.459 94.9439C140.184 96.6828 137.748 97.0271 136.017 95.7556C134.286 94.4868 133.899 92.0384 135.185 90.3155C135.4 90.0236 135.641 89.7642 135.915 89.5504C137.245 88.5111 139.178 88.4336 140.601 89.4996ZM126.472 81.6512C128.468 82.4434 129.457 84.7159 128.678 86.7109C127.901 88.7073 125.649 89.6991 123.651 88.9055C121.656 88.1158 120.667 85.8433 121.444 83.8468C121.706 83.175 122.132 82.6162 122.652 82.2099C123.706 81.3863 125.134 81.1367 126.472 81.6512ZM110.822 77.7143C112.955 77.9567 114.495 79.8972 114.253 82.0423C114.011 84.1591 112.084 85.69 109.969 85.4393C107.824 85.1815 106.283 83.2416 106.521 81.1241C106.654 80.0332 107.192 79.1148 107.986 78.494C108.766 77.8849 109.758 77.5801 110.822 77.7143ZM94.7091 77.8769C96.8369 77.5759 98.8186 79.0756 99.1197 81.1921C99.4334 83.3235 97.9769 85.3033 95.8504 85.6033C93.7217 85.902 91.7417 84.4072 91.4391 82.2887C91.2231 80.8484 91.8164 79.4967 92.8862 78.6608C93.3906 78.2667 94.0206 77.9724 94.7091 77.8769ZM79.1929 82.2028C81.1757 81.3714 83.4644 82.2846 84.3049 84.2736C85.164 86.2544 84.255 88.5242 82.2827 89.3691C80.3135 90.2176 78.0121 89.2896 77.1687 87.3277C76.4525 85.6561 76.9822 83.7817 78.3405 82.7203C78.601 82.5168 78.8853 82.3441 79.1929 82.2028ZM70.819 91.0731C72.1402 92.7639 71.8461 95.2217 70.1656 96.5348C68.4848 97.8481 66.0283 97.5395 64.7072 95.8487C63.374 94.1425 63.6821 91.7016 65.3628 90.3883C67.0434 89.0751 69.4858 89.3669 70.819 91.0731Z" fill="#E51C00"/>
</svg>
