<?xml version="1.0" encoding="utf-8"?>
<svg width="20" height="21" viewBox="0 0 20 21" fill="none" xmlns="http://www.w3.org/2000/svg">
<path d="M10 0.980469C4.486 0.980469 0 5.46647 0 10.9805C0 16.4945 4.486 20.9805 10 20.9805C15.514 20.9805 20 16.4945 20 10.9805C20 5.46647 15.514 0.980469 10 0.980469ZM5.15152 12.4956C4.31606 12.4956 3.63636 11.8159 3.63636 10.9805C3.63636 10.145 4.31606 9.46532 5.15152 9.46532C5.98697 9.46532 6.66667 10.145 6.66667 10.9805C6.66667 11.8159 5.98697 12.4956 5.15152 12.4956ZM10 12.4956C9.16455 12.4956 8.48485 11.8159 8.48485 10.9805C8.48485 10.145 9.16455 9.46532 10 9.46532C10.8355 9.46532 11.5152 10.145 11.5152 10.9805C11.5152 11.8159 10.8355 12.4956 10 12.4956ZM14.8485 12.4956C14.013 12.4956 13.3333 11.8159 13.3333 10.9805C13.3333 10.145 14.013 9.46532 14.8485 9.46532C15.6839 9.46532 16.3636 10.145 16.3636 10.9805C16.3636 11.8159 15.6839 12.4956 14.8485 12.4956Z" fill="#0BBC63"/>
</svg>
