<?xml version="1.0" encoding="utf-8"?>
<svg width="133" height="153" viewBox="0 0 133 153" fill="none" xmlns="http://www.w3.org/2000/svg">
<path d="M72.1699 40.4268C50.962 37.6566 29.0303 52.5945 15.5637 67.6926C4.13889 80.5081 -4.0164 100.666 13.0364 112.467C34.3831 127.237 68.6784 119.967 90.7304 111.215C102.428 106.566 113.383 99.7789 120.378 89.0533C126.906 79.0429 128.062 65.2776 122.989 54.4173C112.748 32.49 88.143 27.5324 66.6876 33.0589C45.882 38.4183 26.2718 51.8839 12.5971 68.3428C3.32501 79.4934 -5.72052 96.7347 4.55744 110.075C10.2941 117.517 20.7525 120.234 29.4881 121.732C41.6899 123.822 54.2639 123.102 66.4032 120.947C98.5019 115.249 135.757 93.3909 132.839 56.0335C132.668 53.8205 129.213 53.802 129.384 56.0335C131.71 85.7908 106.826 104.841 81.3634 113.526C68.253 117.998 54.2685 119.904 40.4482 119.391C29.5274 118.982 16.3453 117.037 8.20849 108.988C-6.39337 94.5427 13.337 71.3847 23.837 61.4485C40.0736 46.0927 62.9972 33.528 85.8168 34.1874C98.562 34.559 110.778 41.1211 117.751 51.8746C126.21 64.9084 123.03 81.4578 113.316 92.7292C104.5 102.951 90.2333 108.347 77.687 112.026C63.5799 116.157 48.1341 118.153 33.5068 116.047C23.4578 114.601 10.6016 110.412 7.06851 99.7441C4.09727 90.774 9.76922 80.94 14.877 73.9831C27.0533 57.3849 50.74 41.0979 72.1699 43.896C74.3735 44.1816 74.3458 40.7078 72.1699 40.4268Z" fill="#0BBC63"/>
<path d="M104.389 73.3194C102.019 52.063 82.2795 34.329 64.4043 24.8538C49.233 16.8168 27.7114 13.7068 20.3203 33.0828C11.0697 57.3372 26.313 88.9073 40.0738 108.234C47.3794 118.485 56.5848 127.504 68.6695 131.738C79.9483 135.688 93.5919 133.526 102.928 126.008C121.779 110.831 120.722 85.7544 110.236 66.2374C100.067 47.3114 82.3113 31.4806 63.0651 22.1281C50.0242 15.7843 31.1225 11.1139 20.6199 24.278C14.7614 31.6247 14.6184 42.4292 15.2483 51.27C16.1302 63.6179 19.8294 75.657 24.8186 86.9315C38.0112 116.743 68.1266 147.707 103.709 135.96C105.817 135.266 105.011 131.906 102.885 132.605C74.5417 141.964 50.1042 122.344 35.5951 99.6889C28.1238 88.0243 22.9357 74.8986 20.1365 61.355C17.9276 50.6521 16.672 37.3864 22.5464 27.5643C33.0907 9.93741 60.2876 23.5724 72.442 31.3982C91.2285 43.502 108.9 62.7655 113.704 85.0834C116.385 97.5491 112.927 110.978 104.148 120.316C93.5085 131.64 76.6784 132.501 63.4149 125.757C51.3847 119.634 42.7401 107.067 36.1746 95.7608C28.797 83.0468 23.1723 68.5236 21.7274 53.8162C20.7346 43.7123 21.7351 30.2279 31.2515 24.2516C39.2537 19.2258 50.157 22.3875 58.1317 25.6878C77.1557 33.5521 98.624 52.6685 101.02 74.1472C101.268 76.3552 104.635 75.4994 104.389 73.3194Z" fill="#0BBC63"/>
</svg>
