<?xml version="1.0" encoding="utf-8"?>
<svg width="191" height="112" viewBox="0 0 191 112" fill="none" xmlns="http://www.w3.org/2000/svg">
<path d="M53.7213 69.6867C53.5928 69.5345 53.459 69.3765 53.3209 69.1463C53.1551 68.8383 52.9325 68.6686 52.7493 68.4767C52.1151 67.8227 51.3535 67.2515 50.6685 66.883C50.0311 66.5536 49.3331 66.1891 48.8229 66.1932C48.5358 66.2069 48.3003 66.1802 47.7862 65.9864C47.6832 65.9399 47.5507 65.9134 47.682 66.0748C47.9585 66.2352 48.1476 66.3189 48.3432 66.4005C48.5413 66.4787 48.7458 66.5895 48.6726 66.7328C48.6468 66.7762 48.7227 66.8383 48.8141 66.9275C49.0419 67.1374 49.2689 67.3558 49.5262 67.5112C50.1266 67.9511 50.7554 68.4604 51.2736 69.0719C51.5098 69.3437 51.7791 69.5846 52.0108 70.0841L51.8846 70.0202C51.6463 69.6144 51.2832 69.2534 50.9988 68.9291C50.3646 68.3214 49.7014 67.9081 49.2192 67.8182C49.2911 68.0406 49.476 68.0301 49.5392 68.2243C49.4155 68.2723 49.2893 68.301 49.1804 68.3627C49.0108 68.4575 49.0335 68.4969 49.4022 68.8762C50.1353 69.667 50.6949 70.4248 51.1768 71.2074C51.9705 72.5076 52.4771 74.226 52.505 76.1314C52.533 77.1588 52.3953 78.2945 52.2701 79.2391C52.1938 79.9968 51.9768 80.8623 51.6333 81.7095C51.5784 81.8545 51.529 82.0405 51.3436 82.2002C51.605 81.3747 51.6 80.9536 51.4442 80.6315C51.31 80.3683 51.2546 80.4771 50.7906 81.1168C50.7371 81.1969 50.6591 81.4053 50.6366 81.3204C50.5815 81.1065 50.4566 81.4285 50.346 81.6578C49.5562 83.1792 48.7447 84.5146 47.6484 85.7321C46.7389 86.7249 45.7755 87.6353 44.3787 88.5216C44.7957 88.099 44.9518 87.8557 45.3759 87.5018C46.0758 86.925 46.3493 86.4393 46.6227 85.9654C46.3221 86.0505 45.9941 86.3467 45.7207 86.5089C45.2614 86.7708 44.7736 87.0443 44.3426 87.283C43.3062 87.9786 42.0666 88.5795 40.9619 89.0643C40.5554 89.2673 40.0774 89.4106 39.4956 89.5747C38.9963 89.6718 38.5101 89.8349 38.235 89.9912C38.0639 90.0819 37.8037 90.1482 37.4307 90.2056C36.8531 90.3022 36.3656 90.3801 35.8589 90.4649C34.8754 90.6044 33.9112 90.7262 32.8275 90.7011C32.0868 90.6833 31.416 90.6731 30.8181 90.6577C30.4556 90.68 30.0333 90.6117 29.6128 90.5491C28.5651 90.3875 27.6108 90.1945 26.6723 89.9721C26.478 89.9291 26.2885 89.9019 25.9962 89.7363C26.0896 89.7285 26.1227 89.6974 26.2229 89.723C27.1414 89.9379 27.6495 89.9272 28.3862 89.9672C28.6189 89.9847 28.8491 90.0058 29.1622 90.0768C29.572 90.1391 29.8671 90.1402 30.1818 90.1471C31.2408 90.1725 32.3209 90.1043 33.2042 89.9392C34.0136 89.765 34.91 89.5959 35.3708 89.2808C35.6269 89.1203 35.8639 88.9439 36.4955 88.8034C36.6242 88.7712 36.7747 88.7176 36.5267 88.662C36.1462 88.6835 35.9046 88.7759 35.6531 88.8241C35.4134 88.8878 35.1355 88.9195 35.0908 88.7624C35.078 88.7209 34.9613 88.6995 34.8065 88.7043C34.4284 88.7106 34.0465 88.658 33.6866 88.7004C32.7742 88.7826 31.8058 88.7748 30.8132 88.6998C30.3734 88.6323 29.9304 88.6584 29.2706 88.4531C29.5658 88.3733 29.7937 88.306 30.0683 88.2289C30.3517 88.1918 30.6921 88.1436 31.1221 88.0869C29.9441 87.9054 28.9553 87.7156 28.0506 87.4647C26.781 87.1586 25.7959 86.9114 25.0088 86.5461C24.6881 86.392 24.4101 86.2502 24.1881 86.1058L24.0792 86.0402C23.581 85.7134 23.0428 85.1872 22.6009 84.2224C22.2238 83.3649 21.8708 82.4936 21.6414 81.2154C21.4901 80.3067 21.3277 79.4659 21.1582 78.7755C20.9219 77.833 20.7193 76.8618 20.5496 75.8816C20.288 74.3715 20.1636 72.7411 20.0665 71.3614C20.0154 70.71 20.0631 69.871 20.1405 69.013C20.2965 69.2667 20.2546 70.0321 20.4123 70.1754C20.5733 70.3177 20.687 70.6418 20.7694 71.06C20.9614 71.928 21.3013 72.2134 21.534 73.0862C21.5521 73.1452 21.5823 73.1395 21.6106 73.0236C21.641 72.787 21.618 72.6778 21.5944 72.5778C21.4249 71.8065 21.3797 70.7807 21.4726 69.6615C21.4875 69.2707 21.505 68.9345 21.5176 68.5826C21.6303 66.8339 21.9205 65.097 22.6495 63.3081C23.7143 60.7052 25.4898 58.3348 28.0803 56.6863C28.7236 56.2833 29.392 55.9389 30.0668 55.6153C29.9467 55.733 29.7823 55.8799 29.7319 55.9699C29.6266 56.1476 29.6429 56.189 29.0505 56.6191C28.4036 57.0914 28.1588 57.5429 28.5833 57.2598C29.6382 56.5667 28.9901 57.1275 28.8403 57.3335C28.7418 57.4637 28.6227 57.6312 28.8765 57.486C29.5549 57.0931 28.9846 57.5836 28.9352 57.7233C28.6626 57.8534 28.5628 57.806 28.1408 58.1664C27.802 58.4623 27.7685 58.5962 27.6486 58.7721C27.5851 58.8661 27.6717 58.8358 27.7133 58.844C28.0115 58.9014 27.7547 59.3602 27.2355 60.0632C26.9435 60.4655 26.6652 60.8773 26.6199 61.1112C26.5875 61.2602 26.5296 61.3952 26.0665 61.8529C25.7047 62.213 25.763 62.2869 25.7853 62.3482C25.8945 62.6228 25.6788 63.1226 24.9123 64.3732C24.5876 64.9347 24.5723 65.2202 24.5067 65.5385C24.4723 65.7153 24.6236 65.5834 24.9295 65.2268C24.8876 64.9634 25.0904 64.4212 25.5139 63.7303C25.9257 63.0712 26.0203 62.6623 26.7808 61.797C26.6994 62.0174 26.5678 62.2596 26.6208 62.2933C26.7574 62.3795 26.0121 63.2365 26.055 63.4223C25.2201 64.3923 25.4115 64.3798 25.7407 64.1796C25.8493 64.1171 25.6408 64.4902 25.5194 64.7193C25.3559 65.054 25.2437 65.1166 25.1425 65.1686C25.0914 65.1989 24.9848 65.3488 24.9195 65.4716C24.666 65.9757 24.3873 66.583 24.5199 66.645C24.6567 66.7202 24.5058 67.2 24.3884 67.7541C24.305 68.2342 24.5067 68.1968 24.4365 68.7082C24.4157 68.8255 24.361 69.0404 24.3582 69.1585C24.3282 69.6503 24.3189 70.2211 24.4542 70.2686C24.6234 70.3339 24.6254 70.7449 24.6559 71.2718C24.6951 71.7923 24.8508 71.7909 24.8537 72.7479C24.8476 73.0515 25.0568 73.1544 25.1433 72.9506C25.2077 72.8136 25.2904 72.6319 25.3402 72.8402C25.523 73.412 25.69 73.5279 25.9328 74.3412C26.127 75.0195 26.4195 75.5903 26.6681 75.7057C26.8337 75.7821 27.0172 76.1483 27.2562 76.5793C27.6435 77.3082 28.0248 77.5782 28.4102 77.9424C28.6293 78.1704 28.8839 78.294 29.1455 78.5444C29.768 79.0557 30.5644 79.5671 31.0362 79.6348C31.4596 79.7183 32.3481 80.1479 32.4851 79.9004C32.4851 79.9004 32.5788 79.9279 32.6267 79.945C33.0733 80.0923 33.3443 80.0727 33.6234 80.0333C34.0564 79.9747 34.5002 79.9165 35.0485 79.8399C35.1713 79.8348 35.3175 79.8254 35.383 79.7725C35.4714 79.7136 35.0777 79.6573 35.2421 79.6031C36.0292 79.7375 36.4013 79.6769 36.8399 79.4285C37.2449 79.1977 37.6035 78.9312 38.1768 78.6587C38.5082 78.5006 38.6697 78.2983 38.9608 78.1125C39.4164 77.7808 39.5806 77.425 39.7476 77.0901C39.7701 77.0477 39.7582 77.0087 39.7449 76.9773C39.7057 76.9075 39.5459 76.9421 39.4808 77.0657C39.3487 77.2944 39.0721 77.4576 38.8143 77.6358C38.6602 77.7468 38.4728 77.8653 38.4433 77.6998C38.4419 77.6721 38.3569 77.6846 38.3161 77.7253C38.0129 77.9748 37.8267 77.8893 37.6484 77.8059C37.2099 78.0434 36.7142 78.1638 36.5795 78.4188C36.5486 78.4919 36.3752 78.517 36.2594 78.4636C35.9505 78.3485 35.7131 78.4078 35.4727 78.4462C34.5609 78.5419 33.5813 78.4167 32.7626 78.1565C32.2492 78.0343 31.7159 77.5239 31.2852 77.3936C30.8943 76.942 30.5639 76.699 30.2422 76.3571C29.2206 75.205 28.5932 73.4521 28.3291 71.9682C28.2684 71.6669 28.3163 71.2795 28.2982 70.9661C28.2654 70.3046 28.2964 69.5962 28.6806 68.6966C28.8537 68.2889 29.1539 67.8095 29.2653 67.4554C29.3714 67.1074 29.6378 66.7375 30.0247 66.3669C30.0281 66.4012 30.0512 66.4187 30.0328 66.4743C29.6772 67.3861 29.4827 68.2556 29.3692 69.1348C29.2784 69.7525 29.1271 70.6469 29.4964 70.6471C29.4964 70.6471 29.5247 70.7274 29.5275 70.7829C29.5558 71.2677 29.6821 71.6906 29.8813 71.9457C29.9095 71.9798 29.9342 72.0603 29.9335 72.1387C29.9696 72.6956 30.1795 72.9047 30.3411 73.2458C30.5415 73.6205 30.7784 73.7676 31.001 74.2145C31.2688 74.693 31.6093 75.0964 31.9414 75.4025C32.4259 75.8352 32.9408 75.9969 33.3066 75.9273C33.2728 75.8059 33.1381 75.83 33.1142 75.7056L33.4351 75.5251C33.592 75.3997 33.5789 75.4037 33.3669 75.1989C32.9082 74.7927 32.4486 74.256 32.1077 73.6436C31.5419 72.5997 31.2558 71.4952 31.4794 70.3041C31.6286 69.5875 32.067 68.714 32.4813 67.9123C32.8045 67.2768 33.3434 66.5686 33.9829 65.8641C34.0909 65.7419 34.2094 65.5955 34.4549 65.5165C33.8735 66.1786 33.7384 66.6173 33.7497 66.9546C33.7634 67.2421 33.8772 67.1962 34.5521 66.7226C34.635 66.669 34.7863 66.4907 34.7745 66.5798C34.7467 66.801 34.9954 66.5473 35.1887 66.367C36.4975 65.1942 37.6575 64.2417 38.9556 63.5656C40.0589 63.0067 40.9991 62.6224 42.3277 62.4268C42.1786 62.4617 42.0825 62.5304 41.9761 62.5885L41.8085 62.6327C41.1073 62.72 40.7251 63.0365 40.2548 63.2628C40.1914 63.2996 40.1732 63.3442 40.1737 63.3804C40.1718 63.4092 40.2274 63.4166 40.2765 63.4261L39.8736 63.7561C40.1404 63.7805 40.5038 63.6689 40.7266 63.654C41.1118 63.5784 41.5403 63.6094 41.9059 63.5507C42.8463 63.3863 43.9474 63.4561 44.956 63.537C45.3248 63.6045 45.7511 63.6398 46.2244 63.8389C46.6265 64.0034 47.0612 64.1007 47.3328 64.1408C47.4092 64.1464 47.5364 64.2137 47.6333 64.2403C47.9261 64.3493 48.2047 64.47 48.4779 64.6197L49.0045 64.8768L49.5052 65.1774C50.1699 65.5376 50.8989 66.3151 51.3851 66.5565C51.904 67.1705 52.2614 67.5015 52.6713 67.9108C53.2439 68.6301 53.8228 69.4393 54.2211 70.2966C54.0499 70.0975 53.9266 69.9045 53.7213 69.6867ZM59.5 57.5624C57.6067 55.4113 55.1983 53.5948 52.6328 52.2037C50.841 51.2383 48.9698 50.6735 47.076 50.2892C46.9762 50.2418 46.8964 50.1672 46.7967 50.1197C43.6088 48.5754 40.595 48.2335 38.003 48.2701C36.3118 48.3144 34.8556 48.4992 33.3902 48.7577C32.6707 48.8897 32.0354 48.9604 31.3291 48.9965C30.4465 49.0368 29.4175 49.1903 28.3617 49.4184C27.3697 49.6341 26.4111 49.8895 25.4889 50.1592C23.7796 50.6417 21.6927 51.6982 19.9148 53.0897C19.6433 53.304 19.3595 53.5366 19.1635 53.7422C17.8608 55.1086 16.3488 56.8691 15.3351 58.5865C14.9078 59.2994 14.6127 59.7491 14.22 60.2742C13.6937 61.0003 13.2208 61.6572 12.7351 62.5271C11.6654 64.4208 10.9878 66.7811 10.6059 68.9251C10.0674 71.7961 9.93437 74.588 10.1409 77.0057L10.1542 77.3033C10.2498 79.695 10.4912 81.4749 10.8993 83.6815C10.947 84.3803 11.0259 85.134 11.2159 86.0299C11.4601 87.1482 11.766 88.3174 12.2364 89.5825C12.7036 90.8486 13.3883 92.1295 14.2505 93.2597C15.7689 95.2425 17.5207 96.4937 19.0948 97.3515L19.6146 97.6216C21.2931 98.8772 22.8789 99.8424 25.0893 100.725C27.5234 101.689 30.1253 102.366 32.786 102.727C35.4052 103.091 38.2013 103.048 40.892 102.743C43.8076 102.419 46.4588 101.615 48.8724 100.408C50.5677 99.5681 51.8714 98.6095 52.9787 97.694C55.3516 96.1697 57.4286 94.272 58.9428 92.2299L59.1705 91.9655C61.5945 88.9196 63.0589 85.6868 63.7746 82.595C63.893 82.0324 64.0034 81.4669 64.2006 80.7565C64.5701 79.1734 64.8651 77.5559 64.9247 75.9117C64.9851 74.4554 65.0309 73.3444 65.0849 72.1563C65.1828 70.0705 64.9724 67.7212 63.9931 65.0075C62.977 62.267 61.4198 59.7418 59.5 57.5624Z" fill="#0BBC63"/>
<path d="M121.435 52.2434C121.418 52.4406 121.403 52.6368 121.392 52.8074C121.362 52.8485 121.332 52.8786 121.332 52.8786C121.317 52.8304 121.294 52.7666 121.296 52.7051C121.313 52.5618 121.334 52.41 121.348 52.2738C121.363 52.2057 121.399 52.1736 121.422 52.1203L121.435 52.2434ZM121.56 55.0062C121.54 55.0695 121.478 55.1239 121.478 55.1239C121.462 55.0361 121.49 54.8966 121.538 54.7612C121.538 54.7612 121.598 54.7255 121.598 54.7609C121.598 54.8208 121.579 54.9438 121.56 55.0062ZM121.515 55.8332L121.271 56.7145L121.214 56.8165L121.179 56.7989C121.147 56.5998 121.279 56.0475 121.429 55.7633C121.448 55.7294 121.48 55.706 121.48 55.706C121.499 55.7356 121.526 55.7873 121.515 55.8332ZM117.471 49.291C117.557 50.4387 117.395 51.5107 117.217 52.5816L117.187 52.69C117.117 52.8458 117.073 53.2575 116.979 53.1155C116.923 53.0372 117.003 52.7645 117.051 52.5752C117.177 52.0467 117.257 51.4759 117.268 50.8974C117.276 50.6568 117.292 50.3646 117.257 50.1692C117.153 49.7292 117.14 49.3145 117.137 48.8638C117.136 48.595 117.079 48.3669 116.979 48.2486C116.832 48.0811 116.768 47.8163 116.712 47.4465C116.611 46.8423 116.465 46.2274 116.26 45.6185C116.155 45.3102 116.051 44.984 115.863 44.7081L115.818 44.7221C115.778 44.7762 115.876 45.0942 115.721 44.929C115.621 44.8107 115.482 44.5444 115.443 44.3929C115.345 44.0149 115.145 43.6648 114.85 43.3181C114.767 43.2302 114.667 43.1154 114.608 43.0162C114.504 42.85 114.447 42.6758 114.327 42.5172C114.139 42.2844 114.184 42.5258 114.015 42.3897C113.95 42.3423 113.878 42.2925 113.827 42.241C113.345 41.6902 112.718 41.2929 112.169 40.8092C111.858 40.5738 111.457 40.3283 111.072 40.1412C110.892 40.0545 110.656 39.9527 110.562 40.0069C110.497 40.0369 110.592 40.1285 110.689 40.2124C110.91 40.4006 111.13 40.596 111.313 40.8122C111.441 40.9509 111.377 41.0198 111.203 40.9387C110.709 40.7279 110.192 40.6069 109.682 40.4399C109.104 40.2804 108.543 40.2438 107.975 40.1876C108.093 40.1329 108.208 40.0803 108.322 40.0234C108.701 39.8361 108.847 39.4543 109.308 39.3379C109.406 39.3179 109.434 39.2274 109.463 39.1442L109.628 38.5608C110.843 39.0256 112.035 39.6008 113.149 40.4618C116.015 42.6585 117.361 46.2284 117.471 49.291ZM120.78 59.5882C120.741 59.7983 120.675 60.0213 120.511 60.2389C120.491 60.2659 120.456 60.2692 120.456 60.2692C120.397 60.1703 120.538 59.9216 120.636 59.6887L120.809 59.2912C120.801 59.39 120.79 59.4815 120.78 59.5882ZM118.667 63.6491C118.687 63.5967 118.758 63.5039 118.806 63.4283C118.806 63.4283 118.864 63.4357 118.847 63.4837C118.833 63.5298 118.76 63.6268 118.713 63.7023C118.713 63.7023 118.652 63.6927 118.667 63.6491ZM119.005 64.4004C118.966 64.4588 118.859 64.5162 118.859 64.5162C118.859 64.5162 118.861 64.4274 118.893 64.3603C119.074 64.0029 119.25 63.6262 119.517 63.1999C119.745 62.8563 119.944 62.5005 120.139 62.139C120.131 62.7266 119.65 63.5633 119.005 64.4004ZM120.059 63.4732C119.757 64.0275 119.425 64.5768 119.036 65.0933C118.528 65.7503 118.043 66.3791 117.549 67.0136C117.451 67.1327 117.338 67.2518 117.205 67.2926C117.563 66.8174 118.09 66.222 118.239 65.7902C119.06 64.948 119.55 63.8993 120.212 62.9434C120.283 63.0209 120.187 63.2531 120.059 63.4732ZM117.704 68.421C117.839 68.2375 117.996 68.0868 118.139 68.0184C118.343 67.9193 118.386 68.0168 118.214 68.2507L117.713 68.8872C117.331 69.299 116.954 69.7127 116.619 70.0783C116.508 70.2834 116.756 70.1536 116.8 70.2046C116.86 70.2852 116.851 70.4053 116.613 70.6946L115.982 71.4602C115.761 71.7234 115.501 71.9669 115.112 72.2136C114.495 72.6231 114.009 73.0035 113.763 73.3134C113.444 73.7204 112.796 74.1322 112.303 74.5254C112.173 74.6328 111.902 74.7696 111.709 74.8571C111.41 74.9842 111.31 74.9587 111.227 74.9197C111.108 75.0062 110.951 75.097 110.905 75.1539C110.385 75.7754 109.115 76.3355 107.892 76.7821C107.44 76.9493 107.205 77.0641 106.954 77.2159C106.612 77.2719 106.266 77.3465 105.9 77.4978C105.434 77.6902 104.887 77.8656 104.33 77.983C103.129 78.271 101.929 78.5008 100.709 78.6348C100.212 78.7055 99.6956 78.7252 99.1867 78.7435C98.8039 78.7584 98.6457 78.6934 98.522 78.6251C97.5287 78.9194 96.2506 78.9676 94.8348 78.7392C94.6115 78.7078 94.2393 78.6268 94.087 78.6281C92.8888 78.6373 91.6204 78.2881 90.435 78.117C89.7729 78.0187 89.0684 77.8298 88.378 77.5594C87.8136 77.3529 87.1421 77.1084 86.5427 76.8918C84.2392 76.0764 82.1472 74.8515 80.2078 73.4634C80.0061 73.3263 79.7634 73.1028 79.86 73.094C79.9248 73.085 80.1172 73.1567 80.2907 73.2597C80.909 73.6414 81.5392 74.0267 82.2161 74.4395C83.3352 75.179 84.5443 75.7763 85.8112 76.2568C86.1659 76.3932 86.5488 76.5418 86.8999 76.6784C88.1223 77.1799 89.3432 77.4546 90.6593 77.7136C90.3541 77.5311 89.8984 77.4121 89.4792 77.3174C86.6999 76.6518 84.1073 75.428 81.7538 73.929C81.5609 73.8101 81.3876 73.6398 81.2517 73.508C81.1264 73.3902 81.1251 73.3269 81.3224 73.4363C81.8658 73.7492 82.3817 73.9487 83.0446 74.384C83.822 74.8695 84.6905 75.2697 85.5798 75.6072C86.4957 75.9547 87.4536 76.3202 88.4255 76.6042C89.0927 76.8109 89.777 76.9696 90.4539 77.1279C90.8292 77.2043 91.1303 77.2254 91.4059 77.208C92.202 77.1624 92.9421 77.2367 93.9334 77.5393C94.5577 77.6983 95.0537 77.7767 95.6036 77.7495C95.8547 77.7469 96.1378 77.7453 96.4099 77.7399C97.1437 77.7698 97.831 77.7077 98.4077 77.5841C98.7184 77.5095 99.2469 77.4362 99.4842 77.4806C100.072 77.5909 100.517 77.4332 100.958 77.3405C101.622 77.2037 102.327 77.0581 103.003 76.9212C103.097 76.9067 103.218 76.8831 103.324 76.8688C103.59 76.8336 103.541 76.9731 103.886 76.8733C104.126 76.7995 104.288 76.7008 104.514 76.6168C104.746 76.5418 105.014 76.4522 105.268 76.367C106.327 76.0561 107.38 75.6799 108.405 75.2478C108.711 75.1245 109.047 74.9686 109.286 74.8206C110.279 74.2493 111.359 73.6259 112.427 73.0105C113.416 72.4048 114.318 71.7332 115.047 71.0059C115.233 70.8278 115.428 70.6298 115.668 70.4489C116.502 69.8236 117.149 69.1314 117.704 68.421ZM111.724 75.4057L111.477 75.5708C110.765 75.8676 110.123 76.193 109.456 76.5189C108.706 76.8521 107.953 77.2106 107.12 77.4103C107.423 77.2426 107.779 77.0941 108.173 76.9195C109.257 76.4592 110.317 75.9453 111.359 75.3482C111.611 75.2106 111.931 75.0478 112.067 75.0634C112.213 75.0784 111.911 75.2713 111.724 75.4057ZM108.309 77.4102C108.128 77.5266 107.882 77.6478 107.598 77.7178C107.391 77.7632 107.459 77.6933 107.544 77.6354C107.85 77.4168 107.941 77.3889 108.491 77.2516C108.436 77.3039 108.396 77.3554 108.309 77.4102ZM107.048 77.4322C106.827 77.5111 106.531 77.5874 106.401 77.6594C105.418 78.1713 103.962 78.4159 102.793 78.7116C102.608 78.7575 102.252 78.7458 102.268 78.7055C102.29 78.6599 102.416 78.6175 102.582 78.5811C103.274 78.4283 103.909 78.2196 104.341 77.9832C104.408 78.0516 104.507 78.1168 104.953 77.9869C105.686 77.7618 106.371 77.5267 106.956 77.2226L107.048 77.4322ZM106.453 78.1297C106.016 78.3491 104.639 78.7223 104.151 78.7414C104.136 78.7143 104.073 78.6945 104.117 78.6664C104.256 78.599 104.415 78.525 104.601 78.4612C105.073 78.3226 105.606 78.17 106.105 78.024C106.347 77.9568 106.58 77.9096 106.6 77.9743C106.607 78.0077 106.56 78.0756 106.453 78.1297ZM100.962 78.937C100.452 79.0608 99.9062 79.1441 99.3119 79.163C99.2313 79.1669 99.1525 79.1412 99.091 79.1246C99.091 79.1246 99.1096 79.0934 99.1474 79.0891C99.6296 78.9836 100.163 78.916 100.749 78.835C100.832 78.8278 100.937 78.8446 101.015 78.856C101.048 78.8604 101.04 78.8912 101.04 78.8912C101.012 78.9068 101.001 78.925 100.962 78.937ZM97.8596 79.1976C97.7188 79.2481 97.5085 79.2591 97.2809 79.2582C97.1238 79.2528 96.9385 79.2534 96.9234 79.2044C96.9234 79.2044 96.9903 79.1557 97.0638 79.1404C97.2154 79.1011 97.4009 79.0686 97.6349 79.0785C97.7254 79.0861 97.8349 79.1052 97.8732 79.1262C97.9078 79.1473 97.8626 79.1748 97.8596 79.1976ZM94.9047 79.0585C95.1428 79.049 95.387 79.0448 95.652 79.0879C95.7301 79.0993 95.7978 79.1567 95.7978 79.1567C95.7978 79.1567 95.6628 79.1909 95.5768 79.1892C95.2872 79.1818 95.0986 79.1125 94.9047 79.0585ZM96.7865 79.9245C95.6607 79.9831 94.4738 80.0143 93.1006 79.6019C93.9398 79.7557 94.869 79.7647 95.4732 79.7781C95.8738 79.7859 96.2912 79.8039 96.6953 79.8143C96.778 79.8171 96.9117 79.8469 96.9288 79.8671C96.9414 79.8841 96.8597 79.9201 96.7865 79.9245ZM88.8641 78.2979C88.6788 78.124 88.8689 78.0474 89.4585 78.1998C91.1318 78.6272 92.7217 78.774 94.5087 78.9947L94.8198 79.0482C93.7553 79.099 92.7206 79.037 91.4584 78.7786C90.5914 78.5906 89.6698 78.423 88.8641 78.2979ZM88.8669 78.3071L89.5458 78.5283C89.6915 78.5763 89.7124 78.6089 89.6239 78.6107C89.5833 78.6059 89.517 78.5972 89.4586 78.5906C88.9816 78.4854 88.7229 78.3831 88.8669 78.3071ZM91.4331 79.5634C90.8706 79.4991 90.272 79.4595 89.7096 79.316C88.4076 78.9844 87.1701 78.6794 85.941 78.23C84.9168 77.8557 83.8787 77.4685 82.9333 76.8893C82.5197 76.6292 82.0885 76.4745 81.6905 76.2769C80.8567 75.8869 80.0398 75.3781 79.2568 74.8062L78.9787 74.5717C79.0069 74.5594 79.0089 74.5197 79.0696 74.5438C79.3603 74.6462 79.7414 74.8808 80.157 75.1467C81.691 76.1276 83.3179 76.9838 85.0199 77.6823C85.3404 77.811 85.703 77.9732 85.9714 78.0507C87.4472 78.4597 89.1143 79.0444 90.6649 79.2351C90.832 79.2583 91.0854 79.3195 91.2461 79.3692C91.4018 79.414 91.5278 79.478 91.5967 79.5278C91.6304 79.5456 91.5212 79.5718 91.4331 79.5634ZM75.7289 69.1266C75.6215 68.9969 75.5594 68.8524 75.4806 68.7348C75.483 68.6732 75.4528 68.598 75.4848 68.5982C75.5148 68.6035 75.6048 68.6649 75.6662 68.7378C76.5912 69.7141 77.51 70.6815 78.4476 71.664C78.5377 71.7608 78.6216 71.895 78.5962 71.9164C78.5711 71.9387 78.4244 71.8774 78.3158 71.7899C77.9329 71.5031 77.5398 71.1831 77.2013 70.8327C76.6631 70.3064 76.1961 69.7111 75.7289 69.1266ZM73.8121 66.7837L73.723 66.6902C73.4183 66.2303 73.1226 65.7531 72.9956 65.305C72.9694 65.1967 72.9955 65.1315 73.0421 65.1562C73.0846 65.1786 73.2237 65.3422 73.274 65.4367C73.5329 65.9325 73.6719 66.3505 73.8448 66.7627C73.8592 66.7865 73.8121 66.7837 73.8121 66.7837ZM71.7186 61.9349C71.6468 61.8397 71.6025 61.6725 71.5826 61.5041C71.5932 61.469 71.5966 61.3762 71.6196 61.4046C71.6914 61.4997 71.7377 61.6736 71.7504 61.8188C71.754 61.8886 71.7426 61.9666 71.7186 61.9349ZM71.5977 46.422C71.6527 46.2888 71.6954 46.2429 71.6856 46.3496C71.6688 46.422 71.6319 46.5678 71.6147 46.6622C71.5792 46.7549 71.5044 46.8696 71.5044 46.8696C71.472 46.7987 71.54 46.5924 71.5977 46.422ZM75.5162 55.5923C75.5399 55.4742 75.5889 55.4591 75.6246 55.5872C75.6709 55.782 75.6808 56.2197 75.6323 56.4082C75.6221 56.4577 75.5869 56.4113 75.5583 56.41C75.4902 56.2001 75.4631 55.8249 75.5162 55.5923ZM78.1818 42.6278C78.4573 42.036 78.7322 41.4717 79.0414 40.9186C79.2945 40.4937 79.5987 40.0839 79.9153 39.7058C80.0464 39.5556 80.1929 39.4079 80.2866 39.3755C80.3938 39.3426 80.2965 39.5142 80.1664 39.8069C79.9151 40.4094 79.4685 41.1636 78.925 42.0549C78.7929 42.27 78.6495 42.4986 78.5201 42.7019C78.3066 43.0338 78.1364 43.4978 77.8994 43.7088C77.7649 43.8392 77.8565 43.4094 78.1818 42.6278ZM85.042 47.0735C85.3533 46.4353 85.7715 45.8552 86.2326 45.3554C86.2693 45.3123 86.316 45.3016 86.3568 45.2745L86.3971 45.2903C86.4254 45.3352 86.3903 45.4278 86.3257 45.5077L85.5281 46.6224C85.4079 46.8084 85.2666 46.9727 85.1349 47.145C85.1005 47.1837 85.0244 47.2144 85.0244 47.2144C85.0244 47.2144 85.0221 47.1151 85.042 47.0735ZM86.7053 44.663C87.0521 44.3683 87.308 43.988 87.6037 43.6454C87.6757 43.566 87.7591 43.5268 87.7887 43.564C87.8112 43.5926 87.8023 43.6553 87.8007 43.7094C87.8007 43.7094 87.7811 43.7609 87.7637 43.7844C87.4662 44.1921 87.1506 44.5408 86.7857 44.8092C86.7166 44.8623 86.672 44.8651 86.6595 44.8126C86.6755 44.7613 86.687 44.6832 86.7053 44.663ZM89.6773 41.8868C89.7661 41.8414 89.8075 41.8605 89.7638 41.9375C89.7496 41.971 89.6911 42.0353 89.6416 42.0605C89.56 42.1174 89.5036 42.1174 89.4967 42.0623C89.5245 41.9901 89.5973 41.925 89.6773 41.8868ZM100.647 76.5734C100.779 76.5394 100.942 76.5036 101.078 76.4939C101.206 76.4862 101.409 76.4984 101.424 76.523C101.448 76.5647 101.236 76.5944 101.09 76.6146C100.941 76.6251 100.787 76.6333 100.658 76.6445C100.553 76.6234 100.542 76.5986 100.647 76.5734ZM114.711 70.3885C114.721 70.4316 114.701 70.494 114.64 70.5728C114.589 70.6384 114.475 70.7055 114.407 70.7163C114.347 70.6921 114.322 70.6461 114.523 70.4706C114.56 70.4385 114.711 70.3885 114.711 70.3885ZM95.8486 54.3438L95.829 54.3953C95.8198 54.4335 95.7983 54.4583 95.7693 54.4673C95.7211 54.4821 95.6792 54.4731 95.7162 54.3981C95.8287 54.1754 95.755 54.1663 95.6807 54.1318C95.6481 54.1173 95.6213 54.101 95.6295 54.0449C95.6501 53.964 95.6963 53.8717 95.6634 53.8327C95.6282 53.7863 95.7091 53.6796 95.709 53.6233C95.6953 53.5666 95.7402 53.4819 95.7711 53.4197C95.8205 53.2936 95.8966 53.1712 95.9849 53.0768L95.978 53.0544C95.8479 53.0335 95.9778 52.9472 95.9617 52.9067C96.1068 52.8258 96.1298 52.7733 96.1548 52.7156C96.1548 52.7156 96.1888 52.687 96.1619 52.6707C96.0688 52.6102 96.1367 52.5649 96.1951 52.536C96.2632 52.4796 96.351 52.4636 96.4156 52.4192L97.0846 51.8119C97.453 51.4397 97.8314 51.2953 98.0006 51.1506C98.0432 51.1412 98.1077 51.0968 98.1549 51.2032L98.2215 51.3844C98.2667 51.5196 98.2389 51.3373 98.2613 51.3659L98.283 51.401C98.3445 51.5212 98.3539 51.4928 98.4042 51.4492C98.4366 51.4038 98.4693 51.3829 98.5185 51.4395C98.5576 51.4839 98.5897 51.4849 98.6346 51.492C98.7252 51.4642 98.8206 51.5203 98.941 51.3588C99.0053 51.29 99.0773 51.246 99.1344 51.2603C99.2018 51.2932 99.3024 51.1915 99.3945 51.0886C99.5047 50.9621 99.6236 50.8756 99.7144 50.834C99.7966 50.7906 99.8808 50.751 99.9688 50.6558C100.354 50.2821 100.684 49.9681 100.952 49.7084C101.187 49.4765 101.363 49.255 101.496 48.9797C101.629 48.6979 101.809 48.4045 101.726 48.0783C101.705 48.0102 101.777 47.9528 101.846 47.9462C102.008 47.9426 102.136 47.8961 102.261 47.7721C102.322 47.7144 102.394 47.6749 102.446 47.6127C102.53 47.494 102.639 47.4534 102.771 47.5129C102.899 47.5835 103.049 47.5873 103.207 47.5806C103.281 47.5796 103.352 47.5788 103.369 47.4953C103.407 47.292 103.562 47.2199 103.739 47.2546C103.896 47.2772 104.023 47.2307 104.159 47.1856C104.344 47.1212 104.497 47.0069 104.706 46.9538C104.922 46.8982 104.936 46.6768 104.752 46.4108C104.678 46.2981 104.589 46.1836 104.554 46.0698C104.551 46.0464 104.57 45.9941 104.57 45.9941C104.57 45.9941 104.638 45.9731 104.658 45.9923C104.82 46.1126 104.973 46.1973 105.15 46.274C105.255 46.327 105.39 46.3712 105.445 46.3213C105.708 46.078 106.253 46.3368 106.462 45.9806C106.488 45.9373 106.57 45.9477 106.635 45.9531C106.904 45.9696 107.07 45.8547 107.168 45.6537C107.267 45.467 107.385 45.3282 107.659 45.3759C107.85 45.409 107.953 45.3064 107.917 45.083C107.884 44.8621 107.949 44.7394 108.039 44.6264C108.066 44.5973 108.096 44.5697 108.118 44.5241C109.06 45.3033 109.558 46.2192 109.734 47.0456L109.746 47.2228C109.74 48.0128 109.66 48.9315 109.388 49.9312C109.104 50.9135 108.715 51.8775 108.063 52.586L107.888 52.8058C107.477 53.3158 107.12 53.8762 106.714 54.4273C106.014 55.363 105.096 56.1178 104.158 56.5123C103.394 56.8604 102.522 57.0822 101.657 57.1242L101.342 57.1501C100.301 57.31 99.2233 57.2222 98.2177 56.9913C97.8733 56.909 97.5622 56.7637 97.2553 56.6199C97.1922 56.5893 97.2027 56.5079 97.2631 56.4857L97.3614 56.4592C97.5099 56.4099 97.5099 56.4099 97.402 56.3013C97.328 56.2322 97.3675 56.1419 97.4839 56.127C97.5117 56.1258 97.5474 56.1503 97.5752 56.149C97.6049 56.1508 97.6533 56.125 97.6533 56.125L97.6247 56.0556C97.1167 55.8818 96.6595 55.6987 96.5222 55.7373C96.4487 55.7526 96.3921 55.7309 96.3997 55.6049C96.3961 55.5134 96.3681 55.4547 96.327 55.46C96.1953 55.4723 96.1854 55.23 96.067 55.2382C96.067 55.2382 96.0464 55.1946 96.0507 55.1614C96.0849 54.9737 96.0124 54.9569 95.9507 54.9186C95.889 54.8776 95.8096 54.8738 95.8473 54.7095C95.8621 54.6659 95.8333 54.6639 95.7879 54.6996C95.7144 54.7504 95.7489 54.6762 95.755 54.628C95.7657 54.5711 95.8195 54.5154 95.8555 54.458C95.8978 54.3887 95.9101 54.3458 95.8877 54.3318L95.8486 54.3438ZM98.5512 50.9778C98.5647 50.9418 98.5825 50.9437 98.6004 50.9663C98.6004 50.9663 98.5979 51.0025 98.6028 51.0301C98.5831 51.0607 98.565 51.0699 98.5517 51.0386L98.5512 50.9778ZM99.0031 50.7617C99.0373 50.7222 99.0702 50.702 99.0893 50.7316C99.0982 50.7607 99.0824 50.801 99.0824 50.801L99.0081 50.8374L98.9921 50.7969L99.0031 50.7617ZM98.9815 38.3102L99.2827 38.2994C100.133 38.3582 100.982 38.4661 101.815 38.6473C103.28 38.9533 104.673 39.4733 106.026 39.9836C106.077 39.9963 106.109 40.0084 106.16 40.0244C105.608 39.9875 105.065 39.9846 104.521 40.0098C103.013 39.2482 101.349 38.7444 99.6333 38.5262L98.9559 38.4253C98.9064 38.415 98.864 38.3572 98.864 38.3572C98.864 38.3572 98.9286 38.3128 98.9815 38.3102ZM121.394 48.1563C121.314 48.1382 121.215 48.1043 121.13 47.783C121.065 47.5014 120.987 47.1772 120.915 46.8867C120.813 46.2866 120.615 45.7474 120.425 45.1634C120.379 45.0249 120.344 44.9818 120.325 45.0341C120.298 45.2376 120.52 45.7974 120.398 45.9559C120.024 44.842 119.551 43.5923 118.848 42.5516C118.75 42.3833 118.618 42.1394 118.504 41.94C117.802 40.8597 117.028 39.7378 115.979 38.9706C115.799 38.8341 115.663 38.6452 115.487 38.5012C114.726 37.7797 113.907 37.2889 113.091 37.0496C112.366 36.8643 111.553 36.5852 110.685 36.3864C110.481 36.3321 110.254 36.2782 110.167 36.305C109.936 36.3614 109.576 36.2985 109.186 36.2118C108.898 35.7824 108.576 35.3486 108.184 34.9148C107.99 34.7016 107.657 34.4706 107.348 34.2493C107.149 34.1113 106.954 34.0465 106.727 33.9857C106.418 33.9061 106.262 33.8156 106.171 33.6701C106.035 33.4456 105.894 33.3571 105.586 33.36C104.96 33.3568 104.465 33.1327 103.913 32.8617C104.047 32.9058 104.186 32.9624 104.303 32.9871C104.808 33.1057 105.045 33.1035 105.016 32.9844C105.009 32.962 104.935 32.903 104.869 32.8768C104.454 32.7136 104.143 32.6846 103.986 32.7755L103.941 32.8038C103.835 32.6337 103.522 32.4565 103.106 32.2934C102.687 32.1205 102.379 31.927 101.727 31.8863C101.656 31.8838 101.463 31.8114 101.412 31.7734C101.26 31.65 100.989 31.6123 100.687 31.6098C99.1692 31.5826 97.5317 31.4787 96.0036 31.7637C95.7864 31.8086 95.5121 31.8183 95.2647 31.8444C93.9389 32.0036 92.5872 32.2944 91.392 32.8789C91.1922 32.9684 90.9421 33.0806 90.7199 33.1771C90.0677 33.4484 89.4817 33.7811 88.9808 34.1513C88.7708 34.2904 88.5223 34.4522 88.2848 34.6142C87.3522 35.2098 86.4704 35.8642 85.6434 36.5727C84.8834 37.2179 84.2069 37.9192 83.6645 38.6393C83.3598 39.0919 82.9748 39.5256 82.5775 40.0139C81.9937 40.715 81.4719 41.4787 81.138 42.2412C80.9798 42.6024 80.7497 42.9748 80.3886 43.4656C80.534 42.992 80.6828 42.63 80.9088 42.2234C81.8966 40.5349 82.8605 38.9464 84.3524 37.5019C85.1041 36.5603 86.2017 35.6941 87.2221 34.9016C87.5657 34.6679 87.9423 34.4141 88.3042 34.1684C88.4746 34.066 88.6733 33.9732 88.8027 33.9652C89.0597 33.9463 89.2821 33.8388 89.3324 33.6889C89.397 33.5054 89.6388 33.2894 90.0928 33.089C91.3752 32.4541 92.7876 31.9202 94.2084 31.5727C94.4548 31.5079 94.6988 31.4466 94.9185 31.3864C95.243 31.2767 95.2739 31.1109 94.9181 31.1102C94.7136 31.1012 94.327 31.1955 94.4408 31.0687C94.5145 30.9743 94.8019 30.9151 95.0629 30.874L95.989 30.7812C96.4544 30.7336 96.779 30.772 96.7213 30.9215C96.6948 30.986 96.9408 30.9995 97.1571 30.9757C98.4058 30.8084 99.6846 30.8454 100.926 30.8864C102.478 30.9633 102.516 31.0189 102.299 30.5565C102.076 30.1105 101.935 29.6749 102.308 29.3259C102.633 29.0197 102.792 28.6945 103.024 28.3743C103.345 27.9386 102.862 27.3944 101.67 26.8419C100.725 26.4287 99.7671 26.0269 98.7128 25.7264C98.1859 25.5621 97.5958 25.4198 96.9489 25.3386C94.6827 24.9907 92.1427 24.9086 89.1544 25.5959C87.8141 25.915 86.5432 26.2174 85.1128 26.8913C83.9189 27.4563 82.7575 28.0794 81.6715 28.8002C81.0722 29.2079 80.4808 29.606 79.911 29.9946C79.6158 30.188 79.2946 30.4148 78.9912 30.6998C77.9612 31.7151 76.9002 32.6446 75.9544 33.6559C74.5572 35.1894 73.308 36.7874 72.3478 38.6338C71.6824 39.8888 71.031 41.2604 70.45 42.6749C69.8636 44.0375 69.4027 45.4851 69.0549 46.9306C68.4795 49.2195 68.2262 51.5621 68.1828 53.883C68.1645 57.0486 68.6766 60.1603 69.6855 63.1203C70.1969 64.5535 70.7688 65.9756 71.5743 67.2795C71.9903 67.986 72.4619 68.689 72.9487 69.3601C73.595 70.2267 74.2926 71.1448 75.0689 71.776C75.1816 71.865 75.3575 72.0563 75.5045 72.1992C77.6577 74.3987 80.2285 76.0272 82.9795 77.3295C84.2982 77.9431 85.6843 78.5042 87.0453 78.874C89.6548 79.5991 92.4035 80.0288 95.1389 80.158C95.8985 80.18 96.6344 80.1456 97.3733 80.0886C97.6757 80.0666 97.8828 80.0247 97.9221 79.9454C97.954 79.8747 98.003 79.8033 98.1451 79.7451C98.3812 79.658 98.797 79.7184 99.1234 79.6827L99.8108 79.606C100.191 79.5745 100.581 79.5576 100.731 79.6213C100.928 79.707 101.122 79.7003 101.526 79.6079C101.788 79.5591 102.093 79.5009 102.379 79.4493C104.792 79.0379 107.674 78.0497 109.691 76.9366C109.761 76.897 109.818 76.8294 109.791 76.8205C109.757 76.8164 109.618 76.8516 109.523 76.8881L108.597 77.201C108.953 76.9497 109.464 76.7183 110.033 76.4442C110.631 76.1714 111.127 75.8772 111.503 75.5629C112.463 75.1614 113.301 74.6524 113.796 74.1021C114.032 73.8307 114.435 73.5123 114.808 73.1988C116.07 72.0831 117.075 70.9363 117.915 69.7301C118.107 69.4659 118.268 69.2383 118.5 68.908C119.023 68.2503 119.209 67.7705 119.579 67.1705C120.181 66.2049 119.638 66.4961 119.696 66.0839C121.007 64.3532 121.747 62.6209 122.262 60.8649C121.872 61.3757 121.59 61.9132 121.275 62.5524C120.965 63.2448 120.534 63.8988 120.076 64.5468C119.513 65.3131 118.95 66.0713 118.396 66.8241C118.086 67.2601 117.71 67.6775 117.353 68.0997C117.13 68.3673 116.868 68.5752 116.62 68.7513C116.552 68.7967 116.471 68.8352 116.45 68.8243C116.43 68.8161 116.443 68.7447 116.486 68.6962C116.889 68.2069 117.241 67.7788 117.674 67.2451C119.515 65.2027 120.838 62.8647 121.665 60.4914C121.724 60.3378 121.843 60.0669 121.695 60.1623L121.263 61.183C121.155 61.4113 121.03 61.7225 120.91 61.7348C120.842 61.7447 120.935 61.5037 121.003 61.3192L121.482 60.0224C121.539 59.841 121.629 59.6145 121.555 59.5454L120.69 61.3663C120.511 61.7438 120.337 61.9609 120.168 62.0836C120.414 61.681 120.63 61.2739 120.706 60.8995C120.822 60.3842 121.085 59.7498 121.269 59.1361C121.341 58.8968 121.452 58.6463 121.504 58.4104C121.545 58.2308 121.593 57.9824 121.564 57.9449C121.492 57.8498 121.378 58.2073 121.291 58.4188C121.152 58.7423 120.993 59.001 120.837 59.2224C121.076 58.2758 121.324 57.2797 121.593 56.2247C121.897 55.0417 121.951 53.8989 122.062 52.6872C122.076 52.3874 122.004 52.3604 121.913 52.6083C121.907 52.6456 121.892 52.7037 121.885 52.7478C121.855 52.9035 121.804 53.0037 121.776 52.9022C121.761 52.854 121.757 52.7237 121.764 52.6323C121.786 52.3775 121.797 52.0796 121.843 51.8702C121.962 51.3327 121.931 50.8632 121.833 50.4173C121.742 49.9945 121.689 49.5098 121.674 48.9401C121.669 48.4618 121.596 47.9453 121.437 47.5005C121.413 47.7561 121.493 48.1787 121.394 48.1563Z" fill="#0BBC63"/>
<path d="M169.999 34.7887C169.97 34.8548 169.91 34.8696 169.856 34.8216C169.76 34.741 169.665 34.6605 169.599 34.6097C169.554 34.4853 169.567 34.4106 169.633 34.3512C169.66 34.332 169.74 34.3394 169.769 34.3623C169.868 34.4418 169.961 34.5268 170.037 34.6352C170.06 34.6635 170.025 34.7344 169.999 34.7887ZM160.323 29.4649C160.246 29.6447 160.045 29.7664 159.837 29.8731C159.77 29.841 159.681 29.8183 159.634 29.7793C159.353 29.522 159.536 29.2059 160.054 29.1112C160.124 29.0969 160.23 29.1173 160.286 29.1499C160.439 29.2302 160.365 29.3601 160.323 29.4649ZM169.179 34.4199C169.153 34.6124 169.163 34.7973 168.881 34.9295C168.759 34.9959 168.757 35.103 168.762 35.1905C168.774 35.3812 168.783 35.5812 169.062 35.6691C169.299 35.7462 169.349 35.9545 169.326 36.1815C169.3 36.4557 169.249 36.7268 169.109 36.9896C168.954 37.2962 168.982 37.4087 169.32 37.5148C169.91 37.6914 170.044 38.2183 170.1 38.7945C170.104 38.9914 170.088 39.2163 170.02 39.3898C169.927 39.6748 169.86 39.887 170.153 40.0415C170.191 40.0616 170.211 40.1728 170.195 40.2241C170.064 40.8503 169.961 41.5665 169.425 41.9584C169.136 42.1863 168.975 42.4727 168.999 42.8171C169.021 43.3502 168.974 43.9045 168.792 44.4432C168.746 44.5919 168.896 44.7837 168.729 44.9314C168.531 45.084 168.377 44.9649 168.222 44.8772C168.107 44.8134 167.993 44.8696 167.871 44.925C167.509 45.0964 167.233 45.2982 167.048 45.7242C166.868 46.1913 166.796 46.1778 167.202 46.4256C167.37 46.5304 167.448 46.6809 167.488 46.8676C167.514 46.998 167.482 47.1739 167.332 47.2174C166.741 47.3626 166.559 47.8801 166.455 48.3031C166.326 48.9351 165.892 49.441 165.603 50.0025C165.482 50.2104 165.344 50.4548 165.092 50.5602C164.869 50.6544 164.711 50.5319 164.543 50.47C164.211 50.341 163.898 50.4982 163.592 50.6595C163.348 50.8016 163.606 51.0034 163.541 51.1758C163.495 51.339 163.383 51.4834 163.273 51.6235C163.127 51.8173 162.923 51.8801 162.71 51.8465C162.616 51.8292 162.525 51.7897 162.432 51.7611C161.953 51.6248 161.872 51.6605 161.613 52.0774C161.536 52.1855 161.467 52.3067 161.407 52.4276C161.234 52.8107 160.892 53.0478 160.444 53.0254C160.149 53.0267 159.872 53.151 159.572 53.1124C159.069 53.0571 158.949 53.1293 158.672 53.5234C158.227 54.1925 157.499 54.4664 156.632 54.4419C155.959 54.4277 155.321 54.4968 154.673 54.7349C154.28 54.9021 153.842 54.9684 153.426 55.0826C153.186 55.1563 152.962 55.1679 152.739 55.0554C152.287 54.8326 151.845 54.8612 151.378 55.0157C150.898 55.1775 150.397 55.246 149.854 55.143C149.708 55.1061 149.524 55.1199 149.383 55.157C148.982 55.2764 148.61 55.1736 148.219 55.1163C146.736 54.8795 145.343 54.3204 143.916 54.0211C143.382 53.7062 142.663 53.561 142.487 52.8978C142.454 52.7662 142.246 52.8056 142.117 52.7806C141.822 52.7296 141.404 52.7017 141.297 52.373C141.063 51.7203 140.581 51.364 140.121 51.0083C139.139 50.274 138.605 49.2446 137.928 48.3449C137.795 48.1802 137.756 47.9369 137.699 47.7163C137.555 47.1781 137.452 46.6244 137.267 46.0314C137.092 45.5098 136.959 44.8691 137.27 44.2983C137.365 44.1227 137.367 43.9304 137.304 43.7481C137.177 43.3818 137.201 42.977 137.243 42.5806C137.278 42.3465 137.312 42.1013 137.225 41.8838C137.127 41.6257 137.201 41.4502 137.372 41.2668C137.82 40.7703 137.904 40.2119 137.891 39.5342C137.885 39.2843 137.739 39.0275 137.925 38.6831C138.442 38.517 138.592 37.942 138.757 37.4295C138.951 36.6847 139.317 36.0151 139.637 35.3199C140.256 34.0435 141.061 32.8557 141.928 31.7367C142.587 30.8561 143.345 30.0734 144.122 29.2951C144.799 28.6679 145.478 28.023 146.272 27.5446C147.313 26.9439 148.315 26.2316 149.505 25.9617L149.732 25.8819C151.108 25.2283 152.712 25.0188 154.296 24.795C155.53 24.6039 156.844 24.7546 158.125 24.9109C159.94 25.1238 161.688 25.7373 163.403 26.3955C163.405 26.4131 163.404 26.4307 163.409 26.4473C163.436 26.5843 163.381 26.683 163.184 26.7437C162.964 26.804 162.816 26.7249 162.691 26.6214C162.546 26.5061 162.415 26.3802 162.241 26.2772C162.122 26.2112 161.881 26.2278 161.842 26.3071C161.628 26.6747 161.473 27.0459 161.308 27.4119C161.717 27.7268 161.32 27.7988 160.928 27.8413C160.642 27.8692 160.376 27.9398 160.131 28.0577C159.877 28.1751 159.883 28.244 160.186 28.4418C160.357 28.5602 160.231 28.8188 159.989 28.8859C159.796 28.9416 159.637 28.923 159.465 28.8841C159.099 28.8222 158.852 28.887 158.56 29.1587C157.686 29.9697 156.64 30.6464 155.462 31.2711C155.038 31.4903 154.843 31.7094 154.972 31.7941C155.176 31.9379 155.437 31.8149 155.667 31.7442C155.987 31.6388 156.336 31.5522 156.631 31.4126C157.584 30.9063 158.684 30.8135 159.711 30.5725C159.996 30.5278 160.341 30.6025 160.567 30.5014C161.212 30.2325 161.758 30.3698 162.323 30.5763C162.841 30.7614 163.389 31.0185 163.879 30.5343C163.919 30.5012 164.029 30.5129 164.105 30.4932C164.545 30.4115 164.645 30.5054 164.665 30.8255L164.683 31.1853C164.721 31.5718 164.715 31.5881 165.161 31.4928C165.666 31.4376 166.246 31.4513 166.46 31.918C166.791 32.5299 167.176 32.6741 167.701 32.7082C167.952 32.7056 168.163 32.7789 168.313 32.9529C168.479 33.0898 168.667 33.1921 168.863 33.3808C168.606 33.4564 168.511 33.1373 168.336 33.422C168.221 33.6136 168.399 33.6752 168.454 33.7828C168.55 33.9315 168.697 33.9963 168.889 34.0327C169.092 34.0693 169.217 34.1872 169.179 34.4199ZM167.083 31.8404C167.286 31.5997 167.463 31.3326 167.799 31.2147C167.973 31.155 168.134 31.2155 168.237 31.3539C168.271 31.397 168.272 31.4567 168.289 31.5123C167.929 31.7039 167.744 32.1307 167.243 32.0854C167.191 32.077 167.126 32.0505 167.099 32.0089C167.076 31.966 167.058 31.8761 167.083 31.8404ZM182.32 36.7078C182.249 36.7196 182.088 36.5235 182.086 36.4569C182.066 35.9549 181.866 35.5584 181.792 35.0985L181.613 33.7049C181.505 33.1321 181.778 33.2715 181.833 33.0557C181.987 32.3905 181.73 31.624 181.081 30.8049C180.718 30.3418 180.503 29.8254 180.496 29.3624C180.506 29.2566 180.511 29.1806 180.522 29.078C180.518 27.7688 180.248 27.0064 178.77 25.6328C177.825 24.7517 176.733 23.6922 175.643 23.37C175.49 23.3244 175.21 23.1515 175.079 23.0253C174.071 22.1271 172.968 21.7744 171.941 21.5966C171.003 21.3877 170.178 21.3039 169.335 20.7103C169.183 20.5946 168.848 20.5483 168.586 20.5042C167.556 19.5994 166.428 18.7954 165.287 18.0315C164.491 17.5665 163.804 16.9496 162.82 16.6593C161.838 16.3295 160.849 16.0009 159.848 15.8084C157.844 15.4581 155.867 15.2774 153.868 15.011C153.686 14.9853 153.478 14.9892 153.276 14.9913C151.347 15.0831 149.399 15.2626 147.499 15.7828C145.058 16.4121 142.765 17.439 140.64 18.6599C138.285 20.0189 136.127 21.6653 134.24 23.5591C132.404 25.4082 130.8 27.4697 129.484 29.7062C128.264 31.7781 127.259 33.9788 126.542 36.3013C126.085 37.7405 125.757 39.2373 125.571 40.7603C125.321 42.5693 124.991 44.4101 125.35 46.3519C125.426 46.7266 125.41 47.1824 125.432 47.6009C125.534 49.8416 126.192 52.2133 127.328 54.3962C127.758 55.1939 128.173 56.0108 128.672 56.759C130.217 59.1634 132.062 61.2839 134.242 62.8788C137.043 64.9547 140.053 66.451 143.207 67.467C147.177 68.7281 151.186 69.2215 155.266 69.0365C157.593 68.9214 159.918 68.5125 162.2 67.9075C163.576 67.5203 164.933 67.046 166.222 66.3984C167.017 66.0261 167.852 65.5211 168.615 65.2624C169.726 64.8565 170.73 64.2289 171.688 63.5792C172.715 62.8765 173.675 61.9747 173.904 61.0916C174.003 60.734 174.283 60.4427 174.663 60.0952C175.235 59.5994 175.774 59.0512 176.346 58.6019C176.962 58.1572 177.186 57.4524 177.752 56.924C178.201 56.5015 178.689 55.929 178.718 55.3419C178.725 55.158 178.939 54.8689 179.128 54.7115C179.643 54.2834 179.696 53.9692 179.629 53.5815C179.577 53.3168 179.763 52.9861 180.009 52.8969C180.43 52.732 180.791 52.3684 181.146 51.6741C181.615 50.8167 181.896 49.917 182.217 49.0229C182.456 48.2961 182.448 48.2949 182.963 48.155C183.027 48.1425 183.094 48.1647 183.155 48.0961C183.559 47.631 183.92 47.1083 184.223 46.3726C184.492 45.7356 184.32 45.3097 184.384 44.7682L184.4 44.557C184.446 43.4569 184.356 43.36 183.857 43.4925C183.521 43.5775 183.182 43.6679 182.842 43.7151C182.709 43.7351 182.635 43.5835 182.622 43.2892C182.612 42.597 182.789 41.9812 182.972 41.3641C183.16 40.7956 183.378 40.7458 183.624 40.8156C183.736 40.8457 183.861 40.8465 183.948 40.5534C183.981 38.9493 183.631 37.7426 182.908 37.2158C182.716 37.0733 182.547 36.6744 182.32 36.7078Z" fill="#0BBC63"/>
</svg>
