<?xml version="1.0" encoding="utf-8"?>
<svg width="151" height="112" viewBox="0 0 151 112" fill="none" xmlns="http://www.w3.org/2000/svg">
<path fill-rule="evenodd" clip-rule="evenodd" d="M69.6426 68.3984C69.9769 69.6745 73.0931 70.9082 74.0059 71.0644C74.7117 71.1856 76.0821 71.2889 76.2608 70.3382C76.6809 68.1097 71.7222 68.27 69.6426 68.3984ZM16.1175 29.5641C20.0277 31.7485 16.9292 33.2496 15.8969 32.4787C15.1922 31.9553 14.2317 30.8759 14.2855 29.9299C14.3265 29.1905 15.6582 29.3052 16.1175 29.5641ZM39.563 26.9412C37.337 27.5361 35.29 28.5909 33.5427 30.1037C32.2335 28.5829 32.1827 26.1808 33.8776 24.8532C34.7839 24.1387 36.0433 23.868 37.1291 24.2974C37.9242 24.6111 39.9161 25.8354 39.563 26.9412ZM66.3204 46.5089C67.3434 47.2562 68.9447 45.4881 69.2967 44.5235C69.8351 43.0359 67.8545 40.224 66.5655 42.1362C66.4541 42.3006 66.3231 42.4407 66.1708 42.5619C66.4149 43.8632 66.463 45.1892 66.3204 46.5089ZM68.4042 49.8149C67.8509 51.147 67.2632 52.8461 68.6626 53.82C69.8512 54.6425 71.8302 54.7027 73.2327 54.8291C74.6108 54.9554 75.997 54.9762 77.3773 55.0807C76.815 53.2995 76.9176 51.3459 77.2045 49.5043C77.5291 47.4545 78.1314 45.2877 77.8105 43.2052C77.3992 40.5396 74.1584 40.0924 71.7766 40.5069C72.6955 41.8161 73.0958 43.4551 72.7274 45.0563C72.2327 47.1874 70.4558 49.0736 68.4042 49.8149ZM41.1544 54.7281C41.6333 54.9446 42.1304 55.1482 42.6234 55.3335C42.3364 55.5287 42.0114 55.6778 41.7493 55.7896C41.6957 55.8042 41.5877 55.8355 41.5472 55.8218C41.5011 55.7939 41.4293 55.6421 41.4088 55.595C41.2925 55.3186 41.2098 55.0255 41.1544 54.7281ZM19.4608 101.74C21.1152 102.562 23.0482 104.885 23.2072 106.432C23.3111 107.435 23.0193 108.105 22.132 107.229C20.882 105.999 19.5042 103.699 19.4608 101.74ZM42.3743 87.8888C37.0213 87.3689 32.2405 84.7252 27.4208 82.5334C25.1486 81.5 22.916 80.5754 20.6862 79.4174C19.2884 78.6892 17.786 77.8547 16.5463 76.8812C16.1955 76.6048 15.036 75.6305 15.116 75.1034C15.121 75.0683 15.1337 75.0359 15.1522 75.0019C22.8326 61.5425 21.4246 57.7865 37.0724 52.1291C37.2566 52.2823 37.4434 52.4281 37.6338 52.5731C37.456 55.0857 37.8495 58.4937 40.6812 59.2044C41.9397 59.6319 43.1542 59.2274 44.2162 58.4998C44.7969 58.1047 45.3191 57.6208 45.8126 57.1244C45.9578 56.9783 46.2199 56.6874 46.431 56.4853C47.0451 56.621 47.6267 56.7035 48.2564 56.7881C51.6976 59.9696 49.0757 69.8144 48.0847 73.6776C46.9423 78.1296 45.6081 84.4142 42.3743 87.8888ZM29.2442 28.6122C29.2244 28.6347 29.2071 28.6601 29.1902 28.6843C28.9712 28.9811 28.6405 29.3461 28.2442 29.3722C26.4665 29.4759 23.5746 23.6295 22.8999 22.2917C22.3778 21.2616 21.8704 20.2189 21.3591 19.1824C21.8047 18.9905 22.2321 18.7448 22.633 18.4752C24.6212 17.1279 26.9979 14.3301 29.6134 14.7569C31.1458 15.007 35.6864 17.9232 35.5063 19.7418C35.4639 20.1633 35.1434 20.4778 34.8181 20.7092C34.7915 20.7261 34.7694 20.7451 34.746 20.763C33.9848 20.8967 33.2545 21.1594 32.5781 21.5398C30.0113 22.9846 28.8165 25.7801 29.2442 28.6122ZM4.30799 86.2889C4.49328 86.3673 4.68393 86.4302 4.87653 86.482C6.55795 86.9122 8.46183 89.2288 7.25649 90.9461C6.90853 91.4437 6.18873 90.9444 5.83828 90.6823C4.76491 89.8838 2.82777 87.4142 4.30799 86.2889ZM45.2379 37.3438C45.2354 37.336 45.2349 37.3271 45.2315 37.3014C45.1672 36.9486 45.3621 36.5333 45.8092 36.4394C46.186 36.3584 46.5519 36.5854 46.6661 36.9293C46.6716 36.9435 46.6769 36.9589 46.6909 37.0352C46.7667 37.4361 46.5106 37.8266 46.1151 37.9067C45.7163 37.9912 45.3263 37.7381 45.2379 37.3438ZM54.2733 48.6039C52.0056 50.5848 48.5553 50.6209 45.814 49.8128C43.1409 49.024 40.3005 47.1831 39.3963 44.4038C38.9207 42.9402 39.0714 41.438 39.6975 40.04C40.6153 37.9825 43.8458 39.2121 42.922 41.2819C41.043 45.4937 49.2471 48.3954 52.0041 45.9868C52.4443 45.6065 53.0101 45.4547 53.5713 45.6231C54.8649 46.0033 55.347 47.6679 54.2733 48.6039ZM39.6703 49.6209C38.871 49.0232 38.1094 48.3708 37.4113 47.6542C32.7605 42.8939 30.0375 35.3895 37.4546 31.6642C42.0599 29.3531 47.6074 30.3538 52.0683 32.4971C55.1803 33.9937 58.2142 36.257 60.3635 38.9867C61.9948 41.0629 63.4378 43.8617 62.9765 46.5898C62.7905 47.6844 62.3124 48.6573 61.602 49.5056C58.66 53.0212 54.4327 54.2145 50.0193 53.7415C49.9036 53.6627 49.7861 53.5791 49.6685 53.5059C49.1344 53.1658 48.5108 53.1351 47.976 53.4103C45.5859 52.8878 43.2462 51.92 41.1683 50.6371C40.9435 50.0153 40.3373 49.6418 39.6703 49.6209ZM128.678 32.6562C128.929 32.9211 130.086 32.7409 130.388 32.6742C130.94 32.5597 131.698 32.3378 132.19 32.0609C132.869 31.678 133.572 30.949 133.49 30.1037C133.32 28.386 131.643 27.8162 130.22 28.4402C129.988 29.9406 129.485 31.3702 128.678 32.6562ZM97.067 17.5062C97.0053 15.944 96.5466 15.1208 95.0179 14.3536C93.6201 13.7636 91.9525 13.4975 91.0158 14.971C90.0995 16.4155 91.7231 18.3147 92.7803 19.1758C93.9892 20.1585 94.7122 20.1011 96.0342 19.769C96.2889 18.9784 96.6353 18.2143 97.067 17.5062ZM96.5143 81.4883C96.4947 76.4223 97.4138 71.8862 100.259 67.5614C101.454 65.6245 104.848 67.2048 106.442 67.7562C106.945 67.9325 107.329 68.3001 107.493 68.7938C107.685 69.0925 107.773 69.4358 107.76 69.7958C107.655 73.0778 106.911 76.2685 106.46 79.5094C106.013 82.7002 106.432 86.0452 110.134 86.7254C110.838 86.8569 112.18 86.8022 112.898 86.7403C113.239 86.7119 114.996 86.4907 115.128 86.1139C115.129 86.1 115.122 86.074 115.12 86.0608C113.274 78.7142 115.816 71.3455 116.27 64.0051C109.478 63.3834 102.661 62.1433 96.5476 59.0183C93.6978 62.8099 92.2445 66.4636 91.5853 71.2779C91.2419 73.7818 90.7373 76.3719 91.0535 78.903C91.3296 81.0971 94.4855 81.3955 96.5143 81.4883ZM112.164 104.105C110.964 103.831 107.406 104.415 106.446 104.647C105.849 104.795 105.141 105.11 104.606 105.411C104.255 105.611 103.345 106.193 103.306 106.649C103.289 106.864 103.557 107.102 103.701 107.216C105.638 108.749 111.407 106.576 112.164 104.105ZM91.6161 100.672C91.5714 100.615 91.529 100.556 91.491 100.493C90.5148 99.726 88.7082 99.6441 87.5368 99.6352C87.1945 99.6304 86.8309 99.6881 86.5056 99.7812C86.19 99.8715 85.5139 100.133 85.3904 100.476C85.3182 100.684 85.5295 100.977 85.6455 101.122C86.9878 102.77 90.3114 102.309 91.6161 100.672ZM141.343 53.9625C141.798 55.1231 142.55 56.1732 143.858 56.4175C144.975 56.6329 146.146 56.2044 146.975 55.4413C147.649 54.8231 147.407 53.9965 146.623 53.624C145.099 52.8986 142.83 53.0363 141.343 53.9625ZM109.499 37.8618C109.609 38.4222 109.821 39.4005 110.082 39.5224C110.381 39.5145 110.886 38.8976 111.291 38.3151C110.688 38.1909 110.09 38.04 109.499 37.8618ZM115.126 38.7049C114.102 40.6861 112.23 43.0821 109.873 42.9474C106.531 42.7596 106.151 38.8858 105.638 36.2694C105.417 36.1541 105.199 36.033 104.984 35.9095C100.42 38.8408 97.1649 49.4949 96.5066 54.5676C97.1146 56.4597 101.341 58.1067 102.937 58.6352C107.76 60.2282 113.301 60.7839 118.387 60.7282C121.124 54.8517 122.897 43.7353 118.389 38.4948C117.308 38.6438 116.217 38.7111 115.126 38.7049ZM112.609 18.1491C112.323 16.7566 110.64 16.3594 109.673 17.2995C109.25 17.7102 109.099 18.2797 109.216 18.8531C109.387 19.6818 108.733 21.0648 108.464 21.8596C107.738 23.9978 111.018 25.1066 111.742 22.9698C112.265 21.43 112.948 19.8053 112.609 18.1491ZM119.571 21.2534C119.811 19.0024 116.36 18.7452 116.119 20.9824C115.98 22.3031 115.457 23.5568 115.312 24.8971C115.072 27.1487 118.523 27.4059 118.764 25.1652C118.905 23.8479 119.43 22.5911 119.571 21.2534ZM122.419 27.6252C123.094 25.4696 119.807 24.3898 119.131 26.5474C117.459 31.8957 109.343 28.5285 107.746 24.7974C106.854 22.7128 103.73 24.2139 104.607 26.2643C107.444 32.8922 119.768 36.0958 122.419 27.6252ZM103.124 15.83C100.882 17.3728 98.7585 19.5941 98.8645 22.5088C99.0461 27.5583 105.385 31.6204 109.505 33.3186C117.226 36.4961 127.944 36.5196 126.815 25.2834C126.252 19.6547 122.832 16.0727 117.644 14.2598C112.813 12.5769 107.42 12.8763 103.124 15.83ZM83.3203 29.9529C83.1486 28.4895 82.3915 27.0107 81.4649 25.944C81.063 25.4853 79.0079 24.2118 78.6071 25.1564C78.1629 26.198 78.8871 27.7583 79.4869 28.611C80.3543 29.8367 81.6056 30.4129 83.0846 30.0022C83.1618 29.9794 83.2421 29.9631 83.3203 29.9529ZM64.9287 38.88C61.1468 31.2195 51.3011 26.8858 43.0436 26.4831C42.9218 24.5711 41.5435 22.8142 39.95 21.8492C39.536 21.6003 39.1038 21.3841 38.6544 21.2036C39.7349 17.8134 36.0086 13.5434 33.1975 12.2711C30.7354 11.1575 27.899 10.8238 25.4529 12.1891C24.3795 12.7868 20.9999 15.893 19.5625 15.7826C19.1566 15.0957 18.557 14.1913 17.9124 13.8695C16.6823 13.2615 15.2622 14.5729 15.573 15.8567C15.8023 16.7927 16.1929 17.7392 16.8518 18.4589C17.2512 19.5024 17.6365 20.5519 18.0366 21.5984C19.0275 24.1892 19.9836 26.8465 21.5199 29.1766C23.4225 32.0545 27.6 34.0963 30.6536 32.0112C30.8276 32.2459 31.0153 32.4704 31.2185 32.6805C27.4854 38.1052 29.7769 44.3231 33.7657 48.9403C33.2757 49.3037 32.6225 49.5645 32.102 49.6649C30.7357 49.9281 29.5044 49.4308 28.468 48.544C28.4536 48.5304 28.4412 48.5206 28.4273 48.5105C26.5984 47.1592 25.1032 45.3783 24.0135 43.3852C22.6588 40.9093 21.333 37.9696 21.1689 35.1136C21.0911 33.7674 21.6631 32.59 21.6591 31.2928C21.6565 29.291 20.1037 27.9913 18.563 26.9884C16.1781 25.4331 11.9801 25.3894 11.0191 28.6581C9.95248 32.2885 13.8622 36.842 17.5502 36.2746C17.6373 36.2639 17.7207 36.2433 17.8044 36.2267C18.278 40.7953 20.6769 45.6792 23.7374 48.9331C24.9411 50.217 26.3541 51.5041 27.9748 52.2869C17.6385 57.9318 17.462 65.0477 11.3516 74.5096C11.0124 75.0326 10.9346 75.7729 11.2826 76.3134C12.5479 78.2701 14.2461 79.7657 16.1712 80.9973C13.3098 82.0873 9.25045 83.0571 6.62575 83.1433C5.88096 83.1675 5.17645 82.766 4.44389 82.6826C4.37471 82.6715 4.28908 82.6628 4.20363 82.6637C3.99758 82.6617 3.78045 82.6976 3.57803 82.7821C-2.12858 84.8015 0.600298 91.9612 4.72399 94.0541C7.03792 95.2304 9.58542 94.4818 10.587 91.9939C11.365 90.0565 11.0199 87.999 9.8799 86.3688C12.9212 85.7212 17.7089 84.4275 19.9274 83.0211C24.1297 85.0207 28.3775 86.9835 32.6778 88.7611C31.6951 92.4616 24.1251 97.8032 20.7655 97.9662C19.182 98.0403 16.7926 96.6669 16.1092 98.9087C14.909 102.851 17.6333 109.149 21.3734 110.858C24.3693 112.226 26.7137 109.416 26.6806 106.562C26.6553 104.351 25.3886 102.276 23.7908 100.741C26.0422 99.9275 28.3733 98.4708 30.1463 97.0975C32.3161 95.415 35.0176 92.7812 35.9222 89.9905C38.4983 90.8556 41.1317 91.4137 43.8753 91.453C45.306 91.4706 46.4153 89.1206 46.9234 88.0339C47.9251 85.8885 48.7233 83.5337 49.4396 81.277C50.0823 79.2521 50.6718 77.2049 51.2171 75.1498C51.5526 73.8709 51.9139 72.5363 52.1605 71.2376C52.7254 68.2758 53.3517 65.0569 53.3077 61.9596C55.0474 63.9263 56.7677 65.6126 59.3445 66.8946C61.477 67.9555 63.8074 68.4032 66.1639 68.4928C66.5348 72.0288 71.6724 74.686 74.8122 74.6025C77.4838 74.5314 79.8074 72.8874 79.7489 70.0169C79.7095 68.0823 79.0342 65.9331 76.9402 65.3981C69.2294 63.4222 62.5907 67.3975 56.2848 60.6419C55.2387 59.5177 54.3809 58.2381 53.4422 57.0229C57.7452 56.7727 62.057 55.3052 64.4663 51.7875C64.33 54.3775 65.4564 56.6152 68.5094 57.5183C72.5534 58.7157 77.2765 57.7195 81.0414 59.3908C82.9056 60.2188 84.3289 57.3742 82.6058 56.3149C79.562 54.4439 80.3598 50.9652 80.8599 47.9847C81.1849 46.0513 81.5481 43.8879 81.0638 41.9589C80.3993 39.3025 78.2662 37.7933 75.7163 37.2042C74.1795 36.8496 72.4427 36.8126 70.8932 37.0986C70.1691 37.2306 69.0062 37.524 68.3779 38.1462C67.1336 37.8713 65.9273 38.1343 64.9287 38.88ZM98.4212 36.1938C99.2588 35.5127 100.13 34.7957 101.032 34.2162C101.296 34.0479 101.564 33.8864 101.837 33.7265C98.6634 31.088 96.2458 27.4964 95.6752 23.3363C95.6717 23.3159 95.6694 23.292 95.6647 23.27C89.9653 23.5041 84.5149 17.6564 88.6679 12.2992C91.7342 8.34096 97.8914 10.2113 99.7898 14.3084C100.481 13.6659 101.218 13.0759 101.986 12.5477C102.014 12.5308 102.038 12.5165 102.066 12.5013C106.293 10.3182 108.781 9.19013 113.498 10.2784C113.562 10.2946 113.775 10.3323 113.844 10.2997C113.917 10.2218 114.017 10.0099 114.071 9.90768C114.645 8.83664 115.52 8.70015 116.645 9.00755C116.763 9.04062 117.109 9.12678 117.267 9.10149C117.307 8.96198 117.282 8.64285 117.271 8.53509C117.13 7.23335 116.738 5.96346 116.537 4.668C116.346 3.41956 116.344 2.00076 117.42 1.12719C118.782 0.0239757 120.47 0.838553 121.775 1.5627C123.74 2.6481 121.922 5.50186 120.018 4.5465C120.196 5.61276 120.493 6.66232 120.652 7.73127C120.887 9.31007 120.597 10.9358 119.55 11.8406C124.762 14.2059 129.516 19.0563 130.267 24.793C133.04 24.2756 135.797 25.8089 136.687 28.62C137.45 31.0218 136.39 33.3707 134.371 34.7632C132.558 36.014 130.258 36.5667 128.09 36.1162C127.441 35.981 126.847 35.6989 126.367 35.2695C125.038 36.3604 123.488 37.1502 121.858 37.6964C122.549 38.9771 123.027 40.4234 123.43 41.7996C124.964 45.0209 126.926 47.4587 130.304 48.8523C133.132 50.0174 136.285 50.4484 139.28 51.0512C141.697 49.6685 146.209 49.2692 148.533 50.7125C150.802 52.1169 151.524 54.8949 150.027 57.1587C148.664 59.2247 145.885 60.1746 143.503 59.8673C140.471 59.4802 138.641 57.032 137.806 54.2863C134.21 53.5879 130.401 53.054 127.182 51.235C126.384 50.7862 125.644 50.271 124.953 49.6862C124.961 54.5202 123.211 59.2868 121.059 63.5467C120.777 64.1103 120.264 64.3172 119.719 64.3034C119.254 71.9121 117.021 79.4205 118.929 87.013C119.123 87.7818 118.683 88.7132 117.922 88.9863C116.501 89.4918 114.977 89.8926 113.472 90.1244C113.545 90.7417 113.577 91.4567 113.613 91.9016C113.735 93.4158 113.846 94.9341 113.974 96.4475C114.114 98.1334 114.259 99.8636 114.518 101.535C114.63 102.249 115.841 102.505 115.73 103.946C115.489 107.115 112.61 109.085 109.906 110.141C107.31 111.152 103.373 111.812 101.189 109.623C98.6498 107.08 100.363 103.679 103.101 102.202C105.156 101.093 108.427 100.3 110.948 100.592C110.892 97.1806 111.054 93.5791 110.039 90.3194C107.947 90.193 105.864 89.5216 104.568 87.7671C101.8 84.0305 102.753 79.1654 103.555 74.9282C103.774 73.7678 103.965 72.2938 103.77 71.1187C103.741 70.9447 103.568 70.1744 103.344 70.118C103.151 70.068 102.693 70.5519 102.591 70.6726C101.943 71.4393 101.458 72.5729 101.129 73.5107C100.031 76.6281 99.8745 80.0603 100.011 83.3354C100.052 84.3137 99.1127 85.1101 98.1677 85.0436C97.4698 84.9911 96.7728 84.9308 96.0758 84.8452C96.1761 89.2698 95.5999 93.6606 94.9805 98.0356C95.3889 98.3623 95.6238 98.8622 95.6065 99.4298C95.4134 105.546 86.4544 107.613 82.8426 103.169C80.8966 100.777 82.2887 97.385 85.1082 96.5259C87.0214 95.9466 89.6583 95.9728 91.6829 96.6864C92.2586 92.5269 92.756 88.3374 92.5973 84.136C88.4036 82.7706 87.2184 79.6779 87.59 75.2298C88.1563 68.4185 89.41 62.5089 93.5388 57.0237C92.9685 56.8103 92.6031 56.9094 92.2239 55.7346C92.1871 55.6384 92.1782 55.5468 92.1853 55.4443C92.6221 50.3692 95.1515 44.0234 97.8505 39.4588C95.9005 39.1954 93.8951 38.7062 92.0552 38.1595C89.7499 37.4743 84.5413 35.7116 83.0725 33.5509C80.4039 33.9505 77.9463 32.5886 76.4719 30.3218C75.1216 28.2469 74.4019 25.3336 75.806 23.0926C77.4911 20.3976 81.5422 21.293 83.5171 23.1143C85.9124 25.3193 87.3964 29.1481 86.6046 32.3994C89.0024 34.5304 95.3551 36.5871 98.4212 36.1938Z" fill="#FFD600"/>
</svg>
