<?xml version="1.0" encoding="utf-8"?>
<svg width="228" height="90" viewBox="0 0 228 90" fill="none" xmlns="http://www.w3.org/2000/svg">
<path d="M213.81 54.2317C213.712 54.2688 213.401 54.199 213.398 54.1657C213.369 53.8866 213.29 53.5932 213.663 53.3723C213.828 53.3766 214.023 53.3361 214.129 53.3852C214.499 53.5603 214.331 54.0216 213.81 54.2317ZM195.947 52.7408C195.813 53.1071 194.904 53.3497 194.327 53.1777C194.058 53.0992 193.728 52.9244 193.685 52.7532C193.596 52.4656 194.047 52.4067 194.336 52.3866C195.063 52.3385 195.042 52.0437 194.911 51.6966C195.026 51.7449 195.128 51.8043 195.252 51.8271C195.917 51.9543 196.107 52.3013 195.947 52.7408ZM176.013 51.8622C175.73 52.2354 175.295 52.4667 174.671 52.4872C174.478 52.4891 174.373 52.4597 174.337 52.3276C174.202 51.8257 174.822 51.267 175.522 51.2795C175.658 51.2876 175.795 51.3575 176.188 51.4786C176.16 51.5393 176.121 51.7126 176.013 51.8622ZM144.682 8.18427C144.41 8.17933 144.208 8.0802 144.208 7.91022C144.204 7.76047 144.302 7.55343 144.455 7.46823C145.046 7.12547 145.742 6.94848 146.463 6.93067C146.773 6.92245 146.899 7.1546 146.939 7.37824C146.377 7.94056 145.63 8.21375 144.682 8.18427ZM141.726 5.40709C140.843 5.66728 140.071 6.2677 138.796 6.09296C139.054 5.0917 139.594 4.33646 140.966 4.00905C141.464 3.88892 141.933 3.92518 142.4 4.00625C142.671 4.05102 142.782 4.21516 142.701 4.39712C142.512 4.79684 142.242 5.25572 141.726 5.40709ZM117.692 3.84198C117.469 3.95809 117.03 3.70947 117.031 3.48735C117.028 3.1824 117.077 2.85309 117.507 2.72406C118.26 2.51235 118.888 2.041 119.772 2.02265C119.826 3.08496 118.586 3.36619 117.692 3.84198ZM64.9809 82.0938C64.884 82.3206 64.7529 82.5404 64.5753 82.7394C64.0741 83.3262 63.328 83.551 62.4565 83.3449C61.8733 83.2168 61.3278 83.0073 60.7634 82.8229C60.9191 82.5427 61.1614 82.3182 61.5493 82.2126C62.4892 81.9761 63.4274 81.7347 64.3767 81.5072C64.6184 81.4466 64.9202 81.4502 65.0168 81.6205C65.0963 81.7501 65.0546 81.9423 64.9809 82.0938ZM44.731 84.6247C44.3719 84.7191 44.0034 84.7759 43.678 84.6006C43.8768 84.432 44.0654 84.2606 44.2952 84.1203C44.5175 83.9944 44.7533 83.7506 45.0968 83.9776C45.1478 84.008 45.1819 84.0571 45.2004 84.1138C45.2813 84.3736 45.0536 84.5384 44.731 84.6247ZM43.2848 85.662C42.3876 85.6033 41.7644 85.2839 41.9956 84.9884C42.3882 84.4792 42.9815 84.4526 43.6315 84.6233C43.6365 84.6228 43.6414 84.6224 43.6492 84.6118C43.7615 85.0053 44.1036 85.2027 44.6567 85.213C44.3243 85.5719 43.8658 85.7084 43.2848 85.662ZM33.8663 85.1932C33.6995 85.4024 33.488 85.5808 33.3087 85.7601C33.0921 85.8806 32.9042 86.0036 32.6987 86.0946C32.5851 86.1293 32.4178 86.1041 32.2856 86.082C32.24 86.0711 32.185 85.994 32.1956 85.9447C32.2928 85.6062 32.3503 85.2675 32.5112 84.9484C32.6365 84.7042 32.9989 84.648 33.3299 84.659C33.5721 84.6616 33.8234 84.6982 33.8967 84.8853C33.9396 84.9796 33.9365 85.1151 33.8663 85.1932ZM28.2012 87.1147C27.6622 87.2099 27.7715 86.9101 27.6743 86.7336C27.5558 86.5405 27.3889 86.3465 27.2925 86.1365C27.213 85.9498 27.3952 85.8038 27.6319 85.7436C28.1531 85.6016 28.6859 85.4351 29.2946 85.6292C29.1549 86.2083 28.5864 86.6347 28.2012 87.1147ZM180.935 46.3514C181.543 45.9401 182.171 45.9055 182.656 46.2505C183.121 46.5787 183.088 47.2503 182.579 47.653C182.167 47.9802 181.379 48.0138 181.055 47.7367C180.435 47.185 180.39 46.7138 180.935 46.3514ZM225.814 54.32C224.66 54.0852 223.54 53.7517 222.306 53.7657C221.971 53.7711 221.58 54.2268 221.3 54.1928C220.698 54.1184 221.313 53.5564 220.902 53.3452C220.649 53.217 220.35 53.0097 220.08 53.0244C218.394 53.1023 216.975 52.105 215.149 52.6666C214.79 52.7746 214.225 52.5283 213.772 52.4361C212.166 52.0964 210.538 52.2612 208.92 52.5466C208.385 52.6426 208.019 53.1246 207.261 52.977C207.225 52.6749 207.21 52.3362 207.142 52.0133C207.076 51.6891 206.633 51.5575 206.228 51.7439C205.883 51.9091 205.576 52.1106 205.243 52.2896C204.711 52.5876 204.189 52.8798 203.641 53.1556C203.274 53.3425 202.852 53.3294 202.444 53.2779C201.949 53.2092 201.974 52.9316 201.88 52.6432C201.774 52.3038 201.286 52.3312 200.867 52.416C200.52 52.4907 200.368 52.7024 200.178 52.9024C199.698 53.4043 199.05 53.3153 198.414 53.1869C197.999 53.1012 197.843 52.7612 198.073 52.4894C198.423 52.0608 199.224 51.7979 199.095 51.1403C197.601 51.0862 196.17 50.8952 194.878 51.651C194.147 51.5506 193.793 51.0963 193.296 50.7956C192.509 51.1641 192.044 51.7813 191.945 52.2552C191.757 53.1672 190.854 53.542 190.022 54.0012C189.309 54.398 188.657 54.2461 188.248 53.665C188.137 53.5158 188.052 53.3582 187.979 53.1945C187.737 52.6969 187.917 52.4778 188.608 52.2294C189.478 51.9158 190.538 51.969 191.489 51.4126C190.449 51.2695 189.609 51.3138 188.848 51.6949C188.211 52.0206 187.873 51.8564 187.5 51.4768C187.235 51.2045 186.757 51.2894 186.412 51.5029C185.857 51.8562 185.235 52.1819 185.018 52.7043C185.241 53.0882 185.776 53.1535 186.129 53.3748C186.585 53.6639 186.468 53.9843 185.807 54.1346C185.412 54.221 185.001 54.2963 184.596 54.3116C184.258 54.326 183.824 54.1899 184.031 53.9338C184.526 53.3339 184.294 52.947 183.639 52.6068C183.186 52.3644 183.218 52.0565 183.321 51.6741C183.413 51.3423 183.334 50.9894 182.85 50.7795C182.162 51.1158 181.506 51.4977 180.781 51.7876C179.971 52.1196 178.998 51.8553 178.577 51.1946C178.211 50.601 179.041 50.5724 179.499 50.3727C179.71 50.2812 179.943 50.1841 180.077 50.041C180.561 49.5338 181.148 49.5363 181.814 49.7304C182.038 49.7941 182.283 49.8312 182.522 49.839C183.479 49.8776 184.191 49.2439 183.67 48.7171C183.217 48.2477 183.205 47.8951 183.674 47.4712C183.952 47.2188 184.139 46.9656 183.905 46.6757C183.639 46.3502 183.584 46.0497 184.051 45.7425C184.429 45.5013 184.731 45.1935 185.298 45.1977C185.998 45.2102 186.691 45.2221 187.435 45.2407C187.313 45.4498 187.28 45.5693 187.186 45.6593C186.843 46.0092 186.813 46.3454 187.372 46.5154C187.9 46.683 188.384 46.4525 188.551 46.0894C188.819 45.4941 189.413 45.0742 189.934 44.6022C190.218 44.3592 190.561 44.1745 190.995 44.205C192.121 44.2824 192.86 43.8635 193.499 43.2461C193.652 43.1075 194.165 43.1933 194.12 43.2891C193.758 44.1008 194.935 44.304 195.225 44.8607C195.475 45.3377 196.139 45.2802 196.509 44.7978C197.018 44.1283 197.785 43.4713 197.009 42.685C196.829 42.512 196.555 42.3075 196.566 42.113C196.586 41.7862 197.067 41.6775 197.444 41.5568C197.901 41.4104 198.347 41.2464 198.828 41.1414C200.352 40.8257 201.255 40.0056 201.69 39.0423C202.494 37.2518 202.048 35.5697 200.691 34.0547C200.488 33.8353 200.143 33.6084 199.792 33.5321C198.023 33.142 196.372 32.5482 194.407 32.5784C192.016 32.6207 189.674 32.3882 187.347 32.0949C186.553 31.995 185.735 31.9494 184.919 31.9321C180.73 31.8647 176.541 32.1794 172.35 32.3678C171.863 32.3951 171.371 32.4192 170.885 32.3981C170.301 32.3718 170.028 32.0705 170.217 31.6906C170.383 31.361 170.607 31.0364 170.781 30.7012C171.412 29.4158 172.281 28.1482 172.617 26.8349C173.287 24.2658 173.158 21.7188 172.178 19.2443C171.848 18.4007 171.119 17.7084 170.364 17.0617C169.762 16.5469 168.971 16.1502 167.842 16.2034C167.205 16.235 166.545 16.1222 165.916 16.0118C164.725 15.8098 163.528 15.7536 162.276 15.8535C161.462 15.9092 160.638 15.8491 159.83 15.8038C157.472 15.6732 155.15 15.3806 152.751 15.4956C152.012 15.5361 151.277 15.4832 150.558 15.4202C149.875 15.3579 149.626 15.0594 149.755 14.5494C149.834 14.266 150.003 13.9845 150.075 13.6979C150.29 12.8307 150.671 11.9738 150.338 11.1007C150.193 10.7014 150.373 10.3223 150.782 9.95308C151.555 9.25086 151.728 8.44564 151.468 7.62575C151.378 7.32335 151.168 7.07484 150.714 7.04106C150.372 7.01232 150.096 7.17767 149.911 7.40216C149.564 7.80939 149.206 8.21884 148.865 8.6318C148.642 8.90301 148.352 9.13658 147.905 9.13192C147.319 9.13429 147.432 8.76593 147.37 8.49967C147.285 8.12365 147.421 7.69492 146.978 7.39462C147.132 7.08606 147.789 6.83928 147.439 6.49125C146.878 5.94438 147.342 5.72046 147.946 5.41502C148.411 5.18118 148.075 4.88157 147.842 4.66351C147.626 4.45524 146.968 4.47249 146.78 4.70223C146.447 5.11444 146.148 5.5324 145.87 5.96341C145.592 6.39074 145.114 6.34408 144.619 6.34358C144.052 6.33943 144.035 6.03073 143.978 5.75902C143.874 5.34251 143.903 4.89334 144.442 4.63317C145.312 4.21414 144.848 3.72589 144.907 3.23196C145 2.40504 144.014 2.55746 143.468 2.34301C143.047 2.18101 142.543 2.24461 142.151 2.5788C141.077 3.49575 139.529 3.81849 138.088 4.23995C137.62 4.38225 137.444 4.46948 137.548 4.83886C137.683 5.32095 137.365 5.75172 136.854 6.10622C136.515 6.33903 136.092 6.38061 135.701 6.29292C135.376 6.21939 135.307 5.98837 135.299 5.73599C135.279 5.10868 135.525 4.58743 136.389 4.26562C136.759 4.12191 137.129 3.97324 137.427 3.77865C137.559 3.68409 137.569 3.45126 137.54 3.29369C137.511 3.12626 137.324 2.97368 137.055 3.00568C136.163 3.11777 135.202 3.443 134.393 3.3332C133.054 3.14912 132.04 3.3102 131.082 4.05204C130.751 4.30905 130.298 4.18329 129.994 3.97142C129.493 3.60798 129.447 3.19509 129.734 2.70492C129.945 2.33807 130.65 2.14665 130.495 1.64647C130.445 1.45602 130.375 1.32188 130.075 1.32433C129.833 1.32544 129.517 1.37634 129.574 1.57991C129.842 2.43878 128.794 2.81627 128.184 3.32939C127.8 3.65298 127.027 3.40115 126.902 2.96531C126.736 2.3929 126.901 1.83645 127.193 1.28755C126.063 1.11385 126.063 1.11381 125.13 1.36462L125.121 1.31702C125.101 1.31873 125.087 1.32497 125.074 1.32614C125.084 1.33514 125.094 1.34422 125.109 1.34664C125.082 2.3775 123.331 2.53302 122.94 3.39193C122.88 3.52743 122.599 3.65347 122.382 3.71568C122.17 3.7825 121.863 3.8289 121.688 3.76595C121.518 3.70873 121.462 3.50022 121.371 3.34799C121.338 3.30745 121.372 3.23636 121.385 3.17688C121.472 2.77237 121.635 2.36614 121.628 1.95855C121.618 1.38869 120.503 1.71743 120.293 1.19721C120.056 0.588693 119.321 0.661174 118.692 0.905522C117.219 1.46002 115.788 2.05793 114.346 2.6581C114.145 2.74376 113.878 2.90709 113.861 3.04388C113.76 3.82802 112.759 4.03633 112.098 4.45713C111.961 4.54721 111.621 4.54691 111.423 4.49584C111.205 4.43786 111.137 4.27374 111.211 4.06882C111.404 3.54344 111.639 3.12109 112.446 2.8278C113.62 2.39224 114.683 1.79518 115.79 1.25875C115.893 1.2114 115.981 1.04869 115.963 0.957186C115.918 0.767544 115.674 0.70187 115.415 0.719365C115.173 0.73044 114.863 0.733774 114.698 0.834915C113.656 1.45869 112.243 1.5464 111.309 2.23284C110.718 2.00858 110.863 1.61768 110.786 1.2906C110.701 0.914692 110.408 0.828419 109.918 1.00733C109.252 1.25365 108.601 1.51357 108.08 1.94211C107.823 2.15298 107.397 2.27677 107.019 2.38273C106.427 2.55439 105.953 2.28526 105.93 1.79346C105.925 1.67728 106.027 1.56175 106.041 1.4489C106.087 1.13474 105.715 0.983385 105.459 1.10731C104.869 1.40531 103.782 1.38423 104.006 2.29529C104.119 2.76934 103.416 2.99028 102.55 2.83705C101.965 2.73769 102.111 2.4099 102.301 2.13665C102.494 1.85444 102.676 1.61031 102.278 1.36817C101.798 1.09088 101.17 1.05237 100.697 1.30677C100.428 1.44665 100.223 1.65302 99.9644 1.80693C98.9565 2.41787 98.3418 2.36941 97.3516 1.58183C97.1548 1.43017 96.9347 1.40957 96.7296 1.50551C95.607 2.02465 94.4823 2.53404 93.5554 3.23473C93.4135 3.3438 93.2369 3.31072 93.1526 3.18279C93.1254 3.14049 93.1627 3.0703 93.1918 3.01939C93.2851 2.8649 93.5344 2.6063 93.4732 2.57314C92.807 2.10238 92.2081 1.50543 91.0383 1.70858C90.4755 1.81444 89.8721 1.89651 89.3912 2.11686C88.8414 2.37295 88.6046 2.37486 88.3215 1.95774C88.1824 1.7564 87.7372 1.87322 87.4047 1.90204C86.8772 1.9577 86.5351 2.26274 86.0916 2.39919C85.4161 2.60788 84.6941 2.83917 84.1088 2.28448C83.791 1.98202 83.2364 2.01149 82.748 2.13075C82.2888 2.25864 81.8493 2.44191 81.4069 2.60556C80.5013 2.93716 79.3477 3.32753 78.6205 2.99727C77.7333 2.59531 77.1066 2.80969 76.3695 3.02371C75.7403 3.20852 75.1191 3.42738 74.4596 3.3059C73.5425 3.13231 72.681 3.3571 71.7858 3.49302C68.3058 4.05648 64.8461 4.68149 61.2789 4.73889C59.3965 4.76685 57.5227 5.12277 55.6658 5.45744C55.0923 5.55554 54.5757 5.7368 54.066 5.95467C51.9172 6.88783 49.9 7.99321 47.4896 8.58553C46.9577 8.7185 46.4856 9.0262 46.0117 9.27075C44.5277 10.0433 43.0125 10.7863 41.4866 11.519C39.1172 12.6549 36.6412 13.6066 34.1145 14.4893C32.7078 14.9798 31.5681 15.6455 30.4709 16.3994C29.162 17.2883 28.7425 18.3184 29.5257 19.4229C30.756 21.1487 31.9813 22.8737 34.4231 23.9176C34.8766 24.1102 34.8615 24.4515 34.4089 24.5974C31.3171 25.6024 28.6832 27.0949 26.1415 28.6912C24.2989 29.8496 22.5314 31.045 21.186 32.5289C20.4086 33.3952 19.4454 34.2491 18.2254 34.7184C16.2845 35.4735 14.6873 36.5574 12.7754 37.3186C11.7968 37.7087 10.9833 38.2295 10.264 38.8204C8.86099 39.9693 7.30769 41.0593 6.6096 42.7823C6.44684 42.3647 6.34687 42.2133 6.32239 42.0454C6.14941 40.9947 5.79454 40.8803 4.41652 41.3583C4.03487 41.4931 3.64045 41.5807 3.2473 41.683C2.32254 41.9219 1.60833 42.2853 1.59329 43.0707C1.57824 43.4554 1.175 43.7273 0.770901 43.9323C0.130055 44.2546 0.207641 44.5915 0.470539 44.9906C1.15726 46.0848 1.74337 47.2064 2.50881 48.2641C3.74365 49.9845 5.1422 51.6325 6.85621 53.1265C7.55993 53.7442 8.29162 54.4127 9.34218 54.6802C10.4814 54.9685 10.947 55.5299 11.3002 56.2548C11.5653 56.7938 11.9347 57.3052 12.2047 57.8438C12.478 58.3772 12.7157 58.9285 12.4821 59.5405C11.9641 60.8931 12.5234 62.1919 12.5601 63.5175C12.578 64.0531 13.3896 64.2545 13.9992 63.9014C14.2486 63.7582 14.3981 63.5219 14.641 63.3607C14.8556 63.2168 15.1193 63.2957 15.2889 63.4063C15.4451 63.5193 15.6423 63.6758 15.629 63.8085C15.6047 64.029 15.4206 64.2534 15.3141 64.4698C14.7938 65.567 14.7349 66.6341 15.0644 67.7444C15.4409 69.0095 16.2187 70.0959 17.2141 71.1287C17.7358 71.6653 17.6531 71.8275 16.9315 72.2921C16.496 72.578 16.0455 72.849 15.6456 73.1603C13.5667 74.7847 12.7214 77.5576 15.5375 79.2415C15.9 79.4582 16.241 79.699 16.5268 79.9757C17.0875 80.5177 17.8121 80.8184 18.8023 80.7326C19.5585 80.667 19.7748 80.9299 19.883 81.3907C19.9671 81.7457 20.2881 81.9846 20.9096 81.9406C21.5747 81.8979 21.7471 82.2117 21.6065 82.6072C21.395 83.2459 21.4373 83.7757 22.3638 84.0726C22.7372 84.1866 22.6948 84.4272 22.6434 84.6649C22.5711 84.9466 22.4204 85.2264 22.417 85.517C22.4164 85.9104 22.7295 86.1586 23.295 86.1977C23.6128 86.2284 23.9441 86.1997 24.2737 86.1947C24.7622 86.1908 25.3435 86.0685 25.714 86.2063C26.2398 86.4027 26.1128 86.8988 26.1421 87.2933C26.16 87.5001 26.4251 87.6955 26.6141 87.8727C26.9159 88.1616 26.7618 88.402 26.4529 88.6323C26.2302 88.8116 25.9858 88.9544 25.7532 89.1197C26.8477 88.4343 27.9826 88.8445 28.9743 88.9769C29.7495 89.0884 30.4758 89.4224 31.3106 89.2049C32.2209 88.9709 33.031 89.3126 33.9518 89.1993C36.3305 88.9149 38.6161 88.2713 40.9728 88.0038C42.3972 87.8319 43.2263 87.0479 44.4412 86.749C44.9435 86.6174 45.3053 86.3826 45.6453 86.1112C45.8532 85.9331 46.0504 85.746 46.23 85.5853C45.8932 85.1058 45.1207 85.5413 44.7675 85.2034C46.3576 84.2654 47.9925 83.3879 49.7762 82.6514C50.1825 82.4859 50.3678 82.3185 50.2631 81.9554C50.1583 81.591 50.2641 81.1799 50.2751 80.8055C50.4659 80.7741 50.6354 80.711 50.7816 80.7231C51.3499 80.7942 51.8373 81.1638 52.3557 80.4316C52.8532 79.7433 53.9915 79.6781 55.0131 79.726C55.3498 79.7452 55.671 79.8142 55.7591 80.0584C55.8679 80.3541 55.7977 80.6605 55.4318 80.8622C55.1142 81.0497 54.7244 81.2051 54.3406 81.3004C52.9353 81.6356 52.0809 82.5149 50.9568 83.1309C50.8772 83.1713 50.8923 83.3449 50.9162 83.4496C50.9521 83.5916 51.0839 83.5951 51.2903 83.5139C53.5325 82.6558 55.9422 82.2136 58.3682 81.8582C58.9909 81.7707 59.7188 81.5078 60.2522 81.7916C60.5377 81.9505 60.1516 82.4641 60.5945 82.721C60.6443 82.7365 60.6731 82.7824 60.7056 82.828C59.6367 84.2531 59.6182 84.2547 57.5008 83.5326C56.966 83.3457 56.3917 83.3769 55.8179 83.47C55.3446 83.5495 55.3229 83.9149 55.0719 84.1401C54.2489 84.8802 53.844 85.6907 53.977 86.6097C54.0209 86.8875 53.9145 87.1771 53.8735 87.4908C53.0264 87.6672 52.2383 87.8509 51.4326 87.9605C51.0652 88.0159 50.9215 87.7616 50.9093 87.5059C50.8925 87.2555 51.0213 87.0656 51.3421 86.9162C51.5464 86.8117 51.7293 86.6743 51.5029 86.5239C51.4092 86.4601 51.1706 86.441 51.0435 86.4918C50.5362 86.666 50.0365 86.8843 49.3803 87.1446C50.2549 87.5142 50.4714 87.9942 49.6927 88.5716C49.5248 88.6965 49.4479 88.8831 49.3422 89.0523C49.1996 89.2533 48.9819 89.4905 49.3401 89.6431C49.4744 89.6897 49.8155 89.6019 50.0063 89.4985C50.6238 89.1931 51.2145 88.8515 51.8271 88.5317C52.1705 88.3568 52.5668 88.176 52.962 88.37C53.6149 88.7018 54.1721 88.4736 54.7592 88.2043C55.6077 87.8156 56.6277 87.5585 57.302 87.0633C59.1219 85.7431 61.5479 85.7747 63.7051 85.2241C64.0038 85.135 64.4405 85.3204 64.2319 85.5904C63.9306 85.98 64.094 86.2326 64.3521 86.534C64.6906 86.9166 63.7808 87.2138 64.1066 87.724C64.9268 87.066 65.5447 86.3636 66.4423 85.8255C67.1622 85.3996 67.4299 85.4099 67.893 86C68.1595 86.3404 68.4284 86.6943 68.6859 87.0454C68.8726 87.2959 69.1883 87.302 69.5098 87.2171C69.8225 87.1317 70.101 86.981 70.4088 86.896C71.3356 86.637 71.7359 86.7177 72.2626 87.2688C73.7912 88.857 73.7904 88.8472 76.6389 88.3285C78.3387 88.0261 80.073 87.7939 81.7616 88.0929C84.4793 88.5843 87.0901 88.2277 89.6676 87.374C90.2758 87.1761 90.9231 86.8136 91.4971 86.837C92.8049 86.8936 93.6417 86.3695 94.5356 85.8317C94.9179 85.605 95.3106 85.3823 95.7028 85.1548C96.3862 84.7507 96.5508 84.7029 97.1446 85.1266C97.8847 85.6629 98.5199 85.7195 99.4985 85.2712C101.232 84.4757 103.203 84.223 105.189 84.1624C105.494 84.1546 105.938 84.1794 106.085 84.3119C106.83 84.9656 107.798 84.7799 108.783 84.6846C109.763 84.5897 110.75 84.5141 111.735 84.4622C112.638 84.4224 113.548 84.3534 114.403 84.1006C116.261 83.5661 118.215 83.1734 119.803 82.2119C119.992 82.1037 120.228 82.02 120.448 81.9377C120.796 81.8108 121.153 81.843 121.271 82.0847C121.66 82.8748 122.445 83.097 123.575 82.942C124.447 82.8266 124.833 83.1964 125.266 83.6676C126.421 84.9147 127.84 85.0586 129.648 84.2318C130.207 83.9663 130.635 83.5408 131.33 83.457C132.495 83.2977 133.506 82.8949 134.554 82.5125C135.288 82.2504 136.101 82.1315 136.933 81.9291C137.103 82.6265 137.533 82.9279 138.533 83.0112C140.617 83.1755 142.713 83.4243 144.361 84.4351C144.643 84.6043 145.083 84.6628 145.471 84.7173C147.12 84.9379 148.735 84.6763 150.322 84.267C150.834 84.1308 151.089 83.8755 151.324 83.5164C152.163 82.28 153.275 81.8114 155.056 82.0688C155.934 82.1813 156.472 82.013 157.022 81.5932C157.25 81.4184 157.452 81.1924 157.734 81.0799C158.623 80.7174 159.352 79.9123 160.593 80.4102C160.904 80.5383 161.195 80.3097 161.481 80.1881C162.63 79.6865 163.731 79.0389 164.959 78.7725C166.635 78.4237 167.802 77.5173 169.304 77.0149C169.591 76.9168 169.763 76.6501 169.448 76.4355C169.104 76.2085 168.685 76.0264 168.373 75.7719C167.946 75.4354 168.152 74.9573 168.761 74.7742C169.715 74.4831 170.705 74.4308 171.682 74.4726C172.616 74.5083 173.491 74.4324 174.301 74.052C175.147 73.6338 176.038 73.3382 177.047 73.2322C177.55 73.1736 177.661 72.8737 177.56 72.5525C177.175 72.8091 176.733 72.9628 176.235 73.0457C174.842 73.2384 174.556 73.0697 174.525 72.0401C174.521 71.8221 174.737 71.5764 174.259 71.4962C173.989 71.4563 173.512 71.5858 173.528 71.2693C173.535 71.0255 173.965 70.9498 174.278 70.8643C174.435 70.8272 174.652 70.7687 174.699 70.6976C175.308 69.6125 176.599 69.4758 177.931 69.4087C177.464 69.9492 177.628 70.662 176.845 71.1417C176.672 71.2536 176.886 71.4385 177.157 71.4869C177.384 71.5256 177.604 71.6033 177.831 71.6617C178.187 70.9621 178.985 70.4327 179.511 69.7903C179.88 69.3465 179.23 69.4028 178.981 69.2693C181.267 68.529 183.684 68.111 186.083 67.6599C186.961 67.4969 187.713 67.3399 188.017 66.7081C188.28 66.1716 188.845 65.9677 189.47 65.8154C190.42 65.5731 191.36 65.298 192.355 65.2601C192.858 65.2463 193.333 65.1902 193.776 64.9819C194.792 64.5253 195.881 64.2721 197.071 64.3091C197.659 64.3301 198.211 64.1619 198.716 63.9481C200.499 63.2067 201.312 63.0159 203.048 62.9188C203.366 62.8962 203.817 62.9054 203.975 62.7701C204.733 62.1226 205.759 62.2136 206.713 62.0923C207.375 62.0102 207.971 61.8953 208.49 61.5214C208.828 61.2788 209.334 61.0798 209.798 60.9999C210.893 60.828 211.841 60.5275 212.543 59.8513C212.758 59.6491 213.111 59.5787 213.432 59.5993C214.95 59.7245 216.096 59.1264 217.261 58.5267C218.36 57.9563 219.593 57.5293 220.924 57.6806C222.32 57.8449 223.29 57.4023 224.225 56.7257C225.575 55.7551 225.59 55.7588 227.457 55.3798C226.394 55.2002 226.053 54.7881 225.814 54.32Z" fill="#FFD600"/>
</svg>
