<?xml version="1.0" encoding="utf-8"?>
<svg width="26" height="26" viewBox="0 0 26 26" fill="none" xmlns="http://www.w3.org/2000/svg">
<path d="M25.4352 7.92971C25.3754 6.57479 25.1563 5.6433 24.8424 4.83615C24.5185 3.97938 24.0203 3.21231 23.3675 2.57464C22.7297 1.92705 21.9574 1.42385 21.1104 1.10511C20.2984 0.791243 19.3716 0.572137 18.0165 0.512398C16.6512 0.4476 16.2177 0.432617 12.755 0.432617C9.29219 0.432617 8.85876 0.4476 7.49852 0.507339C6.14335 0.567078 5.21168 0.786378 4.40456 1.10005C3.54744 1.42385 2.78022 1.922 2.14244 2.57464C1.49472 3.21231 0.991616 3.98443 0.672625 4.83128C0.358694 5.6433 0.139546 6.56973 0.0797963 7.92465C0.0149861 9.28969 0 9.72303 0 13.1851C0 16.6473 0.0149861 17.0806 0.0747361 18.4406C0.134486 19.7955 0.353829 20.727 0.667759 21.5341C0.991616 22.3909 1.49472 23.158 2.14244 23.7957C2.78022 24.4432 3.5525 24.9464 4.3995 25.2652C5.21168 25.5791 6.13829 25.7982 7.49366 25.8579C8.8537 25.9178 9.28732 25.9326 12.7501 25.9326C16.2129 25.9326 16.6463 25.9178 18.0065 25.8579C19.3617 25.7982 20.2934 25.5791 21.1005 25.2652C22.8146 24.6026 24.1697 23.2477 24.8324 21.5341C25.1462 20.7221 25.3655 19.7955 25.4253 18.4406C25.485 17.0806 25.5 16.6473 25.5 13.1851C25.5 9.72303 25.4949 9.28969 25.4352 7.92971ZM23.1384 18.341C23.0835 19.5863 22.8743 20.2588 22.6999 20.7071C22.2714 21.8181 21.3895 22.6997 20.2784 23.1282C19.83 23.3026 19.1525 23.5117 17.9118 23.5664C16.5665 23.6264 16.163 23.6411 12.76 23.6411C9.357 23.6411 8.94848 23.6264 7.6081 23.5664C6.3625 23.5117 5.68987 23.3026 5.24145 23.1282C4.68852 22.9239 4.18522 22.6001 3.7767 22.1767C3.3532 21.7632 3.02934 21.265 2.82499 20.7122C2.6506 20.2639 2.44138 19.5863 2.38669 18.346C2.32675 17.001 2.31195 16.5974 2.31195 13.1951C2.31195 9.7927 2.32675 9.38426 2.38669 8.04432C2.44138 6.79896 2.6506 6.12646 2.82499 5.67813C3.02934 5.12511 3.3532 4.6221 3.78176 4.21347C4.19515 3.79004 4.69339 3.46625 5.24651 3.26212C5.69493 3.08777 6.37262 2.87859 7.61316 2.82372C8.95841 2.76398 9.36206 2.74899 12.7649 2.74899C16.173 2.74899 16.5764 2.76398 17.9168 2.82372C19.1624 2.87859 19.835 3.08777 20.2835 3.26212C20.8364 3.46625 21.3397 3.79004 21.7482 4.21347C22.1717 4.62697 22.4956 5.12511 22.6999 5.67813C22.8743 6.12646 23.0835 6.80382 23.1384 8.04432C23.1982 9.38932 23.2132 9.7927 23.2132 13.1951C23.2132 16.5974 23.1982 16.996 23.1384 18.341Z" fill="white"/>
<path d="M12.755 6.63453C9.13785 6.63453 6.2031 9.56853 6.2031 13.1851C6.2031 16.8018 9.13785 19.7358 12.755 19.7358C16.3723 19.7358 19.3068 16.8018 19.3068 13.1851C19.3068 9.56853 16.3723 6.63453 12.755 6.63453ZM12.755 17.4344C10.4084 17.4344 8.50493 15.5315 8.50493 13.1851C8.50493 10.8388 10.4084 8.93593 12.755 8.93593C15.1018 8.93593 17.005 10.8388 17.005 13.1851C17.005 15.5315 15.1018 17.4344 12.755 17.4344Z" fill="white"/>
<path d="M21.0956 6.37553C21.0956 7.22005 20.4107 7.9048 19.5659 7.9048C18.7212 7.9048 18.0363 7.22005 18.0363 6.37553C18.0363 5.53083 18.7212 4.84627 19.5659 4.84627C20.4107 4.84627 21.0956 5.53083 21.0956 6.37553Z" fill="white"/>
</svg>
