<?xml version="1.0" encoding="utf-8"?>
<svg width="160" height="135" viewBox="0 0 160 135" fill="none" xmlns="http://www.w3.org/2000/svg">
<path d="M35.9285 9.38241C35.4509 9.16953 35.049 8.78676 34.8364 8.28473C34.4097 7.27999 34.9022 6.17504 35.9347 5.82074L50.0472 0.960093C51.0803 0.604339 52.2626 1.13135 52.6887 2.13755C53.1139 3.1416 52.6213 4.24659 51.5904 4.60158L37.4764 9.4615C36.961 9.639 36.4061 9.5953 35.9285 9.38241Z" fill="#FFD600"/>
<path d="M51.0822 39.1288C50.4657 38.8541 49.9996 38.2829 49.8971 37.5813L48.0377 24.5838C47.8859 23.5127 48.644 22.5423 49.7367 22.4177C50.8247 22.2911 51.8344 23.0585 51.9877 24.1302L53.8479 37.1262C54.0027 38.1987 53.2409 39.1692 52.1513 39.2951C51.7744 39.3363 51.4072 39.2737 51.0822 39.1288Z" fill="#FFD600"/>
<path d="M20.1256 27.5198C19.301 27.1523 18.8026 26.2571 18.9741 25.3376C19.1753 24.2653 20.2168 23.5622 21.299 23.7685L34.4174 26.2852C35.4965 26.4902 36.2137 27.5316 36.0118 28.6054C35.8114 29.6798 34.7705 30.3814 33.6884 30.1751L20.5677 27.6592C20.4133 27.63 20.2653 27.5821 20.1256 27.5198Z" fill="#FFD600"/>
<path d="M49.6208 69.1331C49.1698 68.9321 48.7791 68.5916 48.5387 68.1485L42.0723 56.243C41.5391 55.2612 41.9351 54.1382 42.9544 53.7336C43.977 53.3305 45.2367 53.7994 45.7699 54.7811L52.2347 66.6859C52.7678 67.6676 52.3719 68.7907 51.3509 69.1945C50.7931 69.4157 50.1639 69.3752 49.6208 69.1331Z" fill="#FFD600"/>
<path d="M65.7174 25.9452C65.4409 25.8219 65.1908 25.6355 64.9856 25.3849C64.2889 24.5295 64.4176 23.2685 65.2728 22.5673L75.6417 14.0608C76.4991 13.3587 77.7562 13.4838 78.4513 14.3386C79.1487 15.1925 79.0193 16.455 78.1671 17.1576L67.7946 25.6643C67.1898 26.159 66.3858 26.2431 65.7174 25.9452Z" fill="#FFD600"/>
<path d="M24.834 53.7052C24.523 53.5665 24.2433 53.3452 24.0264 53.0496L15.9331 41.9458C15.2649 41.032 15.4657 39.7326 16.3792 39.0464C17.2936 38.3625 18.5749 38.549 19.241 39.4636L27.3365 50.5665C28.0025 51.4812 27.804 52.7797 26.8889 53.4652C26.272 53.9292 25.484 53.9949 24.834 53.7052Z" fill="#FFD600"/>
<path d="M107.283 104.689C106.395 104.293 105.917 103.285 106.199 102.312L110.437 87.7883C110.746 86.7264 111.849 86.1099 112.898 86.4127C113.943 86.7046 114.547 87.8209 114.24 88.8834L110.003 103.407C109.692 104.469 108.59 105.087 107.54 104.784C107.45 104.758 107.366 104.726 107.283 104.689Z" fill="#FFD600"/>
<path d="M93.2824 82.0259C93.1395 81.9622 93.0015 81.8793 92.8723 81.7807L82.2541 73.6671C81.3769 72.9979 81.207 71.7643 81.8714 70.9116C82.5357 70.0589 83.7906 69.9135 84.6601 70.5794L95.2814 78.6943C96.1563 79.3644 96.327 80.5965 95.6626 81.4492C95.0962 82.1762 94.1049 82.3926 93.2824 82.0259Z" fill="#FFD600"/>
<path d="M103.435 59.2399C103.576 58.9058 103.813 58.607 104.135 58.383C105.06 57.7445 106.346 57.9741 107.005 58.8956L115.02 70.0787C115.68 71.001 115.465 72.266 114.542 72.9052C113.617 73.5421 112.331 73.3141 111.67 72.3896L103.658 61.208C103.228 60.6084 103.168 59.8634 103.435 59.2399Z" fill="#FFD600"/>
<path d="M64.3578 49.7005C64.1063 48.6893 64.6764 47.6352 65.6802 47.3028C66.7302 46.9525 67.8616 47.5246 68.2038 48.5781L72.3593 61.3553C72.7014 62.4252 72.1303 63.5468 71.0786 63.8927C70.0271 64.2423 68.8972 63.6709 68.555 62.6174C68.555 62.6174 64.3695 49.748 64.3578 49.7005Z" fill="#FFD600"/>
<path d="M71.2708 99.5856C70.5227 99.2521 70.0337 98.4772 70.1151 97.6318L71.3266 84.8473C71.4268 83.7921 72.3753 83.0294 73.4418 83.1434C74.5163 83.2557 75.2978 84.2046 75.1973 85.2563L73.9867 98.0429C73.8871 99.0967 72.9387 99.8593 71.87 99.7461C71.6579 99.7231 71.4549 99.6676 71.2708 99.5856Z" fill="#FFD600"/>
<path d="M87.9957 55.7173C87.2622 56.1951 86.3145 56.1415 85.6865 55.5225C84.9314 54.7799 84.9276 53.5039 85.6775 52.6701L94.7675 42.5841C95.521 41.7501 96.7339 41.6797 97.4904 42.423C98.2454 43.1657 98.2485 44.4431 97.5 45.2738L88.4108 55.3621C88.2838 55.5029 88.145 55.6199 87.9957 55.7173Z" fill="#FFD600"/>
<path d="M91.0039 111.666C90.5633 111.47 90.1921 111.118 89.9809 110.646L84.5303 98.3629C84.0793 97.3509 84.5382 96.1693 85.5514 95.7224C86.5671 95.2783 87.7547 95.7401 88.2026 96.7507L93.6554 109.033C94.1049 110.044 93.646 111.226 92.6334 111.671C92.093 111.909 91.5025 111.888 91.0039 111.666Z" fill="#FFD600"/>
<path d="M45.4859 95.756C45.0372 95.556 44.6678 95.1743 44.4845 94.6567C44.1163 93.6133 44.6422 92.4136 45.6605 91.9787L58.0081 86.6833C59.0256 86.2462 60.1531 86.7412 60.5206 87.7825C60.8894 88.8244 60.3635 90.024 59.3445 90.4605L46.9991 95.7549C46.4845 95.9766 45.9435 95.96 45.4859 95.756Z" fill="#FFD600"/>
<path d="M2.01885 73.0963C1.21781 72.7393 0.727089 71.859 0.873456 70.9128C1.05137 69.7722 2.09253 68.9687 3.19769 69.1172L16.5978 70.9221C17.7023 71.0721 18.4525 72.1159 18.2753 73.2548C18.0973 74.3953 17.0577 75.1996 15.951 75.0504L2.5524 73.2462C2.36341 73.2212 2.18427 73.17 2.01885 73.0963Z" fill="#FFD600"/>
<path d="M30.9395 87.0824C30.4587 86.868 30.0754 86.4423 29.919 85.8772L26.4802 73.3548C26.1959 72.3224 26.7841 71.2143 27.7923 70.8809C28.8011 70.546 29.8475 71.1119 30.1319 72.1443L33.5721 84.6674C33.855 85.6992 33.2682 86.8079 32.2594 87.1428C31.8027 87.2936 31.3389 87.2604 30.9395 87.0824Z" fill="#FFD600"/>
<path d="M100.802 38.2996C100.603 38.2106 100.415 38.0829 100.251 37.9141L91.1177 28.5796C90.3652 27.8119 90.3839 26.5025 91.161 25.6593C91.9367 24.8116 93.1759 24.7519 93.9292 25.5219L103.061 34.8557C103.813 35.6234 103.796 36.9335 103.018 37.7783C102.413 38.4379 101.522 38.6203 100.802 38.2996Z" fill="#FFD600"/>
<path d="M128.113 92.0772C127.443 91.7784 126.935 91.1654 126.843 90.4357L125.168 77.451C125.029 76.38 125.835 75.4655 126.966 75.4067C128.093 75.3494 129.126 76.1705 129.262 77.2422L130.938 90.2255C131.075 91.2958 130.27 92.211 129.141 92.2705C128.78 92.2876 128.426 92.2169 128.113 92.0772Z" fill="#FFD600"/>
<path d="M134.652 43.8293C135.061 44.6474 134.881 45.7008 134.159 46.3609C133.315 47.1322 132.055 47.0728 131.345 46.2313L122.719 36.0063C121.999 35.1525 122.116 33.8536 122.958 33.0832C123.799 32.3129 125.058 32.3716 125.77 33.2144L134.396 43.4394C134.499 43.5613 134.583 43.6921 134.652 43.8293Z" fill="#FFD600"/>
<path d="M142.923 80.7866C142.833 80.6401 142.761 80.4809 142.71 80.3101C142.409 79.2892 143.004 78.2366 144.037 77.9583L156.579 74.5918C157.614 74.3141 158.696 74.9238 158.996 75.9412C159.296 76.9636 158.704 78.0168 157.669 78.2929L145.129 81.6602C144.266 81.8925 143.37 81.5105 142.923 80.7866Z" fill="#FFD600"/>
<path d="M139.233 59.6516C138.994 59.8993 138.694 60.09 138.35 60.1961L125.524 64.1362C124.467 64.4598 123.403 63.8371 123.151 62.7429C122.897 61.6496 123.55 60.4992 124.607 60.1733L137.435 56.2339C138.491 55.9097 139.554 56.5324 139.808 57.6272C139.978 58.3668 139.736 59.1338 139.233 59.6516Z" fill="#FFD600"/>
<path d="M156.911 64.4046C156.264 64.116 155.783 63.4993 155.702 62.7427L154.253 49.0725C154.133 47.9448 154.952 46.9361 156.079 46.8173C157.207 46.7007 158.219 47.5184 158.341 48.6468L159.788 62.3164C159.907 63.4434 159.089 64.4528 157.963 64.5701C157.59 64.6078 157.229 64.5462 156.911 64.4046Z" fill="#FFD600"/>
<path d="M127.594 108.269C127.099 108.048 126.69 107.633 126.496 107.087C126.124 106.045 126.678 104.92 127.728 104.572L140.493 100.367C141.542 100.019 142.699 100.582 143.07 101.623C143.439 102.666 142.888 103.792 141.835 104.14L129.075 108.347C128.572 108.511 128.047 108.47 127.594 108.269Z" fill="#FFD600"/>
<path d="M131.535 134.112C130.795 133.782 130.354 132.945 130.508 132.04L132.777 118.843C132.967 117.754 133.943 116.979 134.962 117.109C135.99 117.239 136.658 118.228 136.471 119.316L134.201 132.511C134.015 133.6 133.035 134.377 132.017 134.246C131.845 134.224 131.684 134.178 131.535 134.112Z" fill="#FFD600"/>
<path d="M117.196 126.626C117.053 126.562 116.916 126.481 116.787 126.382L106.167 118.266C105.291 117.597 105.12 116.363 105.786 115.511C106.452 114.659 107.706 114.516 108.575 115.178L119.193 123.294C120.07 123.964 120.24 125.197 119.576 126.05C119.008 126.776 118.019 126.992 117.196 126.626Z" fill="#FFD600"/>
</svg>
