<?xml version="1.0" encoding="utf-8"?>
<svg width="32" height="19" viewBox="0 0 32 19" fill="none" xmlns="http://www.w3.org/2000/svg">
<path d="M31.7098 17.1055C31.7098 16.981 31.5852 16.981 31.5852 16.8564C31.0871 15.8602 29.9663 14.6148 28.4719 13.2449C27.7247 12.6223 27.351 12.1241 27.102 11.8751C26.7284 11.3769 26.7284 11.0033 26.8529 10.5052C26.9775 10.1316 27.4756 9.5089 28.3473 8.38809C28.8455 7.76542 29.0945 7.39183 29.4681 7.01822C31.3361 4.52754 32.2079 2.90858 31.9588 2.16137L31.8343 2.03685C31.7098 1.91231 31.5852 1.78778 31.3361 1.78778C31.0871 1.66325 30.7135 1.66325 30.3399 1.78778H25.6076C25.483 1.78778 25.483 1.78778 25.234 1.78778C25.1094 1.78778 24.9849 1.78778 24.9849 1.78778H24.8604H24.7358L24.6113 1.91231C24.4867 2.03684 24.4867 2.03684 24.4867 2.16137C23.9886 3.53125 23.3659 4.65206 22.7433 5.8974C22.3697 6.52007 21.9961 7.14276 21.6225 7.6409C21.2489 8.13903 20.9998 8.51263 20.7507 8.7617C20.5016 9.01077 20.2526 9.1353 20.128 9.38437C20.0035 9.5089 19.7544 9.63345 19.7544 9.50891C19.6299 9.50891 19.5054 9.5089 19.5054 9.38437C19.3808 9.25984 19.2563 9.1353 19.1318 9.01076C19.0072 8.88623 19.0072 8.63716 18.8827 8.38809C18.8827 8.13902 18.8827 7.88995 18.8827 7.76542C18.8827 7.64088 18.8827 7.26729 18.8827 7.01822C18.8827 6.64462 18.8827 6.39554 18.8827 6.27101C18.8827 5.89741 18.8827 5.39928 18.8827 4.90114C18.8827 4.40301 18.8827 4.02939 18.8827 3.78032C18.8827 3.53125 18.8827 3.15765 18.8827 2.90858C18.8827 2.53498 18.8827 2.28591 18.8827 2.16137C18.8827 2.03684 18.7582 1.78778 18.7582 1.66324C18.6337 1.53871 18.5091 1.41417 18.3846 1.28963C18.26 1.1651 18.011 1.1651 17.8864 1.04057C17.2638 0.916034 16.5166 0.791504 15.6448 0.791504C13.6523 0.791504 12.2824 0.916042 11.7843 1.16511C11.5352 1.28965 11.2861 1.41417 11.1616 1.66324C10.9125 1.91231 10.9125 2.03685 11.037 2.03685C11.6597 2.16138 12.1579 2.41044 12.4069 2.78404L12.5315 3.03313C12.656 3.15766 12.656 3.40672 12.7805 3.78032C12.9051 4.15392 12.9051 4.52753 12.9051 5.02567C12.9051 5.77287 12.9051 6.52009 12.9051 7.01822C12.9051 7.6409 12.7805 8.01449 12.7805 8.38809C12.7805 8.76169 12.656 9.01077 12.5315 9.1353C12.4069 9.38437 12.4069 9.50891 12.2824 9.50891C12.2824 9.50891 12.2824 9.63343 12.1578 9.63343C12.0333 9.63343 11.9088 9.75798 11.6597 9.75798C11.5352 9.75798 11.2861 9.63345 11.1616 9.50891C10.9125 9.38438 10.6634 9.13531 10.5389 8.88624C10.2898 8.63717 10.0408 8.26356 9.7917 7.76542C9.54263 7.26728 9.16901 6.76915 8.91994 6.02194L8.6709 5.52381C8.54636 5.27475 8.29729 4.7766 8.04822 4.15393C7.79916 3.53126 7.55008 3.03313 7.30101 2.41045C7.17648 2.16139 7.05196 2.03684 6.92742 1.91231H6.80288C6.80288 1.91231 6.67833 1.78778 6.5538 1.78778C6.42926 1.78778 6.30474 1.66324 6.18021 1.66324H1.69696C1.19882 1.66324 0.94976 1.78777 0.825226 1.91231L0.700684 2.03685C0.700684 2.03685 0.700684 2.16138 0.700684 2.28591C0.700684 2.41045 0.700691 2.53497 0.825226 2.78404C1.4479 4.27846 2.1951 5.77288 2.94231 7.26729C3.68951 8.63717 4.43673 9.88251 4.93486 10.7543C5.55754 11.626 6.05567 12.4977 6.67834 13.2449C7.30101 13.9921 7.67461 14.4903 7.79914 14.7394C8.04821 14.9884 8.17274 15.1129 8.29727 15.2375L8.6709 15.6111C8.91996 15.8602 9.29356 16.2338 9.7917 16.6074C10.2898 16.981 10.9125 17.3546 11.5352 17.7282C12.1578 18.1018 12.9051 18.3509 13.6523 18.5999C14.524 18.849 15.2712 18.9735 16.0184 18.849H17.8864C18.26 18.849 18.5091 18.7245 18.7582 18.4754L18.8827 18.3508C18.8827 18.2263 19.0072 18.2263 19.0072 18.1018C19.0072 17.9772 19.0072 17.8527 19.0072 17.6036C19.0072 17.1055 19.0072 16.7319 19.1318 16.3583C19.2563 15.9847 19.2563 15.7356 19.3809 15.4866C19.5054 15.2375 19.6299 15.113 19.7544 14.9884C19.879 14.8639 20.0035 14.7394 20.0035 14.7394H20.128C20.3771 14.6148 20.7507 14.7393 20.9998 14.9884C21.3734 15.2375 21.747 15.6111 21.9961 15.9847C22.2451 16.3583 22.6188 16.7319 23.1169 17.23C23.615 17.7282 23.9886 18.1018 24.2377 18.2263L24.6113 18.4754C24.8604 18.5999 25.1094 18.7245 25.483 18.849C25.8566 18.9735 26.1057 18.9735 26.3548 18.9735L30.589 18.849C30.9626 18.849 31.3361 18.7245 31.5852 18.5999C31.8343 18.4754 31.9588 18.3508 31.9588 18.1018C31.9588 17.9772 31.9588 17.7282 31.9588 17.6036C31.7097 17.3546 31.7098 17.23 31.7098 17.1055Z" fill="white"/>
</svg>
