<?xml version="1.0" encoding="utf-8"?>
<svg width="72" height="105" viewBox="0 0 72 105" fill="none" xmlns="http://www.w3.org/2000/svg">
<path fill-rule="evenodd" clip-rule="evenodd" d="M54.5607 8.23613C52.281 6.57663 49.9271 4.90964 47.5112 3.4594C47.2431 3.8758 47.0093 4.31818 46.7936 4.7664C47.137 5.04626 47.4921 5.31129 47.8428 5.5677C48.4935 6.04342 49.1583 6.50267 49.8248 6.95365C50.8109 7.62156 51.8089 8.27165 52.8073 8.91579C53.1185 9.11547 53.428 9.31271 53.7392 9.51239C54.0052 9.08093 54.2766 8.65874 54.5607 8.23613ZM12.2168 66.5085C15.235 68.4943 18.6907 70.1754 22.0409 71.4261C28.4618 73.0301 35.0453 72.6218 41.2949 70.5012C44.8261 69.3021 48.1748 67.582 51.241 65.4633C61.1388 58.6238 68.838 46.9817 68.9032 34.6795C68.9175 31.4546 68.3977 28.2723 67.3186 25.2321C65.2479 19.3947 61.7469 13.9278 57.0183 9.886C56.4392 10.6971 55.8774 11.5182 55.3626 12.3726C54.8905 13.1608 53.7953 13.4338 53.0662 12.8512C52.7824 12.6735 52.4979 12.4969 52.2141 12.3192C53.7647 13.7348 55.2134 15.2656 56.585 16.8473C61.5834 22.6137 64.9922 28.9388 63.933 36.7921C62.8601 44.7251 59.1706 52.0035 53.3879 57.5421C47.4016 63.2681 40.432 67.5797 31.8411 66.7797C26.1722 66.2518 19.8456 64.5298 14.709 61.672C14.7212 61.7575 14.7267 61.8439 14.722 61.932C14.7263 62.1993 14.651 62.4576 14.5177 62.6885C13.777 63.9714 13.0246 65.2613 12.2168 66.5085ZM24.101 75.2205C22.4718 74.8957 21.0459 74.4774 19.53 73.8177C19.403 74.2909 19.2808 74.7639 19.1575 75.2362C18.8179 76.5443 18.4839 77.851 18.156 79.1628C17.8462 80.3927 17.5441 81.6255 17.252 82.8594C17.0697 83.6364 16.8638 84.4597 16.7371 85.2472C16.7342 85.2655 16.7301 85.2832 16.7261 85.3009C17.5215 85.6539 18.2809 85.9999 19.1412 86.2564C20.1266 86.5498 21.2087 86.7234 22.234 86.5394C22.24 86.5105 22.2429 86.4815 22.2464 86.4542C22.3168 85.9668 22.3902 85.4796 22.4653 84.9948C22.6839 83.5629 22.9107 82.1327 23.1445 80.7065C23.3633 79.3595 23.5893 78.0135 23.827 76.6712C23.914 76.1871 24.0028 75.7026 24.101 75.2205ZM25.0536 86.5492C25.055 86.6162 25.0558 86.6814 25.0544 86.7452C25.0545 87.4411 25.1732 88.6167 24.43 88.9866C21.1248 90.6287 17.3879 88.9146 14.3104 87.5597C13.9181 87.3886 13.5901 87.1299 13.4164 86.7294C13.2109 86.2613 13.2956 85.7759 13.4214 85.302C13.4893 85.0379 13.5682 84.7786 13.6411 84.519C12.9556 84.3356 12.1372 84.3743 11.5054 84.5114C10.1711 84.7957 8.85849 85.616 9.02258 87.1318C9.9581 89.9274 13.633 92.4555 16.2645 93.4498C19.0093 94.4849 22.5462 95.3214 25.3953 94.2613C28.0725 93.2589 30.4763 89.7062 28.4009 87.1223C27.4928 86.695 26.1732 86.5859 25.0536 86.5492ZM5.54197 91.8456C7.46541 95.9168 12.6249 98.3137 16.7676 99.269C19.5139 99.9016 22.5514 100.113 25.3385 99.6264C27.5776 99.2363 29.9521 98.3286 31.4093 96.5033C31.5173 96.3671 31.6206 96.2281 31.7165 96.0833C31.4902 95.1767 31.3778 94.2327 31.2207 93.3075C30.7998 93.9405 30.2989 94.5228 29.8127 95.0103C26.4954 98.3159 20.6259 98.6422 16.4 97.1616C13.7617 96.3419 11.2434 95.0265 9.16011 93.2002C8.10743 92.2768 7.08203 91.1382 6.33298 89.8836C6.05373 90.5353 5.79474 91.1972 5.54197 91.8456ZM11.159 62.5353C9.16241 61.4149 7.31601 60.0903 5.44663 58.7708C5.0325 59.4801 4.61607 60.188 4.19866 60.8924C4.44869 61.046 4.69604 61.2042 4.94061 61.3592C5.59798 61.7726 6.24587 62.1944 6.89906 62.6177C7.67345 63.1218 8.44721 63.627 9.22426 64.1264C9.46008 64.278 9.69706 64.4302 9.93488 64.5783C10.3657 63.9094 10.7617 63.2235 11.159 62.5353ZM44.6409 11.0044C42.2206 9.49776 39.3766 8.11442 36.6026 7.68448C32.6796 7.07924 28.5848 7.40634 24.7792 8.52854C21.0125 9.63934 17.566 11.4462 14.5781 13.992C14.2877 15.2284 14.0521 16.5057 14.831 17.6313C15.1427 18.0807 15.4405 18.4743 15.6578 18.9832C16.0456 19.8876 15.8244 20.9746 15.5292 21.8727C15.3058 22.5396 14.9165 23.0246 14.5929 23.5984C14.6397 23.784 14.7068 24.009 14.7786 24.1675C14.8368 24.1118 14.8907 24.0505 14.9196 24.0164C14.9522 23.9814 14.9819 23.9539 15.0173 23.9219C15.1648 23.8024 15.3136 23.6835 15.457 23.563C16.237 22.908 16.9888 22.2673 17.8995 21.7939C19.5268 20.946 22.1018 21.9446 22.123 23.9691C22.1429 25.5294 22.415 26.4902 23.2477 27.8131C23.8486 28.7697 24.0902 29.4419 23.9395 30.5188C24.3001 30.2836 24.7164 29.9174 24.882 29.7559C25.1916 29.4543 25.7523 28.8404 25.8832 28.4217C26.1074 27.7213 26.4742 27.1741 26.8921 26.5809C27.5084 25.7081 28.5574 25.0005 29.542 24.6098C31.1702 23.9656 33.0388 23.8358 34.7684 23.6827C36.8709 23.4971 39.5163 23.3017 41.0528 21.6592C42.6284 19.97 44.0589 17.5858 44.0693 15.2131C44.0731 14.0252 43.9033 12.8125 44.3334 11.6675C44.4188 11.4397 44.5212 11.2171 44.6409 11.0044ZM46.1674 29.4911C46.1244 29.5602 46.0796 29.6298 46.0354 29.6982C45.6846 30.2393 45.1777 30.7226 44.6414 31.0781C43.5289 31.8183 42.5364 32.0628 41.2082 31.9472C40.3441 31.8733 39.449 31.6983 38.5869 31.7194C38.5481 31.7201 38.4936 31.721 38.4313 31.725C38.4785 31.8246 38.5171 31.9285 38.5464 32.0378C38.8691 33.2387 38.1275 34.2993 37.4757 35.2255C37.3093 35.4605 36.9933 36.1971 36.9478 36.6358C36.994 36.6225 37.0368 36.6071 37.0631 36.5962C37.8086 36.2969 38.4398 35.873 39.2491 35.7059C39.8624 35.5796 40.4255 35.6523 41.0144 35.8429C41.3819 35.9612 41.7664 36.1432 42.1387 36.2211C42.6641 36.335 43.0377 36.1197 43.436 35.7846C44.1646 35.1706 44.8966 34.9589 45.7114 34.5395C47.1138 33.8172 46.9417 32.0859 46.5167 30.8167C46.3687 30.3664 46.2445 29.9282 46.1674 29.4911ZM15.0238 32.4012C14.972 32.339 14.9234 32.2739 14.8826 32.2058C14.7448 31.9753 14.2589 31.2329 13.9154 31.2732C13.4605 31.3277 12.84 32.3305 12.6347 32.6861C12.388 33.1133 12.1714 33.5579 11.9547 34.0025C11.7988 34.3313 11.6213 34.7399 11.4131 35.0339C11.0811 35.4996 10.4999 35.8984 9.93427 36.0061C9.72686 36.048 8.96403 36.2172 8.77518 36.3976C8.81331 36.6383 9.29517 37.4276 9.39931 37.6232C9.64206 38.0775 9.84151 38.556 9.87723 39.0754C9.8971 39.3317 9.89182 39.5888 9.86571 39.8447C9.80804 40.4273 9.64301 40.9879 9.43699 41.534C9.18901 42.1822 8.87467 42.8013 8.62571 43.4458C8.48936 43.7967 8.31246 44.3058 8.38701 44.686C8.54053 45.4921 10.0891 45.9458 10.7299 46.1187C11.3965 46.2973 11.9837 46.6163 12.5229 47.0477C13.749 48.028 14.5918 49.5816 15.9148 50.3701C16.1639 50.52 16.7058 50.8052 17.2116 51.0172C17.1967 50.9978 17.1839 50.9826 17.171 50.9675C16.6224 50.3259 15.9972 49.7341 15.6586 48.9366C15.0697 47.5512 14.7803 46.0123 15.6392 44.6607C15.9478 44.1768 16.1324 43.6999 15.9833 43.1288C15.8593 42.6477 15.5412 42.1346 15.3182 41.6887C14.955 40.9632 14.7107 40.2664 14.6859 39.4453C14.6673 38.8295 14.9389 38.4151 15.1934 37.8969C16.0998 36.0631 16.1811 34.1194 15.0238 32.4012ZM37.326 39.6101C38.31 39.9565 39.2565 40.4583 40.2154 40.9442C40.8538 41.2651 41.6189 41.5266 42.2985 41.1708C42.9634 40.8218 43.5301 39.9204 43.936 39.308C43.9949 39.2219 44.0534 39.134 44.1123 39.0479C43.6178 39.3444 43.0615 39.556 42.4863 39.4856C42.0253 39.4334 41.5862 39.3246 41.1412 39.194C40.8213 39.1001 40.4956 38.9921 40.166 38.9311C39.6519 38.8375 39.243 38.9032 38.7649 39.1152C38.285 39.3278 37.8134 39.502 37.326 39.6101ZM17.9034 30.8644C17.9013 30.8601 17.8996 30.8576 17.8979 30.8551C16.3675 28.5566 12.9007 26.6413 10.8094 29.4476C10.5963 29.7341 10.3614 30.0342 10.1971 30.3535C10.0384 30.6576 9.92455 31.0121 9.8042 31.3352C9.32717 32.6148 8.54187 32.9297 7.39938 33.5325C6.29118 34.1213 5.39166 34.9461 5.40069 36.2984C5.40712 37.1566 6.07471 38.4643 6.60692 39.1318C6.66974 39.2097 6.70925 39.2879 6.72072 39.3854C6.77073 39.8161 6.27346 40.5866 6.05506 40.9409C5.62197 41.6377 5.08602 42.446 5.06043 43.2904C5.01366 44.806 5.32962 46.3094 6.46775 47.3915C7.08567 47.9746 7.79807 48.3674 8.56207 48.7161C9.23844 49.0219 9.95481 49.2877 10.592 49.6695C10.9339 49.8746 11.2469 50.1138 11.5138 50.4141C13.3461 52.4804 16.8519 55.4483 19.8064 54.1149C20.4438 53.827 20.963 53.357 21.1183 52.6507C21.3156 51.7515 20.8327 50.8492 20.3293 50.1398C20.034 49.726 19.705 49.3467 19.3764 48.9584C18.2936 47.682 17.6255 47.0977 18.6531 45.4832C19.0733 44.822 19.579 44.1302 19.5739 43.3097C19.5673 42.4144 19.1647 41.7171 18.6784 41.0021C18.428 40.6358 18.0867 40.1817 17.9622 39.7573C17.8599 39.4118 17.9171 39.1153 18.0748 38.7969C19.2846 36.3468 19.9733 33.0633 17.9034 30.8644ZM34.4574 39.1733C33.4995 38.3924 33.166 36.9327 33.656 35.7053C33.8882 35.1219 34.4574 34.456 34.8285 33.9358C34.9657 33.741 35.5661 32.8636 35.4875 32.6212C35.0721 32.0072 34.8652 31.235 35.2599 30.5514C35.6732 29.8355 36.2524 29.3016 37.0301 29.0054C38.4034 28.488 39.9113 28.8736 41.3237 28.9686C41.9705 29.011 42.489 28.8916 42.973 28.4505C43.4059 28.0554 43.752 27.4854 44.1045 27.0161C44.7153 26.1955 45.3707 25.5563 46.3803 25.2477C47.5543 24.8863 48.6004 25.3409 49.077 26.4382C49.2528 26.6937 49.3318 26.9995 49.3061 27.308C49.338 27.5835 49.3384 27.8655 49.3034 28.1394C49.279 28.3362 49.2181 28.5243 49.1221 28.6906C49.1681 29.3283 49.3753 30.0068 49.5431 30.6041C50.039 32.3638 50.405 34.0392 49.1363 35.5915C48.8093 35.9924 48.4403 36.2982 48.0255 36.5607C48.0624 36.5635 48.098 36.5686 48.1353 36.5732C48.5931 36.6389 49.3233 36.7048 49.6452 36.2779C49.86 35.9939 49.9535 35.5014 50.0165 35.1575C50.1603 34.3645 50.2626 33.4967 50.8423 32.8845C51.2387 32.4621 51.7619 32.2731 52.3342 32.2525C52.4522 32.2482 52.5652 32.2257 52.6611 32.1502C53.2166 31.7134 53.196 29.6185 53.2058 28.9668C53.2263 27.7099 53.1786 25.7687 54.0425 24.771C54.5475 24.1896 55.6029 24.0922 56.27 24.4327C56.3471 24.4726 56.4726 24.5404 56.6022 24.6014C56.6095 24.5887 56.6164 24.5742 56.6244 24.5604C56.7844 24.2725 56.983 24.0191 57.2179 23.7883C57.378 23.6283 57.5482 23.4802 57.7351 23.3511C56.7197 21.8965 55.5743 20.5099 54.383 19.2079C52.2341 16.8633 49.8101 14.6617 47.2414 12.7722C47.0266 13.1362 47.0091 14.1238 47.0063 14.4301C47.0009 15.066 47.0439 15.7436 46.9703 16.3723C46.7845 18.0248 46.0012 19.9282 45.0899 21.3173C43.0321 24.4416 40.5392 26.0554 36.7772 26.3314C34.6495 26.4886 30.0856 26.4201 29.0178 28.715C28.7735 29.2421 28.6194 29.9384 28.4304 30.5005C28.1414 31.3636 27.7324 32.2961 26.9353 32.8073C26.2943 33.2163 25.2652 33.5721 24.5339 33.7534C23.5372 33.997 22.1893 34.1503 21.3658 33.39C20.9516 33.0061 20.7768 32.4849 20.7731 31.9285C20.771 31.567 20.8338 31.2153 20.9016 30.8634C20.9533 30.6084 21.0398 30.2319 21.0089 29.9708C20.9931 29.8462 20.9453 29.7478 20.8706 29.6477C20.7572 29.4975 20.5962 29.363 20.4537 29.2391C20.0196 28.8684 19.6354 28.5311 19.4131 27.9856C19.1914 27.4388 19.1196 26.6645 19.0175 26.076C18.9777 25.8436 18.8382 25.0825 18.6714 24.8168C18.5582 24.8716 18.3985 24.9934 18.3356 25.0464C17.7301 25.5405 17.1891 26.0749 16.5551 26.5464C15.4533 27.3668 14.0448 28.0517 12.7099 27.3318C11.9362 26.9173 11.3295 26.2961 11.1536 25.414C10.8643 23.9552 11.8774 22.4724 12.5271 21.2325C12.7041 20.8913 12.7742 20.5592 12.7195 20.1766C12.6542 19.7217 12.4297 19.2518 12.2284 18.843C11.9465 18.2754 11.6546 17.725 11.4598 17.1183C9.97717 18.8596 8.70565 20.7767 7.6415 22.8012C3.95934 29.8082 1.22991 39.3144 4.84623 46.8694C7.67343 52.7726 13.1377 57.4947 18.9331 60.3634C22.448 62.1048 26.3331 63.301 30.2591 63.6662C30.1061 63.4301 29.9555 63.1922 29.8077 62.9683C29.5164 62.5261 28.8816 61.5561 28.3137 61.4545C26.7826 61.1864 25.7322 60.2458 25.7747 58.6122C25.7921 58.0141 25.9751 57.4624 26.3436 56.9869C26.8956 56.2787 27.741 55.8892 28.5666 55.5899C28.9164 55.464 30.4754 54.9984 30.6329 54.6829C30.6773 54.59 30.5589 54.3231 30.5222 54.248C30.2369 53.6675 29.639 53.0283 29.1886 52.5712C28.5037 51.8801 28.6667 50.6964 29.5207 50.2226C30.3919 49.7402 31.2455 49.2831 32.0637 48.7086C32.5589 48.3602 33.8224 47.4038 33.8127 46.7192C33.8123 46.5973 33.7631 46.4904 33.6924 46.3942C33.0364 45.4719 32.2178 44.8977 31.6806 43.8362C30.8473 42.1943 31.9206 39.6285 33.7857 39.2674C34.0137 39.2219 34.2366 39.1905 34.4574 39.1733ZM59.5002 26.2699C59.3984 26.3929 59.2452 26.7062 59.1952 26.8036C58.9579 27.2732 58.7024 27.7292 58.2313 28.0038C57.6327 28.3526 56.979 28.2368 56.3925 27.9352C56.3016 27.8874 56.1709 27.7965 56.0337 27.7034C56.0745 28.3367 56.1569 28.9646 56.216 29.593C56.3013 30.5091 56.492 31.5522 55.9925 32.3908C55.6322 32.9988 55.1899 33.5117 54.6986 34.0132C54.3162 34.4036 53.9038 34.7845 53.5645 35.2122C53.3585 35.4704 53.1838 35.7436 53.0579 36.0497C52.9195 36.3855 52.7908 36.7284 52.6482 37.0633C51.9314 38.7449 50.8938 40.0487 48.8608 39.7033C48.4333 39.6304 48.0511 39.6577 47.6894 39.9108C47.2456 40.2288 46.8596 40.8681 46.5552 41.3205C46.1788 41.8792 45.7787 42.4149 45.2261 42.8148C43.9734 43.7205 42.8995 44.306 41.3193 44.379C40.1223 44.4362 39.1695 43.7398 38.1646 43.2243C37.5249 42.895 36.8578 42.5437 36.1593 42.3482C36.1175 42.338 36.0814 42.3233 36.0419 42.3036C35.9122 42.2456 35.6989 42.1671 35.5544 42.2146C35.2689 42.3038 35.0485 42.8509 34.9191 43.275C35.1922 43.562 35.4648 43.8471 35.7179 44.158C36.551 45.1764 37.0968 46.3644 36.5809 47.6739C35.8273 49.6005 34.2475 50.8808 32.5414 51.9265C33.2119 52.8772 33.7358 54.0126 33.5782 55.1548C33.4178 56.3447 32.5702 57.1701 31.5478 57.7037C31.2142 57.876 30.2965 58.2869 29.6827 58.6515C30.5153 58.8012 31.3102 59.5019 31.6909 60.2344C32.5195 61.8259 33.4671 63.2059 35.3729 63.4702C35.5222 63.4917 35.6661 63.5332 35.8016 63.5945C37.5417 63.3752 39.2523 62.9618 40.8861 62.3239C47.9866 59.5614 54.5049 53.5113 57.8559 46.678C60.8669 40.5321 62.6636 32.7028 59.5002 26.2699ZM25.6497 83.4047C27.3793 83.5503 29.3037 83.6945 30.7543 84.5473C32.2251 85.4104 32.9862 86.8228 33.4077 88.4288C33.9299 90.4176 36.0376 95.967 34.8486 97.7331C34.6704 98.0258 34.4771 98.3099 34.2696 98.5812C32.4031 101.035 29.5694 102.536 26.6352 103.311C23.4393 104.159 19.9485 104.205 16.7057 103.613C10.2391 102.433 4.02933 98.5456 2.41176 91.8167C2.31183 91.3417 2.65924 90.4307 2.79921 90.0096C3.10481 89.0883 3.44478 88.1715 3.80652 87.2703C4.23862 86.2019 4.90655 84.5675 5.62959 83.6779C6.56566 82.5232 8.18517 81.8462 9.59831 81.5213C11.1669 81.1644 12.8398 81.1388 14.4334 81.4292C14.7511 79.9883 15.0878 78.5492 15.4354 77.1179C15.7081 76.0082 15.9898 74.8961 16.3048 73.7985C16.4118 73.4292 16.557 72.9111 16.7279 72.4417C14.8245 71.4505 12.9414 70.4002 11.0841 69.3264C9.11307 68.1884 7.14959 67.0132 5.23834 65.7743C4.49198 65.291 3.74584 64.794 3.02694 64.2712C2.56042 63.9326 2.04694 63.5499 1.63845 63.1401C0.855436 62.5309 0.471621 61.3425 0.971277 60.4424C0.975277 60.4355 0.979272 60.4285 0.982605 60.4228C1.92775 58.8284 2.84631 57.2587 3.84181 55.7211C4.37544 54.8422 5.73237 54.8758 6.46952 55.423C6.51074 55.453 6.55378 55.4825 6.59779 55.5156L6.75341 55.2914C2.76173 50.9545 0.17231 45.8476 0.0109073 39.8284C-0.224656 31.1138 3.3786 22.6941 8.56653 15.839C13.1909 9.7254 20.505 5.82224 28.0465 4.78927C33.6693 4.01568 38.9528 4.45642 44.0057 6.74712C43.4349 6.25588 43.181 5.55969 43.5041 4.82402C44.1883 3.26835 44.8944 1.74385 46.0571 0.476745C46.4609 0.0386288 47.0449 -0.116875 47.6005 0.0914989C47.6953 0.124666 47.7854 0.165948 47.8749 0.216127C49.5896 1.1876 51.2822 2.20793 52.941 3.27342C54.5636 4.31643 56.1694 5.4098 57.6984 6.58817C57.753 6.6243 57.8055 6.6639 57.8547 6.70927C63.7763 11.3274 68.3447 18.0681 70.4641 25.2638C71.0638 27.3051 71.4426 29.4037 71.605 31.5251C72.0402 37.2327 70.9164 42.9578 68.7394 48.2272C66.4979 53.6643 63.1231 58.6749 59.0287 62.8866C50.7231 71.4243 39.1119 76.9835 27.0596 75.68C26.9822 76.0248 26.9146 76.3738 26.8491 76.7193C26.6532 77.7225 26.4756 78.7315 26.2988 79.7364C26.1413 80.6385 25.9851 81.5383 25.8219 82.4371C25.7644 82.758 25.7086 83.0814 25.6497 83.4047Z" fill="#E51C00"/>
</svg>
