<?xml version="1.0" encoding="utf-8"?>
<svg width="208" height="165" viewBox="0 0 208 165" fill="none" xmlns="http://www.w3.org/2000/svg">
<path d="M71.4133 163.168C71.3802 163.003 71.5626 162.805 71.6218 162.618C71.7416 162.265 72.1827 162.451 72.6559 162.081C73.7526 161.212 74.7801 162.445 75.7288 161.722C76.7265 160.963 77.633 160.947 78.8262 161.497C80.1425 162.104 81.6875 161.472 81.9269 160.314C82.096 159.487 82.3605 159.925 82.8619 160.066C85.0016 160.68 85.9847 160.299 86.7293 158.7C86.9124 158.314 87.2052 158 86.8919 157.599C86.7535 157.42 87.107 157.143 87.3496 157.285C88.1343 157.754 88.7359 157.965 88.9759 156.901C89.118 156.271 90.6747 156.256 90.4011 155.537C89.8674 154.131 91.5699 152.633 90.3391 151.332C91.4399 150.967 90.9628 152.111 91.8303 151.855C92.3468 151.316 91.6104 150.806 91.908 150.345C92.5825 149.294 91.929 148.556 91.5103 147.654C90.8445 146.205 90.475 144.601 92.115 142.814C93.3907 144.851 93.4834 146.853 93.6244 148.859C93.6938 149.899 93.0364 151.031 93.6627 151.964C94.537 153.26 94.6576 154.586 93.5981 156.349C95.9301 155.707 97.32 154.649 98.946 153.912C99.7122 154.55 99.1546 155.352 99.4141 156.024C99.767 156.941 100.401 157.088 101.552 156.481C102.697 155.876 104.324 155.81 105.356 156.316C107.017 157.157 108.801 156.914 110.291 155.577C110.66 155.246 110.933 155.124 111.411 155.288C111.72 155.382 112.267 155.596 112.331 155.534C113.587 154.469 115.84 154.581 116.885 153.335C117.692 152.375 118.778 151.987 120.264 151.821C121.928 151.623 122.437 151.027 121.685 150.062C121.277 149.536 121.474 149.612 122 149.367C124.326 148.3 124.423 146.309 125.84 144.845C126.057 144.617 126.018 144.156 125.86 143.883C124.752 142.027 125.099 139.924 124.567 137.964C124.427 137.473 124.412 137.098 125.212 136.881C125.907 137.698 126.357 138.523 126.435 139.447C126.481 140.01 126.658 140.425 127.414 140.675C128.448 141.014 128.758 141.57 127.961 142.392C127.709 142.66 127.703 143.051 128.174 143.244C129.146 143.627 128.949 144.565 129.634 145.041C131.171 146.121 130.237 148.579 133.414 148.715C133.529 148.724 133.707 148.922 133.676 149.009C133.352 150.247 134.81 150.755 135.356 151.616C135.953 152.559 136.583 152.323 137.409 151.899C138.854 151.157 140.229 151.052 141.809 151.425C143.73 151.876 145.628 151.42 147.14 150.333C148.245 149.528 149.423 148.937 150.876 148.565C152.868 148.042 156.158 145.604 157.117 144.118C157.228 143.929 157.129 143.372 157.895 143.707C158.958 144.166 159.299 143.707 159.431 142.963C159.632 141.75 160.361 140.475 158.744 139.683C159.146 138.927 160.527 139.26 160.546 138.687C160.571 137.869 160.707 137.095 160.981 136.278C161.182 135.682 160.03 135.923 159.555 135.7C159.009 135.45 159.159 135.058 159.286 134.651C160.05 132.103 160.71 129.567 159.86 127.052C159.712 126.575 159.663 126.041 159.902 125.493C160.147 124.915 161.297 125.142 161.437 124.529C159.678 123.451 159.391 122.591 160.049 121.014C160.39 120.207 160.408 119.406 160.136 118.569C159.338 116.16 158.514 113.731 159.633 111.122C159.752 110.848 159.694 110.646 159.5 110.408C158.569 109.271 158.583 108.009 158.866 106.64C158.979 106.099 158.966 105.428 158.739 104.783C158.353 103.678 158.177 102.432 158.571 101.209C158.875 100.268 158.936 99.4392 158.124 98.6446C157.45 97.9816 157.083 97.1862 158.153 96.333C158.673 95.9138 158.41 95.4893 158.188 95.0455C157.191 93.0777 156.538 91.0632 157.065 88.8401C157.238 88.1199 156.791 87.409 156.82 86.7392C156.868 85.5405 156.152 84.5287 156.176 83.2903C156.224 81.5284 157.191 79.5323 155.59 77.9278C155.123 77.4651 155.773 77.0696 156.023 76.658C156.486 75.906 154.705 76.2991 155.037 75.6063C155.09 75.5026 155.366 75.4541 155.446 75.3404C155.824 74.8455 156.036 74.4145 155.423 73.9288C155.053 73.6387 155.069 73.0903 154.844 72.6837C154.169 71.4392 154.619 69.9279 153.831 68.7757C152.239 66.4225 152.73 63.8008 152.505 61.2676C152.385 59.8984 152.63 58.5102 151.088 57.5221C150.356 57.0587 150.515 56.3236 150.066 55.7679C150.714 55.583 150.741 56.2697 151.374 55.8705C149.812 53.6022 150.108 50.9136 149.025 48.525C148.766 47.9618 149.669 47.9155 150.099 47.935C150.651 47.9688 150.647 48.2915 150.404 48.6791C149.833 49.5595 149.459 50.2948 151.582 50.0344C152.447 49.935 153.248 50.2999 152.854 51.42C152.211 53.2338 152.478 55.0126 154.16 56.4558C154.412 56.667 154.51 56.8576 154.971 56.6275C155.342 56.4327 155.806 55.8662 156.189 56.5091C156.368 56.8084 156.756 57.1867 156.098 57.5587C155.187 58.0726 155.514 58.6218 155.884 59.1284C156.071 59.3959 156.632 59.5895 156.308 59.9452C155.332 61.0372 156.22 61.8522 156.741 62.6848C157.317 63.596 157.642 64.5705 158.389 65.4522C158.888 66.0301 158.608 67.0227 158.84 67.835C159.329 69.6142 159.695 71.3688 161.191 72.8127C161.282 72.9093 161.243 73.0695 161.266 73.1922C161.636 75.5093 162.234 77.7723 163.744 79.802C163.951 80.0853 164.05 80.4616 163.733 80.7379C162.679 81.655 163.131 82.1933 164.338 82.532C164.876 82.6797 165.088 82.9561 165.324 83.3199C165.95 84.2426 166.636 85.0835 165.562 86.2073C165.108 86.6757 165.284 87.264 165.662 87.7034C166.021 88.1224 166.579 87.9313 167.112 87.739C167.485 87.6053 167.953 87.5952 167.868 87.9428C167.569 89.0561 169.781 89.9775 167.921 91.2007C167.821 91.2696 167.947 91.5701 168.052 91.7169C168.784 92.8523 168.186 93.9772 167.517 95.081C167.31 95.4206 167.084 95.8289 167.592 95.8917C168.429 95.9878 168.524 96.2019 168.245 96.7617C167.98 97.2826 168.257 97.7788 168.465 98.2845C169.705 101.417 171.855 104.265 172.541 107.612C173.088 110.307 174.637 112.841 175.779 115.436C175.935 115.792 176.181 116.184 176.57 116.394C177.812 117.064 178.363 118.068 179.093 119.006C179.652 119.714 180.183 120.421 181.347 120.761C181.993 120.947 182.324 121.263 181.947 121.978C181.38 123.021 182.083 123.944 183.153 124.518C184.322 125.15 185.624 124.684 186.656 124.003C187.695 123.323 188.414 123.435 189.164 124.076C190.149 124.907 191.44 124.749 192.57 124.127C193.839 123.426 195.267 122.955 196.56 122.294C198.304 121.403 199.932 120.366 201.994 119.792C204.791 119.033 206.302 117.274 207.517 115.418C207.826 114.951 208.242 114.253 207.668 113.917C206.491 113.233 206.987 112.452 207.406 111.64C207.698 111.048 207.879 110.436 207.534 109.896C206.651 108.536 208.101 106.72 206.418 105.505C206.292 105.414 206.377 105.109 206.491 104.931C207.706 102.944 205.105 101.081 206.883 99.0758C206.916 99.0423 206.827 98.9639 206.784 98.9099C206.154 98.1749 206.505 97.2278 206.161 96.4661C205.553 95.1343 206.591 93.5305 205.282 92.3542C203.918 91.1315 204.235 89.6613 204.389 88.1474C204.566 86.44 204.716 84.7594 203.842 83.068C203.118 81.6921 203.163 80.032 202.343 78.6033C202.288 78.5156 202.366 78.3301 202.467 78.2335C203.537 77.1285 202.772 76.0698 202.259 75.2529C200.821 73.0092 201.252 70.4326 200.346 68.1118C200.085 67.4278 200.685 66.7584 200.442 65.9936C199.732 63.7351 198.717 61.5842 198.362 59.2053C197.749 55.0571 196.767 50.9421 195.61 46.8742C195.188 45.3667 194.18 43.9758 194.294 42.3784C194.368 41.2528 194.281 40.1629 193.652 39.2176C192.838 38.0152 193.506 36.6905 193.235 35.4508C192.966 34.1863 192.338 33.0138 192.105 31.7137C191.569 28.6582 190.73 25.6378 190.039 22.6034C189.973 22.2886 189.947 21.927 190.1 21.6361C190.638 20.6345 190.205 19.7039 190.038 18.7983C189.628 16.4867 189.402 14.1791 190.018 11.8058C190.095 11.4839 190.304 10.9046 189.991 10.9043C188.78 10.9328 188.675 9.8975 187.564 9.82193C186.136 9.72192 184.846 9.30408 183.502 8.97793C181.382 8.4767 179.098 8.53636 176.791 8.86165C173.959 9.27223 171.923 10.676 170.928 12.412C169.082 15.6065 165.561 18.5032 166.012 22.1626C166.013 22.2176 165.924 22.2773 165.885 22.3424C165.062 23.7129 164.931 25.1392 165.472 26.4143C166.303 28.3692 165.586 30.517 166.405 32.4553C166.602 32.9317 165.845 33.6041 166.642 34.0709C166.897 34.2156 166.648 34.5135 166.395 34.4636C164.196 34.0498 165.49 35.0672 165.524 35.4876C165.605 36.885 167.118 38.003 166.545 39.5388C166.515 39.6257 166.657 39.7859 166.785 39.8406C168.303 40.5635 167.133 42.3955 168.965 42.9896C169.055 43.0265 169.085 43.2969 168.997 43.3627C167.101 44.7612 168.557 45.9528 168.905 47.2295C169.085 47.8772 169.412 48.5629 168.282 49.1849C170.824 49.3831 170.824 49.3831 171.258 51.4276C170.843 51.5148 170.477 51.0798 169.909 51.5409C170.609 52.5777 170.363 53.9477 170.957 54.9578C171.495 55.8556 169.982 56.2353 170.547 56.8901C171.092 57.5279 171.476 58.238 171.971 58.9071C172.602 59.7861 173.53 60.5941 172.571 61.762C172.395 61.9717 172.419 62.329 172.922 62.3494C175.181 62.4558 174.317 63.8011 174.503 64.724C174.528 64.8632 174.277 65.192 174.124 65.2128C173.193 65.3521 172.258 64.987 171.324 65.415C171.081 65.0876 170.642 64.7823 170.648 64.4332C170.648 63.2823 169.36 62.4391 169.855 61.2577C169.108 61.246 168.948 61.8433 168.465 61.6927C167.967 61.5319 168.064 61.2732 168.38 60.9003C168.914 60.2644 168.588 59.7395 168.15 59.1226C167.135 57.6729 165.765 56.3728 165.972 54.439C166.076 53.3092 165.538 52.0462 164.551 50.9885C163.704 50.0729 161.877 49.2494 163.342 47.6765C163.515 47.4917 163.303 47.3458 163.091 47.2073C160.768 45.6659 160.253 43.4653 159.641 41.3177C159.523 40.8904 159.726 40.3962 159.301 40.0215C157.258 38.2331 156.979 35.8254 155.704 33.7575C154.067 31.1037 153.309 28.1506 151.488 25.5572C150.8 24.5662 150.404 23.566 150.526 22.4217C150.55 22.156 150.729 21.8906 150.231 21.8097C148.588 21.5411 148.632 20.4933 148.355 19.566C148.022 18.4483 148.037 17.0561 147.095 16.3268C146.053 15.516 145.963 14.7672 146.109 13.8175C146.173 13.4497 146.02 13.2849 145.683 13.0316C144.377 12.0589 143.575 10.9745 143.538 9.42827C143.506 8.49057 142.881 7.43113 141.662 6.61525C139.356 5.05306 136.78 3.85764 133.88 2.97014C131.464 2.23321 129.046 1.44723 126.532 0.880031C123.993 0.30257 122.909 0.827737 122.637 2.79511C122.154 6.27179 121.941 9.74706 122.8 13.1299C123.039 14.0977 123.424 15.1424 122.725 16.0293C121.733 17.2723 121.565 18.374 121.78 19.7241C121.894 20.4756 122.278 21.1782 122.295 21.9554C122.397 26.4126 123.219 30.7657 124.299 35.0773C124.383 35.4203 124.575 35.856 124.078 35.9176C122.402 36.1214 123.338 37.0311 123.447 37.2556C124.357 39.1156 124.074 41.2347 125.264 43.038C125.653 43.6387 126.045 44.4353 125.777 45.041C125.227 46.3389 126.07 47.1891 126.761 48.1014C127.068 48.4984 127.347 48.8731 127.297 49.3418C127.095 51.6586 127.965 53.7572 128.874 55.8812C129.205 56.6753 129.871 57.6341 128.825 58.6513C128.495 58.9663 128.47 59.628 128.694 59.9871C129.892 61.9397 129.182 64.3212 130.66 66.2049C130.783 66.3493 130.884 66.6055 130.788 66.7505C129.681 68.5433 130.871 70.0903 131.265 71.6967C131.852 74.1455 131.38 76.8167 133.15 79.0335C133.23 79.1361 133.24 79.2974 133.19 79.4178C132.254 81.4694 133.933 83.2782 133.497 85.2848C133.437 85.5569 133.566 85.791 133.82 85.9849C134.988 86.8676 134.262 88.0758 134.428 89.1197C134.582 90.1604 135.679 90.9638 134.973 92.2399C134.539 93.0248 134.926 94.0507 135.147 94.9259C135.25 95.32 135.906 95.5956 136.228 95.9661C136.547 96.3169 137.404 96.8308 136.026 97.0478C135.031 97.2079 135.604 97.8433 134.954 98.1467C134.877 97.8811 134.792 97.6533 134.728 97.4104C134.388 96.151 134.355 96.0895 132.725 96.617C131.994 96.8608 131.351 96.9117 130.41 96.8483C132.814 95.5983 132.979 95.3948 133.427 94.0939C133.779 93.0931 133.38 92.1578 133.311 91.2083C133.281 90.7628 132.79 90.1224 131.83 90.9007C131.405 91.2579 130.676 91.4233 130.451 91.0596C130.218 90.677 129.861 90.1687 130.202 89.6788C131.13 88.3586 131.175 88.3417 129.643 87.6928C128.974 87.4127 128.718 87.1715 128.837 86.4955C129.026 85.3312 130.087 83.8869 127.855 83.1831C127.635 83.1179 127.465 82.5718 127.593 82.4885C128.737 81.7095 127.342 81.4072 127.315 80.8892C127.244 79.9292 125.553 79.8835 125.603 79.025C125.666 78.1173 125.534 77.1947 126.066 76.2829C126.158 76.12 126.16 75.8205 126.023 75.744C124.719 74.9629 125.06 73.7472 124.713 72.7096C124.489 72.0329 124.308 71.1937 123.648 70.8172C122.687 70.2471 122.623 69.4763 122.162 68.7842C121.09 67.1918 121.028 65.2763 119.564 63.8448C118.967 63.2618 119.062 62.6366 119.304 61.9868C119.771 60.7785 119.554 59.7954 118.139 59.0891C117.3 58.6696 117.324 58.0909 117.867 57.4C118.487 56.602 118.419 56.5868 117.042 56.2052C116.829 56.1453 116.683 55.9549 116.543 55.8128C116.186 55.4351 116.246 54.9542 116.083 54.5499C115.464 53.0585 115.636 51.447 114.896 49.9106C114.122 48.2839 113.049 46.5015 113.652 44.5305C112.171 44.6065 111.734 44.4512 111.837 43.4415C111.968 42.1884 111.768 41.1248 110.482 40.2935C110.259 40.1567 110.059 39.8003 110.16 39.6132C111.241 37.6553 109.572 36.2702 108.717 34.7679C108.247 33.916 107.71 33.245 108.201 32.213C108.571 31.4383 108.516 30.5467 106.747 30.7693C106.214 30.8359 105.93 30.6045 105.727 30.3038C104.822 28.9589 103.21 28.2964 101.275 27.8773C100.456 27.6959 99.4774 27.5347 99.3761 26.746C99.2767 25.9264 98.6832 25.7189 97.5748 25.7564C96.7962 25.7843 95.9954 25.559 95.268 25.3405C92.4106 24.501 89.511 23.8836 86.1837 24.5458C85.036 24.7806 83.8148 24.7368 82.6361 24.7778C78.3137 24.942 78.4737 24.7821 78.1037 28.3386C78.0334 28.9297 78.0037 29.503 78.3962 30.0433C78.8038 30.6046 78.8065 31.2456 78.6052 31.9266C77.1523 31.4711 77.1523 31.4711 75.9673 32.969C75.5809 32.5184 75.3708 31.8582 74.8346 31.721C73.1582 31.2975 71.1004 31.3862 70.5858 29.724C70.5136 29.4991 69.6371 29.4759 69.1547 29.3376C67.843 28.9348 66.1467 28.896 65.8435 27.5534C65.8185 27.4601 65.6055 27.3096 65.4859 27.3137C63.5802 27.5013 61.7801 26.645 59.8836 27.2626C58.6523 27.6637 57.6146 27.6441 56.4991 27.3696C56.1632 27.2895 55.7121 27.1546 55.4669 27.254C53.6671 28.0379 51.9351 27.6925 50.1945 27.4986C49.643 27.4296 49.1179 27.4536 48.6411 27.7518C48.004 28.1624 47.2928 28.1872 46.5678 28.0774C45.2812 27.8692 44.9305 28.4264 44.8684 29.2021C44.8476 29.4565 44.8487 29.7249 44.9416 29.9654C45.3632 31.0695 45.4776 32.3489 46.3306 33.2284C47.5096 34.421 45.6792 35.3303 45.9097 36.3545C45.9316 36.4819 46.0204 36.6018 46.0493 36.7237C47.1789 40.5929 47.1687 44.5851 47.1913 48.5806C47.2002 49.5384 47.5258 50.4699 47.1885 51.4749C46.3645 51.3954 46.3844 50.9201 46.2283 50.6115C45.1102 48.4086 44.0765 46.1697 42.9628 43.954C42.4146 42.8473 42.3071 41.7541 42.7419 40.5256C43.3322 38.8571 43.2077 37.2323 41.6974 35.9145C40.3527 34.7384 38.9438 33.5879 37.6053 32.4569C37.1881 32.6166 37.2714 32.8323 37.188 33.0232C36.9387 33.6571 36.2642 34.2339 35.4773 34.1556C34.3911 34.0397 35.719 33.4091 35.4431 33.057C35.1505 32.6842 34.8941 32.1253 34.4149 32.0111C33.2057 31.7386 32.9008 30.9593 32.2188 30.3741C31.639 29.8716 30.9586 29.2524 29.8948 29.3008C29.0277 29.3346 29.1768 30.2134 28.4916 30.4863C28.362 30.5408 28.1678 30.4829 28.0111 30.4859C27.741 30.2664 27.9671 29.9824 27.885 29.742C27.5159 28.5709 26.4773 27.663 25.0421 27.2465C23.8045 26.9011 22.6106 27.6331 21.7586 28.4443C21.2792 28.8933 20.6985 28.9602 20.0307 28.9193C19.2008 28.8759 18.6445 28.7722 19.4973 28.0575C19.7206 27.8767 19.5409 27.5299 19.2249 27.3812C18.7501 27.1636 18.4039 27.4026 18.0694 27.6829C17.3513 28.2902 16.8239 29.404 15.4841 28.2747C15.1726 28.0118 14.6142 28.2429 14.4258 28.623C14.2631 28.9322 14.1876 29.2601 14.1191 29.5932C14.0627 29.8464 14.1074 30.1287 13.5977 30.1859C13.2128 30.2323 12.8695 30.1885 12.6567 29.949C12.3847 29.6255 12.1468 29.2928 11.8462 28.9855C11.5526 28.6849 11.2443 28.3663 10.6028 28.3831C9.54799 28.418 8.51882 28.5399 7.455 28.3735C7.06098 28.3075 6.41689 28.8817 5.85576 29.1377C5.46505 29.3106 5.0293 29.5142 4.60524 29.5782C2.4378 29.8798 2.07847 30.9952 1.60713 32.3054C1.21246 33.4209 2.61976 34.254 2.08322 35.0407C0.936737 36.7421 2.74923 38.3899 1.30941 40.007C2.06757 41.7726 0.474883 43.5901 0.811135 45.3901C0.98799 46.3372 0.505756 47.3865 0.646326 48.3386C1.10419 51.3019 1.09848 54.2994 1.2774 57.2839C1.3272 58.2253 0.366408 59.0744 0.637836 60.0148C1.19725 61.904 0.842929 63.9486 1.35087 65.8218C2.2553 69.18 2.25944 72.6564 3.00813 76.0358C3.34076 77.5494 4.17183 79.1377 2.77315 80.7968C2.33296 81.3186 2.8893 81.8182 3.27909 82.2146C3.98918 82.9157 4.08532 83.7112 4.19632 84.5707C4.58331 87.4547 4.76186 90.3917 6.2515 93.0717C6.65067 93.7968 6.58474 94.5898 6.74198 95.3479C7.24313 97.8266 6.09127 100.765 9.55799 102.493C9.90426 102.661 10.2635 103.397 8.95883 103.227C8.08473 103.119 8.08512 103.562 8.06622 103.955C7.99634 105.69 8.83221 107.326 8.67559 109.092C8.63564 109.499 9.03416 109.948 9.58031 110.203C10.1075 110.455 10.3619 110.864 10.6607 111.248C11.1039 111.811 11.3454 112.306 10.0672 112.589C9.45443 112.726 9.37486 113.024 9.76238 113.313C10.3446 113.743 10.3816 114.014 9.41949 114.278C8.60761 114.502 8.69846 114.999 8.8578 115.456C9.29838 116.744 9.69299 118.058 10.6752 119.128C11.8148 119.014 11.8733 118.245 12.3757 117.74C13.0804 118.627 11.543 118.998 11.6496 119.655C11.7699 120.357 12.4842 120.919 12.4014 121.68C12.3742 121.875 12.4196 122.073 12.4211 122.264C12.4169 122.991 12.2961 123.732 13.465 124.059C13.7661 124.143 13.4233 126.001 13.1577 126.12C12.2855 126.173 12.4775 125.062 11.0236 125.435C12.007 126.559 11.6669 127.894 11.9513 129.144C12.0818 129.706 12.2701 130.252 12.8984 130.669C13.8523 131.306 14.7844 131.963 15.6202 132.672C17.4754 134.271 19.9574 135.622 19.2934 138.523C20.1567 137.795 20.6515 137.313 21.244 136.903C21.8321 136.494 22.403 136.445 22.6599 137.087C23.2088 138.47 24.4441 139.5 25.7988 140.478C26.1527 140.735 26.4449 141.025 26.4755 141.465C26.6231 143.835 27.842 144.563 31.0512 144.143C31.3622 145.893 33.4582 146.931 34.0746 148.628C34.2897 149.234 35.4538 149.561 35.1969 150.41C36.8577 150.233 36.7077 151.392 37.3839 151.935C37.6137 152.118 37.842 152.471 38.0613 152.453C39.8533 152.312 39.9461 153.57 40.8007 154.19C41.9145 153.751 42.2478 153.021 42.7749 152.38C43.8032 151.144 44.2509 149.751 45.1242 148.475C45.4341 148.014 45.501 147.263 46.4167 147.28C47.2063 147.288 47.8931 147.648 48.1619 148.253C48.3259 148.621 48.6071 148.955 48.7053 149.325C49.3528 151.646 51.1445 153.445 53.1097 155.197C54.8855 156.79 56.7543 158.41 55.8666 160.857C55.8014 161.046 55.8545 161.255 55.8871 161.448C56.0729 162.597 57.1899 163.29 58.676 162.757C60.3515 162.158 61.0662 162.768 61.9125 163.372C63.5464 164.545 63.5063 164.557 65.4529 163.302C65.7581 163.112 65.9738 162.626 66.5381 162.879C67.485 163.295 68.7757 163.137 69.6554 163.682C70.0563 163.934 69.9578 164.715 70.9239 164.379C71.7051 164.11 71.5181 163.62 71.4133 163.168Z" fill="#FFD600"/>
</svg>
