<?xml version="1.0" encoding="utf-8"?>
<svg width="20" height="19" viewBox="0 0 20 19" fill="none" xmlns="http://www.w3.org/2000/svg">
<path d="M0.585067 14.6864H15.8983C16.0356 14.6864 16.1683 14.6384 16.2736 14.5508C16.4207 14.4276 19.7758 11.5414 19.9804 5.31104H3.53434C3.33054 10.9665 0.240637 13.6248 0.208527 13.6513C0.020276 13.8103 -0.0489849 14.0702 0.0357064 14.3013C0.119812 14.5319 0.339001 14.6864 0.585067 14.6864Z" fill="#0BBC63"/>
<path d="M19.4138 1.79546H16.484V1.2095C16.484 0.881359 16.2262 0.623535 15.898 0.623535C15.5699 0.623535 15.3121 0.881359 15.3121 1.2095V1.79546H12.3432V1.2095C12.3432 0.881359 12.0853 0.623535 11.7572 0.623535C11.4291 0.623535 11.1712 0.881359 11.1712 1.2095V1.79546H8.24142V1.2095C8.24142 0.881359 7.9836 0.623535 7.65546 0.623535C7.32732 0.623535 7.06949 0.881359 7.06949 1.2095V1.79546H4.13967C3.81154 1.79546 3.55371 2.05329 3.55371 2.38143V4.13932H19.9998V2.38143C19.9998 2.05329 19.7419 1.79546 19.4138 1.79546Z" fill="#0BBC63"/>
<path d="M17.0259 15.4493C16.7077 15.7142 16.3083 15.8585 15.898 15.8585H3.55371V17.6164C3.55371 17.9402 3.81579 18.2023 4.13967 18.2023H19.4138C19.7377 18.2023 19.9998 17.9402 19.9998 17.6164V11.0479C18.87 13.8195 17.2935 15.2253 17.0259 15.4493Z" fill="#0BBC63"/>
</svg>
