<?xml version="1.0" encoding="utf-8"?>
<svg width="235" height="85" viewBox="0 0 235 85" fill="none" xmlns="http://www.w3.org/2000/svg">
<path d="M215.538 71.3078C215.579 71.2184 215.655 71.1875 215.728 71.2302C215.863 71.3107 215.994 71.3898 216.075 71.4377C216.136 71.5821 216.118 71.6831 216.01 71.7677L215.835 71.7681L215.479 71.493C215.479 71.493 215.504 71.3686 215.538 71.3078ZM216.289 75.4079C216.818 75.3351 217.414 74.9505 217.84 75.2553C217.886 75.2869 217.924 75.349 217.912 75.4054C217.896 75.4613 217.828 75.5586 217.772 75.5764C217.351 75.7208 216.921 75.902 216.51 75.8789C216.307 75.8672 216.218 75.7486 216.216 75.5837C216.216 75.5837 216.261 75.4653 216.289 75.4079ZM218.284 81.4368C218.522 81.3784 218.712 81.4326 218.885 81.5099C218.86 81.5729 218.846 81.6449 218.797 81.6994C218.509 82.0402 218.073 82.1045 217.868 81.834C217.868 81.834 217.85 81.7114 217.882 81.6619C217.965 81.5086 218.141 81.4754 218.284 81.4368ZM173.025 77.7939C172.864 77.8416 172.762 77.8162 172.69 77.703L172.71 77.5242L173.029 77.2046C173.029 77.2046 173.155 77.2343 173.221 77.276C173.306 77.3286 173.328 77.4066 173.277 77.4736C173.181 77.6008 173.084 77.7238 173.025 77.7939ZM168.878 79.2097C168.843 79.2587 168.776 79.2866 168.716 79.27C168.659 79.2539 168.565 79.1757 168.552 79.1201C168.443 78.6927 168.293 78.2566 168.352 77.8521C168.388 77.6511 168.515 77.5734 168.693 77.5819C168.693 77.5819 168.811 77.6421 168.87 77.6711C168.899 78.1943 169.233 78.8126 168.878 79.2097ZM162.262 79.8252C162.194 79.795 162.126 79.7731 162.07 79.7243C161.735 79.4235 161.702 78.9864 162.004 78.8004C162.004 78.8004 162.131 78.785 162.186 78.8167C162.34 78.9125 162.358 79.0838 162.384 79.2319C162.427 79.4678 162.351 79.6559 162.262 79.8252ZM234.028 36.5712C233.83 35.811 234.099 35.208 234.001 34.4898C233.819 33.2167 233.422 31.9463 232.654 30.7331C231.999 29.7093 230.121 28.6463 229.171 28.7484L227.307 29.0473L225.028 29.518C224.567 29.5873 224.038 29.4817 223.655 29.7474C223.268 30.0084 222.822 30.1874 222.459 30.4631C221.73 31.0196 221.036 31.6143 220.042 31.7306C219.953 31.7386 219.877 31.8075 219.8 31.8497L217.62 33.2233L214.901 35.0809L211.712 36.8652L208.543 38.5044L205.579 39.9574L203.764 40.9151C203.045 41.3157 202.137 41.3866 201.581 42.0698C201.475 42.2032 201.265 42.2328 201.088 42.2753C200.141 42.517 199.329 43.0084 198.54 43.5323C198.247 43.7236 197.924 43.8772 197.607 44.0284C196.9 44.3735 196.163 44.6322 195.439 44.9128C195.218 44.8744 194.948 44.8631 194.973 44.6185C195.056 43.9175 194.671 43.5435 194.208 43.2664C193.263 42.676 192.659 41.7415 191.617 41.2613C191.426 41.1827 191.32 40.9825 191.192 40.8206C190.872 40.4353 190.568 40.0523 190.101 39.7948C189.693 39.5705 189.262 39.3021 189.286 38.6912C189.294 38.5024 189.197 38.39 189.027 38.3542C188.697 38.2852 188.492 38.0759 188.291 37.8629C188.166 37.7352 188.042 37.595 187.824 37.6023C187.557 37.5988 187.538 37.4357 187.565 37.2041C187.624 36.5854 187.32 36.2603 186.77 36.1276C186.564 36.0795 186.27 36.1463 186.132 35.9007C186.397 35.3352 186.085 35.0206 185.737 34.8088C185.242 34.5147 184.868 34.101 184.434 33.7583L182.013 31.8175L180.023 30.468C179.453 30.0985 178.812 29.8088 178.298 29.3803C177.62 28.823 176.721 28.5238 176.143 27.8596L175.997 27.7576C174.929 27.3077 174.083 26.5873 173.019 26.1422C172.189 25.8112 171.515 25.2375 170.734 24.835C169.348 24.1109 168.12 23.1487 166.47 22.8341L166.125 22.7292C165.956 22.6779 165.958 22.3604 165.715 22.451C165.469 22.541 165.222 22.7556 165.115 22.4687C164.439 22.8593 163.792 22.7957 163.132 23.0987C161.968 23.633 160.86 24.3764 159.901 25.4335C159.09 26.3332 158.537 28.3729 158.855 29.2031L159.579 30.7976L160.552 32.715C160.723 33.1212 160.745 33.636 161.077 33.8995C161.417 34.1714 161.677 34.5327 162.023 34.7813C162.713 35.2747 163.431 35.7437 163.757 36.6077C163.788 36.6869 163.857 36.729 163.924 36.7918L165.688 38.3956C166.455 39.0599 167.285 39.6547 168.017 40.3598L170.345 42.7986L172.513 45.2728L174.449 47.6089L175.68 49.0411C176.188 49.605 176.41 50.4096 177.16 50.7636C177.31 50.8292 177.37 51.0104 177.441 51.1594C177.693 51.6726 178.105 52.0536 178.472 52.4579C178.05 52.7056 177.698 53.0831 177.759 53.8036C177.79 54.1339 177.667 54.266 177.457 54.344C177.155 54.4677 176.866 54.631 176.508 54.6152C176.135 54.5889 176.052 55.0483 175.69 55.0688C175.398 55.0914 175.062 55.1366 175.089 55.6468C175.097 55.805 174.944 55.8539 174.804 55.8065C174.424 55.6758 174.395 55.8903 174.46 56.279C174.495 56.5391 174.347 56.6181 174.157 56.4478C173.819 56.1381 173.561 56.0989 173.243 56.2203C172.851 56.3698 172.556 56.659 172.212 56.8846C171.933 57.0651 171.937 57.0657 171.529 56.565C171.482 56.5049 171.428 56.4079 171.377 56.3883C171.015 56.2158 170.657 56.0595 170.3 56.0691C169.994 56.0813 170.025 56.4644 169.853 56.6225L169.79 56.6836C169.51 57.1121 169.518 57.2113 169.921 57.7861L170.705 58.9351C170.802 59.0802 170.826 59.2479 170.744 59.3603C170.542 59.622 170.246 59.6685 169.901 59.5963C169.579 59.5284 169.415 59.2623 169.267 58.9372C169.203 58.7894 169.119 58.6376 168.965 58.6041C168.399 58.9599 168.13 59.5248 168.338 60.4847C168.394 60.7477 168.326 61.0024 168.48 61.287C168.53 61.3803 168.507 61.6084 168.507 61.6084C168.284 61.6561 168.207 61.9178 168.025 61.9966C167.83 62.0767 167.603 62.0798 167.4 62.1261C167.159 62.1883 167.082 61.8518 166.946 61.7552C166.505 61.4569 166.228 61.6167 166.062 62.1629C165.962 62.4754 165.747 62.5413 165.468 62.3546L165.284 62.2019C164.472 61.5968 164.178 61.5655 163.684 62.1948C163.365 62.601 162.865 62.8096 162.736 63.4475C162.721 63.5319 162.629 63.626 162.554 63.6243C161.977 63.6157 161.743 64.083 161.52 64.5603C161.315 64.9852 161.108 65.3444 160.54 65.1238C160.438 65.0763 160.307 65.1745 160.222 65.2495C160.12 65.3222 160.108 65.4767 160.135 65.6461C160.172 65.8357 160.278 65.9207 160.426 65.9651C160.622 66.0329 160.836 66.0914 160.977 66.3407C161.177 66.7139 161.389 67.0898 161.413 67.5003C161.423 67.7001 161.405 67.8991 161.247 67.9559C161.058 68.0252 160.928 68.0866 161.103 68.427C161.251 68.7235 161.143 68.997 161.051 69.1787C160.748 69.7802 160.679 70.5094 160.635 71.261C160.621 71.4944 160.6 71.71 160.395 71.7688C160.116 71.8543 160.182 72.0448 160.319 72.3895C160.546 72.9352 160.457 73.0678 160.034 73.1338L159.937 73.1407C159.822 73.163 159.667 73.1578 159.739 73.3702C159.766 73.4477 159.92 73.5139 160.011 73.5506C160.337 73.6813 160.568 73.5154 160.822 73.4306C161.001 73.3757 161.244 73.1861 161.344 73.3696C161.553 73.7356 161.883 73.6811 162.106 74.0121L162.46 74.6627C162.556 74.8191 162.602 74.9742 162.526 75.1C162.445 75.2379 162.312 75.1744 162.178 75.0771L161.714 74.7461C161.609 74.6864 161.488 74.7734 161.509 74.8712L161.853 76.3973C162.292 76.7292 162.083 76.8949 161.868 77.022C161.713 77.1201 161.572 77.2329 161.478 77.41C161.377 77.5906 161.411 77.6775 161.727 77.9135C161.902 78.0364 161.963 78.3907 161.837 78.514C161.737 78.6039 161.618 78.5919 161.479 78.5688C161.19 78.5086 161.054 78.5935 160.982 78.9626C160.77 80.0597 160.274 80.9157 159.545 81.5417C159.287 81.7578 159.21 82.0196 159.336 82.1571C159.555 82.3713 159.721 82.2504 159.888 82.1939C160.116 82.1141 160.368 82.0406 160.545 81.8758C161.114 81.3219 161.885 81.1542 162.539 80.7692C162.716 80.6614 163.01 80.7139 163.129 80.5485C163.445 80.0924 163.897 80.1537 164.422 80.2576C164.895 80.3471 165.463 80.4738 165.46 79.6408C165.455 79.5779 165.538 79.548 165.575 79.4949C165.806 79.2097 165.924 79.2331 166.176 79.6261L166.453 80.0478C166.763 80.5056 166.773 80.5196 167.013 80.1722C167.309 79.7512 167.678 79.4257 168.224 79.7182C168.996 80.1321 169.447 79.8841 169.803 79.3226C169.964 79.0647 170.162 78.8975 170.437 78.8113C170.703 78.7324 170.918 78.559 171.226 78.3866C171.21 78.7516 170.773 78.7377 171.049 79.1086C171.231 79.3686 171.404 79.1399 171.579 79.1181C171.85 79.0895 172.005 78.9006 172.106 78.6252C172.211 78.3387 172.422 78.2639 172.731 78.3512C173.01 78.427 173.265 78.4237 173.439 78.8357C173.515 79.019 173.681 79.0246 173.807 79.0216C174.102 79.0078 174.393 78.9809 174.463 78.5946C174.524 78.261 174.764 78.1902 175.036 78.1901C175.36 78.2015 175.69 78.2335 176.036 78.3628C176.438 78.5165 176.548 78.4491 176.485 77.9795C176.378 77.1693 176.738 76.8267 177.212 76.565C177.37 76.4788 177.555 76.41 177.75 76.4238C178.056 76.4484 178.254 76.4056 178.168 75.9655L178.275 75.8228C178.844 75.69 179.386 75.3921 180.074 75.7534C180.471 75.9645 180.769 75.8973 180.955 75.6303C181.254 75.213 181.584 74.8494 181.985 74.5661C182.097 74.4863 182.047 74.1746 182.262 74.2207C182.511 74.2744 182.605 74.5352 182.708 74.7633C182.784 74.9341 182.919 74.9893 183.057 75.0533C183.473 75.2502 183.839 75.3284 184.171 75.0684C184.535 74.7886 184.577 74.8186 184.262 74.2367C184.13 73.9834 184.1 73.7652 184.114 73.5444C184.122 73.3925 184.201 73.2428 184.361 73.3268C184.965 73.6431 185.293 73.2633 185.453 72.8607C185.692 72.2664 186.172 71.9897 186.481 71.504C186.598 71.3173 186.744 71.1314 186.995 71.1326C187.212 71.141 187.373 71.3613 187.552 71.529C187.892 71.8517 188.226 71.8273 188.517 71.7392C188.75 71.6631 188.472 71.3078 188.511 71.1199C188.55 70.948 188.633 70.8019 188.713 70.6652C188.828 70.4696 189.016 70.4709 189.238 70.5918L189.529 70.7875C190.026 71.1028 190.112 71.0808 190.266 70.6237L190.364 70.2085C190.385 70.0552 190.55 70.106 190.618 70.0076C190.887 70.2056 191.212 70.3362 191.741 70.2011C192.06 70.1252 192.201 70.2194 192.305 70.3895C192.453 70.6492 192.646 70.8853 192.656 71.2159C192.682 71.5539 193.132 71.5653 193.187 71.8905C193.234 72.1565 193.311 72.4591 193.802 72.3485C193.961 72.3205 194.027 72.4528 193.991 72.5884C193.895 72.9583 194.104 72.9541 194.485 72.8326C194.742 72.7609 194.833 72.8799 194.677 73.0813C194.402 73.4398 194.387 73.6814 194.533 73.9567C194.718 74.2909 195.03 74.5179 195.28 74.7998C195.479 75.0241 195.479 75.0241 195.021 75.4696C194.96 75.5224 194.877 75.5777 194.854 75.6326C194.718 75.9845 194.599 76.3355 194.634 76.6611C194.668 76.938 195.043 76.8569 195.212 76.9875L195.282 77.0381C195.718 77.2334 195.814 77.2095 196.355 76.7627L197.432 75.8831C197.567 75.778 197.738 75.7262 197.854 75.7916C198.122 75.9398 198.194 76.2092 198.151 76.5325C198.109 76.8361 197.859 77.0205 197.541 77.2C197.396 77.2796 197.253 77.3795 197.234 77.5255C197.63 77.9951 198.209 78.1686 199.151 77.8437C199.401 77.7574 199.66 77.7883 199.936 77.6073C200.023 77.5536 200.254 77.5439 200.254 77.5439C200.315 77.7411 200.582 77.7772 200.677 77.9388C200.771 78.1046 200.784 78.3123 200.848 78.4939C200.927 78.7105 200.594 78.8225 200.509 78.9628C200.239 79.4043 200.42 79.6399 200.978 79.723C201.289 79.7736 201.371 79.9662 201.195 80.2473L201.057 80.4344C200.508 81.2504 200.495 81.5293 201.15 81.9062C201.577 82.1499 201.81 82.5815 202.457 82.6239C202.548 82.632 202.638 82.7022 202.646 82.7729C202.669 83.3079 203.15 83.464 203.629 83.6239C204.063 83.7566 204.43 83.9183 204.234 84.4647C204.201 84.5583 204.303 84.6671 204.38 84.7441C204.457 84.8283 204.616 84.8298 204.777 84.7768C204.968 84.7246 205.046 84.6201 205.09 84.4731C205.14 84.2899 205.193 84.0872 205.431 83.9337C205.792 83.7115 206.15 83.471 206.568 83.4085C206.765 83.3772 206.965 83.3759 207.03 83.5165C207.112 83.6838 207.171 83.7995 207.511 83.6019C207.797 83.4349 208.076 83.5096 208.264 83.5763C208.89 83.7932 209.621 83.7974 210.378 83.7651C210.613 83.7516 210.826 83.7594 210.894 83.9374C210.997 84.1909 211.183 84.1127 211.518 83.9566C212.055 83.695 212.197 83.7638 212.281 84.1583L212.29 84.2459C212.317 84.353 212.327 84.499 212.535 84.4111C212.606 84.3797 212.663 84.2355 212.697 84.1408C212.819 83.8282 212.637 83.6262 212.544 83.3909C212.482 83.2296 212.281 83.0165 212.451 82.9077C212.811 82.6811 212.732 82.3729 213.052 82.141L213.69 81.7494C213.839 81.6377 213.992 81.5878 214.122 81.6466C214.265 81.7071 214.209 81.8441 214.119 81.9765L213.818 82.4379C213.758 82.5459 213.848 82.6488 213.952 82.6218L215.46 82.1668C215.775 81.7274 215.946 81.911 216.092 82.1038C216.199 82.2417 216.316 82.3653 216.5 82.4473C216.691 82.5228 216.78 82.481 216.995 82.164C217.11 81.9908 217.46 81.9022 217.587 82.0144C217.688 82.1062 217.682 82.2161 217.665 82.3456C217.622 82.6248 217.713 82.7522 218.089 82.7905C219.201 82.9045 220.089 83.3225 220.768 83.9622C221.004 84.1926 221.272 84.2533 221.398 84.1174C221.607 83.9031 221.479 83.7453 221.407 83.5952C221.315 83.3769 221.229 83.1469 221.046 82.9902C220.461 82.4909 220.251 81.7648 219.826 81.1722C219.705 81.0113 219.74 80.7237 219.569 80.6256C219.092 80.3592 219.134 79.9239 219.203 79.4141C219.265 78.9562 219.349 78.403 218.51 78.4792C218.451 78.487 218.412 78.4078 218.361 78.3767C218.049 78.1855 218.065 78.0684 218.449 77.7944L218.858 77.4953C219.291 77.1627 219.306 77.152 218.939 76.9503C218.496 76.7087 218.138 76.3837 218.397 75.8343C218.757 75.0621 218.474 74.6492 217.882 74.3631C217.615 74.2319 217.43 74.058 217.318 73.8001C217.221 73.5601 217.021 73.3715 216.825 73.0937C217.191 73.0738 217.215 73.4927 217.568 73.1946C217.817 72.9931 217.569 72.8486 217.532 72.6874C217.48 72.4281 217.275 72.3022 216.988 72.2294C216.693 72.1567 216.602 71.9671 216.661 71.6575C216.709 71.3886 216.692 71.1426 217.085 70.932C217.26 70.845 217.257 70.679 217.24 70.5616C217.203 70.2843 217.148 70.0089 216.751 69.9761C216.415 69.9506 216.32 69.7278 216.3 69.4739C216.276 69.1615 216.282 68.8404 216.383 68.4953C216.492 68.0943 216.413 67.993 215.942 68.1064C215.14 68.294 214.762 67.9917 214.453 67.5667C214.355 67.4246 214.261 67.2515 214.256 67.0735C214.246 66.7799 214.184 66.5941 213.756 66.725L213.597 66.6379C213.409 66.106 213.056 65.6328 213.343 64.9299C213.515 64.5249 213.424 64.2445 213.135 64.0976C212.682 63.8631 212.274 63.5936 211.941 63.2477C211.85 63.1488 211.545 63.2436 211.57 63.0285C211.589 62.7875 211.845 62.6659 212.059 62.5346C212.222 62.4365 212.266 62.3021 212.313 62.1692C212.467 61.7447 212.491 61.3808 212.2 61.0944C211.869 60.7899 211.901 60.7405 211.348 61.1192C211.114 61.2763 210.896 61.3333 210.672 61.3525C210.521 61.3615 210.36 61.3101 210.424 61.1457C210.677 60.5205 210.256 60.2619 209.831 60.1631C209.216 60.009 208.871 59.5991 208.345 59.3716C208.144 59.2862 207.937 59.1759 207.911 58.9381C207.89 58.7284 208.095 58.542 208.233 58.3508C208.366 58.1747 208.27 58.0467 208.275 57.8943C208.393 57.8165 208.508 57.7413 208.634 57.6761C209.096 57.4412 209.546 57.2058 209.918 56.8067C210.237 56.4585 210.609 56.0932 211.224 56.2378C211.414 56.2847 211.551 56.204 211.621 56.0574C211.768 55.7429 212.023 55.5875 212.291 55.435C212.45 55.3406 212.612 55.2475 212.667 55.0323C212.719 54.7713 212.896 54.7911 213.13 54.8567C213.745 55.0424 214.142 54.8167 214.4 54.303C214.494 54.1099 214.495 53.8168 214.778 53.7318C215.292 54.1106 215.691 53.8767 215.987 53.5823C216.402 53.1691 216.904 52.8868 217.365 52.541L219.92 50.617L221.788 48.9984C222.31 48.5301 222.767 47.9737 223.33 47.5763C224.07 47.05 224.609 46.2578 225.441 45.8504L225.582 45.7376C226.321 44.8197 227.276 44.1578 228.022 43.2461C228.595 42.5356 229.358 42.0292 229.991 41.3732C231.112 40.2191 232.431 39.2764 233.245 37.7839L233.462 37.4757C233.566 37.3242 233.877 37.4075 233.862 37.15C233.842 36.892 233.707 36.5972 234.028 36.5712Z" fill="#FFD600"/>
<path d="M150.606 25.0907C150.537 25.1637 150.326 25.0528 150.326 25.0528C150.288 24.8492 150.357 24.6982 150.471 24.5691C150.569 24.4589 150.703 24.4032 150.849 24.4305C150.96 24.4497 150.979 24.6211 150.879 24.769L150.606 25.0907ZM150.315 23.0389C150.162 23.3031 149.907 23.3382 149.72 23.1196C149.582 22.9891 149.528 22.8341 149.613 22.6346C149.677 22.4828 149.749 22.3407 149.957 22.3236C150.159 22.3098 150.341 22.421 150.385 22.5873C150.427 22.7418 150.402 22.8904 150.315 23.0389ZM149.208 24.6372L149.125 24.6302L149.154 24.4158L149.27 24.3324L149.324 24.3681C149.352 24.4752 149.298 24.563 149.208 24.6372ZM148.607 23.4879C148.497 23.6217 148.278 23.6332 148.144 23.4873C148.144 23.4873 148.093 23.3643 148.115 23.2976C148.182 23.0798 148.329 22.9183 148.556 22.8215C148.65 22.7762 148.784 22.865 148.788 22.9595C148.799 23.151 148.733 23.3319 148.607 23.4879ZM141.549 38.7866C141.33 39.0123 141.07 39.1469 140.642 39.2207C140.915 38.9032 141.144 38.7486 141.427 38.6678L141.568 38.7111L141.549 38.7866ZM139.536 36.6542L138.748 37.2819C138.846 36.9036 139.035 36.6116 139.406 36.4636L139.562 36.4563C139.663 36.5153 139.603 36.5936 139.536 36.6542ZM135.793 33.7691L135.659 33.8248L135.561 33.7575C135.567 33.6476 135.842 33.4992 135.954 33.5429C136.003 33.5707 135.998 33.6111 135.945 33.6609L135.793 33.7691ZM130.327 45.31L130.363 45.1999L130.505 45.1653C130.575 45.1748 130.585 45.2215 130.533 45.2725C130.476 45.3259 130.41 45.3751 130.327 45.31ZM125.888 47.8363L125.744 47.8454C125.674 47.7208 125.739 47.6062 125.859 47.5232L126.007 47.5148C126.106 47.6476 125.963 47.7389 125.888 47.8363ZM119.247 56.8817C119.16 56.816 119.126 56.7249 119.182 56.629C119.182 56.629 119.261 56.665 119.324 56.6894L119.378 56.8699L119.247 56.8817ZM116.086 54.5196C115.815 54.5399 115.575 54.4999 115.391 54.2564L115.38 54.18L115.424 54.125L116.1 54.262C116.16 54.2817 116.192 54.4475 116.151 54.4746L116.086 54.5196ZM106.417 44.0814C106.538 44.1432 106.642 44.2395 106.757 44.3175C106.635 44.3832 106.497 44.4426 106.408 44.3028C106.359 44.2308 106.424 44.1572 106.417 44.0814ZM105.584 45.8445C105.564 45.903 105.378 45.9147 105.359 45.8668L105.318 45.8C105.348 45.5275 105.43 45.2833 105.729 45.1466L105.806 45.1402L105.861 45.1889L105.584 45.8445ZM106.22 42.9426L106.31 43.0529L106.23 43.1454C106.068 43.173 105.932 43.0965 105.799 43.0247C105.927 42.9439 106.062 42.8799 106.22 42.9426ZM111.837 31.1571C111.906 31.1992 111.962 31.2522 111.915 31.3451L111.795 31.3372L111.738 31.206C111.734 31.139 111.778 31.1207 111.837 31.1571ZM114.595 36.1806C114.659 36.1651 114.745 36.185 114.82 36.2111C114.82 36.2111 114.908 36.2727 114.944 36.3186C115.38 36.897 115.827 37.4525 116.454 37.8552C116.5 37.8816 116.522 37.9383 116.566 37.9812C116.431 38.0832 116.331 38.2058 116.235 38.3246C115.623 37.8164 115.076 37.2558 114.626 36.5975L114.527 36.374C114.5 36.2912 114.509 36.1985 114.595 36.1806ZM115.183 34.9909L115.223 35.1241C115.106 35.22 114.987 35.1743 114.879 35.0732L114.847 34.9412C114.967 34.8213 115.078 34.9355 115.183 34.9909ZM116.392 36.5194L116.574 36.6591L116.684 36.8059C116.724 36.882 116.762 36.9737 116.679 37.0205C116.621 37.0538 116.52 37.0601 116.457 37.0273C116.339 36.9702 116.23 36.8847 116.134 36.7893C116.056 36.7134 116.011 36.5911 116.101 36.5084C116.183 36.4256 116.296 36.461 116.392 36.5194ZM117.844 38.1134C117.802 38.1489 117.762 38.1889 117.724 38.2249C117.754 38.1962 117.76 38.1475 117.789 38.1186C117.804 38.1038 117.825 38.1236 117.844 38.1134ZM119.567 37.2425C119.619 37.3783 119.659 37.5188 119.556 37.6662L119.424 37.7433L119.346 37.6461C119.35 37.4853 119.455 37.3591 119.567 37.2425ZM116.974 39.1329L117.361 38.6209C117.39 38.6249 117.411 38.5949 117.431 38.5734C117.414 38.8424 117.303 39.0836 117.116 39.2925C117.068 39.2448 117.03 39.1827 116.974 39.1329ZM123.909 48.8995C123.807 48.8192 123.728 48.7261 123.661 48.6263C123.723 48.5694 123.778 48.502 123.848 48.4586C123.948 48.3973 124.077 48.3694 124.151 48.4702C124.213 48.5651 124.152 48.673 124.075 48.7563L123.909 48.8995ZM124.353 47.0098L124.608 46.9493C124.697 46.9372 124.785 46.965 124.791 47.0491C124.798 47.1239 124.749 47.2038 124.711 47.2683C124.711 47.2683 124.626 47.3433 124.576 47.3703C124.192 47.5525 123.865 47.83 123.513 48.0544C123.498 48.0481 123.5 48.0273 123.484 48.0209L123.082 47.7859C123.512 47.5383 123.887 47.2104 124.353 47.0098ZM123.158 61.8884C123.215 61.9003 123.3 61.9816 123.309 62.0408L123.351 62.591L123.274 62.6914L123.13 62.6548C123.061 62.6002 122.972 62.5227 122.972 62.5227C122.776 62.2734 122.765 62.1115 122.949 61.9508C123.001 61.9082 123.094 61.8671 123.158 61.8884ZM127.733 56.6972L127.942 56.9397L127.872 57.0251L127.662 56.7909L127.606 56.6472L127.733 56.6972ZM126.054 66.176C126.217 66.2108 126.371 66.4259 126.356 66.5673L126.315 66.624C126.18 66.6638 125.892 66.3809 125.937 66.2393L126.054 66.176ZM127.75 65.7266L127.883 65.7942C127.939 65.8673 127.895 65.9774 127.816 65.9497L127.707 65.8527L127.75 65.7266ZM128.879 69.3177L129.017 69.5748L128.971 69.6014L128.776 69.3775L128.722 69.2467C128.807 69.1718 128.845 69.2634 128.879 69.3177ZM101.153 57.089L100.87 57.2689L100.792 57.1931L101.069 57.0038C101.069 57.0038 101.167 56.9843 101.224 56.9667L101.153 57.089ZM102.459 48.7634L102.254 48.7925L102.271 48.6672C102.349 48.5871 102.452 48.5599 102.548 48.6309C102.548 48.6309 102.496 48.7062 102.459 48.7634ZM96.1412 52.1639L95.5524 52.1579L95.4561 52.071L95.5133 51.9257L95.6787 51.7794C95.9735 51.6094 96.1445 51.6115 96.2936 51.8132C96.3328 51.8639 96.3564 51.9663 96.3228 52.024C96.3063 52.0829 96.2086 52.1562 96.1412 52.1639ZM91.5231 56.3808C91.4324 56.4339 91.3313 56.3748 91.3664 56.2972L91.4805 56.1977L91.6154 56.2529L91.5231 56.3808ZM90.8966 54.7995L90.8405 54.755C90.8171 54.6199 91.1536 54.3563 91.3016 54.4091L91.3514 54.5309C91.2885 54.687 91.0437 54.8268 90.8966 54.7995ZM87.6445 57.1113L87.3546 57.2207L87.327 57.1716L87.5937 56.9967L87.741 56.9597C87.812 57.0517 87.7072 57.0828 87.6445 57.1113ZM103.213 22.4689L103.228 22.3264L103.299 22.3244C103.576 22.4727 103.76 22.6919 103.922 23.0684C103.553 22.8938 103.356 22.7109 103.213 22.4689ZM101.494 24.8821L101.446 24.7352C101.49 24.6335 101.577 24.6707 101.646 24.7169L102.424 25.2963C102.035 25.2931 101.716 25.1845 101.494 24.8821ZM99.6309 29.0928C99.523 29.1151 99.3265 28.8995 99.3551 28.7831C99.3658 28.736 99.409 28.725 99.4672 28.7614L99.5975 28.874L99.6746 28.9837L99.6309 29.0928ZM87.727 19.073L87.6214 18.9891L87.6379 18.929C87.7329 18.8765 87.8296 18.9023 87.9221 18.9603L87.9363 19.0403L87.727 19.073ZM87.3445 17.5175C87.3384 17.409 87.4976 17.3442 87.6625 17.3918L88.0336 17.553C88.1119 17.5921 88.0605 17.8162 88.0605 17.8162C87.8764 17.9104 87.7163 17.8887 87.5664 17.823C87.4406 17.7648 87.3506 17.6576 87.3445 17.5175ZM86.8992 20.3378C86.6732 20.3398 86.4844 20.253 86.3375 20.0716C86.2806 19.9985 86.326 19.8485 86.4183 19.8156C86.6021 19.754 86.7839 19.7703 86.9672 19.8363C87.1136 19.8973 87.1745 20.0955 87.0648 20.2569C87.0648 20.2569 86.966 20.3384 86.8992 20.3378ZM85.9187 19.1538C85.7616 19.1409 85.6056 19.1198 85.543 18.934C85.484 18.7529 85.5397 18.5579 85.6946 18.4639C85.8315 18.379 85.9795 18.3664 86.1426 18.397C86.4307 18.4604 86.5211 18.6879 86.3516 18.9203C86.2624 19.0854 86.1326 19.1786 85.9187 19.1538ZM156.605 23.1421C156.414 22.9432 156.111 22.9316 155.897 22.7791C155.708 22.6374 155.543 22.4672 155.332 22.3553C155.134 22.2461 154.889 22.1971 154.589 22.0983C154.877 21.9232 154.952 21.7687 154.697 21.5896C154.589 21.5169 154.696 21.3425 154.839 21.3039C155.018 21.2501 155.173 21.2827 155.316 21.3644C155.409 21.4182 155.512 21.4607 155.628 21.4067C155.628 21.4067 155.709 21.3354 155.732 21.2847L155.73 21.2148C155.612 21.1534 155.502 21.072 155.377 21.0392C155.12 20.9622 154.925 20.8618 154.992 20.5459C155.026 20.4218 154.942 20.365 154.85 20.2998L153.94 19.673C153.88 19.6279 153.79 19.5788 153.718 19.5891C153.179 19.6732 152.678 19.4522 152.154 19.534C151.854 19.5799 151.617 19.5436 151.374 19.3987C151.148 19.2699 151.005 19.3739 151.056 19.6405C151.096 19.8432 151.057 19.9414 150.843 19.983L150.673 20.0053C150.445 20.0229 150.284 20.1287 150.275 20.3543C150.267 20.4978 150.103 20.6571 150.269 20.7904L150.682 20.7357C151.111 20.72 151.28 20.9814 151.093 21.3391C151.003 21.5126 150.882 21.6692 150.701 21.7723C150.505 21.8861 150.299 21.8623 150.218 21.6656C150.149 21.4958 150.1 21.3331 149.901 21.2523C149.755 21.1914 149.739 21.0573 149.775 20.9218C149.832 20.6615 149.716 20.5266 149.459 20.4706C149.212 20.417 149.064 20.2112 148.869 20.0813C148.248 19.6637 147.368 19.7785 146.839 20.3831C146.611 20.6413 146.38 20.8938 146.085 21.068L143.805 22.4037C143.593 22.5227 143.395 22.5296 143.201 22.3629C143.047 22.2344 142.745 22.3622 142.78 22.54C142.835 22.8736 142.59 23.0461 142.406 23.228C142.038 23.5938 141.54 23.7615 141.08 23.9798C140.95 24.0402 140.807 24.0166 140.699 23.9154C140.529 23.7562 140.395 23.8742 140.285 24.007L140.117 24.2933C139.886 24.6124 139.737 24.6956 139.216 24.8064C139.362 24.649 139.498 24.5144 139.733 24.2623C139.329 24.409 139.074 24.4989 138.91 24.7479C138.42 25.5267 137.582 25.8541 136.806 26.2722C136.702 26.3288 136.593 26.3298 136.485 26.2951C136.212 26.2085 136.143 26.351 136.108 26.5732C136.053 26.9245 135.801 27.1498 135.469 27.2863C135.265 27.3694 135.009 27.4666 134.823 27.4297C134.529 27.3687 134.429 27.4627 134.302 27.6882C134.101 28.0283 133.955 28.4325 133.419 28.4379C133.335 28.4433 133.242 28.5712 133.156 28.646C133.047 28.742 132.924 28.8203 132.779 28.8049C132.478 28.7767 132.293 28.9415 132.143 29.147C132.001 29.3387 131.791 29.4337 131.614 29.5701C131.455 29.693 131.308 29.7017 131.164 29.5872L131.024 29.5723C131.092 29.8453 130.839 30.0422 130.802 30.284C130.802 30.284 130.91 30.382 130.978 30.4113C131.104 30.4654 131.248 30.506 131.175 30.685C131.135 30.7872 131.038 30.8605 130.923 30.8776C130.744 30.9029 130.679 30.7876 130.629 30.6689L130.504 30.3839C130.41 30.215 130.199 30.2064 130.124 30.3862C129.934 30.8637 129.51 31.1808 129.219 31.5781C129.069 31.7846 128.853 31.8958 128.544 32.0469C128.64 31.8954 128.683 31.8273 128.721 31.7617C128.799 31.6489 128.782 31.5601 128.679 31.488C128.586 31.43 128.477 31.4078 128.364 31.4622C128.297 31.4985 128.209 31.5603 128.187 31.6323C128.005 32.0772 127.602 32.3728 127.257 32.6932C127.038 32.8935 126.744 33.0267 126.479 33.1891C126.09 33.0994 125.835 33.3159 125.603 33.5768C125.505 33.6838 125.394 33.7668 125.247 33.8007C124.993 33.8528 124.861 34.0207 124.777 34.2403C124.703 34.4445 124.615 34.6383 124.416 34.777C124.191 34.9268 124.014 34.9324 123.814 34.7734C123.732 34.7042 123.678 34.6104 123.589 34.5613C123.526 34.5274 123.402 34.5191 123.351 34.5533C122.971 34.832 122.474 35.0073 122.336 35.5077C122.319 35.8441 122.1 36.0455 121.808 36.1947L121.659 36.1788L121.64 36.0443L121.896 35.4481C121.427 35.4266 121.043 35.6711 120.831 36.0254C120.527 36.5443 120.077 36.9001 119.576 37.2109C119.573 36.8898 119.813 36.5636 119.636 36.2388C119.158 36.4663 118.69 36.6793 118.647 37.2707C118.643 37.3651 118.53 37.4605 118.442 37.5562C118.134 37.2053 117.799 36.8749 117.548 36.4789C117.372 36.1955 117.161 35.9358 116.937 35.6827L115.149 33.6674C114.949 33.4471 114.823 33.1493 114.435 33.1959C114.342 33.2075 114.195 33.0599 114.103 32.961L112.356 31.0303C112.153 30.8001 111.949 30.571 111.674 30.4134C111.25 30.1786 110.911 29.8487 110.615 29.4667C110.494 29.3183 110.371 29.1444 110.218 29.0413C109.32 28.4415 108.608 27.6569 107.866 26.9041L107.797 26.8505L105.161 24.6209C104.877 24.3766 104.609 24.1303 104.456 23.66C105.077 24.1072 105.545 24.5327 105.955 25.0251L106.107 25.0795C106.199 25.0467 106.19 24.9589 106.136 24.8936C105.678 24.2954 105.202 23.7032 104.645 23.1866C104.441 22.9943 104.216 22.8066 104.053 22.5913C103.386 21.6841 102.519 20.9649 101.722 20.1804C101.644 20.1045 101.509 20.0238 101.5 19.9403C101.455 19.6209 101.241 19.4072 101.038 19.1812L101.024 19.0389L101.158 19.0034C101.479 19.1418 101.703 19.3949 101.957 19.6151L102.862 20.3731L103.008 20.4088L102.985 20.2622C102.092 19.3612 101.276 18.3852 100.246 17.6271L99.7379 17.1836C99.4997 16.936 99.2284 16.743 98.9313 16.5666C98.4659 16.2977 98.0272 15.9901 97.7402 15.5186C97.6849 15.4288 97.5977 15.3305 97.5038 15.2892L96.3495 14.7981C96.2738 14.772 96.1687 14.7736 96.1524 14.8621C96.1394 14.9268 96.173 15.0179 96.2152 15.0774L96.5486 15.4519C96.6531 15.5811 96.5462 15.785 96.3836 15.8083C96.1909 15.8402 96.0034 15.8106 95.8283 15.713L95.2525 15.3668C94.9639 15.1831 93.3286 14.5697 93.0201 14.5321C92.6912 14.4959 92.3698 14.5219 92.0482 14.4002C91.8828 14.3493 91.7265 14.3977 91.5788 14.4684C91.4765 14.5126 91.4072 14.5897 91.4213 14.7067L91.4916 15.0169C91.5741 15.2761 91.5602 15.4968 91.2977 15.6174C91.0699 15.7268 91.0316 15.9148 91.0671 16.1422C91.0739 16.2181 91.0613 16.3113 91.0211 16.3628C90.9225 16.4982 90.7776 16.5567 90.6025 16.5456C90.4675 16.5315 90.2855 16.358 90.2759 16.2164C90.2574 16.045 90.4041 16.0365 90.5217 15.9743C90.6932 15.8773 90.6929 15.8245 90.5354 15.6913L90.097 15.3184C89.9311 15.1513 89.7379 15.0354 89.5162 15.0665C89.1156 15.124 88.8483 14.9063 88.5918 14.6404L88.0791 14.1055C87.718 13.7177 87.3294 13.377 86.8085 13.2114C86.624 13.1536 86.469 13.0334 86.3435 12.8802C86.0605 12.5327 85.6661 12.4507 85.2616 12.3504C84.9224 12.2632 84.8365 12.4035 84.702 12.6248C84.5618 12.8569 84.6199 13.137 84.5289 13.3758C84.4414 13.5908 84.3213 13.7972 84.2701 14.0213C84.2152 14.2408 84.2297 14.4727 84.2091 14.7791C83.97 14.5694 83.8028 14.5383 83.7005 14.8304C83.6594 14.9483 83.4611 14.9003 83.3891 14.784C83.297 14.6311 83.2875 14.4852 83.3341 14.327C83.3602 14.2271 83.3785 14.123 83.2986 14.033L83.1529 13.9679L83.0862 13.9968C83.0528 14.12 83.007 14.2414 83.006 14.3732C82.9965 14.6273 82.9475 14.8348 82.6339 14.8661C82.5156 14.8754 82.4737 14.9689 82.439 15.0708L82.0627 16.0876C82.037 16.1538 82.0115 16.2495 82.036 16.3151C82.244 16.7844 82.1574 17.3002 82.363 17.7565C82.4737 18.0184 82.5027 18.2366 82.4242 18.5066C82.3538 18.7482 82.4865 18.8485 82.7295 18.7211C82.9096 18.6263 83.0133 18.6319 83.1016 18.8127C83.1016 18.8127 83.1424 18.9132 83.165 18.9617C83.2377 19.1657 83.3735 19.2738 83.5897 19.2208C83.7317 19.1905 83.9234 19.2872 84.012 19.0966L83.8558 18.7377C83.7406 18.3549 83.944 18.1187 84.3358 18.1888C84.527 18.2274 84.6951 18.2829 84.8433 18.4222C84.9915 18.5626 85.0156 18.7548 84.8551 18.8903C84.7062 19.002 84.5601 19.0929 84.5331 19.2919C84.5118 19.4494 84.384 19.4974 84.2441 19.5122C83.9814 19.5378 83.8872 19.678 83.8912 19.9255C83.8957 20.1698 83.741 20.3546 83.6574 20.5701C83.4137 21.2577 83.7156 22.0205 84.4136 22.3294C84.7047 22.4638 84.991 22.6019 85.229 22.8199L87.0058 24.5118C87.1726 24.6695 87.2156 24.8452 87.1012 25.0724C87.0108 25.2458 87.1957 25.4851 87.3654 25.4048C87.6691 25.2613 87.8834 25.4381 88.0982 25.5496C88.5254 25.789 88.787 26.2044 89.09 26.5579C89.1809 26.6609 89.1827 26.7973 89.1068 26.9231C88.9921 27.1218 89.1314 27.2072 89.2851 27.2734L89.588 27.3514C89.9486 27.47 90.0577 27.5882 90.2691 28.0337C90.0936 27.9392 89.9336 27.8562 89.6449 27.7052C89.8681 28.032 90.0067 28.2407 90.2849 28.3196C91.1348 28.5542 91.6098 29.2412 92.16 29.8392C92.2368 29.9203 92.2567 30.018 92.2419 30.1268C92.2093 30.3988 92.3695 30.4248 92.5858 30.4004C92.9383 30.3574 93.2033 30.5337 93.3938 30.7938C93.5157 30.9676 93.6644 31.165 93.6607 31.3502C93.656 31.6292 93.7712 31.7029 94.0107 31.7597C94.3735 31.8543 94.8061 31.876 94.9063 32.3676C94.9205 32.4445 95.0674 32.5055 95.1522 32.5582C95.267 32.635 95.3622 32.7302 95.3782 32.8643C95.4024 33.144 95.5982 33.2782 95.8238 33.3658C96.0347 33.444 96.1625 33.6143 96.329 33.7435C96.4767 33.8543 96.5096 33.9822 96.424 34.1479L96.4405 34.2789C96.6868 34.1508 96.926 34.3362 97.167 34.3109C97.167 34.3109 97.2429 34.1851 97.2606 34.1179C97.286 33.9937 97.3016 33.847 97.4819 33.8672C97.5974 33.8829 97.6795 33.9563 97.72 34.0599C97.7833 34.2089 97.6791 34.2982 97.5725 34.3744L97.3217 34.5588C97.1748 34.6866 97.1989 34.8798 97.3876 34.9012C97.8815 34.9597 98.2666 35.2684 98.711 35.4395C98.9334 35.5277 99.0765 35.7033 99.2817 35.9495C99.1132 35.8982 99.045 35.8721 98.9726 35.8538C98.8534 35.8092 98.7649 35.8467 98.7201 35.9557C98.6738 36.0528 98.6715 36.1643 98.7473 36.2527C98.7942 36.3087 98.8697 36.3675 98.9391 36.3769C99.4071 36.4372 99.7597 36.7404 100.128 36.9835C100.362 37.1397 100.537 37.3819 100.741 37.5784C100.715 37.9538 100.974 38.1418 101.267 38.2923C101.387 38.3583 101.485 38.4412 101.543 38.5693C101.643 38.7803 101.824 38.8671 102.051 38.8936C102.266 38.9101 102.465 38.9498 102.635 39.1132C102.813 39.2808 102.85 39.4389 102.724 39.6602C102.671 39.7438 102.59 39.8193 102.555 39.9138C102.539 39.9738 102.548 40.0944 102.589 40.1285C102.917 40.4252 103.166 40.8378 103.677 40.8616C104.003 40.7993 104.233 40.9582 104.43 41.1949L104.445 41.3331L104.309 41.3801L103.688 41.2757C103.742 41.7072 104.032 42.0061 104.421 42.1255C104.971 42.295 105.386 42.6267 105.775 43.0214C105.465 43.0869 105.105 42.9389 104.815 43.1676C105.095 43.5317 105.367 43.8734 105.886 43.8405C105.851 43.8769 105.815 43.8973 105.789 43.935C105.629 44.1317 105.538 44.3704 105.302 44.5073C105.001 44.6891 104.781 44.9272 104.65 45.2398C104.541 45.492 104.311 45.676 104.105 45.8707C104.028 45.9468 103.911 46.0048 103.806 45.9536C103.724 45.9087 103.731 45.8232 103.746 45.7429L103.83 45.4377L103.845 45.2002L103.757 45.0806C103.679 45.0374 103.576 45.0562 103.534 45.1253L103.054 45.8885C102.92 46.0677 102.733 46.2195 102.481 46.1357C102.321 46.0855 102.17 46.0197 102.002 46.1246C101.823 46.2364 101.699 46.3842 101.629 46.5646L101.479 47.0222L101.319 47.3962L101.192 47.474L101.091 47.3781L101.15 47.0726C101.17 46.9846 101.149 46.8953 101.062 46.8877C100.991 46.8865 100.893 46.9301 100.844 46.9816L100.489 47.4452C100.328 47.6828 100.13 47.8702 99.8158 47.9057C99.5911 47.929 99.5245 48.0803 99.5242 48.2407C99.5166 48.8168 99.1763 49.2983 98.9194 49.8037L98.5555 50.4507C98.4807 50.5683 98.3823 50.6784 98.2174 50.6318C98.0804 50.5931 98.0868 50.3956 98.2272 50.2205L98.4536 49.9716C98.65 49.7545 98.7748 49.5445 98.7018 49.2466C98.6219 48.8812 98.7868 48.5332 99.0069 48.2043C99.1273 48.0265 99.3212 47.8597 99.2138 47.6341C99.1576 47.5199 98.9021 47.7152 98.6792 48.0564L98.5895 48.1973C98.4289 48.6081 98.1615 48.9464 97.7599 49.2011C97.5033 49.3647 97.3778 49.6114 97.3238 49.8837L97.2541 50.2784C97.2259 50.4234 97.1601 50.5379 96.9794 50.5134C96.7408 50.4894 96.5728 50.742 96.3291 50.6847L96.266 50.2267C96.218 50.0598 95.9921 50.0291 95.8609 50.1601C95.8059 50.2265 95.732 50.2819 95.701 50.3526C95.5582 50.6952 95.3617 50.945 94.9198 51C94.6513 51.0385 94.5639 51.2493 94.6362 51.4891L94.7945 51.9232C94.8908 52.1051 94.7991 52.2288 94.6245 52.3085C94.3883 52.4168 94.1502 52.5079 93.8879 52.5009C93.7585 52.5002 93.6891 52.4285 93.724 52.2971L93.79 52.1499C93.8251 52.0724 93.8294 51.9779 93.7371 51.9485C93.6683 51.935 93.5619 51.9459 93.5028 51.9875C92.9692 52.3393 92.9141 52.5956 93.2441 53.0899C93.4245 53.3613 93.3853 53.5871 93.1108 53.859C93.0236 53.9421 92.9124 53.9967 92.8028 53.9364C92.7535 53.9055 92.7204 53.8102 92.7173 53.7391L92.7392 53.1121C92.7289 52.9746 92.6201 52.886 92.4631 52.8679C92.3118 52.8473 92.1893 52.9141 92.114 53.0431C92.0184 53.1874 91.9988 53.3324 91.9935 53.4974C91.9793 53.7835 91.8767 53.8931 91.6109 53.9435L91.1879 53.9769C91.0742 53.9868 90.9547 54.1268 90.8218 54.0022C91.1592 53.763 91.2615 53.435 91.3575 53.0977L91.3004 52.9665L91.1437 52.978L91.0211 53.0848C90.7351 53.4659 90.4092 53.8016 89.974 54.0518C89.7207 54.1989 89.6365 54.4174 89.7738 54.6672C89.8316 54.7615 89.8484 54.8588 89.7679 54.9555C89.5386 55.2336 89.312 55.5152 88.9832 55.7228C88.8419 55.8102 88.6945 55.9105 88.5112 55.873C88.0344 55.7829 87.6976 56.0179 87.3756 56.3245L86.9223 56.7083C86.7267 56.8875 86.5361 57.0305 86.2414 56.9789C86.055 56.941 85.9182 57.0501 85.8111 57.1928C85.7418 57.2773 85.6775 57.3804 85.554 57.3921L85.3954 57.3622C85.3183 57.3148 85.3083 57.2312 85.3879 57.1723L85.6725 56.984C85.9642 56.8052 86.1004 56.543 86.1809 56.2574C86.1944 56.1896 86.1882 56.0769 86.1379 56.0458C86.0359 55.9697 85.925 56.0454 85.8514 56.1304C85.6292 56.3799 85.4445 56.6608 85.1888 56.8815C84.9224 57.1176 84.681 57.3275 84.6999 57.6846C84.7061 57.7889 84.6535 57.901 84.5533 57.9613C84.2192 58.1755 83.9662 58.4999 83.5376 58.5779C83.4301 58.6002 83.281 58.6212 83.2254 58.6917C82.8864 59.0952 82.3404 59.2069 81.9539 59.5291C81.705 59.7306 81.4198 59.8607 81.1269 59.9866C80.4159 60.2975 79.7762 60.7298 79.134 61.1503L79.1164 61.2798L79.1927 61.3028L79.5056 61.1838L81.5655 60.1116C81.9014 59.9472 82.2421 59.8077 82.5441 59.5849C83.1014 59.174 83.7927 59.0082 84.3941 58.6772C84.6192 58.5558 84.838 58.7258 85.0602 58.6653C85.3156 58.5965 85.1483 58.2604 85.4019 58.1503L85.6364 58.0544L86.184 57.8037C86.2557 57.7723 86.2925 57.7773 86.3053 57.8328C86.2324 57.9992 85.9302 57.9792 85.9142 58.2862C86.2001 58.1193 86.5205 58.187 86.7416 58.0397C87.3487 57.6272 88.0322 57.4319 88.7024 57.2009L89.0197 57.0552L90.355 56.4565C90.4125 56.4274 90.5348 56.4566 90.5708 56.4984C90.6147 56.5455 90.6056 56.6678 90.5664 56.712C90.0611 57.2661 89.5457 57.8314 88.7289 57.9917C88.4935 58.0389 88.29 58.1506 88.1108 58.2962C87.7098 58.6333 87.2292 58.8234 86.7378 58.991C86.3821 59.12 86.0436 59.2725 85.7494 59.5006C85.6835 59.5528 85.632 59.625 85.6005 59.6988L85.6687 59.8115C85.8495 59.836 86.0066 59.7581 86.146 59.6536C86.4682 59.4081 86.8153 59.2241 87.2181 59.1184C87.7167 58.9845 88.1916 58.7809 88.6448 58.5248C89.0245 58.3125 89.4286 58.1658 89.872 58.226C90.1385 58.2653 90.3678 58.1445 90.6186 58.0551L93.2063 57.0987C93.675 56.9407 94.1458 56.8231 94.5887 56.6109C94.9072 56.4558 95.2437 56.3738 95.5897 56.3553C95.8458 56.3447 96.0952 56.3204 96.3321 56.1753C96.4238 56.1223 96.5373 56.0512 96.6333 56.1793C96.3199 56.6359 95.8135 56.8267 95.3294 56.9172C94.7894 57.0086 94.4252 57.2641 94.0882 57.6183C94.0389 57.6738 94.0015 57.768 94.0101 57.823C94.036 57.9162 94.1386 57.8931 94.2224 57.8676C95.0472 57.6091 95.871 57.3579 96.5853 56.8407C96.6963 56.7566 96.8443 56.7144 96.9771 56.6585C97.57 56.4213 98.168 56.2018 98.7202 55.8937C98.9866 55.7441 99.2505 55.6765 99.5396 55.7695C99.8229 55.866 100.103 55.8375 100.35 55.6494C100.7 55.3835 101.104 55.2316 101.503 55.0673C101.817 54.941 102.064 54.6569 102.435 54.6957C102.324 55.0837 101.91 55.1477 101.632 55.3485C101.334 55.5719 100.983 55.7268 100.75 56.0287L99.7533 57.184C99.5951 57.3641 99.3346 57.4933 99.4527 57.7901C99.4858 57.8853 99.3649 57.9797 99.2715 58.0535L98.8756 58.3839L98.8828 58.5126L98.95 58.5375C99.0901 58.4911 99.2407 58.4619 99.3552 58.3909C100.038 57.9475 100.78 57.6199 101.503 57.2567C101.951 57.0327 102.435 56.9453 102.9 56.8153L103.019 56.8926L102.996 57.034C102.951 57.1473 102.728 57.1623 102.791 57.3776L103.393 57.0057C103.923 56.703 104.447 56.4691 105.097 56.495C105.606 56.523 106.058 56.1516 106.508 55.8866C106.572 55.8499 106.626 55.7581 106.645 55.6826C106.796 55.1512 107.293 54.9338 107.739 54.6692C107.802 54.6367 107.92 54.6315 107.97 54.6626C108.046 54.7151 107.992 54.8101 107.922 54.8628L107.373 55.279C107.316 55.3283 107.264 55.4247 107.279 55.4763C107.296 55.5609 107.412 55.5439 107.488 55.5046L108.992 54.8055C109.262 54.6902 109.494 54.5486 109.731 54.3739C110.001 54.1762 110.232 53.7665 110.672 54.0606C110.745 54.1126 110.817 54.0106 110.872 53.9442L111.2 53.5603C111.51 53.2805 111.743 52.9744 111.744 52.5746C111.742 52.3717 111.872 52.2163 112.042 52.099L112.632 51.7264C112.66 51.7091 112.691 51.6932 112.727 51.6728L112.761 51.7059C112.839 51.7787 112.918 51.8718 112.858 51.9755C112.858 51.9755 112.721 52.0223 112.645 52.0289L112.41 52.0013C112.261 52.001 112.202 52.125 112.284 52.2637C112.384 52.4462 112.577 52.6254 112.796 52.7743C112.67 52.8607 112.582 52.9891 112.437 53.0432C112.366 53.0705 112.303 53.1612 112.369 53.2356L112.515 53.2311C112.717 53.1023 112.944 53.0255 113.164 52.9192C113.271 52.9622 113.385 53.04 113.482 53.0362C113.847 53.0288 114.139 53.1918 114.449 53.3415C114.657 53.4394 114.652 53.6286 114.482 53.7745C114.275 53.9479 114.042 53.9005 113.808 53.8718L113.705 53.9571L113.735 54.1014C113.847 54.257 114.026 54.3267 114.19 54.4102C114.397 54.5174 114.647 54.5629 114.813 54.7542C115.031 54.9991 115.284 55.1611 115.608 55.2378C115.868 55.2932 116.078 55.4746 116.287 55.6306C116.369 55.6956 116.445 55.7839 116.397 55.8925C116.365 55.9789 116.28 55.9885 116.2 55.9861L115.886 55.9592L115.654 55.9857L115.548 56.0833C115.512 56.1607 115.541 56.2554 115.613 56.281L116.419 56.6002C116.615 56.6933 116.775 56.8385 116.72 57.0864C116.691 57.2439 116.637 57.3885 116.765 57.5293C116.892 57.6742 117.046 57.7659 117.238 57.8045L117.709 57.8727L118.095 57.9495L118.185 58.0649L118.096 58.1595L117.783 58.1581C117.699 58.1594 117.611 58.1887 117.617 58.2718C117.616 58.3339 117.676 58.4243 117.73 58.456L118.227 58.709C118.478 58.8255 118.68 58.9762 118.745 59.2615C118.789 59.4659 118.946 59.5031 119.108 59.4839C119.671 59.3998 120.186 59.6386 120.707 59.8084L121.385 60.0482C121.511 60.1033 121.626 60.1759 121.592 60.3358C121.565 60.4683 121.375 60.4921 121.188 60.3886L120.924 60.2124C120.688 60.0654 120.466 59.9816 120.18 60.0873C119.823 60.2203 119.46 60.1257 119.11 59.9621C118.932 59.8811 118.744 59.7279 118.534 59.8597C118.424 59.9272 118.643 60.1383 118.999 60.29L119.149 60.3516C119.572 60.4374 119.934 60.6311 120.223 60.971C120.402 61.1843 120.659 61.2614 120.935 61.265L121.33 61.2775C121.481 61.2779 121.6 61.3267 121.594 61.4947C121.588 61.7208 121.857 61.8395 121.82 62.0742L121.373 62.1949C121.214 62.263 121.205 62.4771 121.347 62.5744C121.416 62.6207 121.479 62.679 121.552 62.6972C121.905 62.7778 122.164 62.928 122.26 63.3325C122.319 63.5758 122.533 63.626 122.764 63.5285L123.18 63.3212C123.359 63.2135 123.483 63.2801 123.576 63.4287C123.703 63.6317 123.817 63.8454 123.83 64.0857C123.838 64.2061 123.769 64.2832 123.642 64.266L123.494 64.2217C123.404 64.2011 123.315 64.2143 123.299 64.2986C123.286 64.3623 123.301 64.4636 123.345 64.5107C123.749 64.9611 124.002 64.9743 124.47 64.6052C124.727 64.4059 124.956 64.4074 125.248 64.6285C125.335 64.6983 125.396 64.7974 125.341 64.8965C125.317 64.9596 125.226 65.0012 125.163 65.0126L124.532 65.0716C124.391 65.0936 124.317 65.207 124.31 65.3507C124.303 65.4974 124.381 65.6029 124.514 65.6621C124.661 65.7232 124.815 65.7284 124.975 65.7174C125.264 65.6859 125.378 65.7719 125.45 66.0002L125.519 66.3926C125.53 66.4964 125.684 66.5881 125.565 66.7323C125.306 66.4461 124.968 66.3874 124.627 66.3454L124.499 66.4188L124.523 66.5582L124.643 66.6568C125.04 66.8752 125.392 67.1373 125.673 67.5098C125.836 67.7251 126.058 67.7763 126.3 67.6234C126.393 67.5622 126.486 67.5252 126.585 67.5924C126.882 67.7773 127.18 67.9569 127.401 68.2349C127.501 68.3551 127.609 68.4858 127.586 68.6557C127.529 69.1049 127.792 69.3886 128.116 69.6551L128.528 70.0277C128.728 70.1867 128.877 70.3556 128.839 70.6354C128.81 70.812 128.929 70.9231 129.076 71.0137C129.169 71.0675 129.271 71.114 129.289 71.2273L129.269 71.3775C129.229 71.4544 129.148 71.4719 129.081 71.4101L128.876 71.1638C128.689 70.9115 128.413 70.8119 128.119 70.7677C128.054 70.7589 127.946 70.7812 127.914 70.8265C127.85 70.9339 127.929 71.0269 128.012 71.0878C128.277 71.2641 128.567 71.4099 128.797 71.6185C129.047 71.8423 129.274 72.0503 129.633 71.9914C129.731 71.9763 129.844 72.0116 129.915 72.1005C130.149 72.3833 130.484 72.5891 130.586 72.9786C130.614 73.0805 130.642 73.2131 130.715 73.2599C131.142 73.5321 131.284 74.0251 131.624 74.3593C131.837 74.5697 131.979 74.82 132.119 75.0827C132.46 75.7136 132.919 76.2708 133.369 76.8383L133.498 76.8401L133.52 76.7723L133.388 76.4874L132.226 74.6636C132.048 74.3684 131.894 74.0582 131.649 73.8024C131.199 73.3256 131.004 72.7008 130.636 72.1771C130.5 71.9814 130.66 71.7562 130.594 71.5615C130.506 71.3227 130.178 71.5178 130.054 71.294L129.949 71.0825L129.663 70.6026C129.629 70.5401 129.635 70.4997 129.687 70.4867C129.86 70.5345 129.859 70.8192 130.162 70.8023C129.982 70.5594 130.033 70.2446 129.871 70.0537C129.428 69.5282 129.171 68.9278 128.902 68.3225L128.731 68.0481L128.045 66.8757C128.014 66.8219 128.03 66.7038 128.074 66.6654C128.112 66.6253 128.236 66.6082 128.285 66.6486C128.872 67.0576 129.473 67.4725 129.694 68.2158C129.753 68.4306 129.884 68.6045 130.039 68.7491C130.407 69.0923 130.625 69.5176 130.824 69.9604C130.97 70.2766 131.141 70.5806 131.387 70.8366L131.593 70.9511L131.699 70.8705C131.714 70.7037 131.628 70.5643 131.515 70.4455C131.256 70.1677 131.05 69.8634 130.916 69.499C130.756 69.0447 130.525 68.625 130.231 68.2316C129.995 67.9063 129.819 67.5406 129.846 67.1242C129.869 66.8667 129.728 66.6702 129.617 66.4452L128.471 64.134C128.272 63.724 128.117 63.2946 127.865 62.9058C127.688 62.6307 127.579 62.3279 127.527 62.0074C127.493 61.7675 127.448 61.5346 127.284 61.335C127.222 61.2612 127.14 61.1592 127.268 61.0531C127.742 61.282 127.977 61.7382 128.108 62.1854C128.248 62.6656 128.531 62.9847 128.921 63.2518C128.979 63.2882 129.075 63.318 129.132 63.2962C129.216 63.2664 129.187 63.1676 129.155 63.0978C128.83 62.3572 128.498 61.6201 127.925 61.0146C127.833 60.9188 127.776 60.7876 127.708 60.6718C127.42 60.1462 127.153 59.6152 126.788 59.133C126.61 58.9062 126.517 58.6637 126.588 58.3883C126.651 58.1131 126.598 57.8494 126.384 57.6473C126.08 57.3592 125.886 56.9994 125.684 56.6459C125.528 56.3736 125.22 56.1788 125.218 55.8241C125.613 55.8734 125.715 56.2587 125.951 56.4881C126.202 56.7374 126.395 57.039 126.713 57.2224L127.97 57.9945C128.175 58.1214 128.328 58.348 128.607 58.2011C128.701 58.1517 128.809 58.2571 128.89 58.3377L129.252 58.6632L129.384 58.64L129.398 58.5722C129.343 58.4487 129.299 58.3151 129.212 58.2167C128.715 57.6218 128.301 56.9799 127.865 56.3446C127.591 55.9571 127.463 55.5145 127.282 55.0943L127.345 54.9667L127.49 54.9747C127.609 54.9982 127.647 55.206 127.851 55.1177L127.415 54.6016C127.056 54.1445 126.77 53.6858 126.725 53.0614C126.69 52.5828 126.264 52.2116 125.952 51.8305C125.906 51.7747 125.806 51.741 125.732 51.7311C125.179 51.6729 124.905 51.2316 124.588 50.8541C124.549 50.8034 124.527 50.6938 124.554 50.6395C124.603 50.5554 124.698 50.5978 124.758 50.6514L125.239 51.108C125.296 51.1527 125.4 51.1911 125.453 51.1698C125.533 51.1311 125.5 51.0358 125.45 50.9668L124.575 49.6578C124.557 49.6301 124.536 49.6103 124.514 49.583C124.617 49.5316 124.728 49.4886 124.824 49.4277L127.256 48.0431C127.528 47.89 127.86 47.8158 127.891 47.4275C127.898 47.342 128.082 47.2276 128.2 47.157L130.552 45.8069C130.834 45.6467 131.106 45.4863 131.326 45.2524C131.667 44.8903 132.08 44.6245 132.539 44.4103C132.722 44.3202 132.922 44.2365 133.065 44.1071C133.877 43.3563 134.845 42.8196 135.785 42.2381L135.855 42.1853L138.755 40.0979C139.073 39.8731 139.395 39.6656 139.907 39.6147C139.307 40.1191 138.756 40.4896 138.152 40.7822L138.067 40.9153C138.07 41.0107 138.165 41.0235 138.249 40.9854C138.966 40.6658 139.68 40.3301 140.345 39.9011C140.588 39.741 140.826 39.558 141.09 39.4546C142.178 39.0166 143.132 38.3335 144.129 37.7396C144.227 37.6833 144.344 37.5672 144.43 37.5748C144.769 37.6122 145.033 37.4455 145.316 37.3034L145.46 37.3229L145.461 37.4624C145.238 37.7296 144.925 37.9015 144.641 38.0929L143.646 38.7947L143.574 38.9294L143.731 38.9424C144.869 38.2895 146.048 37.7035 147.096 36.9013L147.681 36.5152C147.983 36.3421 148.259 36.1315 148.514 35.8865C148.908 35.5031 149.333 35.1523 149.889 34.9925C149.991 34.9567 150.115 34.8997 150.185 34.8184L150.992 33.8231C151.044 33.7563 151.065 33.6558 150.982 33.6161C150.924 33.5871 150.819 33.5939 150.748 33.6255L150.281 33.8544C150.123 33.9194 149.942 33.7672 149.96 33.605C149.986 33.4102 150.069 33.2326 150.214 33.0877L150.725 32.6209C150.989 32.3972 152.07 30.9652 152.197 30.6765C152.325 30.3773 152.397 30.0568 152.608 29.7762C152.711 29.634 152.699 29.4636 152.679 29.3037C152.665 29.1952 152.607 29.105 152.487 29.0887L152.15 29.0799C151.868 29.0944 151.647 29.0275 151.598 28.7412C151.561 28.4925 151.379 28.4139 151.137 28.3853C151.062 28.3752 150.976 28.3434 150.928 28.2916C150.821 28.1609 150.803 28.0066 150.868 27.8381C150.919 27.7131 151.15 27.5798 151.293 27.6035C151.474 27.628 151.441 27.7755 151.475 27.8993C151.506 28.0935 151.564 28.1013 151.747 27.9816L152.26 27.6555C152.472 27.5365 152.64 27.3779 152.674 27.1557C152.742 26.7523 153.041 26.5543 153.383 26.3698L154.079 26.0188C154.577 25.7688 155.045 25.4904 155.367 25.0275C155.485 24.8663 155.653 24.7403 155.843 24.6638C156.276 24.483 156.485 24.1199 156.709 23.7588C156.897 23.4541 156.788 23.3325 156.605 23.1421Z" fill="#FFD600"/>
<path d="M72.7929 14.2399C72.7351 14.327 72.4678 14.1715 72.4448 14.0945C72.3173 13.7712 72.357 13.5708 72.4499 13.4103C72.5271 13.2721 72.6707 13.2303 72.8596 13.3172C73.0013 13.3818 73.0852 13.657 73.0136 13.8456C72.9565 13.9898 72.8762 14.1193 72.7929 14.2399ZM71.0192 10.9539C70.8051 10.7138 70.6851 10.4591 70.7225 10.1834C70.7504 9.97725 70.7814 9.77991 71.0255 9.82885C71.2736 9.8794 71.5316 10.1033 71.6499 10.3716C71.7536 10.6241 71.7744 10.8411 71.7186 11.0361C71.6251 11.3864 71.3245 11.3531 71.0192 10.9539ZM70.8221 13.0534C70.8029 12.9484 70.7732 12.8283 70.7812 12.7387L70.8939 12.6474L70.9725 12.715C71.0372 12.8853 71.0126 13.0054 70.9302 13.0891L70.8221 13.0534ZM69.2182 10.9807C69.1975 10.9167 69.119 10.7869 69.12 10.6878C69.1283 10.3798 69.2507 10.1863 69.4907 10.1113C69.5906 10.0837 69.7848 10.2546 69.8267 10.408C69.9077 10.7039 69.8883 10.9398 69.7936 11.1453C69.7037 11.3146 69.4437 11.2593 69.2182 10.9807ZM65.4854 32.5469C65.7113 32.1449 65.9416 31.9873 66.2519 31.9503C66.2519 31.9503 66.3807 32.0173 66.4414 32.0625L66.4517 32.1716C66.2617 32.4634 65.9793 32.5728 65.4854 32.5469ZM62.5406 28.9575C62.5398 28.4087 62.6638 28.0182 63.0624 27.9151C63.1185 27.9026 63.2052 27.9102 63.2542 27.9495C63.3917 28.0758 63.3406 28.1755 63.2819 28.2382L62.5406 28.9575ZM57.7976 22.6012C57.7976 22.6012 57.7191 22.6559 57.6581 22.6434L57.5139 22.5046C57.4784 22.3352 57.7641 22.2009 57.9044 22.3065C57.9764 22.3617 57.9882 22.4286 57.9394 22.4801L57.7976 22.6012ZM55.0865 38.6712L55.0873 38.5109C55.0873 38.5109 55.1913 38.4839 55.2472 38.5031C55.3306 38.5355 55.3613 38.6177 55.3195 38.6785C55.2686 38.7455 55.2031 38.7978 55.0865 38.6712ZM46.0641 57.7554C45.8477 57.8411 45.5082 57.6019 45.6172 57.4141L45.8199 57.3065C46.0513 57.2957 46.221 57.4928 46.143 57.6669L46.0641 57.7554ZM43.0049 53.8698C43.0049 53.8698 42.9029 54.0047 42.8505 54.0219C42.7764 54.0446 42.6966 54.0464 42.6451 54.0267C42.5632 53.9829 42.4925 53.9491 42.4508 53.9181C42.2396 53.6879 42.2911 53.4923 42.615 53.2313C42.7086 53.1574 42.869 53.0843 42.9567 53.0845C43.0452 53.0797 43.136 53.15 43.1308 53.2189C43.1151 53.4268 43.0644 53.6468 43.0049 53.8698ZM38.9375 48.2647C38.8346 48.2222 38.8108 48.1198 38.9348 47.9762C38.9348 47.9762 39.037 47.9932 39.1191 48.0044L39.1279 48.2166C39.0625 48.2362 38.9375 48.2647 38.9375 48.2647ZM35.1333 46.4496C34.7321 46.5724 34.384 46.6117 34.2165 46.3674L34.2286 46.2783L34.3157 46.1909L34.3363 46.1937C34.4279 46.2262 34.4759 46.1504 34.6011 46.275C34.6927 46.3697 34.7391 46.2441 34.7839 46.1594L35.2522 46.128C35.3363 46.1236 35.323 46.3149 35.2437 46.3748L35.1333 46.4496ZM23.0956 35.2298C23.1633 35.1314 23.2692 35.1215 23.4016 35.2545C23.4016 35.2545 23.3669 35.3564 23.3429 35.4407L23.1156 35.4215C23.1079 35.355 23.0956 35.2298 23.0956 35.2298ZM25.8299 12.4276L26.6878 12.944C26.1555 13.0775 25.7454 13.0503 25.566 12.7084C25.566 12.7084 25.5292 12.5799 25.5578 12.5226C25.6543 12.3658 25.7605 12.3844 25.8299 12.4276ZM28.8913 8.56416L28.9969 8.52465C29.32 8.63917 29.4931 8.87265 29.5725 9.3361C29.127 9.23029 28.9261 9.04685 28.8223 8.76474C28.8223 8.76474 28.8614 8.62975 28.8913 8.56416ZM37.6803 17.5714C37.7514 17.6022 37.8157 17.652 37.7169 17.7948L37.5584 17.8229C37.5584 17.8229 37.5084 17.7296 37.5208 17.669C37.5364 17.5846 37.6097 17.5376 37.6803 17.5714ZM39.7415 23.3909C39.7352 23.4069 39.7147 23.4041 39.6965 23.4143C39.7123 23.3911 39.715 23.3714 39.7289 23.3607C39.7278 23.369 39.7432 23.3784 39.7415 23.3909ZM51.6911 45.1189L51.9188 45.3513L51.7886 45.4783L51.5466 45.2597C51.5466 45.2597 51.5311 45.1584 51.5217 45.1044C51.5797 45.108 51.6911 45.1189 51.6911 45.1189ZM48.5677 56.1863C48.6287 56.1988 48.7419 56.2268 48.7419 56.2268C48.8075 56.2979 48.6958 56.4432 48.5839 56.4364C48.5247 56.4411 48.4567 56.3569 48.4567 56.3569C48.4567 56.3569 48.5306 56.2435 48.5677 56.1863ZM49.0577 60.1232L49.1718 60.3909L49.0857 60.4404L48.8677 60.2293L48.8447 60.0911C48.9947 59.9711 49.0267 60.0736 49.0577 60.1232ZM24.4367 48.2061L24.1586 48.4068L24.0402 48.2631L24.3075 48.0482C24.3075 48.0482 24.4212 48.0426 24.4804 48.0379C24.4685 48.0943 24.4367 48.2061 24.4367 48.2061ZM17.108 38.9095C16.887 38.8753 16.6585 38.8031 16.426 38.7304C16.426 38.7304 16.3036 38.6157 16.2907 38.5559C16.2709 38.4867 16.286 38.4065 16.3182 38.3539C16.3744 38.2781 16.4248 38.2153 16.4566 38.1658C16.7413 37.9775 16.9373 38.0422 17.1731 38.3991C17.2313 38.4936 17.2884 38.6585 17.2804 38.7482C17.2688 38.8332 17.1819 38.9195 17.108 38.9095ZM13.0994 44.2399C13.0162 44.2983 12.877 44.1844 12.8929 44.0673C12.9053 44.0067 12.9972 43.9453 12.9972 43.9453C12.9972 43.9453 13.1115 44.0273 13.1676 44.0761C13.1435 44.1298 13.0994 44.2399 13.0994 44.2399ZM11.8981 41.5413L11.8216 41.457C11.7511 41.2375 12.0546 40.9114 12.2384 41.0355L12.3347 41.2501C12.3121 41.4782 12.0779 41.6321 11.8981 41.5413ZM8.88139 44.2733L8.58065 44.3644L8.54177 44.281L8.79006 44.0836L8.94747 44.0639C9.05069 44.2266 8.94323 44.249 8.88139 44.2733ZM21.4211 19.1663C21.2612 19.2353 21.0789 19.0079 21.1553 18.8453C21.195 18.7683 21.2574 18.7399 21.3198 18.7727L21.4608 18.8741C21.4608 18.8741 21.5275 18.9369 21.5285 18.9909L21.4211 19.1663ZM10.1185 7.67381C9.8439 7.88031 9.63986 7.90537 9.46544 7.86588C9.31586 7.8287 9.24379 7.71236 9.28363 7.51095C9.31162 7.36702 9.55386 7.21414 9.74903 7.22374C9.90594 7.23764 10.048 7.26857 10.1837 7.31653C10.2724 7.34017 10.1913 7.62988 10.1185 7.67381ZM9.21215 9.57893L9.09674 9.50524L9.14725 9.40976C9.29151 9.30165 9.40927 9.29648 9.50757 9.34253L9.50087 9.45349C9.40589 9.50602 9.30267 9.5585 9.21215 9.57893ZM7.63566 11.6781C7.34424 11.762 7.12713 11.6987 7.00291 11.5046C6.95185 11.4196 7.07034 11.193 7.2067 11.1123C7.4659 10.9575 7.70267 10.9073 7.91198 10.9357C8.09204 10.9644 8.09843 11.2248 7.88958 11.5015C7.8296 11.5429 7.72345 11.6478 7.63566 11.6781ZM6.79404 10.3641C6.59297 10.398 6.39698 10.4252 6.38311 10.1891C6.37338 9.95248 6.52711 9.65146 6.76142 9.46482C6.97243 9.29613 7.17491 9.22022 7.37741 9.20654C7.7259 9.19578 7.76759 9.47369 7.45081 9.86756C7.27643 10.1362 7.06359 10.3183 6.79404 10.3641ZM79.4865 13.3056C79.1804 12.9433 78.808 12.8221 78.4901 12.5152C78.205 12.2454 77.939 11.9255 77.6447 11.6914C77.3579 11.4636 77.045 11.3051 76.6357 11.0564C76.9265 10.8849 76.972 10.6726 76.5935 10.3205C76.4334 10.1753 76.5068 9.94259 76.6626 9.93417C76.8692 9.92105 77.065 10.0183 77.2715 10.1898C77.4067 10.3032 77.5517 10.4051 77.6707 10.3601C77.6707 10.3601 77.7414 10.2705 77.7655 10.2157L77.7304 10.1044C77.5647 9.97003 77.4023 9.81186 77.2362 9.71124C76.8954 9.51199 76.6116 9.29311 76.5924 8.84943C76.5791 8.67034 76.4533 8.54985 76.3234 8.42883L74.9849 7.172C74.8922 7.08555 74.7689 6.97806 74.6863 6.97002C74.0539 6.91798 73.3612 6.41561 72.7382 6.35535C72.3871 6.3246 72.0878 6.18908 71.7355 5.89013C71.4133 5.61533 71.2772 5.72453 71.4368 6.15032C71.5568 6.46732 71.5423 6.60568 71.2932 6.59299L71.0956 6.57044C70.8223 6.52069 70.6656 6.62711 70.725 6.96017C70.7713 7.17327 70.6249 7.35915 70.8733 7.62394L71.3598 7.67307C71.8821 7.79775 72.1842 8.25129 72.0774 8.73063C72.0213 8.95834 71.9325 9.15206 71.7476 9.25148C71.5535 9.35705 71.2926 9.24671 71.1233 8.92302C70.9732 8.64307 70.8548 8.37587 70.5915 8.19136C70.3845 8.05249 70.3212 7.84136 70.3146 7.64314C70.2908 7.26426 70.0972 7.02798 69.7736 6.85639C69.4451 6.68837 69.2008 6.33335 68.9149 6.06771C68.0007 5.22719 66.9766 5.9 66.5422 5.84078C66.35 6.14815 66.1613 6.46126 65.8676 6.62297L63.5564 7.88375C63.3413 7.99068 63.1105 7.9351 62.8078 7.60913C62.5696 7.3626 62.2588 7.46499 62.3587 7.74656C62.5462 8.27427 62.3083 8.45618 62.1538 8.67053C61.8404 9.10179 61.2893 9.18847 60.805 9.36968C60.673 9.41825 60.4925 9.33155 60.3221 9.1396C60.0658 8.84102 59.9424 8.9804 59.8537 9.14142C59.7971 9.24982 59.7975 9.40185 59.7522 9.51917C59.5836 9.92998 59.4351 10.008 58.8382 10.0019C58.9637 9.81634 59.0741 9.64982 59.2816 9.35297C58.8437 9.43708 58.5653 9.48685 58.4582 9.8142C58.1236 10.8324 57.2351 11.0654 56.4484 11.442C56.337 11.4923 56.2085 11.4537 56.0618 11.3641C55.7119 11.1394 55.6681 11.3392 55.7067 11.6705C55.7613 12.1928 55.538 12.4517 55.1865 12.5475C54.9615 12.6035 54.6974 12.6711 54.4544 12.5516C54.0873 12.3614 53.9929 12.4721 53.9189 12.7712C53.7987 13.2255 53.7577 13.8046 53.1196 13.6399C53.0186 13.6146 52.9422 13.7773 52.8763 13.8623C52.7802 13.9853 52.6578 14.0552 52.4791 13.9856C52.1096 13.8447 51.9409 14.0403 51.8331 14.3105C51.7334 14.5524 51.5144 14.6261 51.3466 14.7848C51.2032 14.9173 51.0279 14.8851 50.8115 14.6626C50.7677 14.6155 50.7009 14.6149 50.6404 14.5983C50.8159 15.0304 50.5808 15.2539 50.6156 15.6132C50.6203 15.6708 50.7784 15.7999 50.8732 15.8708C51.0402 15.9958 51.2304 16.1039 51.2009 16.3521C51.1853 16.4977 51.0917 16.5715 50.9546 16.5655C50.76 16.5518 50.6446 16.3547 50.5438 16.1426L50.2941 15.6719C50.1252 15.3767 49.8643 15.2971 49.8426 15.5495C49.7773 16.2159 49.3792 16.5618 49.1619 17.0852C49.0584 17.3551 48.8403 17.4532 48.5165 17.5907C48.5819 17.3854 48.611 17.2943 48.6396 17.2075C48.6885 17.0622 48.6374 16.9149 48.4927 16.7802C48.3639 16.6509 48.2145 16.5811 48.1119 16.6294C48.0402 16.665 47.9558 16.7317 47.9467 16.8296C47.8858 17.464 47.5156 17.7894 47.2092 18.1678C47.0047 18.4123 46.7018 18.5189 46.445 18.6867C45.9511 18.4139 45.7286 18.6676 45.5348 18.9874C45.4539 19.121 45.3536 19.214 45.1895 19.2213C44.9044 19.2279 44.8085 19.4418 44.7831 19.7517C44.76 20.0451 44.7233 20.3155 44.5233 20.4656C44.3144 20.6188 44.1066 20.579 43.8157 20.2589L43.4754 19.8708C43.3939 19.7933 43.2417 19.7442 43.1946 19.7831C42.8691 20.0566 42.4649 20.2318 42.3702 20.7761L41.4781 19.7729C41.2752 19.5428 41.197 19.1945 40.6272 19.3894C40.4953 19.4369 40.34 19.2882 40.2448 19.1888L38.46 17.2161C38.2501 16.9765 38.043 16.7469 37.7122 16.6282C37.2047 16.4559 36.8521 16.1274 36.5737 15.715C36.4581 15.5505 36.3492 15.3669 36.1686 15.2812C35.1241 14.785 34.411 13.9707 33.6405 13.2109L33.5727 13.1563L30.7338 11.0353C30.4224 10.8042 30.1431 10.5521 30.1016 9.96505C30.7932 10.3512 31.2907 10.7816 31.6826 11.3128C31.6826 11.3128 31.8143 11.3592 31.869 11.3255C32.0084 11.2536 32.0248 11.1324 31.9801 11.0609C31.5643 10.3978 31.1153 9.76386 30.5383 9.24134C30.3258 9.05107 30.0818 8.87765 29.9349 8.63613C29.3559 7.60472 28.4302 6.91039 27.62 6.3C27.5389 6.02339 27.3845 5.9602 27.3998 5.84726C27.458 5.41831 27.2417 5.19477 27.0445 4.95382C27.0445 4.95382 27.0389 4.80957 27.0743 4.76478C27.119 4.7128 27.2766 4.66033 27.2766 4.66033C27.6575 4.74894 27.8844 5.01817 28.1434 5.2348L29.1092 5.97259C29.1092 5.97259 29.2433 5.96971 29.2984 5.96452C29.3071 5.90028 29.3206 5.77019 29.3206 5.77019C28.4325 4.82876 27.6434 3.77417 26.5289 3.0542C26.3369 2.92897 26.1662 2.76968 26.0048 2.60427C25.7676 2.34944 25.475 2.16513 25.1387 2.02453C24.6086 1.80383 24.1235 1.52806 23.9076 0.962738C23.8638 0.854435 23.7815 0.75249 23.6688 0.720316L22.2865 0.433592C22.1962 0.421332 22.0524 0.464105 21.9969 0.596906C21.9549 0.690396 21.963 0.814983 22.001 0.873955L22.317 1.28715C22.405 1.43943 22.1895 1.76474 21.9638 1.85757C21.6889 1.97328 21.4438 1.99282 21.2446 1.92043L20.5989 1.62705C20.2864 1.46542 18.3156 1.17272 17.9184 1.2349C17.4973 1.28857 17.0547 1.43846 16.6731 1.38668C16.4796 1.36465 16.2434 1.50254 16.0234 1.64573C15.8761 1.745 15.7534 1.88029 15.7231 2.04185C15.6993 2.18635 15.7011 2.32691 15.7035 2.46335C15.7206 2.79912 15.6232 3.1162 15.2229 3.38688C14.8864 3.61769 14.7684 3.90237 14.7261 4.21424C14.7123 4.31578 14.6561 4.45276 14.5809 4.54491C14.4089 4.76532 14.1894 4.90437 13.9661 4.94793C13.786 4.98154 13.6105 4.79631 13.6491 4.60422C13.6861 4.36232 13.8875 4.29463 14.0639 4.16555C14.3286 3.97039 14.3426 3.89843 14.1849 3.76624L13.7429 3.3887C13.5878 3.20726 13.3739 3.12018 13.0646 3.24283C12.5127 3.46024 12.2361 3.24966 11.9998 2.95802L11.5272 2.37474C11.1959 1.95098 10.8137 1.59414 10.1902 1.53803C9.97046 1.5251 9.80715 1.40376 9.70085 1.23212C9.45826 0.833051 8.97054 0.853402 8.48164 0.852492C8.06758 0.854351 7.90278 1.08316 7.64373 1.45215C7.37823 1.83715 7.35133 2.22074 7.14524 2.60008L6.56392 3.61866C6.41869 3.94928 6.35209 4.28633 6.2045 4.72743C5.97885 4.5111 5.76648 4.53607 5.52571 4.98563C5.42485 5.17454 5.19013 5.17969 5.14315 5.03297C5.07584 4.85079 5.12078 4.64267 5.23286 4.40252C5.30411 4.24652 5.36825 4.08215 5.29362 3.9855C5.29362 3.9855 5.19419 3.94776 5.13615 3.94411L5.03903 4.01324C4.9506 4.20278 4.84509 4.39526 4.79114 4.57682C4.68627 4.94985 4.54612 5.27377 4.12822 5.42705C3.96132 5.48672 3.87895 5.63173 3.79432 5.7933L2.93008 7.38758C2.87321 7.4991 2.7996 7.64103 2.81364 7.72208C2.90931 8.3112 2.59883 9.09002 2.68775 9.66662C2.73933 9.99545 2.68476 10.3046 2.48335 10.711C2.30283 11.0864 2.43673 11.1784 2.79966 10.9058C3.06953 10.7039 3.20282 10.6767 3.2507 10.909L3.27226 11.0892C3.29049 11.3555 3.4267 11.4605 3.7274 11.3082C3.92094 11.2067 4.1324 11.2808 4.32413 10.9766L4.26087 10.5184C4.25038 10.0105 4.61106 9.60154 5.08905 9.55981C5.32602 9.53815 5.53134 9.56596 5.66729 9.70364C5.8103 9.85072 5.76937 10.1216 5.49752 10.3697C5.26408 10.5807 5.04206 10.769 4.92644 11.0667C4.84116 11.2947 4.65879 11.4061 4.46986 11.4743C4.12142 11.6086 3.93788 11.8517 3.8491 12.1984C3.76954 12.5379 3.48672 12.8668 3.29939 13.2001C2.70653 14.273 2.82291 15.2332 3.60523 15.4132C3.94208 15.4874 4.26948 15.5698 4.49117 15.7845L6.17626 17.5052C6.32999 17.6664 6.32379 17.8967 6.07872 18.2549C5.89446 18.5348 6.05546 18.7962 6.29996 18.6268C6.76151 18.3063 6.98137 18.4723 7.21229 18.5575C7.69622 18.7181 7.88686 19.1924 8.15272 19.5746C8.2251 19.6878 8.17875 19.8757 8.03414 20.0787C7.80331 20.3935 7.95274 20.4633 8.12772 20.4987C8.23734 20.522 8.38969 20.4773 8.5093 20.4893C8.93083 20.5254 9.036 20.6431 9.14336 21.1768C8.94717 21.1132 8.76624 21.0602 8.44152 20.9581C8.60825 21.331 8.71403 21.568 9.04731 21.5763C10.0823 21.5891 10.4732 22.3428 10.9883 22.9519C11.0516 23.0396 11.0429 23.1661 10.9846 23.3185C10.8327 23.6978 11.0358 23.68 11.3364 23.5604C11.8261 23.3705 12.1171 23.5049 12.2773 23.8031C12.3739 23.9851 12.4899 24.2076 12.4097 24.4606C12.3036 24.8419 12.4301 24.8959 12.7316 24.8915C13.1849 24.8781 13.7523 24.7619 13.7017 25.3818C13.6928 25.4788 13.8645 25.5063 13.9638 25.5451C14.0978 25.6045 14.1854 25.6986 14.1525 25.8799C14.0826 26.2407 14.2939 26.3475 14.5694 26.3807C14.8202 26.4115 14.9337 26.5915 15.111 26.7021C15.2735 26.798 15.2721 26.9624 15.091 27.2186C15.0511 27.267 15.0638 27.3267 15.0563 27.3827C15.4469 27.1223 15.697 27.2807 16.0398 27.1574C16.0929 27.1361 16.1921 26.9596 16.2392 26.8594C16.3272 26.673 16.4032 26.4817 16.647 26.4409C16.7922 26.4184 16.88 26.4799 16.8958 26.6098C16.9133 26.7894 16.7459 26.944 16.5633 27.0891L16.1494 27.4286C15.8967 27.6581 15.8621 27.913 16.1143 27.8723C16.7638 27.7673 17.1657 28.0403 17.7127 28.1061C17.9847 28.1346 18.1153 28.3127 18.3061 28.5696C18.0934 28.5661 18.0067 28.5585 17.9194 28.5541C17.7659 28.5459 17.6377 28.6278 17.5239 28.7896C17.4245 28.9365 17.3789 29.0875 17.447 29.1706C17.4927 29.2348 17.5735 29.287 17.663 29.2738C18.2864 29.1769 18.6646 29.4392 19.0776 29.6303C19.3415 29.7495 19.495 30.0046 19.7027 30.1984C19.5166 30.7082 19.8013 30.8586 20.1476 30.9552C20.2887 30.9944 20.3993 31.0717 20.4258 31.2156C20.475 31.4692 20.6997 31.5081 21.0031 31.4585C21.2938 31.4114 21.5612 31.3813 21.7375 31.5297C21.7636 31.5533 21.7055 31.6119 21.7228 31.6385C21.7184 31.6706 21.6834 31.6827 21.6784 31.719L21.6632 32.1084C21.6361 32.1543 21.6894 32.1616 21.6478 32.2213L21.3223 32.6182C21.3072 32.6373 21.3213 32.6561 21.314 32.6794L21.2931 32.3716C21.2855 32.2429 21.2344 32.0956 21.1268 32.0567C21.047 32.029 20.9414 32.0685 20.9068 32.1377L20.6431 32.7571C20.5277 33.0834 20.3575 33.3209 20.0077 33.2808C19.7567 33.251 19.7271 33.4696 19.7799 33.7279C19.9578 34.6342 19.7142 35.2903 19.5749 36.0089L19.3589 36.923C19.311 37.0906 19.2329 37.2361 19.0249 37.1045C18.8547 37.0033 18.7952 36.703 18.9027 36.4654L19.0889 36.1403C19.2521 35.8617 19.322 35.562 19.1536 35.0781C18.9402 34.4635 19.017 33.959 19.1663 33.5055C19.2527 33.2692 19.4235 33.0581 19.2285 32.6771C19.1271 32.4692 18.8903 32.7051 18.7464 33.1804L18.6874 33.3698C18.6296 33.9803 18.4299 34.4354 18.0411 34.7129C17.7991 34.8943 17.7349 35.2444 17.7621 35.6596L17.802 36.2591C17.8135 36.4832 17.7746 36.6468 17.5571 36.5551C17.2767 36.4347 17.1621 36.7864 16.8584 36.6217L16.6414 35.8789C16.537 35.601 16.2637 35.49 16.1616 35.6566C16.1132 35.7366 16.0487 35.8112 16.0356 35.9075C15.9797 36.4117 15.8346 36.7424 15.3377 36.7077C15.0435 36.6888 15.0106 36.9925 15.1652 37.3934L15.4834 38.1287C15.6491 38.4477 15.5804 38.6157 15.4077 38.6872C15.1761 38.7919 14.9237 38.8653 14.622 38.779C14.4734 38.7335 14.3704 38.6003 14.3721 38.4021L14.4047 38.1923C14.4171 38.0706 14.3907 37.9266 14.2783 37.8618C14.1969 37.8138 14.078 37.7977 14.0168 37.8475C13.5145 38.2531 13.5296 38.635 14.0612 39.5228C14.3595 40.0043 14.3832 40.3537 14.1481 40.7006C14.0746 40.8109 13.9591 40.8607 13.8262 40.7318C13.7518 40.6637 13.6854 40.5059 13.6545 40.3951L13.4874 39.408C13.438 39.1871 13.2859 39.0134 13.1037 38.9391C12.9178 38.8612 12.8002 38.9275 12.7504 39.1096C12.6895 39.3124 12.705 39.5372 12.7489 39.7985C12.8262 40.2458 12.7362 40.3856 12.4557 40.3887C12.3045 40.3935 12.1456 40.3635 11.9836 40.3246C11.8533 40.2995 11.7637 40.4974 11.563 40.2517C11.8809 39.973 11.9022 39.4768 11.8999 38.97C11.9 38.9077 11.8409 38.7889 11.7965 38.746C11.7482 38.7025 11.6207 38.7179 11.6207 38.7179C11.5717 38.7397 11.5306 38.7964 11.5142 38.8554C11.301 39.3794 11.0326 39.8168 10.6115 40.0857C10.3648 40.2411 10.3407 40.5723 10.5703 41.0066C10.6595 41.1801 10.7179 41.3358 10.6546 41.4633C10.47 41.8382 10.3042 42.2282 9.99051 42.4453C9.85501 42.5503 9.71373 42.6673 9.49433 42.5594C8.92251 42.2761 8.60879 42.5543 8.33775 42.9501L7.93091 43.4226C7.76908 43.6602 7.58785 43.8255 7.24305 43.6553C7.01602 43.5422 6.892 43.6857 6.81573 43.878C6.7624 43.9942 6.72255 44.1334 6.58146 44.1259C6.52707 44.1269 6.45335 44.0842 6.39782 44.0313C6.2904 43.9302 6.25348 43.8017 6.3236 43.7163L6.59519 43.5009C6.8727 43.3043 6.94534 42.9227 6.94662 42.4818C6.95164 42.3833 6.90493 42.2039 6.8429 42.1374C6.70044 41.9862 6.59983 42.0802 6.53477 42.1906C6.35973 42.5256 6.23458 42.9244 6.01319 43.2004C5.78051 43.498 5.56505 43.7611 5.69911 44.3448C5.73455 44.5143 5.71262 44.6759 5.61493 44.7492C5.30554 44.9963 5.10754 45.439 4.64788 45.4379C4.53124 45.4347 4.36896 45.4296 4.32244 45.5256C4.05924 46.0798 3.47138 46.0992 3.1196 46.5041C2.90225 46.7511 2.62527 46.8824 2.32879 47.0036C1.61106 47.3019 1.01908 47.8146 0.413284 48.3054C0.413284 48.3054 0.4162 48.4377 0.435045 48.5141L0.523877 48.5684C0.632053 48.5409 0.752488 48.516 0.847926 48.4593L2.86055 47.3353C3.19341 47.1621 3.54483 47.0367 3.81581 46.7643C4.32726 46.2607 5.06296 46.199 5.65062 45.8419C5.86547 45.7065 6.17481 46.0449 6.40046 46.0144C6.68087 45.9817 6.38495 45.3897 6.63288 45.2872L6.87401 45.2049L7.42586 44.9579C7.49292 44.9259 7.54352 44.9528 7.5694 45.0397C7.54301 45.2957 7.18775 45.1726 7.25584 45.6567C7.53536 45.4751 7.93017 45.6774 8.1381 45.4999C8.70123 45.016 9.4194 44.8982 10.1278 44.7305C10.2363 44.6998 10.3335 44.6307 10.4391 44.5922L11.7827 44.0243C11.8441 44.0031 11.9969 44.0777 12.0487 44.1585C12.1038 44.2452 12.1408 44.4348 12.1073 44.4968C11.6935 45.2362 11.2745 45.9824 10.3898 46.0027C10.1386 46.0056 9.93472 46.1225 9.77638 46.3036C9.41826 46.7246 8.93131 46.8938 8.42073 47.0218C8.04843 47.1159 7.70618 47.2668 7.4416 47.5527C7.3836 47.6103 7.34468 47.7126 7.33402 47.822L7.44472 48.0227C7.65813 48.1139 7.81144 48.0313 7.94145 47.9044C8.23682 47.6068 8.57646 47.4144 9.00234 47.3561C9.53454 47.2848 10.015 47.102 10.4581 46.8245C10.8238 46.5934 11.2486 46.4822 11.7771 46.7143C12.0934 46.8479 12.3189 46.7266 12.5683 46.6444L15.2518 45.8751C15.7398 45.7599 16.2517 45.7144 16.6972 45.511C17.014 45.3641 17.3779 45.3311 17.7691 45.4053C18.0596 45.4521 18.3463 45.4952 18.5767 45.3376C18.66 45.2782 18.7671 45.1977 18.9185 45.4367C18.7039 46.0639 18.1817 46.2157 17.6389 46.2117C17.0585 46.2068 16.7056 46.4976 16.4287 46.9666C16.3861 47.0346 16.3668 47.1766 16.4005 47.2677C16.4551 47.4197 16.5727 47.4145 16.6546 47.3972C17.5292 47.2351 18.4038 47.0742 19.0671 46.4678C19.1728 46.366 19.3307 46.3421 19.4667 46.2951C20.0758 46.0886 20.6967 45.9175 21.2431 45.5875C21.5022 45.4338 21.7907 45.4022 22.1507 45.6452C22.5118 45.8799 22.8289 45.9145 23.0595 45.6936C23.3792 45.3708 23.8045 45.2554 24.2208 45.1135C24.5361 45.0086 24.7371 44.636 25.1867 44.8035C25.1755 45.3792 24.7073 45.3484 24.4519 45.5987C24.1737 45.8617 23.8201 46.0036 23.6357 46.407L22.8419 47.9444C22.7053 48.1812 22.4494 48.3111 22.6736 48.8153C22.7482 48.9742 22.628 49.0898 22.5485 49.1824L22.1892 49.5821C22.1892 49.5821 22.2162 49.7219 22.2391 49.7999L22.3316 49.8568C22.4742 49.8234 22.6335 49.8196 22.7456 49.7325C23.3988 49.2313 24.1663 48.9355 24.8921 48.5771C25.3487 48.3541 25.8782 48.3637 26.3771 48.2921C26.3771 48.2921 26.5185 48.3893 26.5432 48.4539C26.5806 48.517 26.5726 48.6067 26.5637 48.672C26.5412 48.8377 26.2921 48.7955 26.4241 49.1468L27.0101 48.7399C27.5343 48.4195 28.0734 48.2046 28.8398 48.4405C29.4372 48.6281 29.8571 48.1828 30.2957 47.9078C30.3601 47.8638 30.3942 47.7365 30.3931 47.6203C30.4017 46.8185 30.9201 46.6324 31.3556 46.3496C31.415 46.3123 31.5564 46.3483 31.6186 46.4137C31.7296 46.5196 31.6916 46.6463 31.6323 46.7132L31.1143 47.2033C31.0651 47.2588 31.0337 47.398 31.0678 47.485C31.123 47.6328 31.2447 47.6293 31.324 47.5989L32.6147 47.0522C32.8245 47.0765 33.0546 47.075 33.1799 47.1986C33.4033 47.4315 33.7189 47.5397 34.1696 47.5143C34.5359 47.4944 34.771 47.6413 35.0257 47.7666C35.1285 47.8101 35.1955 47.9015 35.0904 48.0603C35.0129 48.169 34.8809 48.2176 34.7698 48.2353L34.3115 48.3166L33.9616 48.4306C33.8905 48.462 33.8092 48.5375 33.764 48.5937C33.6865 48.7024 33.6969 48.8103 33.7879 48.8185L34.8517 48.9259C35.1056 48.9646 35.2976 49.0898 35.1226 49.4248C35.0161 49.6246 34.892 49.8304 35.0208 49.9586C35.1532 50.0927 35.3546 50.1485 35.6127 50.1255L36.2884 50.0441L36.828 50.0107L36.9184 50.1138C36.9184 50.1138 36.8074 50.2549 36.7553 50.2689L36.2977 50.3756C36.1685 50.4035 36.0251 50.4748 36.0038 50.57C35.98 50.6533 36.0304 50.7435 36.1028 50.7649L36.7411 50.8969C37.076 50.955 37.3195 51.0704 37.3125 51.3997C37.3064 51.6289 37.5207 51.621 37.7659 51.5393C38.6515 51.2352 39.3203 51.3587 40.0407 51.3784L40.9643 51.4414C41.1332 51.4601 41.2853 51.5092 41.1771 51.7214C41.0832 51.8902 40.7906 51.9824 40.5476 51.9251L40.2093 51.8001C39.9224 51.6957 39.6206 51.6717 39.1536 51.9091C38.5677 52.1915 38.0646 52.2024 37.6066 52.1276C37.3651 52.0906 37.1472 51.9703 36.7804 52.2097C36.5884 52.3313 36.8406 52.5058 37.3219 52.5627L37.5148 52.5889C38.1182 52.5473 38.5871 52.6648 38.8961 52.9747C39.0871 53.1695 39.4415 53.1763 39.8507 53.0873L40.4434 52.9704C40.6632 52.9211 40.8289 52.932 40.7583 53.1451C40.6624 53.4201 41.023 53.4732 40.8817 53.7759L40.1676 54.079C39.9019 54.2191 39.8082 54.4786 39.9869 54.5482C40.0743 54.5812 40.1474 54.6281 40.2564 54.626C40.7481 54.6061 41.0915 54.6939 41.0921 55.152C41.0916 55.4326 41.3949 55.4157 41.7854 55.2175L42.4829 54.8215C42.7898 54.6236 42.9558 54.663 43.0438 54.8153C43.1628 55.0161 43.2584 55.2359 43.1943 55.5237C43.1576 55.6717 43.0338 55.7826 42.8426 55.8052L42.6294 55.8058C42.5117 55.8099 42.3721 55.8532 42.3147 55.9689C42.2703 56.0494 42.2671 56.165 42.312 56.2038C42.7544 56.61 43.1345 56.5497 43.9745 55.9345C44.4331 55.6052 44.7768 55.5369 45.1472 55.7022C45.2531 55.7535 45.319 55.8531 45.1992 55.9972C45.1302 56.0744 44.9851 56.1581 44.8752 56.197L43.9046 56.4811C43.6856 56.5548 43.5295 56.7193 43.4679 56.8967C43.4022 57.0724 43.481 57.1697 43.6615 57.1942C43.8667 57.222 44.0936 57.1831 44.3505 57.1072C44.7898 56.9811 44.9321 57.0415 44.9596 57.3006C44.9749 57.4346 44.9581 57.5885 44.9337 57.7382C44.9079 57.8666 45.1093 57.9224 44.8839 58.1356C44.5883 57.8813 44.0933 57.9249 43.5862 57.9965C43.5265 58.0052 43.4128 58.0721 43.3693 58.1158C43.333 58.1679 43.3597 58.2791 43.3597 58.2791C43.3597 58.2791 43.4422 58.3483 43.5034 58.3598C44.0303 58.4809 44.4802 58.678 44.775 59.0314C44.9478 59.2363 45.2804 59.2193 45.6919 58.9585C45.8572 58.8491 46.013 58.7794 46.1411 58.8211C46.5218 58.9423 46.9245 59.055 47.1692 59.3151C47.2786 59.4333 47.401 59.5481 47.3056 59.7578C47.0582 60.3183 47.358 60.5732 47.7692 60.7778L48.2698 61.0926C48.5117 61.2204 48.6923 61.3683 48.5377 61.7061C48.4407 61.9283 48.5828 62.0214 48.7795 62.0808C48.9004 62.1141 49.0353 62.1367 49.0388 62.2648C49.0388 62.2648 49.0013 62.3874 48.9561 62.4424C48.8616 62.5541 48.7303 62.5975 48.6455 62.5449L48.4163 62.3239C48.2097 62.0901 47.8246 62.0631 47.3883 62.1063C47.2858 62.1219 47.1148 62.181 47.048 62.2416C46.9065 62.3912 47.0038 62.4751 47.1156 62.5146C47.4575 62.6433 47.8616 62.715 48.1519 62.8863C48.4487 63.0711 48.7313 63.2371 49.299 63.0577C49.4695 63.0028 49.6317 63.009 49.7092 63.0849C49.9698 63.3513 50.4243 63.4826 50.4497 63.9113C50.452 64.0182 50.4527 64.1671 50.5485 64.2001C51.1211 64.3854 51.1693 64.9239 51.5905 65.2079C51.8464 65.3861 51.9886 65.6322 52.1244 65.8944C52.4442 66.5266 52.978 67.0285 53.4928 67.5468C53.4928 67.5468 53.629 67.5283 53.7026 67.5098L53.7481 67.4211L53.6367 67.1337L52.43 65.3671C52.243 65.0822 52.102 64.7655 51.8148 64.5408C51.2868 64.1189 51.1901 63.4462 50.7978 62.9488C50.6566 62.7566 50.9753 62.441 50.9366 62.2331C50.8833 61.979 50.3112 62.3139 50.1992 62.0919L50.0947 61.8762L49.8251 61.3986C49.7877 61.3355 49.8113 61.2849 49.8953 61.2509C50.1506 61.2486 50.0495 61.5937 50.5257 61.4726C50.3314 61.2404 50.5131 60.8567 50.3193 60.6827C49.8155 60.206 49.644 59.5602 49.4327 58.93C49.3966 58.8259 49.3192 58.75 49.2697 58.6526L48.615 57.4705C48.5923 57.4221 48.6588 57.2707 48.7332 57.2154C48.8088 57.1507 49.0004 57.0944 49.0638 57.1199C49.8308 57.4128 50.6042 57.7204 50.6853 58.5397C50.7034 58.7764 50.839 58.9477 51.027 59.0714C51.4729 59.3587 51.6683 59.7979 51.8277 60.2563C51.9407 60.5935 52.1139 60.8882 52.4093 61.114C52.4742 61.1597 52.5804 61.1784 52.6839 61.185L52.8808 61.0587C52.9586 60.8551 52.8683 60.7194 52.7321 60.6144C52.4237 60.3615 52.2089 60.0654 52.1276 59.6787C52.0311 59.1876 51.8083 58.7659 51.5003 58.3864C51.2468 58.0671 51.1024 57.6845 51.3009 57.1754C51.4146 56.8617 51.2694 56.6689 51.1753 56.4377L50.2148 54.0281C50.057 53.5899 49.9705 53.1171 49.7223 52.7289C49.5511 52.4503 49.4872 52.1198 49.526 51.742C49.5516 51.4606 49.572 51.1869 49.3928 50.9979C49.3272 50.9268 49.231 50.8356 49.4595 50.6609C50.1031 50.7851 50.3029 51.2533 50.3466 51.7626C50.3897 52.3076 50.7096 52.599 51.2046 52.8023C51.2769 52.8237 51.418 52.8312 51.512 52.786C51.6513 52.7141 51.6404 52.6092 51.6134 52.5317C51.3784 51.7369 51.1351 50.942 50.4743 50.3902C50.3687 50.3062 50.3247 50.1684 50.2667 50.0413C50.0101 49.4989 49.7859 48.9325 49.4021 48.4646C49.2181 48.2497 49.1589 47.9779 49.3675 47.6105C49.5633 47.2455 49.5717 46.9376 49.3242 46.7594C48.971 46.4973 48.8054 46.116 48.6298 45.7461C48.4885 45.4631 48.0931 45.3272 48.2161 44.8828C48.7901 44.8119 48.8134 45.256 49.0823 45.4614C49.3782 45.683 49.5534 45.9949 49.9801 46.115L51.5907 46.6596C51.85 46.7518 52.0076 46.9757 52.4843 46.6975C52.6381 46.6117 52.7636 46.7027 52.8627 46.7742L53.2962 47.0598C53.2962 47.0598 53.44 47.017 53.507 46.985L53.5571 46.8926C53.512 46.763 53.4913 46.6083 53.3956 46.512C52.8355 45.958 52.4417 45.2862 52.0112 44.639C51.743 44.2438 51.6939 43.7423 51.5697 43.2717C51.5697 43.2717 51.6468 43.1344 51.7109 43.0935C51.7703 43.0562 51.8628 43.0519 51.9295 43.0535C52.0936 43.0463 52.0816 43.2884 52.4221 43.1204L51.9467 42.619C51.8567 42.5119 51.9014 42.3364 51.829 42.2231L52.3003 41.9537C52.5759 41.8011 52.9455 41.789 52.8621 41.2016C52.8433 41.0629 53.0226 40.9427 53.145 40.8727L55.5122 39.5077C55.8006 39.3537 56.0738 39.1882 56.2599 38.8958C56.5513 38.4416 56.9618 38.1585 57.4379 37.9762C57.6282 37.8986 57.8418 37.8337 57.9728 37.6699C58.7019 36.7632 59.6844 36.2371 60.6261 35.6431L60.6924 35.5856L63.5069 33.2967C63.8079 33.0495 64.1257 32.8331 64.7325 32.9196C64.1764 33.5068 63.6305 33.8949 63.0016 34.1557C63.0016 34.1557 62.9235 34.2686 62.9398 34.3331C62.9822 34.4834 63.0968 34.5316 63.1844 34.5023C63.9475 34.2387 64.6975 33.9489 65.3558 33.5022C65.599 33.3421 65.8239 33.1331 66.1147 33.0533C67.2913 32.7307 68.2182 31.9986 69.2265 31.4063C69.3273 31.3419 69.4286 31.2111 69.5404 31.2505C69.958 31.4063 70.2301 31.2501 70.5246 31.1128C70.5246 31.1128 70.6754 31.1407 70.7058 31.1944C70.7531 31.2462 70.7562 31.408 70.7562 31.408C70.5796 31.7545 70.2531 31.9127 69.9668 32.1124L68.9939 32.8752C68.9939 32.8752 68.9687 32.9995 68.9568 33.0559C69.021 33.0762 69.152 33.1267 69.152 33.1267C70.3127 32.4896 71.5507 31.9601 72.5569 31.0752C72.7366 30.9223 72.9417 30.7971 73.1491 30.6849C73.4645 30.5177 73.7218 30.2846 73.9492 29.9947C74.3035 29.5394 74.7088 29.1407 75.3289 29.0686C75.4513 29.0599 75.576 29.0029 75.6313 28.9039L76.2783 27.6473C76.3227 27.5668 76.3137 27.4168 76.1999 27.3318C76.1162 27.2708 75.9947 27.2417 75.9164 27.2648L75.421 27.4656C75.248 27.5076 74.9772 27.2239 74.9482 26.9762C74.9069 26.6952 74.9451 26.444 75.0769 26.273L75.5471 25.7343C75.7913 25.4751 76.6276 23.6554 76.6855 23.2592C76.742 22.8426 76.7174 22.3772 76.8747 22.0197C76.9573 21.8409 76.8888 21.5762 76.8005 21.3332C76.7445 21.161 76.6401 21.0065 76.4907 20.9366C76.3525 20.8767 76.2098 20.85 76.0761 20.8192C75.7312 20.7428 75.4409 20.5715 75.281 20.1172C75.1497 19.729 74.8946 19.5456 74.5936 19.4225C74.4942 19.3847 74.3723 19.2975 74.3017 19.2014C74.1269 18.9803 74.0475 18.7342 74.07 18.5062C74.0906 18.3233 74.329 18.1995 74.5101 18.2821C74.7382 18.3869 74.7513 18.5987 74.8292 18.7949C74.9504 19.1037 75.0162 19.1422 75.2042 19.0189L75.709 18.6874C75.9371 18.578 76.0876 18.3927 76.053 18.062C75.9867 17.4726 76.2865 17.2653 76.6535 17.1178L77.3852 16.8087C77.9145 16.604 78.3823 16.3298 78.6247 15.7444C78.7119 15.5335 78.8752 15.408 79.0792 15.3523C79.5523 15.2234 79.6845 14.7422 79.8313 14.2757C79.9606 13.8775 79.7818 13.6548 79.4865 13.3056Z" fill="#FFD600"/>
</svg>
