<?xml version="1.0" encoding="utf-8"?>
<svg width="87" height="222" viewBox="0 0 87 222" fill="none" xmlns="http://www.w3.org/2000/svg">
<path d="M82.9636 75.1481C82.6524 75.4369 82.449 75.5109 82.2065 75.1166C82.0902 74.914 82.0954 72.2009 82.2258 72.04C82.4168 71.8681 82.6227 71.866 82.8143 72.002C83.7013 72.61 83.7623 74.4236 82.9636 75.1481ZM63.789 100.917C63.2598 101.156 63.298 101.726 63.1631 102.186C63.0407 102.609 62.9369 103.088 62.3524 103.017C61.9284 102.961 61.6159 102.613 61.7118 102.217C61.8556 101.616 61.3305 101.429 60.9852 101.062C62.886 100.706 63.1463 100.445 63.4473 98.7222C63.5863 97.9077 64.2673 98.0066 64.9055 97.4897C64.928 98.9692 65.3247 100.227 63.789 100.917ZM45.0357 109.223C45.1645 110.316 45.4777 111.462 44.782 112.528C43.5369 111.494 43.8306 110.134 43.9104 108.817C44.4305 108.673 44.988 108.818 45.0357 109.223ZM44.2357 114.674C44.6527 115.174 45.073 115.724 44.823 116.447C44.7271 116.706 44.5945 117.315 44.5257 117.192C44.194 116.566 43.4693 117.926 43.3187 116.9C43.2799 116.657 42.9094 116.602 42.668 116.468C41.7957 115.984 41.8112 115.979 42.3912 115.048C42.7435 114.488 42.5666 114.03 42.1093 113.642C41.9332 113.493 41.7858 113.344 41.9492 113.096C42.126 112.912 42.4397 112.846 42.5169 113.018C42.8818 113.811 43.7368 114.061 44.2357 114.674ZM45.0113 121.026C45.1737 121.734 44.6536 121.813 44.1229 122.032C43.7773 120.821 43.7897 119.63 42.9186 118.76C44.3269 118.875 44.7452 119.869 45.0113 121.026ZM20.2658 123.054C20.1649 122.37 19.4267 121.894 19.6126 121.117C19.7102 120.729 19.697 120.113 20.322 120.269C20.8951 120.409 20.5305 120.858 20.4305 121.197C20.405 121.29 20.4477 121.401 20.4617 121.541C21.1687 121.832 21.7967 120.695 22.544 121.357C22.0365 122.277 20.7532 122.136 20.2658 123.054ZM12.963 146.945C12.8153 146.369 12.7294 145.891 12.5741 145.444C12.2311 144.449 12.8379 144.364 13.734 144.351C13.2717 145.151 14.3241 146.263 12.963 146.945ZM81.2588 5.11055C80.5624 6.31425 80.3148 7.6975 80.2291 9.05836C80.1508 10.3884 79.2562 11.372 78.9508 12.6101C78.3636 15.0499 78.2123 17.5894 77.2159 19.9335C77.1528 20.0749 77.1945 20.2623 77.1709 20.4221C76.9333 21.7537 76.8743 23.1109 76.499 24.4259C76.2984 25.1136 76.2454 25.8227 76.1434 26.5275C75.8276 28.678 76.4604 31.0462 74.6351 32.8499C74.5045 32.9802 74.4629 33.2752 74.4927 33.4777C74.6453 34.5998 74.3021 35.6476 74.0804 36.7176C73.4841 39.5916 74.1983 42.5856 73.1596 45.4204C73.1488 45.4653 73.1565 45.5306 73.173 45.5844C73.6357 46.8397 72.9265 47.8555 72.2989 48.7716C71.9253 49.3089 72.1032 49.5302 72.2448 50.026C72.5407 51.1113 73.5163 52.2991 72.1076 53.3903C71.6671 53.7344 71.9994 54.1861 72.1886 54.5818C72.789 55.8615 73.4155 57.1171 73.5376 58.5853C73.6584 60.0282 72.842 61.0844 71.3368 61.1623C71.7195 62.7833 71.704 64.3947 71.1278 65.9986C70.969 66.4297 71.1732 66.8659 71.1983 67.3022C71.2372 68.3957 71.3884 69.535 70.7679 70.5113C70.4046 71.0855 70.2814 71.4726 70.69 72.1034C71.2888 73.0243 70.7433 74.0464 70.4935 74.9579C70.3252 75.5595 69.5244 75.2083 69.0183 75.2978C68.4901 75.3946 68.2371 75.6159 68.2758 76.1677C68.3295 76.9045 68.3605 77.6419 68.4115 78.6079C67.6494 77.6339 68.0611 76.484 67.3631 75.7299C66.8274 76.1952 67.2054 76.9042 66.6842 77.262C66.1626 77.0186 66.0356 76.6176 65.99 76.0651C65.9121 75.2091 65.9243 74.1246 65.2858 73.6311C64.5552 73.0542 64.5599 72.4751 64.6404 71.7827C64.6937 71.2778 64.8615 70.7289 64.4083 70.4029C63.7924 69.9572 63.8591 69.5083 64.0436 68.8491C64.2751 68.0056 63.9612 67.6747 63.0334 67.706C62.5721 67.7298 62.2681 67.6485 62.1085 67.2589C61.9243 66.7893 61.7778 66.1878 62.2742 65.9005C63.6215 65.13 62.7377 63.9295 63.3414 62.7028C62.4374 63.0736 62.5477 64.1752 61.6693 63.805C61.5534 63.7504 61.5511 64.0407 61.5591 64.1944C61.5791 64.5081 61.7145 64.9444 61.2279 64.9547C60.8222 64.9682 60.8312 64.5111 60.7203 64.2185C60.5514 63.7426 60.6217 63.2447 60.6069 62.7449C60.5688 61.6946 61.0176 60.5854 60.1675 59.6133C59.9465 59.3649 60.0337 58.874 60.2751 58.525C60.6738 57.9417 60.3269 57.561 59.8652 57.3288C59.2952 57.0418 59.0135 56.1775 58.0548 56.5881C56.3506 57.3459 54.6664 58.0933 53.1751 59.247C52.1222 60.067 52.0976 60.0313 52.4879 61.3782C51.8752 61.4629 50.9881 61.1637 50.7723 61.8884C50.5243 62.7069 49.949 63.2313 49.4001 63.8294C49.6858 63.9788 49.8298 64.049 49.9732 64.1355C50.2754 64.3098 50.8978 64.2493 50.767 64.7735C50.5927 65.512 51.0377 66.3368 50.4165 66.9977C50.1255 67.3143 49.9509 67.0714 49.7325 66.9025C49.4442 66.6736 49.1367 66.3172 48.7282 66.5658C48.2276 66.8681 48.5239 67.3588 48.5649 67.7648C48.5995 68.2023 48.5825 68.6699 49.0235 68.9347C49.3725 69.1391 49.3901 69.425 49.2917 69.778C48.743 71.7243 48.9034 73.9281 47.1337 75.4188C46.753 75.7376 47.0891 75.9974 47.2745 76.2533C47.4452 76.4857 47.6139 76.7652 47.9005 76.4755C48.3518 76.0287 48.8907 75.8139 49.3525 76.2485C49.8396 76.7026 49.3505 77.2754 49.2521 77.7942C49.2108 78.0058 49.1366 78.2389 48.9987 78.3941C48.6407 78.8187 48.2487 79.0923 47.8156 78.4547C47.4651 77.9281 46.838 77.6031 46.8049 76.8473C46.793 76.5231 46.5531 76.2008 46.1279 76.3361C45.7264 76.4715 45.6777 76.7062 45.666 77.1901C45.6204 78.7249 46.9277 79.4084 47.5221 80.5221C47.6888 80.8351 48.1176 80.6721 48.3859 80.4291C48.6028 80.2392 48.6346 79.7466 49.2062 80.047C49.171 80.922 49.1508 81.8451 49.0764 82.7689C48.9865 83.9713 48.6826 84.0924 47.688 83.4133C47.3567 83.1861 47.089 82.6353 46.5853 82.9473C46.0913 83.2546 46.2317 83.8272 46.2627 84.3137C46.2885 84.7627 46.406 85.1913 46.692 85.5371C47.427 86.4324 47.2673 87.6112 47.6334 88.6307C48.0331 89.7475 47.3715 90.152 46.2238 89.8581C45.3348 89.6288 44.8199 89.2551 44.6726 88.2786C44.5932 87.7775 44.6216 87.1757 44.2471 86.7265C43.3777 86.7496 43.3325 87.3675 43.2989 87.9896C43.184 90.3548 43.4285 92.6601 44.0618 94.9389C44.2379 95.5618 44.5049 95.9706 45.1573 96.1356C45.4943 94.6907 45.8185 93.3666 45.7752 91.9836C45.7684 91.6528 45.8867 91.303 46.2811 91.223C46.654 91.1476 46.9152 91.3982 47.0875 91.673C47.2763 91.9862 47.1963 92.3154 46.9429 92.5835C46.8329 92.6948 46.6726 92.7671 46.5419 92.8745C46.0423 93.2718 46.1285 93.6428 46.4952 94.1271C47.4967 95.484 47.5824 96.924 46.8687 98.7366C46.3257 98.2043 46.9752 97.2504 46.0606 96.7457C45.9452 97.761 45.3157 98.0777 44.4357 97.8311C44.347 98.3452 44.9042 98.776 44.8095 98.7788C43.6517 98.716 44.1229 99.7345 43.817 100.205C43.4023 100.848 43.8066 101.666 43.5929 102.386C42.5159 102.153 43.1353 101.087 42.5308 100.536C42.244 101.141 42.1085 101.654 42.2984 102.193C42.4928 102.748 42.4851 103.323 42.1873 103.784C41.7466 104.458 41.9401 105.006 42.2126 105.634C42.3781 106.023 42.7411 106.368 42.7227 107.032C42.1328 106.439 41.681 105.989 41.1678 105.479C40.737 106.186 40.7667 106.69 41.3928 107.086C42.313 107.666 42.4977 108.558 42.561 109.598C42.2728 109.543 42.1143 109.515 41.9542 109.481C40.8669 109.282 40.6757 109.431 40.7641 110.492C40.7979 110.922 41.107 111.435 40.9572 111.741C40.4321 112.821 40.9544 114.021 40.4171 115.092C40.2279 115.474 40.3056 115.967 40.6148 116.337C41.3116 117.168 41.2014 117.86 40.4304 118.632C39.9999 119.054 39.8823 119.711 40.2258 120.322C41.0438 121.756 40.9626 123.09 39.8942 124.428C39.381 125.076 39.3217 125.869 40.2383 126.303C40.627 126.485 40.537 126.874 40.4218 126.94C39.5198 127.443 39.7798 128.237 39.8721 128.963C40.0608 130.565 39.4424 132.013 39.1983 133.88C38.1447 132.418 36.7025 131.707 36.7433 129.98C36.751 129.699 36.3692 129.613 36.1898 129.415C35.5661 128.73 34.7294 128.102 34.4413 127.284C34.2163 126.642 34.0448 125.92 33.7318 125.316C33.0766 124.061 32.6903 122.691 31.9185 121.483C31.4672 120.778 31.0604 120.926 30.3624 121.469C31.3167 119.646 31.1969 119.5 29.7817 118.678C28.7043 118.06 27.3971 117.679 26.7914 116.391C26.6014 115.988 26.2181 115.745 25.7651 115.645C23.0521 115.034 20.7723 115.94 18.7522 117.718C18.1555 118.249 17.808 119.015 16.9831 119.387C16.4104 119.646 16.1208 120.277 16.9199 120.765C17.2749 120.985 17.2577 121.293 17.0883 121.626C16.9251 121.933 16.6675 122.109 16.3071 122.139C15.0665 122.245 14.7481 122.574 14.7906 123.813C14.8004 124.148 14.867 124.461 14.6707 124.761C13.9508 125.887 13.9077 127.149 13.8609 128.415C13.8578 128.554 13.7797 128.618 13.6672 128.621C13.2921 128.562 13.3955 128 12.9311 128.005C12.7789 128.225 12.6759 128.532 12.8485 128.737C13.6872 129.778 13.1372 130.964 13.2186 132.072C13.2389 132.331 13.1528 132.413 12.9127 132.543C11.4691 133.287 10.8605 134.617 11.2022 136.135C11.3639 136.83 11.9172 137.681 10.4745 137.67C10.1124 137.664 10.0319 138.191 10.0904 138.485C10.3239 139.848 9.88744 141.234 10.2927 142.593C10.5499 143.458 10.5647 144.253 9.6443 144.909C9.0301 145.349 9.07143 145.951 9.73179 146.552C10.5891 147.333 10.8256 148.829 10.0924 149.303C9.06464 149.976 8.84182 150.649 9.32659 151.688C9.41026 151.865 9.34936 152.133 9.30738 152.346C9.16913 153.059 8.96981 153.838 9.50032 154.401C10.153 155.102 9.13098 155.745 9.52932 156.368C9.77986 156.752 9.88416 157.039 9.33782 157.249C9.06129 157.35 8.80506 157.673 8.91565 157.878C9.38861 158.767 8.74406 159.546 8.75731 160.336C8.79156 162.311 8.68599 164.309 9.02672 166.272C9.13851 166.918 9.12193 167.505 8.26573 167.64C8.03199 167.673 7.86368 167.828 7.9694 168.106C8.09416 168.344 8.3031 168.346 8.53169 168.321C9.13949 168.273 9.64982 168.442 9.78769 169.101C9.90947 169.688 9.37529 169.965 9.04731 170.306C8.59694 170.754 8.25435 170.323 7.89118 170.114C7.64168 169.962 7.37237 169.843 7.22906 170.226C7.13964 170.453 7.25775 170.7 7.47063 170.764C8.17726 170.965 8.80758 171.303 8.3625 172.112C8.08709 172.619 8.54954 173.332 7.6198 173.736C6.81403 174.076 6.61515 175.902 7.1376 176.484C7.81867 177.231 8.14421 177.964 7.69169 178.933C7.57808 179.178 7.70467 179.36 7.89272 179.487C8.77363 180.08 8.83878 180.884 8.45567 181.795C8.27246 182.234 8.62628 182.645 8.50012 183.065C8.16649 182.991 7.8484 182.912 7.53423 182.86C7.20075 182.809 6.9194 183.02 7.00086 183.308C7.43553 184.945 6.17692 186.475 6.6999 188.127C6.80972 188.461 6.42432 188.877 7.01873 189.177C7.52571 189.425 7.6094 189.74 6.92419 190.167C6.21953 190.602 7.07284 191.904 6.02708 192.367C6.93348 192.859 6.25342 193.28 5.96955 193.744C5.78745 194.049 5.82536 194.428 6.03847 194.689C6.4844 195.24 6.34208 195.66 5.87168 196.11C5.7307 196.238 5.59477 196.64 5.64984 196.683C6.57008 197.458 5.94112 198.536 6.1926 199.431C6.40255 200.176 6.5747 200.874 5.35369 200.75C5.06471 200.717 4.92273 201.082 4.88392 201.35C4.80911 201.838 4.72628 202.345 4.77969 202.82C5.01153 204.96 5.05589 207.057 3.87624 208.998C3.74483 209.222 3.76021 209.532 3.70971 209.802C3.17756 212.148 2.3843 214.358 0.585178 216.082C0.463588 216.195 0.344063 216.311 0.239472 216.438C0.0502589 216.654 -0.0686042 216.92 0.0821403 217.184C0.200991 217.4 0.465406 217.427 0.666414 217.333C1.24504 217.066 1.3543 217.454 1.62399 217.842C1.95497 218.311 2.42564 218.734 2.85258 219.117C4.53083 220.623 6.46951 221.581 8.81848 221.745C10.6897 221.878 12.0603 220.709 13.6559 220.159C14.3731 219.91 14.7693 219.118 15.23 218.499C15.3964 218.284 15.6141 218.101 15.7722 217.873C17.2905 215.789 18.848 213.736 19.1749 211.06C19.2048 210.803 19.3777 210.557 19.5309 210.329C19.906 209.777 20.1856 209.226 20.1808 208.509C20.1832 207.744 19.4838 207.489 19.1517 206.946C19.7326 206.677 20.5114 207.124 20.6691 206.158C20.814 205.278 20.4947 204.758 19.6437 204.57C20.828 203.007 22.0724 201.615 21.2701 199.58C21.168 199.311 21.2719 199.041 21.3536 198.778C21.5813 198.032 21.4146 197.387 20.9144 196.792C20.5196 196.315 20.1151 195.603 20.4831 195.133C21.1207 194.324 20.7029 193.788 20.3748 193.142C20.2537 192.899 20.1629 192.633 20.0846 192.371C19.8309 191.449 19.9155 191.325 20.9342 191.251C21.2325 191.226 21.5131 191.21 21.6252 190.922C21.8206 190.45 21.2979 190.456 21.1153 190.232C21.0877 190.192 21.0269 190.151 20.9772 190.154C19.6315 190.261 19.746 189.239 19.6295 188.394C19.5661 187.971 19.7212 187.674 20.0813 187.418C20.5427 187.085 20.7573 187.381 21.034 187.655C21.1834 187.8 21.3972 187.894 21.7381 187.777C21.6 187.224 21.4625 186.655 21.3083 186.095C21.2201 185.771 21.0725 185.397 21.5065 185.25C22.629 184.876 22.1622 184.213 21.8771 183.557C21.3415 182.36 20.3013 181.466 19.8934 180.194C19.7619 179.783 19.4665 179.81 19.1052 179.977C18.7712 180.123 18.5984 179.888 18.574 179.572C18.5497 179.316 18.6995 179.176 18.9472 179.118C19.369 179.033 19.8326 179.202 20.3166 178.78C19.9515 178.324 19.9452 177.767 20.004 177.165C20.1021 176.255 19.502 175.41 18.6205 175.05C17.8542 174.731 17.0246 173.573 17.1446 172.756C17.3236 171.409 17.339 170.107 16.9642 168.784C16.5119 167.191 17.1759 165.375 15.9702 163.92C15.8421 163.761 15.9795 163.185 16.4971 163.466C16.9038 163.684 17.2929 163.92 17.6655 163.453C18.0889 162.913 17.783 162.456 17.5547 162.067C16.868 161.998 17.1776 162.999 16.5593 162.813C16.0912 162.664 15.7977 162.146 15.99 161.755C16.3291 161.083 17.424 160.533 16.0488 159.856C16.1084 159.771 16.1508 159.656 16.232 159.611C16.7285 159.353 16.4832 158.985 16.4377 158.606C16.267 157.215 15.9386 155.861 15.435 154.402C16.0774 154.476 16.579 154.513 17.001 154.185C17.2253 154.015 17.4614 153.787 17.2785 153.502C17.1002 153.199 16.8011 153.057 16.4811 153.38C16.3751 153.489 16.3307 153.673 16.0409 153.633C16.0448 153.327 16.0825 153.007 16.053 152.692C15.9976 152.085 16.5246 151.719 16.6428 151.174C16.8446 150.273 15.794 150.465 15.6447 149.904C15.576 149.638 15.4535 149.376 15.4448 149.107C15.4035 147.864 15.4002 146.619 15.3828 145.096C16.1504 145.814 16.8745 146.106 17.7145 146.179C17.7677 145.68 17.2337 145.339 17.3803 144.804C17.8813 142.987 16.9161 141.967 15.2102 141.212C15.8587 140.977 16.3243 140.932 16.791 141.127C17.2303 141.306 17.5425 141.12 17.7913 140.782C17.9767 140.535 17.9156 140.261 17.7604 140.016C17.4559 139.513 17.0993 139.891 16.7539 139.97C16.5416 140.019 16.3166 140.082 16.1025 140.066C15.6507 140.025 15.3128 139.664 15.4882 139.294C15.7962 138.647 16.0533 138.042 15.9079 137.312C15.8746 137.174 16.1282 137.079 16.2899 137.127C17.2975 137.413 17.3783 136.6 17.5036 136.008C17.6434 135.308 17.6296 134.572 17.696 133.732C18.2551 134.206 18.3704 135.128 19.178 134.723C19.8946 134.362 19.8018 133.631 19.6906 132.968C19.6684 132.808 19.578 132.661 19.5011 132.519C19.2143 131.993 19.7101 131.73 19.8668 131.346C20.1628 130.647 20.6405 131.634 20.9481 131.213C20.8554 130.225 20.4813 129.39 19.7685 128.655C19.5287 129.96 19.5288 129.96 18.6576 130.53C18.4669 129.33 18.9771 128.209 18.8705 127.081L18.8291 126.953C18.0744 127.719 17.4005 128.523 17.4398 129.707C17.4579 130.083 17.3108 130.462 17.2297 130.839C17.1681 131.137 17.018 131.383 16.6891 131.313C16.3384 131.238 16.3732 130.915 16.3904 130.636C16.4012 130.426 16.4476 130.2 16.4784 129.986C16.7115 128.134 17.0721 126.356 18.2081 124.743C18.7813 123.927 19.2573 123.243 20.2578 123.072C20.7887 124.374 21.9934 125.18 22.5919 126.659C23.0464 125.786 23.3627 125.151 23.6968 124.53C23.8283 124.292 23.9536 124.003 24.2816 124.007C24.5934 124.01 24.7699 124.212 24.86 124.495C25.3518 126.112 26.5169 127.483 26.5356 129.268C26.5378 129.424 26.6606 129.566 26.8234 129.573C27.0467 129.502 27.0734 129.333 27.1046 129.173C27.1457 128.93 27.2536 128.723 27.5256 128.778C27.8072 128.842 27.7994 129.086 27.682 129.292C27.3382 129.924 27.4932 130.454 27.9717 130.937C28.5467 131.518 28.1328 132.16 28.0884 132.798C28.0353 133.536 29.2705 133.665 29.0124 134.564C28.9949 134.609 29.0226 134.685 28.9939 134.723C28.3305 135.731 29.1266 136.547 29.3336 137.433C29.4514 137.958 29.4919 138.554 30.1651 138.73C30.4055 138.797 30.5299 138.982 30.4792 139.229C30.2767 140.289 30.8877 141.262 30.7733 142.315C30.7168 142.764 30.8045 143.141 31.0937 143.536C31.6816 144.342 31.9842 145.247 31.7446 146.28C31.5071 147.303 32.3654 148.288 31.8467 149.343C31.802 149.439 32.0122 149.761 32.1757 149.853C32.5906 150.084 32.5104 150.504 32.6505 150.843C32.8519 151.343 32.5875 152.31 33.0652 152.311C34.407 152.308 32.9258 153.101 33.4505 153.364C34.3064 153.794 34.111 154.778 34.3538 155.542C34.6273 156.431 34.9823 157.299 35.5499 158.048C35.8175 158.396 36.4027 158.92 36.5345 158.778C36.9458 158.323 37.1158 158.449 37.4787 158.778C38.0766 159.316 38.6453 159.952 39.6215 159.662C39.9254 159.569 40.0697 159.865 40.1968 160.123C40.3852 160.52 40.6033 160.901 40.8521 161.249C41.3037 161.87 41.8636 161.841 42.4154 161.376C42.8284 161.028 43.0303 160.352 43.6145 160.299C44.2887 160.239 44.2225 161.139 44.7263 161.361C44.8281 161.41 44.9217 161.471 45.0094 161.538C46.8137 162.897 48.942 162.599 50.9843 162.55C52.22 162.518 52.5849 161.957 52.7566 160.656C52.8168 160.21 52.914 159.768 53.2413 159.456C53.9897 158.745 53.9785 157.756 54.2004 156.875C54.3036 156.462 54.2076 156.007 54.427 155.594C55.4271 153.735 55.1324 151.63 55.5537 149.661C55.5994 149.459 55.5435 149.208 55.4506 149.017C54.9494 147.91 55.2174 146.923 55.7236 145.877C56.2005 144.884 55.4568 143.691 56.1015 142.668C56.1257 142.621 56.1744 142.581 56.2061 142.54C56.5318 142.187 56.3703 141.882 56.1731 141.505C55.6242 140.475 55.1647 139.412 56.0763 138.293C56.2627 138.067 56.2256 137.76 56.1319 137.497C55.8659 136.809 56.2112 136.233 56.4484 135.626C56.8299 135.653 56.7799 136.387 57.3143 136.141C57.3029 134.165 57.3349 134.178 58.3144 131.892C58.612 131.206 58.4227 130.471 58.0179 129.843C57.7493 129.429 57.4529 129.045 57.4918 128.504C57.5038 128.354 57.4195 128.056 57.5371 128.075C58.6097 128.264 58.1891 127.618 58.0839 127.15C57.997 126.78 58.1018 126.509 58.4594 126.34C59.2508 125.972 58.9234 125.641 58.4301 125.307C58.1183 125.101 57.7341 124.965 57.5781 124.405C58.3584 124.331 58.4957 123.783 58.6562 123.093C58.9069 122.038 57.6072 122.485 57.5509 121.834C57.7475 121.588 57.9797 121.679 58.1862 121.66C59.6082 121.517 59.6015 121.518 59.5381 120.137C59.5133 119.589 59.5537 119.039 59.5299 118.491C59.4574 116.889 59.4262 115.278 57.803 114.297C57.4428 114.084 57.1614 113.582 57.9358 113.408C58.3907 113.302 58.6847 112.952 58.6743 112.605C58.5939 110.749 59.5235 112.591 59.9097 112.182C60.003 111.511 60.6741 110.907 60.5452 110.094C60.2752 108.393 59.8484 106.715 60.4166 104.985C60.4767 104.81 60.3081 104.567 60.2702 104.354C60.2072 104.021 59.933 103.66 60.3422 103.31C60.7379 103.658 61.0379 104.015 61.2016 104.498C61.3532 104.942 61.2291 105.494 61.6772 105.84C62.0954 105.61 62.0485 105.075 62.4902 104.835C63.0169 104.545 63.4406 104.238 63.9032 104.845C64.1342 105.143 64.3888 105.309 64.7358 105.049C65.0044 104.852 64.9395 104.575 64.8354 104.311C64.561 103.588 64.9234 103.315 65.5877 103.193C66.1908 103.076 66.5773 103.066 66.8126 103.825C67.4931 106.087 68.7593 107.184 71.1334 107.813C71.3966 107.88 71.7771 107.883 71.8517 108.142C72.1978 109.509 73.476 109.499 74.4329 109.859C77.4923 111.011 80.1644 110.296 82.538 108.018C84.2109 106.411 84.7659 104.397 84.8921 102.206C84.9457 101.279 84.9836 100.34 85.2453 99.4365C85.813 97.4502 85.1215 95.3836 85.7234 93.3994C85.7467 93.317 85.6986 93.1672 85.6279 93.1004C84.5584 91.9222 85.2352 90.6029 85.37 89.3348C85.3941 89.0857 85.6465 88.8943 85.4378 88.5855C85.1194 88.1004 85.1382 88.0085 85.5081 87.9505C86.4502 87.8101 86.6426 87.4416 86.0842 86.6478C85.898 86.3852 85.5556 85.8771 86.128 85.7018C86.8667 85.4696 86.7295 84.8949 86.6269 84.5067C85.9739 81.9389 86.6875 79.3047 86.2832 76.7162C86.1384 75.7963 85.7691 74.916 85.7798 73.9916C85.7877 72.8278 85.9573 71.6747 85.0464 70.7272C84.8278 70.4988 84.9103 70.1047 84.9541 69.7703C85.0218 69.2217 85.0355 68.6618 85.1715 68.1309C85.4656 66.9982 85.2042 66.0399 84.2341 65.4102C83.7195 65.0824 83.688 64.6488 83.6404 64.1662C84.1123 64.175 84.6002 64.3194 85.1477 64.0413C84.9992 63.3209 84.9154 62.6385 85.415 61.9247C85.8372 61.3245 85.5361 61.0369 84.696 61.1437C84.4776 61.1696 84.2675 61.2156 84.0463 61.253C83.4193 60.5189 83.8851 59.6907 83.8718 58.9015C83.8305 57.485 84.2469 56.0648 83.8992 54.655C84.8941 53.1481 84.2243 51.4238 84.5997 49.8366C84.7628 49.1897 84.6244 48.7496 83.8972 48.4248C82.7093 47.9051 82.1495 46.6173 82.4927 45.3901C82.6741 44.7408 82.6855 44.1897 82.2589 43.6941C81.63 42.9645 81.5965 42.1474 81.824 41.2127C82.2836 41.4843 82.3374 42.5239 83.0043 41.9699C83.3244 41.7062 83.8173 41.3097 83.8875 40.8041C83.9405 40.3826 83.7614 39.9352 83.4348 39.6112C83.2845 39.4525 83.0619 39.3702 82.9176 39.2115C82.3301 38.5306 82.4872 37.5826 83.2991 36.9915C83.5921 36.7783 83.6228 36.5053 83.4915 36.2912C83.0062 35.4337 83.2091 34.658 83.4724 33.7677C83.686 33.0245 83.8671 31.9762 83.521 31.4227C83.0586 30.7092 82.9018 30.1057 82.9812 29.3181C82.9985 29.0758 82.8941 28.7518 82.734 28.5672C81.4678 27.138 80.9115 25.4771 80.9745 23.5708C80.9821 23.2678 80.791 22.9421 80.6534 22.6455C80.5098 22.3489 80.305 22.0719 80.3788 21.7198C80.6766 20.2794 80.2127 18.7615 80.7499 17.3586C81.175 16.2435 81.1347 15.196 80.8592 14.0671C80.5793 12.9303 81.1054 12.024 82.2172 11.4153C81.8735 10.7449 81.4769 10.029 81.7865 9.25814C82.6659 7.07309 82.4468 4.64438 83.3454 2.45751C83.5768 1.89391 83.3813 1.21328 83.0434 0.203562C82.396 2.10392 82.0729 3.69664 81.2588 5.11055Z" fill="#FFD600"/>
</svg>
