<?xml version="1.0" encoding="utf-8"?>
<svg width="50" height="50" viewBox="0 0 50 50" fill="none" xmlns="http://www.w3.org/2000/svg">
<path d="M24.798 14.0185C17.8818 21.3356 6.61116 35.5854 15.464 45.5272C21.7897 52.6312 33.3352 49.4913 39.605 44.2122C47.6022 37.4791 52.3551 22.532 46.4574 13.1823C41.3799 5.13282 29.8093 5.52261 21.7605 7.74538C12.7619 10.2325 3.05176 16.4598 0.542078 25.9201C-2.32761 36.7359 6.62175 46.1747 17.3556 45.3411C28.9525 44.4388 41.475 35.0796 45.6902 24.3394C50.0085 13.3307 43.4807 2.60386 31.8496 0.835617C16.5715 -1.48562 -4.97146 11.4626 4.63353 28.5165C5.28971 29.6805 7.08794 28.6365 6.43285 27.4712C-1.20687 13.9066 13.6053 3.85688 25.8918 2.7293C32.0737 2.16282 38.7617 3.85283 42.5233 9.06854C46.6693 14.8184 45.1646 21.9277 41.6909 27.5373C35.7715 37.092 17.8059 49.5115 6.89865 40.4666C2.27826 36.6348 1.17599 29.7398 3.2321 24.3677C5.13382 19.3988 9.72759 15.6964 14.212 13.1149C21.5383 8.90264 32.0289 6.37503 40.0138 10.219C50.2598 15.1488 47.2491 29.6805 42.6143 37.4521C38.0909 45.0376 27.4179 50.6485 19.0027 45.7484C6.88968 38.6957 20.5485 21.5366 26.271 15.4806C27.1904 14.5108 25.7194 13.0434 24.798 14.0185Z" fill="#FFD600"/>
</svg>
