<?xml version="1.0" encoding="utf-8"?>
<svg width="61" height="64" viewBox="0 0 61 64" fill="none" xmlns="http://www.w3.org/2000/svg">
<path d="M21.5675 37.4712C30.48 39.6953 46.853 42.279 50.7953 30.7915C53.6124 22.5831 45.9492 14.8091 38.9463 12.1869C30.0144 8.84201 16.0038 11.7523 11.2098 20.6253C7.08236 28.2644 12.5703 37.2891 17.9395 42.6935C23.9439 48.7347 33.2402 53.6678 41.8847 51.4295C51.7679 48.8708 55.2671 37.5317 49.8008 29.3709C43.8936 20.5547 30.8487 14.7872 20.4234 16.2424C9.73854 17.7357 4.1316 27.726 7.93088 37.7645C12.9226 50.95 32.8578 62.283 42.1179 47.0147C42.7497 45.9721 41.115 45.0096 40.4816 46.052C33.1161 58.1962 18.4975 50.9174 12.1027 41.6538C8.88578 36.9924 7.2364 30.9188 9.69973 25.5941C12.4157 19.7248 18.7413 17.7395 24.7557 17.9908C35.0011 18.4211 52.9149 27.1465 50.6051 39.866C49.6263 45.2542 44.6378 49.2161 39.4466 49.9856C34.6451 50.6973 29.6458 48.7019 25.5865 46.2919C18.9589 42.3522 12.2547 35.143 11.7375 27.0744C11.0716 16.7223 23.9722 12.6127 32.2251 12.8196C40.2802 13.0213 49.5174 18.9958 49.3876 27.8791C49.2011 40.6656 29.4464 37.4853 22.0707 35.6458C20.8883 35.3489 20.3799 37.1751 21.5675 37.4712Z" fill="#FFD600"/>
<path d="M35.0802 35.8224C35.6501 35.0039 36.2255 34.1881 36.8042 33.3771C38.5399 31.1107 40.4107 28.9365 42.3203 26.8077C39.9123 29.9485 37.5236 33.1066 35.1583 36.2801C35.1315 36.1282 35.1066 35.9743 35.0802 35.8224ZM32.8871 31.976C32.8438 32.0289 32.8006 32.0818 32.7575 32.1347C32.6645 31.0499 32.5735 29.9653 32.4873 28.8811C32.6052 29.9134 32.7417 30.9454 32.8871 31.976ZM34.4694 31.9342C38.0588 27.7839 41.755 23.7231 45.536 19.7539C41.6465 24.2592 38.0167 28.994 34.7725 33.9659C34.6663 33.2882 34.5645 32.6108 34.4694 31.9342ZM33.1055 33.5231C33.2164 34.344 33.3425 35.1642 33.4877 35.9796C33.3768 36.1577 33.2654 36.3357 33.1556 36.5138C33.0677 35.5964 32.982 34.6791 32.8999 33.7622C32.9682 33.6832 33.0372 33.6021 33.1055 33.5231ZM59.4782 4.51773C55.7805 7.93076 52.1369 11.3798 48.5949 14.9462C51.4191 11.556 54.2445 8.16591 57.0764 4.78303C57.691 4.04791 56.4868 3.167 55.8816 3.90743C48.6856 12.7178 41.45 21.4936 34.2541 30.3018C33.6047 25.1342 33.2922 19.9269 33.3265 14.7115C33.3329 13.7286 31.9067 13.5287 31.7446 14.3956C31.6475 14.0414 31.5455 13.6869 31.4373 13.3339C31.4371 13.3338 31.4371 13.3316 31.4371 13.3294C31.4367 13.3294 31.4364 13.3294 31.436 13.3293C31.4203 13.2795 31.406 13.2276 31.3901 13.1756C31.1625 12.4465 30.2044 12.9134 30.2316 13.544C30.2937 14.9727 30.3701 16.4028 30.4532 17.8291C30.2823 16.5853 30.0738 15.3465 29.8065 14.1197C29.6879 13.5746 28.7692 13.5382 28.7786 14.1604C28.7791 14.2 28.7798 14.2374 28.7803 14.2769C28.7259 13.9379 28.6726 13.599 28.6135 13.2596C28.5453 12.8732 27.8939 12.8648 27.903 13.2873C27.9941 17.5115 28.4338 21.7409 28.8159 25.9451C29.19 30.065 29.4213 34.2414 30.3278 38.2834C30.5369 39.2148 31.9178 38.9844 31.7806 38.0248C31.6307 36.9806 31.4871 35.9304 31.3495 34.8786C31.6012 36.0578 31.9044 37.2289 32.2798 38.3894C32.4445 38.8972 33.0645 38.7444 33.2531 38.3543C33.3375 38.3142 33.4164 38.2494 33.481 38.1459C33.5923 37.9833 33.7055 37.8208 33.8176 37.6561C33.8411 37.7659 33.8623 37.8756 33.887 37.9855C33.8574 38.0244 33.8275 38.0654 33.7979 38.1042C33.3953 38.6492 34.2136 39.2313 34.6326 38.7143C34.6497 38.6941 34.6664 38.6737 34.6835 38.6534C35.1157 38.6449 35.5375 38.3213 35.4305 37.7599C35.429 37.751 35.4274 37.742 35.4257 37.7331C43.3671 27.9346 51.0518 17.9224 58.7324 7.91425C58.815 7.8059 58.8537 7.6889 58.8601 7.57536C59.3746 6.84808 59.8764 6.10858 60.3628 5.35882C60.7299 4.79288 60.0149 4.02314 59.4782 4.51773Z" fill="#0BBC63"/>
</svg>
