<?xml version="1.0" encoding="utf-8"?>
<svg width="41" height="41" viewBox="0 0 41 41" fill="none" xmlns="http://www.w3.org/2000/svg">
<circle opacity="0.4" cx="20.5" cy="20.5" r="20.5" fill="#FFD600"/>
<g clip-path="url(#clip0)">
<path d="M29.6922 28.0154L25.3386 23.4874C26.458 22.1568 27.0713 20.4825 27.0713 18.7395C27.0713 14.6672 23.7581 11.354 19.6858 11.354C15.6135 11.354 12.3003 14.6672 12.3003 18.7395C12.3003 22.8118 15.6135 26.125 19.6858 26.125C21.2146 26.125 22.6715 25.6639 23.9171 24.7886L28.3037 29.3509C28.4871 29.5413 28.7337 29.6463 28.998 29.6463C29.2481 29.6463 29.4854 29.5509 29.6656 29.3775C30.0483 29.0092 30.0605 28.3985 29.6922 28.0154ZM19.6858 13.2807C22.6959 13.2807 25.1447 15.7294 25.1447 18.7395C25.1447 21.7496 22.6959 24.1984 19.6858 24.1984C16.6757 24.1984 14.2269 21.7496 14.2269 18.7395C14.2269 15.7294 16.6757 13.2807 19.6858 13.2807Z" fill="#FFD600"/>
</g>
<defs>
<clipPath id="clip0">
<rect width="18.2923" height="18.2923" fill="white" transform="translate(11.9844 11.354)"/>
</clipPath>
</defs>
</svg>
