<?xml version="1.0" encoding="utf-8"?>
<svg width="108" height="141" viewBox="0 0 108 141" fill="none" xmlns="http://www.w3.org/2000/svg">
<path fill-rule="evenodd" clip-rule="evenodd" d="M84.6658 119.784C81.5067 122.574 77.7981 124.443 73.5951 125.32C67.187 126.66 59.9596 127.898 53.39 126.783C53.6129 127.42 53.8516 128.052 54.1094 128.676C54.2713 129.066 54.479 129.436 54.7313 129.777C56.3265 131.941 59.4137 132.704 61.9552 132.895C65.484 133.159 69.3127 132.485 72.645 131.331C76.8588 129.873 81.5528 127.173 83.8432 123.202C84.3104 122.392 84.5055 121.049 84.6658 119.784ZM52.3727 123.514C58.3041 124.952 65.0465 123.638 70.9746 122.755C73.0186 122.45 75.1449 121.654 77.0148 120.785C79.042 119.844 81.0962 118.663 82.8882 117.325C83.4158 116.933 85.3023 115.438 85.4195 114.766C85.4217 114.755 85.4231 114.747 85.4248 114.738C85.757 113.191 85.8353 111.217 85.9206 109.634C86.0628 107.041 86.136 104.441 86.1932 101.846C86.2739 98.0866 86.3041 94.3283 86.3281 90.5675C79.1938 95.1723 54.4025 97.7054 46.0764 97.019C47.5015 102.376 48.4289 107.848 49.8251 113.214C50.716 116.637 51.4179 120.106 52.3727 123.514ZM88.3753 48.1236C85.9498 59.8727 81.5294 71.0459 79.0143 82.7592C79.5051 82.6365 79.9924 82.5037 80.4778 82.3597C80.9089 82.2299 81.4734 81.9379 81.8859 81.7192C81.9069 81.7014 81.9273 81.6863 81.9504 81.6716C83.0519 80.9156 83.5929 77.1387 83.7812 75.8541C83.7835 75.8342 83.7867 75.8172 83.7917 75.7977C85.8831 66.7099 88.4648 57.757 90.3369 48.616C89.6719 48.4796 89.0262 48.3129 88.3753 48.1236ZM91.0619 45.728C92.218 41.2358 93.5108 36.738 94.5087 32.2137C94.0842 31.6325 91.9981 30.7602 91.4163 30.5566C90.8484 30.3584 88.3612 29.6295 87.8919 30.2038C87.8862 30.2122 87.8793 30.2204 87.8731 30.2315C87.4158 31.0752 87.0741 32.3027 86.8106 33.2274C86.3918 34.7077 86.0298 36.2108 85.6661 37.7081C85.1947 39.652 84.7415 41.7159 84.1387 43.6446C86.4671 44.2503 88.7373 45.1163 91.0619 45.728ZM72.9772 70.6332C73.5137 68.5008 74.07 66.3708 74.6855 64.2585C74.6625 64.1566 74.6507 64.0526 74.6496 63.9493C74.5152 63.4997 74.3334 63.0276 74.1808 62.5882C73.7887 61.4624 73.3928 60.3359 72.9978 59.211C71.8375 55.9019 70.67 52.5941 69.5011 49.2874C67.8309 44.5606 66.1698 39.8287 64.4735 35.1105C64.3577 34.7864 64.232 34.4646 64.0974 34.1465C64.1143 34.543 64.1324 34.9397 64.1424 35.3295C64.3396 43.1655 66.9412 50.6406 68.9871 58.1285C70.1385 62.3502 71.787 66.4233 72.9772 70.6332ZM61.6387 12.5023C61.6212 14.0927 61.3055 15.7401 60.991 17.2426C60.5387 19.4111 59.3617 23.5941 60.5319 25.6152C61.1365 26.6558 62.2857 27.1118 63.4221 27.324C63.4239 27.3216 63.4272 27.3181 63.4306 27.3147C65.9796 25.0385 65.4755 19.8417 64.683 16.8725C64.2025 15.0724 63.0286 13.6665 61.6387 12.5023ZM72.5766 84.2429C73.5535 83.9872 74.5325 83.7414 75.5231 83.5357L75.773 83.4833C76.28 81.0144 76.9361 78.5394 77.5917 76.1105C78.4682 72.8615 79.3953 69.6247 80.3209 66.389C81.437 62.4957 82.5673 58.5996 83.6204 54.6878C84.0424 53.1253 84.4517 51.5578 84.8175 49.9835C85.0256 49.0865 85.2373 48.1562 85.383 47.238C84.5743 46.9636 83.7675 46.6787 82.9418 46.4662C80.7556 52.669 79.0693 59.1076 77.4553 65.4782C75.8922 71.6346 74.4149 77.8259 72.667 83.9329C72.649 83.9933 72.6085 84.1227 72.5766 84.2429ZM53.9996 52.9825C55.6929 52.8198 57.5126 52.2413 58.667 50.9838C58.2027 50.1579 57.6175 49.1223 57.0092 48.5665C56.7218 48.304 56.1439 47.8325 55.7103 47.9754C54.6374 48.3312 54.16 51.3387 53.9996 52.9825ZM54.0866 56.0763C54.2214 56.9235 54.4217 57.7612 54.6585 58.5853C56.6258 57.9502 59.5077 57.277 60.4531 55.4895C60.2969 54.9096 60.1217 54.3439 59.9417 53.7677C58.3863 55.1755 56.1697 56.0271 54.0866 56.0763ZM59.8212 74.2251C61.7366 73.381 63.4981 72.2354 65.5122 71.5752C64.0197 67.3712 62.4836 63.2703 61.3393 58.9523C59.6922 60.2046 57.5588 60.7774 55.6173 61.4485C57.0825 65.5443 58.4699 69.6283 59.6973 73.8059C59.7376 73.9463 59.7796 74.0844 59.8212 74.2251ZM60.6962 77.1012C61.1268 78.5217 61.5259 79.9512 61.9565 81.3717C62.3835 82.7752 62.9297 84.688 63.601 86.0761C64.3007 86.0263 64.9978 85.9544 65.6913 85.8505C67.0725 85.6445 68.4354 85.3266 69.7861 84.9793C69.8089 84.8425 69.6851 84.5684 69.6196 84.4613C69.221 83.8646 68.8834 82.9267 68.6352 82.2511C68.2412 81.1724 67.8843 80.0763 67.5355 78.9803C67.093 77.5942 66.6814 76.1881 66.235 74.8013C66.0761 74.868 65.9312 74.925 65.8292 74.9697C65.0576 75.3031 64.278 75.6282 63.5016 75.9512C62.5685 76.3358 61.6344 76.7257 60.6962 77.1012ZM53.1136 40.4592C52.8986 40.5574 52.6715 40.6479 52.4481 40.7255C52.8685 42.433 53.1561 44.1768 53.6124 45.8734C54.1371 45.6349 54.7409 45.452 55.3142 45.3745C54.6847 43.6972 53.8353 42.1008 53.1136 40.4592ZM41.958 82.9997C41.5414 83.2624 40.8466 83.758 40.7668 84.2001C40.8618 84.4322 40.946 84.6717 41.0524 84.8937C41.4159 85.6492 42.5489 86.0317 43.572 86.2552C43.0503 85.1623 42.5095 84.0779 41.958 82.9997ZM43.7874 89.293C44.1024 90.3664 44.3695 91.4498 44.7271 92.5054C44.878 92.954 45.0243 93.4059 45.1663 93.8583C46.0201 93.9567 46.9645 93.9621 47.7909 93.9672C49.465 93.9799 51.1474 93.9265 52.8182 93.8478C57.218 93.6384 61.6457 93.2362 66.0113 92.6582C69.6772 92.1735 85.1479 89.9511 86.5396 85.8529C86.4764 84.6149 86.3659 83.3762 86.1893 82.1497C85.1197 83.3308 83.6046 84.392 82.3804 84.8973C80.7782 85.5598 79.3615 85.9776 77.6574 86.2562C76.726 86.4065 75.8148 86.5429 74.8931 86.7574C69.9804 87.8978 65.3481 88.6986 60.3128 88.9698C57.0639 89.1458 53.8247 89.2124 50.5762 89.4374C49.1484 89.537 47.7126 89.6352 46.2825 89.5798C46.0893 89.6048 45.893 89.5953 45.706 89.5508C45.0584 89.5032 44.4183 89.423 43.7874 89.293ZM45.6768 67.9343C48.584 74.1576 51.7439 80.2774 55.2672 86.1722C57.0514 86.1472 58.8329 86.195 60.616 86.1834C60.5217 85.9108 60.4283 85.6411 60.3247 85.3749C59.2911 82.7309 58.3368 80.1412 57.5766 77.4058C57.3296 76.5201 57.0879 75.6354 56.8253 74.7536C56.3217 73.0631 55.5982 71.2787 54.9776 69.6192C54.5259 68.4132 54.0716 67.2066 53.6257 65.9989C53.533 65.747 53.3848 65.3857 53.2496 65.02C51.1101 66.5412 48.32 68.0453 45.6768 67.9343ZM27.9107 29.6135C26.3565 29.7139 24.9769 30.7829 25.0756 32.4629C25.1476 33.6971 25.9724 34.9389 27.1564 35.3607C28.8496 35.9616 30.7058 34.7158 30.8314 32.9312C30.9518 31.1822 29.8168 29.4512 27.9107 29.6135ZM30.1944 52.3549C31.3052 54.586 32.4437 56.806 33.5542 59.0384C33.8829 58.8542 34.2089 58.6628 34.4909 58.4238C36.4083 56.792 39.208 58.8691 36.0628 61.0543C35.6606 61.3346 35.2857 61.5115 34.8984 61.7701C36.3449 64.738 37.7467 67.7274 39.0966 70.741C39.1095 70.7298 39.1225 70.7187 39.1365 70.7091C39.3479 70.5356 39.5553 70.3546 39.7534 70.1651C39.8028 70.1187 39.8498 70.0705 39.8954 70.0221C40.6895 68.3989 43.2387 69.6453 42.5976 71.3865C42.3537 72.0463 41.7631 72.427 41.2583 72.8645C40.9683 73.1169 40.6726 73.3641 40.3665 73.5945C41.6508 76.3924 43.1708 79.0756 44.6258 81.7874C45.081 81.5726 45.5447 81.392 46.003 81.1602C46.0225 81.1502 46.0399 81.144 46.0592 81.1354C46.4357 80.9859 46.8458 80.9906 47.2037 81.1877C48.3625 81.8245 48.257 83.9153 46.7795 84.121C46.5161 84.1586 46.2535 84.2791 46.0038 84.4251C46.384 85.1783 46.7536 85.9377 47.1039 86.7058C48.6859 86.7325 50.2879 86.5067 51.8714 86.3507C45.2875 75.0178 40.0588 63.2842 35.1811 51.1238C33.8384 47.7738 32.713 45.2362 35.6645 42.3231C36.3873 41.6117 37.2188 40.972 38.1509 40.5642C36.6747 36.6725 35.0963 32.8051 33.1828 29.1058C31.7802 26.3889 30.9659 26.6532 28.3024 27.7334C25.533 28.8576 22.3805 30.465 20.3224 32.6904C20.475 33.4717 22.3117 36.2384 22.6975 36.8313C23.3311 37.8109 24.1966 39.0671 24.7678 40.2141C25.6027 39.7162 26.4127 39.257 27.3325 38.8496C29.2503 37.7672 30.4812 40.9674 28.3979 41.7083C27.5365 42.0141 26.676 42.4964 25.8795 42.9919C26.7725 45.2122 27.7745 47.3864 28.8126 49.5415C29.3934 49.1481 30.0462 48.8332 30.6448 48.5041C32.4121 47.4072 34.1225 49.856 32.5555 51.0419C32.5366 51.056 32.5208 51.068 32.5008 51.0805C31.7883 51.5185 30.8931 51.8601 30.1944 52.3549ZM41.2506 40.1839C44.266 40.7496 46.5736 43.9081 47.9639 46.4288C48.9997 48.3054 49.8156 50.2848 50.694 52.2351C50.6888 51.4854 50.7492 50.7331 50.9171 49.9791C51.2394 48.5215 51.472 48.6707 51.0355 47.2966C50.296 44.9585 49.8946 42.575 49.315 40.2016C49.2281 39.948 49.1415 39.4965 49.0958 39.2981C48.9239 38.5552 48.7577 37.8108 48.5931 37.0652C48.096 34.8022 47.634 32.5254 47.219 30.2438C46.5549 28.4827 49.2985 27.4459 50.0666 29.2238C50.5999 30.4573 51.4914 31.8282 52.2174 32.9674C52.8577 33.9768 53.519 34.9751 54.1897 35.967C54.3638 36.226 55.1142 37.241 55.2029 37.5071C56.2223 40.5255 58.0259 43.2006 58.7646 46.2914C58.9364 46.6639 60.1957 47.9542 60.5275 48.3417C61.0032 48.889 61.5165 49.5179 61.8459 50.1653C61.8601 50.191 61.8695 50.2131 61.8796 50.2394C65.3649 59.7011 68.1108 69.5131 70.821 79.2397C70.9816 78.6268 71.1366 78.0141 71.2933 77.4005C70.7855 72.8405 69.2633 68.4981 67.7721 64.1858C64.7972 55.5857 61.6647 45.3313 61.1396 36.2364C61.0272 34.303 60.6911 31.8313 61.4141 29.9426C58.254 28.8874 56.7661 26.4028 56.9269 22.8899C57.0839 19.4551 59.9822 13.3106 58.2528 10.172C58.0781 10.0688 57.9063 9.96482 57.7332 9.86061C57.141 9.50862 56.8738 8.85514 57.015 8.2006C56.974 6.9668 58.4714 6.06626 59.5172 6.98854C59.8444 7.27749 60.1367 7.60069 60.3939 7.95252C63.8768 10.1626 66.6903 12.6885 67.796 16.8285C68.7829 20.5217 68.7481 26.2512 65.8677 29.1614C65.7797 29.6332 65.4903 30.0349 65.0921 30.2644C65.898 31.7089 66.812 34.0131 67.2267 35.0101C68.6307 38.3878 69.9427 41.8148 71.2381 45.236C72.9635 49.7982 74.6115 54.3893 76.315 58.9596C76.3258 58.9236 76.335 58.8887 76.3443 58.8538C76.7211 57.5691 77.0879 56.2799 77.4569 54.9938C78.481 51.4265 79.5014 47.8571 80.541 44.2941C81.6286 40.5758 82.7272 36.8488 83.9174 33.162C84.2136 32.2515 85.4082 28.3376 86.1649 27.4521C87.466 25.7283 90.8052 26.2961 92.5697 26.7978C94.1028 27.2319 98.0341 28.7037 97.7952 30.79C97.7929 30.8167 97.7903 30.8379 97.7843 30.8626C94.4371 46.1682 90.704 61.3245 86.9896 76.5413C87.1761 76.6534 87.351 76.7702 87.5527 76.9543C88.1456 77.4909 88.5126 78.1766 88.659 78.9621C89.2012 81.3977 89.3385 84.1713 89.412 86.6618C89.5052 89.9182 89.4449 93.1907 89.3363 96.4461C89.1577 101.834 88.7935 107.2 88.544 112.583C88.4085 115.517 87.7314 121.861 86.5172 124.412C85.4029 126.755 83.8415 128.819 81.9136 130.551C74.8121 136.92 63.9186 137.933 55.2498 134.49C50.5099 132.605 48.1442 122.828 47.146 118.381C46.4271 115.177 45.8581 111.94 45.3289 108.702C44.9813 106.575 44.6914 104.284 44.2062 102.19C43.4564 98.9632 42.543 95.5441 41.5024 92.3998C40.9953 90.866 40.6912 89.2548 39.9852 87.791C36.5251 85.6476 36.9925 81.3931 40.5144 80.2195C32.8745 65.5414 25.8895 50.5013 18.2963 35.798C16.5929 33.5742 16.8338 31.5792 18.9871 29.7663C20.7606 28.2731 22.823 26.8379 24.8478 25.7131C27.3343 24.3313 31.8069 22.3084 34.1594 24.9572C37.7028 28.95 39.4576 35.1561 41.2506 40.1839Z" fill="#36347F"/>
</svg>
