<?xml version="1.0" encoding="utf-8"?>
<svg width="107" height="100" viewBox="0 0 107 100" fill="none" xmlns="http://www.w3.org/2000/svg">
<path fill-rule="evenodd" clip-rule="evenodd" d="M85.6103 15.7133C82.6746 16.0351 79.5946 19.3119 78.7519 21.9479C78.5819 22.4873 77.7588 25.1128 77.8491 25.9294C78.6481 25.7327 81.4559 24.1115 81.9915 23.8328C84.2756 22.6527 86.6982 21.6856 89.2712 21.4666C88.6588 19.6591 87.8191 17.5893 86.5161 16.3898C86.2362 16.1335 85.9323 15.9085 85.6103 15.7133ZM96.8427 78.9724C98.8559 77.6134 100.923 75.9892 102.419 74.1594C105.946 69.8426 101.05 60.528 99.5736 56.001C97.3497 49.1838 95.8376 42.167 93.6814 35.3319C92.6251 31.9777 91.6952 28.5817 90.5125 25.2693C90.4644 25.1292 90.4162 24.9921 90.3681 24.8535C88.6768 24.7999 86.659 25.5926 85.0716 26.3153C88.5263 37.0321 89.9452 48.5133 92.0036 59.5564C93.2224 66.1054 94.6609 72.6603 96.8427 78.9724ZM86.5567 83.9285C89.1327 83.2117 91.322 81.9943 93.7867 80.8082C91.4965 74.4082 89.9738 67.7579 88.7069 61.0927C86.6064 50.0645 85.2146 38.5833 81.8787 27.8367C80.4026 28.5624 78.943 29.3328 77.5241 30.1613C77.5241 30.9585 77.5617 31.7542 77.6325 32.5499C78.1561 38.4641 79.9331 44.2397 81.8215 49.8484C84.8173 58.7428 88.558 68.2303 88.0479 77.7595C87.9425 79.7055 87.455 82.0107 86.5567 83.9285ZM19.9311 74.8925C17.3972 74.0938 15.3674 72.0539 14.2795 69.6682C13.294 69.8217 12.2979 69.9186 11.3003 69.9513C11.5892 72.3072 13.5182 78.6684 13.95 80.1093C15.0033 83.6394 16.1032 87.1813 17.2708 90.6771C18.4128 94.1043 20.9754 96.7195 24.8333 96.4423C29.3955 96.116 33.9983 95.5274 38.5199 94.8628C44.2858 94.009 50.0442 92.9823 55.7454 91.7604C60.118 90.8246 64.4816 89.7682 68.7744 88.5224C72.5421 87.4302 76.3415 86.18 79.9391 84.6199C84.7827 82.5159 84.7767 76.323 84.2034 71.9168C83.6813 67.9129 82.9966 63.9105 81.7748 60.0496C81.5205 59.2465 81.1444 58.485 80.8088 57.7087C77.8506 58.9261 74.581 59.622 71.3775 59.6667C71.3745 62.1 70.5816 64.6868 69.0513 66.5793C69.0543 66.5852 69.0543 66.5867 69.0573 66.5927C69.8653 69.4298 70.9321 72.191 71.8831 74.9864C72.2517 76.0742 71.3008 77.3258 70.1346 77.2215C69.0212 77.1202 67.8881 77.232 66.9161 77.8206C66.3308 78.1737 65.9562 78.3942 65.2384 78.3942C64.2709 78.3942 63.6104 77.6745 63.4945 76.7611C63.1695 74.1698 62.2171 71.3982 61.0931 69.0409C61.066 68.9843 61.0434 68.9276 61.0239 68.871C57.9874 67.7505 55.8628 64.7077 55.4204 61.5591C51.4977 62.2967 47.5795 63.2534 43.6839 64.1027C40.9665 64.6973 38.234 65.271 35.488 65.7284C33.5078 66.0607 31.4118 66.3617 29.3804 66.4332C29.4181 68.9947 28.6763 71.8348 26.7578 73.5872C28.0293 76.1308 28.7515 79.2361 29.0359 82.0047C29.1021 82.6604 28.3603 83.0344 27.8818 83.3026C27.2995 83.6289 26.6751 83.9195 26.0491 84.155C24.6663 84.681 22.0617 85.2442 21.8586 83.0597C21.6043 80.306 21.1333 77.4167 19.9326 74.8985C19.9326 74.8955 19.9326 74.894 19.9311 74.8925ZM25.4202 80.613C25.1267 78.6923 24.5219 76.849 23.6206 75.122C23.6085 75.1235 23.5995 75.125 23.5874 75.1279C23.8327 76.6747 24.0975 78.2169 24.3729 79.7606C24.4241 80.0423 24.5279 80.5385 24.6076 81.0198C24.737 80.9513 24.8604 80.8842 24.9447 80.8425C25.0966 80.7635 25.2561 80.686 25.4202 80.613ZM66.5746 74.2398C66.8273 74.1117 67.0862 74.0059 67.3359 73.9523C67.4879 73.921 67.6399 73.8941 67.7934 73.8688C67.199 72.1969 66.6032 70.5295 66.0766 68.8382C65.717 68.9813 65.3438 69.0975 64.9616 69.1735C65.6342 70.8082 66.1879 72.5158 66.5746 74.2398ZM49.7026 16.5343C52.0725 16.1395 54.4349 15.7133 56.7912 15.2573C56.4211 10.3102 54.626 5.62383 49.2904 4.20227C45.6792 3.23818 41.8738 3.32758 38.255 4.20078C34.6844 5.05759 30.8807 6.25711 27.8232 8.32835C24.3714 10.6693 20.9362 15.372 22.5613 19.6501C24.8725 19.358 27.2062 19.2761 29.5294 19.136C29.218 13.0996 31.3606 7.9901 38.0985 6.88892C44.367 5.86076 48.6704 10.9301 49.7026 16.5343ZM46.269 17.0871C45.4956 12.827 41.7941 9.02124 37.1506 10.6022C33.3543 11.8956 32.8006 15.4004 33.0053 18.8559C37.438 18.3582 41.8618 17.7726 46.269 17.0871ZM48.8194 39.3418C48.3048 37.7787 47.8684 36.1142 47.7842 34.4721C44.6289 35.3259 41.4886 36.0174 38.2566 36.5866C34.4226 37.2661 30.6007 37.8546 26.7788 38.5937C27.1671 39.9259 27.5703 41.2342 28.0759 42.5291C35.041 41.8511 41.958 40.6858 48.8194 39.3418ZM26.493 46.1128C28.0383 46.0919 29.7446 45.8922 31.2854 45.7492C34.0134 45.4899 36.7413 45.1874 39.4618 44.8342C42.4952 44.4423 45.6325 43.9998 48.6178 43.3203C49.7041 43.07 53.6178 42.3264 52.9497 40.5294C52.2335 38.6012 51.9597 36.6685 51.7114 34.645C51.5745 33.5229 51.4601 31.3921 50.2955 30.8243C50.0351 30.6947 49.7493 30.6515 49.4588 30.6753C45.181 31.0538 40.7453 31.6916 36.5051 32.3502C33.4837 32.8211 30.3706 33.3411 27.4064 34.0907C26.2583 34.3827 22.6365 35.168 22.8427 36.8324C22.9074 37.342 23.0563 37.9351 23.1692 38.4373C23.3873 39.4058 23.6206 40.3699 23.8809 41.328C24.1532 42.3234 24.4512 43.3531 24.8364 44.3112C25.1162 45.0026 25.5917 46.1232 26.493 46.1128ZM79.1717 54.6302C77.0246 44.0505 71.4858 33.21 74.9692 22.2906C75.8389 19.5756 77.8115 16.591 80.1799 14.5749C76.4679 14.6196 72.5542 15.758 69.0212 16.4091C55.935 18.8142 42.9813 21.4487 29.704 22.672C22.5989 23.3292 14.8212 23.648 8.91984 28.1377C7.95083 28.8753 7.11126 29.7485 6.40406 30.7379C3.1675 35.2649 3.02608 41.7706 3.6761 47.0754C4.22079 51.5099 5.40792 56.0711 6.99836 60.2508C7.38356 61.2656 9.24484 65.7835 10.1898 66.539C11.2671 66.5152 12.343 66.4287 13.4098 66.2782C13.3873 65.8998 13.3873 65.5213 13.4129 65.1413C13.4851 64.1355 13.6807 63.1222 13.9816 62.1567C15.2922 57.9739 18.6295 54.7479 23.2398 56.8579C23.5588 57.0039 23.8252 57.2304 23.9937 57.5195C26.3606 58.5298 28.0067 60.5801 28.8117 62.9732C30.6279 62.924 32.6411 62.5992 34.3865 62.3131C37.2228 61.8527 40.0532 61.2909 42.8669 60.7127C47.1312 59.8336 51.3879 58.8531 55.6597 58.0082C56.9778 52.9463 60.759 50.8617 66.0841 52.0284C66.1984 52.0568 66.2992 52.097 66.391 52.167C68.5442 52.696 70.0203 54.2025 70.7817 56.2007C73.609 56.2305 76.5431 55.6717 79.1717 54.6302ZM63.7804 55.3797C60.4957 55.5063 59.5929 57.9099 59.5297 60.9109C59.4454 64.8314 61.0449 66.6493 65.0187 65.4438C68.1771 63.38 69.754 55.2128 64.3281 55.4393C64.1415 55.4452 63.9579 55.4259 63.7804 55.3797ZM18.8492 59.926C16.7412 61.2268 16.5727 65.2054 17.1068 67.3213C17.8411 70.2359 20.8113 73.4561 23.9606 71.3759C26.0039 70.0199 26.2297 66.7253 25.6444 64.584C24.9056 61.878 23.0608 60.1271 20.1222 60.3521C19.6211 60.3938 19.1712 60.2329 18.8492 59.926ZM60.2565 14.5629C66.9613 13.1771 73.7188 11.6394 80.5756 11.319C85.2461 11.1029 88.6602 11.5693 90.5742 16.1335C94.2727 23.5467 96.3988 31.7154 98.5866 39.6591C100.753 47.5328 103.423 55.259 105.598 63.1312C106.783 67.4212 108.397 74.4187 104.769 77.9591C91.8863 90.5236 43.6674 98.6342 25.3208 99.9455C18.5407 100.43 15.5781 97.6925 13.7514 91.4341C12.5883 87.4525 11.1934 83.5023 9.83771 79.5804C8.21266 74.8761 6.58912 70.1689 5.10701 65.417C2.37301 56.6627 -2.07931 41.3087 1.10007 32.3964C3.64448 25.2559 11.8254 22.0179 18.777 20.3564C17.6259 17.26 19.3518 12.4947 21.0611 10.1016C24.5549 5.19917 30.5557 2.48568 36.287 1.10734C41.4751 -0.142853 47.6186 -0.808922 52.5269 1.74809C57.7858 4.49284 59.7945 9.0451 60.2565 14.5629Z" fill="#0BBC63"/>
</svg>
