<?xml version="1.0" encoding="utf-8"?>
<svg width="95" height="131" viewBox="0 0 95 131" fill="none" xmlns="http://www.w3.org/2000/svg">
<path d="M23.5484 33.1439C6.59327 46.1813 1.6479 72.2521 2.80157 92.4503C3.78493 109.591 12.2721 129.611 32.6746 125.898C58.2135 121.248 77.323 91.8562 86.7275 70.0746C91.7118 58.5159 94.6591 45.9698 92.0208 33.4397C89.558 21.7457 80.642 11.1946 69.3754 7.10244C46.629 -1.16105 25.7253 12.7315 14.4619 31.8106C3.53973 50.312 -0.805075 73.7002 1.16364 95.0078C2.49191 109.449 8.28723 128.036 24.9879 130.202C34.3068 131.408 43.623 125.934 50.8591 120.816C60.9648 113.666 69.347 104.265 76.407 94.1579C95.0748 67.4314 105.962 25.6324 77.4833 1.2801C75.7976 -0.163684 73.3417 2.26591 75.0406 3.72284C97.727 23.1196 93.6016 54.1861 81.7378 78.3317C75.6297 90.7646 67.0893 102.001 56.954 111.411C48.9428 118.844 38.2457 126.789 26.8011 126.852C6.26144 126.962 3.83776 96.6355 4.23643 82.1851C4.85923 59.8458 12.1841 34.7517 28.7863 19.0822C38.0612 10.3327 51.3391 6.3351 63.8742 9.00779C79.0713 12.2432 88.5253 26.1936 89.6267 41.0323C90.6203 54.4944 84.3482 68.3983 78.0775 79.8707C71.0233 92.7669 61.5136 105.101 49.6812 113.955C41.5526 120.037 29.4998 126.166 19.4584 121.121C11.0146 116.879 8.07158 105.915 6.76402 97.384C3.6373 77.0373 8.86969 48.7717 26.0015 35.597C27.7616 34.2408 25.2856 31.804 23.5484 33.1439Z" fill="#FFD600"/>
</svg>
