<?xml version="1.0" encoding="utf-8"?>
<svg width="131" height="129" viewBox="0 0 131 129" fill="none" xmlns="http://www.w3.org/2000/svg">
<path d="M105.81 35.2139C82.5845 28.8562 55.7899 30.1503 34.5678 42.183C14.049 53.818 1.4537 80.9748 11.3787 103.5C21.0487 125.446 50.5298 131.698 71.8437 127.988C93.6034 124.2 111.431 107.12 118.806 86.7762C125.33 68.7743 123.441 47.1661 112.369 31.3524C100.433 14.3113 79.7741 10.282 60.4939 15.1112C35.6916 21.3217 8.38908 41.321 1.26299 66.816C-6.95695 96.2323 26.7179 112.848 50.9962 112.65C79.4569 112.421 108.127 96.3357 122.714 71.99C131.932 56.6084 135.02 37.4503 123.799 22.2917C103.809 -4.70422 56.022 -5.51561 32.649 16.8787C24.9048 24.2983 20.5064 34.4255 18.9507 44.9159C18.6221 47.1408 22.0185 48.097 22.3517 45.8537C28.5333 4.19788 81.4033 -5.91554 112.314 15.9616C129.533 28.1437 130.688 48.5636 121.788 66.354C107.495 94.9451 73.2271 111.878 41.8157 108.709C25.153 107.026 5.9555 95.8967 3.79309 77.8833C1.95699 62.6005 13.8284 48.451 24.2958 38.9053C42.8384 21.9952 73.9257 8.22023 97.7421 22.3147C116.193 33.2349 121.556 57.6059 117.746 77.3386C113.109 101.369 93.5046 120.654 69.4101 124.849C53.3609 127.639 34.9815 123.527 22.6252 112.699C8.62117 100.434 9.34504 80.2117 17.2226 64.7014C32.5755 34.4738 75.8376 30.6675 104.873 38.6134C107.072 39.2179 108 35.8138 105.81 35.2139Z" fill="#0BBC63"/>
</svg>
