<?xml version="1.0" encoding="utf-8"?>
<svg width="149" height="133" viewBox="0 0 149 133" fill="none" xmlns="http://www.w3.org/2000/svg">
<path d="M57.8807 29.8621C10.3806 43.2445 13.9807 124.96 67.7864 123.278C105.735 122.087 164.27 79.3347 143.94 35.8236C133.305 13.0575 106.66 3.31287 83.2448 5.64464C57.7592 8.18335 33.8724 23.5166 17.872 43.0321C2.6137 61.6454 -7.49995 91.7912 7.1195 113.7C21.2428 134.86 52.809 134.837 74.2701 128.541C87.348 124.707 98.2359 117.639 108.251 108.569C119.422 98.4496 129.994 87.294 137.636 74.1825C144.454 62.488 147.838 48.2887 143.271 35.0443C138.178 20.29 125.941 11.5339 111.318 7.65085C83.8611 0.349255 58.3658 12.6105 39.6534 32.2781C23.3963 49.3631 10.9563 74.5373 18.6065 98.4719C26.2802 122.482 53.3551 134.611 76.401 127.272C101.874 119.16 122.441 97.1744 135.256 74.3047C145.317 56.3541 152.72 28.837 136.414 12.0042C122.017 -2.87104 97.1135 -0.438078 79.3093 4.89855C47.3528 14.4788 20.8836 42.0927 26.27 77.6327C26.6258 79.9592 30.1997 79.3921 29.8502 77.0735C24.8826 44.3273 48.1325 20.1143 76.6524 9.60995C95.9362 2.50587 127.173 -0.429318 138.745 21.2899C145.048 33.1124 142.129 48.6019 137.76 60.4487C133.008 73.3457 124.88 84.9992 115.922 95.2678C98.028 115.773 67.3382 136.454 40.338 119.841C12.088 102.465 17.5137 68.3841 33.8551 45.0358C51.6075 19.6751 80.8088 3.28027 111.977 11.5664C130.975 16.6129 143.414 32.8213 141.494 52.7368C139.883 69.464 127.344 84.2357 116.257 95.7911C105.981 106.494 94.9942 116.288 81.2619 122.191C67.8701 127.948 52.6723 129.91 38.2423 127.655C24.814 125.557 12.3931 118.241 6.67039 105.474C0.31054 91.2974 4.59918 73.616 10.9929 60.3362C23.0803 35.2228 49.3227 16.454 76.1031 10.4918C102.222 4.67673 135.628 15.811 143.259 44.4002C149.872 69.1594 128.255 92.1198 109.78 104.672C88.4613 119.16 53.9075 129.28 35.6204 104.467C18.0472 80.6351 30.1037 41.4476 58.4583 33.4633C60.6776 32.8402 60.1241 29.2335 57.8807 29.8621Z" fill="#36347F"/>
</svg>
