<?xml version="1.0" encoding="utf-8"?>
<svg width="268" height="141" viewBox="0 0 268 141" fill="none" xmlns="http://www.w3.org/2000/svg">
<path d="M230 82.3378C228.502 82.689 228.172 81.9567 227.822 81.1974C230.029 79.8623 230.06 79.8571 231.707 79.8235C231.722 80.8601 231.912 81.8914 230 82.3378ZM211.953 87.5865C211.306 87.8955 211.362 88.5106 210.662 88.6971C210.653 87.8868 209.864 88.1123 209.185 88.1338C208.71 88.1448 208.238 88.08 207.741 88.0562C207.293 88.0387 206.766 88.3081 206.43 87.9148C209.029 86.5459 213.382 86.0637 215.408 86.9607C214.294 87.6109 213.039 87.047 211.953 87.5865ZM155.276 98.354C155.021 98.5409 154.424 98.6781 154.171 98.5894C153.526 98.3424 152.102 98.6682 152.402 97.6123C152.625 96.8607 153.446 96.7354 154.307 96.8468C156.546 97.1157 158.521 95.7252 161.436 95.9493C158.891 96.6958 156.895 97.2059 155.276 98.354ZM125.425 112.33C126.673 111.995 127.935 111.658 129.208 111.481C131.816 111.111 134.424 110.742 137.003 110.196C134.049 111.911 130.66 112.932 127.285 113.937C126.816 114.078 126.316 114.132 125.833 114.188C125.179 114.267 124.65 114.143 124.498 113.618C124.338 113.045 124.636 112.551 125.425 112.33ZM159.001 104.533C159.698 104.428 159.911 104.749 160.006 105.121C160.168 105.707 160.512 105.867 161.214 105.406C161.757 105.046 162.381 104.883 162.636 105.454C162.868 105.978 162.212 106.239 161.644 106.453C161.554 106.486 161.45 106.529 161.354 106.526C157.928 106.753 154.783 108.089 151.455 108.616C151.176 108.663 150.832 108.695 150.723 108.234C153.048 106.466 157.674 107.702 159.001 104.533ZM166.628 109.061C168.566 108.679 170.555 108.501 172.417 107.756C172.863 107.575 173.409 107.609 173.491 108.101C173.528 108.32 173.31 108.626 173.006 108.615C170.405 108.557 168.185 109.906 165.691 110.2C165.209 110.263 164.705 110.385 164.341 110.015C164.904 109.394 165.782 109.229 166.628 109.061ZM225.31 94.522C224.325 95.469 223.044 95.5097 221.961 95.4918C220.749 95.4697 219.648 95.349 218.891 96.5202C219.524 95.088 221.12 94.6516 225.31 94.522ZM249.158 66.1135C248.887 66.1141 248.502 66.0923 248.353 65.9605C246.893 64.5552 244.541 64.8386 242.468 64.6107C239.635 64.3056 236.712 64.6914 233.827 64.7377C232.988 64.754 232.267 64.8129 231.612 64.4154C230.758 63.8783 231.273 63.2538 231.544 62.595C232.491 60.2839 233.91 57.9508 232.583 55.6345C231.64 53.9981 231.86 52.2783 232.111 50.4652C232.805 45.6137 230.36 41.6601 224.375 39.9957C221.425 39.1835 218.35 38.4757 214.97 38.6052C214.479 38.6125 213.765 38.8079 213.698 38.1259C213.999 38.024 214.291 37.8755 214.559 37.8609C217.123 37.6989 219.464 37.1627 220.995 35.304C221.208 35.0553 221.489 35.0273 221.788 35.0075C224.562 34.8724 226.585 33.3874 228.939 32.4536C229.938 32.0615 230.687 31.5978 230.832 30.76C230.948 30.0343 231.523 29.856 232.251 30.0267C232.98 30.2051 233.34 29.9813 233.763 29.5659C234.538 28.7918 233.157 28.7055 233.159 28.0551C235.048 27.8558 236.416 27.2 236.529 25.6054C236.548 25.3396 236.803 24.9653 237.078 24.8007C239.098 23.678 239.652 22.2463 239.373 20.5863C239.327 20.3123 239.376 19.9421 239.59 19.7059C241.259 17.7169 241.199 15.5685 241.002 13.5441C240.822 11.5297 240.284 9.46188 238.378 7.957C235.612 5.78167 231.738 5.33301 227.922 5.79221C222.159 6.49374 216.418 7.32603 210.654 7.63877C209.756 7.69037 208.873 7.82602 207.992 7.97416C205.211 8.44818 202.394 8.99076 199.642 9.07235C195.641 9.18797 191.738 9.80085 187.938 10.8274C183.635 11.988 179.213 12.725 174.834 13.3364C172.288 13.6957 169.84 14.3524 167.322 14.694C165.488 14.9399 163.918 15.9036 162.201 16.093C159.297 16.3988 156.489 17.0903 153.677 17.664C146.513 19.1055 139.356 20.5907 132.279 22.4563C130.148 23.0148 127.885 22.982 125.823 23.854C123.522 24.8221 121.088 25.47 118.508 25.9102C114.911 26.5391 111.328 27.2552 107.751 28.1991C104.402 29.0761 101.034 30.0298 97.6357 30.8014C94.606 31.4982 91.7294 32.539 88.7285 33.3126C84.7679 34.334 80.8888 35.4618 76.951 36.5242C72.4196 37.7424 67.9015 39.0401 63.4575 40.4951C61.6952 41.0732 59.8782 41.6093 58.0522 42.0924C53.8794 43.1751 49.7621 44.3989 45.7137 45.7489C42.6001 46.7976 39.3377 47.4343 36.2157 48.4331C32.3562 49.6777 28.4315 50.818 24.8565 52.6199C23.5382 53.2867 22.7192 54.0873 22.8257 55.2879C22.9165 56.2061 22.359 57.0492 21.9015 57.9203C20.9485 59.7202 20.395 61.5329 20.3351 63.4452C20.267 65.9705 22.2173 67.644 23.7829 69.4879C24.9527 70.8684 25.0496 70.7832 23.5036 72.1752C20.3172 75.0503 17.8327 78.0636 17.1887 81.8049C16.6656 84.9704 16.7294 88.0435 16.7384 91.1691C16.7564 95.2939 17.6262 99.2194 18.677 103.134C18.9805 104.277 18.7393 105.168 17.711 106.066C16.0047 107.554 15.3068 109.311 14.6447 111.092C14.2684 112.068 14.8643 112.956 14.4892 113.977C13.9303 115.597 13.9199 117.236 13.8753 118.89C13.8305 120.098 14.6442 121.175 14.2937 122.371C13.7901 124.102 13.8755 125.725 14.4236 127.066C15.9058 127.573 17.5609 126.414 18.8913 127.378C18.3236 128.104 17.3841 128.056 16.7364 128.41C15.3911 129.124 14.7891 130.119 14.9703 131.196C15.1347 132.174 16.1088 132.542 17.5218 132.524C18.4775 132.527 19.4243 132.798 20.3777 132.939C21.352 133.081 22.1802 133.204 21.0506 134.171C20.6788 134.502 21.0433 134.865 21.5257 135.04C22.2508 135.288 23.0064 135.348 23.827 135.247C26.659 134.915 29.3906 135.101 32.1165 135.405C33.9471 135.611 35.8032 135.78 37.723 135.476C41.1913 134.93 44.6131 134.675 48.0827 134.703C50.1205 134.724 52.2863 134.56 54.3494 133.313C56.4123 132.065 59.2197 131.274 61.7199 131.209C63.6043 131.168 65.1644 131.088 66.7654 130.212C67.3189 129.912 68.1598 129.715 68.734 130.105C69.6532 130.751 70.9034 130.53 71.8319 130.285C75.2863 129.373 78.9847 129.345 82.2464 127.665C83.4896 127.024 84.9397 126.573 86.2491 125.948C87.8818 125.166 89.7758 124.804 91.7107 124.685C91.4735 125.638 89.9039 125.282 89.7029 126.355C92.1298 126.515 94.1284 125.641 96.1541 124.739C97.0713 124.333 97.8025 122.822 99.1722 124.162C99.2338 124.245 100.048 124.078 100.253 123.88C101.426 122.727 103.326 122.776 104.713 122.048C107.02 120.835 109.354 122.05 111.656 121.369C111.746 121.34 112.012 121.502 112.03 121.613C112.246 122.802 113.287 122.183 114.023 121.934C118.049 120.543 122.267 119.634 126.453 118.724C127.541 118.485 128.814 117.926 129.533 119.082C129.833 119.545 130.532 119.445 131.135 119.251C132.688 118.751 134.324 118.558 135.327 117.152C136.09 116.109 136.714 116.23 137.577 117.298C137.843 117.654 138.23 117.776 138.779 117.734C139.784 117.665 140.642 117.377 141.585 116.937C143.782 115.917 146.101 114.871 148.656 114.848C149.592 114.839 150.264 115.146 151.248 114.574C152.045 114.115 152.829 115.184 153.919 114.764C154.635 114.486 155.573 114.585 156.093 113.991C156.518 113.494 157.012 113.312 157.588 113.615C158.744 114.252 159.967 113.965 161.257 113.605C163.188 113.08 165.146 112.631 167.088 112.173C167.576 112.054 168.341 111.781 168.523 111.919C169.832 112.9 171.188 112.36 172.613 111.857C173.545 111.539 174.208 112.078 174.974 112.287C173.901 113.843 175.906 112.911 176.006 112.845C177.193 112.062 178.268 111.457 179.472 112.568C179.584 112.668 180.337 112.61 180.359 111.988C180.452 110.177 181.124 109.727 183.059 110.37C184.319 110.771 185.11 110.658 186.178 110.009C187.331 109.307 188.36 110.23 189.478 110.072C192.708 109.617 195.965 109.233 199.116 108.503C200.875 108.093 202.671 108.192 204.352 107.597C205.596 107.155 206.769 106.758 208.033 107.372C208.725 107.705 209.693 107.418 210.252 106.962C211.137 106.269 212.124 106.277 213.06 106.359C215.136 106.515 217.159 106.07 218.903 105.288C220.795 104.438 222.782 104.347 224.664 104.106C228.088 103.675 228.537 103.694 231.031 101.422C231.306 101.163 231.628 100.996 232.045 100.926C233.93 100.603 235.619 99.688 237.574 99.59C238.394 99.553 239.18 99.3134 239.864 98.9359C240.372 98.6503 240.814 98.2573 240.526 97.7741C240.297 97.3563 239.666 97.3809 239.249 97.5518C237.256 98.3609 235.252 97.3159 233.211 98.1282C232.557 98.3952 231.383 98.2163 230.436 97.5942C232.564 97.206 234.285 96.8589 236.126 96.9384C238.493 97.0209 240.919 96.6129 243.259 95.9698C243.958 95.7832 244.518 95.521 244.543 94.7227C239.05 95.8015 233.621 95.7456 228.33 96.8851C226.872 97.1927 224.568 96.818 224.91 98.9492C224.921 99.0162 224.662 99.1782 224.508 99.2042C223.242 99.4298 221.546 100.021 220.866 99.1904C220.161 98.3082 219.065 98.406 217.851 98.1779C222.01 96.4474 226.227 96.0074 230.298 95.1661C230.942 95.0258 231.761 95.0816 232.32 95.2824C233.166 95.59 233.575 95.4716 234.342 94.9295C235.393 94.1844 236.78 93.7382 238.254 93.9035C241.364 94.25 244.342 93.5299 247.257 92.5274C247.827 92.3243 248.398 92.129 248.292 91.4968C246.731 91.1011 245.029 90.9998 243.362 91.1984C237.774 91.8947 232.183 92.2037 226.588 92.5746C222.942 92.8194 219.222 93.8564 215.584 93.1118C215.091 93.0122 214.304 93.151 213.837 93.3992C211.577 94.6102 209.136 94.7468 206.654 94.8262C205.847 94.8482 205.155 95.0783 204.804 95.7313C206.572 96.3211 208.385 95.4782 210.068 95.7524C206.987 96.5203 203.97 97.9531 200.751 97.2438C198.905 96.8481 197.25 97.2192 195.455 97.6026C193.922 97.9357 192.8 98.3502 193.053 99.7646C193.186 100.556 192.666 101.05 191.443 101.055C189.428 101.08 187.469 101.528 185.539 102.053C184.673 102.287 183.489 102.718 182.934 102.342C181.898 101.664 181.177 101.723 180.164 102.414C179.851 102.628 179.393 102.455 179.201 102.169C178.991 101.866 179.151 101.59 179.569 101.425C179.941 101.274 180.323 101.186 180.717 101.069C183.067 100.393 185.627 100.4 187.86 99.3121C188.169 99.1657 188.732 98.9205 189.215 99.2458C190.631 100.196 190.994 100.18 191.815 99.0153C192.204 98.4936 192.512 97.9599 193.083 97.4828C191.84 97.2723 190.692 97.4413 189.467 97.7161C186.266 98.4353 183.002 98.7776 179.793 99.5429C177.179 100.163 174.394 101.182 171.53 100.875C171.351 100.855 170.841 101.128 170.842 101.229C170.855 102.346 169.648 102.067 168.909 102.305C166.537 103.035 164.043 102.097 161.696 103.167C161.532 103.231 161.198 102.95 160.939 102.924C159.29 102.758 157.879 103.628 156.312 103.853C155.209 104.008 156.15 104.5 156.177 104.846C156.176 105.221 155.629 105.276 155.27 105.317C151.687 105.743 148.31 107.212 144.661 107.344C143.918 107.37 142.926 107.517 143.256 108.443C143.434 108.932 142.935 109.085 142.479 109.306C141.787 109.629 140.913 109.913 140.5 110.389C139.928 111.054 139.546 111.144 138.937 110.639C138.477 110.267 137.552 110.629 137.141 110.166C137.858 109.895 138.55 109.566 139.298 109.384C141.069 108.955 141.983 108.057 142.272 106.751C139.831 106.318 139.28 106.441 137.882 107.771C136.485 109.1 136.471 109.115 134.474 108.2C134.144 108.036 133.778 107.842 133.448 107.96C130.985 108.812 128.239 108.267 125.854 109.394C123.999 110.274 122.215 111.387 120.021 110.342C119.729 110.21 119.043 110.476 118.593 110.638C118.144 110.802 117.858 111.181 117.259 111.12C114.926 110.855 112.726 111.758 110.462 112.094C109.67 112.207 108.881 112.335 108.085 112.418C107.694 112.46 107.238 112.392 107.11 112.102C106.929 111.687 107.29 111.376 107.765 111.178C110.409 110.077 113.125 109.125 116.024 108.688C116.597 108.598 117.102 108.575 117.514 109.044C118.239 109.854 118.929 109.8 119.41 108.975C119.683 108.518 119.351 107.866 120.231 107.619C122.322 107.009 124.248 105.798 126.515 105.86C129.23 105.936 130.425 104.347 131.156 103.023C131.68 102.078 132.344 101.396 133.114 101.718C133.9 102.049 136.187 101.282 135.472 103.078C135.184 103.822 135.998 103.935 136.699 103.948C137.305 103.958 137.951 104.114 137.849 103.13C137.771 102.479 139.182 102.173 139.651 102.694C139.902 102.96 139.723 103.502 140.67 103.08C140.701 102.418 141.099 101.57 140.04 101.223C139.352 101.007 139.039 100.753 139.356 100.275C139.71 99.7336 140.386 99.7879 140.838 100.112C141.493 100.603 141.986 100.414 142.591 99.9488C143.084 99.5729 143.56 99.0989 144.665 99.3374C143.702 100.319 144.83 100.692 145.864 101.269C143.919 101.514 142.404 101.769 142.394 103.316C144.122 103.481 144.122 103.481 145.219 102.817C145.938 102.371 146.755 102.027 147.643 101.826C150.079 101.285 152.371 100.269 154.946 100.174C155.688 100.142 156.677 99.8829 157.182 99.4795C159.01 97.9711 161.2 97.3835 163.657 97.3451C163.773 95.1047 163.774 95.111 166.545 94.4833C168.842 93.9658 171.206 94.2248 173.509 93.3621C174.407 93.0302 175.338 92.7103 176.158 92.2907C177.637 91.5423 179.123 91.2109 180.687 91.7244C181.327 91.9355 182.083 92.1767 182.659 91.8236C183.966 90.9969 185.347 90.4205 186.981 90.2083C187.37 90.162 187.712 89.8354 187.659 89.5193C187.62 89.1882 187.237 89.0844 186.795 89.1074C185.316 89.1944 183.779 89.1278 182.448 89.9072C181.408 90.5272 180.385 90.6801 179.062 90.3772C182.051 89.436 184.744 88.2514 187.563 87.8095C190.07 87.4119 192.231 86.5554 194.466 85.7602C196.611 85.0055 198.47 84.1486 200.946 84.8836C202.82 85.4443 205.05 84.4306 207.112 84.2214C207.363 84.1986 207.724 83.981 207.821 83.8029C208.653 82.2299 210.61 82.1459 212.199 81.5777C212.805 82.2524 211.033 82.5871 211.83 83.2601C213.149 83.2578 214.789 82.7129 215.022 81.9228C215.419 80.5991 216.49 80.5375 217.652 80.2668C218.817 80.0085 219.844 79.5988 220.364 80.8933C220.64 81.5914 221.764 82.0334 223.062 81.2467C223.982 80.6724 225.176 80.7728 226.246 80.5239C227.073 80.3338 227.53 80.6892 227.776 81.2098C226.971 82.2834 225.74 82.5225 224.253 82.5659C220.411 82.6867 216.565 83.2518 212.741 83.7634C212.351 83.8097 211.906 83.9981 211.688 84.2095C210.458 85.4041 208.836 85.6833 207.088 85.7771C206.331 85.8162 205.305 85.8574 205.224 86.6973C205.076 88.5602 203.308 88.8208 201.448 89.0968C200.251 89.2596 199.071 89.5203 197.909 89.791C197.019 89.9838 196.606 90.4537 196.549 91.0637C197.486 91.6266 199.426 90.6872 199.489 92.2906C199.497 92.5263 201.254 92.2004 202.172 91.7019C203.424 91.0222 203.465 91.0777 205.894 91.156C206.15 91.1643 206.456 90.9991 206.706 90.8771C207.408 90.5141 207.943 90.3935 208.3 91.0957C208.649 91.7512 209.471 91.3503 210.145 91.2931C211.755 91.1344 212.749 89.9539 214.109 89.6323C215.562 89.2935 217.226 89.739 218.661 88.9102C218.748 88.8635 218.846 88.7846 218.924 88.7778C220.397 88.7432 221.871 87.019 223.377 88.4165C224.868 87.7352 226.466 87.2168 228.165 87.2112C228.769 87.2106 229.622 87.0863 229.956 87.6546C229.672 88.3284 228.264 87.7951 228.207 88.9688C230.407 88.4419 232.653 89.3228 234.808 87.9598C235.396 87.5854 236.1 87.6112 236.797 87.6941C238.605 87.8577 240.169 88.3713 241.684 89.0613C241.045 89.513 240.083 89.0855 239.766 89.9456C241.183 89.9588 242.497 89.549 243.829 89.3442C243.569 88.5506 244.63 87.6773 243.584 86.8459C245.066 86.7714 246.148 86.6839 247.224 86.6598C247.999 86.6352 248.698 86.4426 249.074 85.9421C249.908 84.8508 250.833 84.2069 252.476 84.8128C252.814 84.9321 253.308 84.7482 253.55 84.4881C253.96 84.0878 253.622 83.7827 253.266 83.5544C252.894 83.3287 252.335 83.2162 252.113 82.9349C251.757 82.4263 251.616 81.587 252.456 81.3833C253.571 81.1142 254.975 79.5395 256.106 81.2563C256.366 81.6689 257.301 81.6495 257.978 81.1417C257.377 80.0243 256.295 79.2615 254.805 78.9052C255.044 78.2455 255.664 77.773 256.108 77.7672C258.676 77.7292 258.411 76.5344 258.241 75.3317C258.128 74.5677 258.635 74.2711 259.555 73.7913C260.651 73.218 261.957 73.0433 263.001 72.4482C260.741 69.1199 254.132 66.1145 249.158 66.1135Z" fill="#FFD600"/>
</svg>
