<?xml version="1.0" encoding="utf-8"?>
<svg width="133" height="103" viewBox="0 0 133 103" fill="none" xmlns="http://www.w3.org/2000/svg">
<path fill-rule="evenodd" clip-rule="evenodd" d="M49.1323 50.4269C50.6417 51.5949 52.1537 52.7576 53.6683 53.9162C60.123 58.8469 66.6363 63.7096 73.2297 68.4496C78.7177 72.3949 84.2777 76.2855 89.9564 79.9589C90.8084 78.8975 91.8417 77.8615 92.779 76.9202C94.4617 75.2255 96.1977 73.5775 97.9297 71.9348C102.391 67.7042 106.892 63.5149 111.282 59.2068C115.088 55.4669 118.88 51.6202 122.354 47.5682C124.708 44.8255 127.694 41.1495 129.096 37.8015C129.458 36.9402 129.45 35.5695 129.331 34.3322C126.134 38.5162 122.716 42.5136 119.18 46.4162C114.871 51.1682 110.402 55.7735 105.992 60.4309C101.302 65.3882 96.691 70.4015 92.315 75.6389C91.711 76.5775 89.2057 77.2095 88.291 76.8175C88.243 76.7962 88.2017 76.7735 88.155 76.7429C83.5857 73.5309 79.0963 70.1549 74.6243 66.8095C68.6457 62.3309 62.687 57.8255 56.7204 53.3295C54.6604 51.7762 52.5977 50.2242 50.535 48.6735C50.0897 49.2775 49.623 49.8642 49.1323 50.4269ZM92.3844 83.0415C92.095 84.4335 90.5297 85.8575 89.203 84.7962C87.4337 83.7708 85.6697 82.5095 84.0017 81.3309C81.279 79.4029 78.5937 77.4229 75.919 75.4309C68.9057 70.2069 61.963 64.8829 55.035 59.5469C52.259 57.4082 49.4857 55.2656 46.7123 53.1216C45.3764 56.1336 44.047 59.1495 42.7337 62.1708C41.331 65.3935 39.8937 68.6562 38.631 71.9149L38.583 72.0469C37.4417 75.2136 40.4803 79.6869 42.4097 81.9202C47.8043 88.1642 56.459 92.6428 64.0297 95.5735C64.9563 95.9322 65.8883 96.2762 66.827 96.6068C66.839 96.6095 66.8497 96.6122 66.863 96.6162C76.2297 99.9202 85.7177 99.3069 94.7683 95.3856C99.4563 93.3536 104.419 90.2135 108.179 86.6642L107.18 68.4722C104.294 71.1949 101.384 73.8908 98.519 76.6322C97.2883 77.8108 96.059 78.9989 94.8737 80.2242C94.0843 81.0389 93.2497 81.9162 92.5697 82.8255C92.5124 82.9015 92.451 82.9735 92.3844 83.0415ZM46.131 48.0975C46.6163 47.5562 47.071 46.9882 47.499 46.4002C43.019 43.0469 38.5283 39.7056 33.9977 36.4216C30.9537 34.2136 27.8523 31.9589 24.6923 29.8975C24.6097 30.2482 24.5537 30.6042 24.5977 30.7949C31.671 36.6855 38.8697 42.4375 46.131 48.0975ZM16.1177 64.7242C15.8164 64.6696 15.5283 64.5389 15.271 64.3429C15.2043 64.2895 15.071 64.2028 14.9403 64.1348C14.9723 64.6295 15.1764 65.3149 15.4484 65.6455C15.459 65.6589 15.4804 65.6749 15.4497 65.6776C15.7937 65.6496 15.9217 65.5735 16.2003 65.3669C16.2017 65.3669 16.203 65.3669 16.2043 65.3642C16.175 65.1522 16.147 64.9376 16.1177 64.7242ZM126.799 30.9949C125.396 30.4589 124.004 29.8149 122.659 29.1776C120.443 28.1282 118.254 27.0109 116.08 25.8775C110.702 23.0682 105.382 20.1175 100.095 17.1402C93.671 13.5229 87.287 9.84286 80.903 6.1562C79.1124 5.12286 76.207 3.04688 74.2683 4.83621C73.427 5.61354 72.0043 6.36554 70.9883 6.90288C69.147 7.88021 67.243 8.77619 65.3484 9.64819C60.271 11.9842 55.1097 14.1709 49.967 16.3549C44.6523 18.6109 39.319 20.8375 34.0363 23.1682C32.1457 24.0028 30.247 24.8522 28.3963 25.7682C27.939 25.9948 27.1417 26.3775 26.4923 26.7615C29.803 28.9509 33.071 31.2242 36.319 33.5055C40.919 36.7375 45.4857 40.0216 50.0217 43.3442C50.043 43.3469 50.0683 43.3496 50.091 43.3549C54.0843 44.0189 60.5683 39.0575 63.5043 36.7095C65.8243 34.8535 68.0537 32.8855 70.2683 30.9068C71.763 29.5722 73.3843 28.0135 74.995 26.8442C75.291 26.6309 75.6884 26.6562 75.9524 26.9082C76.3084 27.2456 76.6337 27.6522 76.9243 28.0469C77.3417 28.6136 78.663 30.2642 77.7963 30.9269C77.499 31.1536 77.2017 31.1242 76.9337 30.9895C76.4097 31.3015 75.8737 31.6935 75.399 32.0348C74.387 32.7668 73.391 33.5269 72.399 34.2856C69.791 36.2722 67.1977 38.2669 64.5257 40.1642C61.599 42.2402 57.6537 44.9415 54.0844 46.3282C54.7484 46.8149 55.4083 47.3015 56.071 47.7895C63.6297 53.3615 71.1603 58.9669 78.691 64.5735C81.311 66.5229 83.9297 68.4776 86.555 70.4189C87.5777 71.1762 88.643 72.0029 89.7056 72.7415C91.843 69.8429 94.455 67.0082 96.8697 64.3802C100.396 60.5429 104.011 56.7802 107.611 53.0122C111.932 48.4922 116.296 43.9642 120.434 39.2776C121.948 37.5629 125.595 33.4709 126.799 30.9949ZM7.84168 64.0695C5.74568 65.7362 4.20835 68.1589 3.80435 70.7562C3.42301 73.2109 -0.354331 72.6042 0.0270028 70.1402C1.167 62.8228 8.75369 56.6882 16.219 58.2095C18.347 54.1922 21.5497 51.8828 26.355 52.1042C29.7043 52.2588 33.0964 53.0962 36.447 52.8415C38.9804 52.6482 41.2897 51.9562 43.3763 50.5389C38.2897 46.5989 33.2097 42.6496 28.111 38.7242C26.3843 37.3962 24.6564 36.0669 22.915 34.7549C22.151 34.1802 21.2403 33.4402 20.427 32.9509C19.559 32.4282 19.1217 31.4148 19.5617 30.4628C20.151 29.0108 21.1897 26.0989 22.543 25.2482C23.483 24.4442 24.8683 23.6735 25.935 23.0695C27.8843 21.9642 29.8844 20.9282 31.883 19.9122C37.2364 17.1935 42.675 14.6069 48.115 12.0602C54.1404 9.2389 60.1937 6.46953 66.2657 3.75352C67.0923 3.38553 74.507 -0.0104599 75.1164 0.000205994C79.1644 0.0695419 79.683 0.848198 82.9883 2.7562C90.8443 7.2922 98.7097 11.8135 106.655 16.1949C114.412 20.4722 122.351 24.7589 130.411 28.4402C130.766 28.5308 131.088 28.7229 131.342 28.9842C131.918 29.1589 132.326 29.6255 132.479 30.2362C133.062 32.6082 133.168 37.0162 132.242 39.2922C130.738 42.9802 127.886 46.7362 125.355 49.7895C122.015 53.8149 118.334 57.6229 114.62 61.3029C113.406 62.5055 112.184 63.6962 110.952 64.8802L112.215 87.8895C112.228 88.1069 112.155 88.3002 112.003 88.4549L111.622 88.8429C108.068 92.4762 102.812 95.9309 98.295 98.1282C87.8257 103.219 76.6163 104.268 65.5417 100.362C64.5563 100.014 63.5777 99.6495 62.603 99.2708C54.3923 96.0962 45.2523 91.2802 39.407 84.5189C36.4177 81.0576 33.175 75.4536 34.843 70.7216C34.8563 70.6869 34.8683 70.6589 34.8737 70.6535C34.8897 70.6069 34.903 70.5602 34.9243 70.5136C36.2057 67.2029 37.655 63.9082 39.071 60.6496C39.7563 59.0722 40.447 57.4962 41.1417 55.9216C39.3057 56.5042 37.399 56.7362 35.4444 56.6735C32.595 56.5868 29.787 56.0762 26.9444 55.9442C23.591 55.7896 21.4257 56.9135 19.8257 59.6202C24.0603 62.6282 24.8844 75.7202 20.815 78.5415C19.603 79.3802 18.3363 78.6215 17.931 77.5708C17.7417 77.8535 17.5403 78.1349 17.3217 78.4149C16.947 78.9029 16.3964 79.1828 15.7764 79.1375C14.2724 79.0295 13.383 77.2602 14.3484 76.0095C15.9257 73.9669 16.4763 71.8055 16.503 69.3708C16.0843 69.4642 15.6537 69.4949 15.2257 69.4576C14.239 71.2936 13.4604 73.2255 13.0804 75.2869C12.627 77.7362 8.85902 77.0735 9.31235 74.6295C9.78569 72.0655 10.751 69.6402 12.0124 67.3682C11.863 67.1108 11.7377 66.8402 11.6363 66.5602C11.5377 66.2869 11.4497 66.0055 11.375 65.7202C10.019 67.4109 8.835 69.8922 8.895 71.7469C8.97234 74.1909 5.16169 74.5335 5.08036 72.0335C4.99769 69.4642 6.12435 66.4629 7.84168 64.0695Z" fill="#E51C00"/>
</svg>
