<?xml version="1.0" encoding="utf-8"?>
<svg width="105" height="84" viewBox="0 0 105 84" fill="none" xmlns="http://www.w3.org/2000/svg">
<path fill-rule="evenodd" clip-rule="evenodd" d="M69.1291 29.0658C70.9657 27.6822 73.0571 26.3828 74.9657 25.1511C78.1996 23.0721 81.4612 21.0314 84.7154 18.9817C86.7256 17.7152 99.6319 9.73022 101.16 7.95863C100.917 7.21925 100.029 6.04426 99.6115 5.55195C99.2663 5.14382 97.8284 3.61017 97.3227 3.60651C96.6471 3.95058 95.9088 4.46118 95.272 4.87846C94.0279 5.70386 92.7948 6.5494 91.5636 7.40042C88.1894 9.7412 84.8429 12.1314 81.5166 14.5362C78.0631 17.0289 74.626 19.5453 71.2352 22.1167C70.0465 23.0153 68.8577 23.9249 67.6948 24.8601C67.4161 25.0871 66.8402 25.53 66.4526 25.8887C66.855 26.4432 67.5102 27.1716 67.8443 27.5669C68.2634 28.0574 68.6879 28.5735 69.1291 29.0658ZM63.8868 27.9805C63.0193 28.6522 62.1406 29.3056 61.2657 29.9608C61.0756 30.0999 60.6289 30.422 60.2763 30.7075C61.3617 31.7946 62.4988 33.0537 63.3681 34.3348C64.3132 33.2624 65.3303 32.2558 66.4027 31.3041C65.5813 30.184 64.7359 29.0786 63.8868 27.9805ZM58.0927 44.3092C59.8518 43.5954 62.3419 42.2137 61.9561 40.2719C61.2288 36.6061 58.0872 33.0135 55.0139 30.8575C54.1518 31.3755 53.2787 31.8843 52.4186 32.4168C52.0309 32.6603 50.9271 33.3356 50.2589 33.8407C51.4458 34.7668 52.5016 35.6599 53.5703 36.8348C55.5694 39.0255 57.0904 41.5438 58.0927 44.3092ZM14.741 77.3252C18.3644 80.5555 21.2033 80.6799 27.7266 80.2132C31.8318 79.9167 35.8428 79.4427 39.7209 77.9731C45.8806 75.6415 52.3023 72.1624 56.4407 66.9446C60.3558 62.0068 60.8135 57.4882 59.3516 52.4644C58.7646 66.1448 44.3707 74.4922 31.7635 77.2173C26.368 78.3813 20.1549 79.0273 14.741 77.3252ZM35.8114 38.1489C27.2005 37.2283 13.2384 39.6917 11.2117 49.7704C10.4641 53.5167 11.1397 58.632 13.3455 61.7945C13.8919 62.5778 14.5638 63.244 15.3483 63.7876C21.9583 68.3575 35.8372 63.5515 41.5261 59.0804C45.6442 55.8429 48.8468 50.8996 46.2737 45.6891C44.295 41.6774 40.343 38.6321 35.8114 38.1489ZM9.81071 62.8963C12.406 67.9274 17.8457 68.9688 23.0639 68.837C31.0158 68.632 38.715 65.8776 44.9503 60.9783C55.1947 52.9256 50.414 38.9725 38.9826 35.1841C33.0002 33.2002 23.5143 34.0475 17.8328 36.8184C13.34 39.0109 9.76086 42.5047 8.13835 47.2704C6.36264 52.4863 7.32434 58.0775 9.81071 62.8963ZM9.48948 41.8495C6.13741 46.7415 3.91319 52.5467 4.49648 58.5405C5.8015 72.0526 17.7553 76.5712 29.9102 73.9431C40.642 71.6243 57.1421 64.322 55.8112 51.0442C55.2316 45.2389 51.5196 38.3502 46.3475 35.3598C34.0043 28.224 18.4216 30.5629 9.48948 41.8495ZM65.0977 37.8908C65.3709 38.7693 65.5444 39.6807 65.5703 40.5995C65.657 43.4728 63.2796 45.2847 61.0332 46.6756C64.3963 54.1225 65.5906 61.2217 60.0789 68.1744C55.2723 74.2378 48.3669 78.7857 41.0536 81.3168C35.2188 83.3373 29.1553 83.9761 23.0031 83.9999C20.6791 84.009 18.4143 83.5569 16.2583 82.6949C6.99581 78.987 0.00554437 67.4332 6.80947e-06 57.7096C-0.00553075 50.2169 3.36682 42.8817 8.41892 37.3693C18.1798 27.2961 33.0039 24.1958 45.659 30.8356C46.1962 31.1394 46.7371 31.4121 47.2687 31.7195C48.9668 30.0944 52.6123 28.2478 54.401 27.0765C55.6709 26.2401 56.8339 27.2466 57.7439 28.1983C58.1629 27.8176 58.6262 27.4589 58.8514 27.2741C60.2524 26.1174 61.6811 24.9956 63.1097 23.8755C67.3607 20.5501 71.6671 17.2796 75.9864 14.0366C80.0307 11.0003 84.0971 7.97876 88.206 5.02671C89.6919 3.96156 91.187 2.89824 92.7061 1.87152C93.4796 1.3481 94.48 0.634308 95.3236 0.244484C97.4943 -0.754784 100.616 1.54025 102.072 2.96229C103.619 4.46668 105.553 7.09841 104.852 9.38062C104.479 10.9454 100.112 13.7035 98.9637 14.4721C95.0265 17.1076 90.9471 19.5874 86.9028 22.0618C83.5987 24.0859 80.2798 26.101 77.0053 28.1709C74.8696 29.5161 72.4664 30.9838 70.4932 32.5596C70.2772 32.8964 69.9634 33.1654 69.5887 33.3027C67.9957 34.6497 66.5098 36.1174 65.2159 37.7499C65.1808 37.7993 65.1383 37.8451 65.0977 37.8908Z" fill="#36347F"/>
</svg>
