<?xml version="1.0" encoding="utf-8"?>
<svg width="102" height="80" viewBox="0 0 102 80" fill="none" xmlns="http://www.w3.org/2000/svg">
<path fill-rule="evenodd" clip-rule="evenodd" d="M35.1979 36.692C32.7325 36.7442 30.2689 36.8051 27.8052 36.8833C24.0189 37.0033 20.2341 37.2033 16.446 37.2607C20.6289 39.9196 24.5642 42.9681 28.9358 45.314C30.7935 42.2899 33.0874 39.544 35.1979 36.692ZM65.1705 41.4639C65.5791 42.6325 65.9894 43.7994 66.4118 44.9593C66.9589 46.4774 67.7986 50.6006 68.9465 51.9675C75.0961 51.051 81.2908 50.4563 87.4456 49.5868C84.1129 48.1295 80.4788 47.1208 77.0664 46.0774C72.9787 44.8271 68.9309 43.4898 65.1705 41.4639ZM43.5654 52.0944C45.3833 42.462 46.7805 32.6767 48.9169 23.1051C43.3836 31.0994 38.1394 39.2901 32.5715 47.26C36.1917 48.9538 39.8604 50.5936 43.5654 52.0944ZM39.8344 55.1933C37.1924 54.1551 34.6249 52.9031 32.1405 51.5449C27.3828 48.9451 22.8831 45.9435 18.3124 43.0324C14.881 40.8465 10.776 38.2189 6.88742 36.9285C6.5377 36.8033 5.73612 36.7877 5.3535 36.7807C5.18729 36.7772 4.85145 36.7877 4.47922 36.7981C4.93282 38.2241 5.6063 39.8014 6.11357 41.0621C7.27702 43.9506 8.50278 46.8235 9.7424 49.6789C11.4564 53.6491 13.1999 57.6123 14.997 61.5442C16.7871 59.7808 20.267 58.7774 22.1767 58.2592C27.0348 56.9445 32.2911 56.1898 37.2807 55.5255C38.1343 55.4107 38.9844 55.3011 39.8344 55.1933ZM47.421 53.4439C52.0021 54.4751 60.077 53.2804 65.0406 52.5466C63.4842 48.3225 62.0126 44.0672 60.5167 39.824C58.3422 33.6383 56.14 27.2249 53.5188 21.1644C53.1344 23.1799 52.7171 25.1885 52.286 27.1953C50.3954 35.9982 48.4494 44.4845 47.421 53.4439ZM72.9701 73.4216C78.1675 69.8619 82.8265 66.1612 87.2586 61.6363C89.7275 59.1165 92.0873 56.4663 94.4609 53.8456C87.7538 54.4143 81.0501 55.0281 74.3499 55.6785C67.854 56.3063 61.3547 56.9654 54.8709 57.7253C61.3807 62.3824 66.5885 68.6098 72.9701 73.4216ZM68.8755 75.3119C62.0974 69.7349 56.3096 62.6989 48.5499 58.5322C43.2866 59.2209 38.0217 59.9947 32.8018 60.9616C29.1591 61.6364 25.3744 62.4015 21.8339 63.4971C21.0479 63.7406 17.8311 64.7961 17.0122 65.6987C17.0225 65.7143 17.0295 65.7282 17.0382 65.7456C17.2754 65.7995 17.6061 65.8308 17.8277 65.8795C27.4902 67.9159 36.8618 71.1713 46.6264 72.7538C50.7175 73.4181 54.8207 74.2737 58.9204 74.818C62.2878 75.265 65.541 75.3936 68.8755 75.3119ZM54.883 6.81586C54.7324 8.62442 54.4484 10.4104 54.1628 12.2033C56.3615 12.1511 58.7854 12.7268 61.0569 13.0033C59.1161 10.873 56.8619 8.93745 54.883 6.81586ZM37.7551 32.8019C41.4289 26.6892 45.5547 20.8688 49.6735 15.0518C50.3089 10.4782 51.0672 7.09759 50.617 2.3727C50.4041 0.136337 53.9256 -0.679268 54.961 0.621506C58.6781 5.28379 63.3751 9.25222 67.0057 13.9841C67.9977 15.2727 66.8793 17.0169 65.399 17.123C63.5378 17.2516 61.3132 16.8586 59.4624 16.5978C58.3405 16.4378 56.9226 16.2204 55.6137 16.1717C59.7394 21.7226 61.8377 29.0334 64.0833 35.4678C69.4884 39.2727 76.9694 41.9125 83.197 43.9541C89.1164 45.8983 95.15 47.5678 101.026 49.6285C103.73 50.5728 100.031 55.2924 99.2186 56.3845C96.5697 59.9547 93.4377 63.4084 90.375 66.6238C87.804 69.3297 85.1291 71.9887 82.3538 74.4824C80.8683 75.8162 78.325 78.103 76.5106 78.9203C70.7505 81.8175 54.3186 78.0839 47.7448 77.0214C45.7971 76.7031 43.7697 76.2266 41.8341 75.8145C38.3732 75.0806 34.9158 74.3241 31.4583 73.5712C26.6384 72.5156 21.8149 71.46 17.0018 70.3575C14.7684 69.8479 14.4221 69.561 13.3972 67.5438C12.374 65.5283 11.4512 63.3684 10.5371 61.299C9.08967 58.007 7.67865 54.7029 6.29533 51.3849C4.86006 47.933 3.44383 44.4619 2.12284 40.963C1.62941 39.6431 1.13772 38.3145 0.701431 36.9737C0.443465 36.1808 0.119756 35.2104 0.014146 34.3809C-0.134747 33.2383 0.916132 32.2349 2.01725 32.2349C12.5263 32.2349 23.0251 32.7827 33.5341 32.7827C34.9434 32.7827 36.3492 32.7897 37.7551 32.8019Z" fill="#0BBC63"/>
</svg>
