<?xml version="1.0" encoding="utf-8"?>
<svg width="89" height="93" viewBox="0 0 89 93" fill="none" xmlns="http://www.w3.org/2000/svg">
<path fill-rule="evenodd" clip-rule="evenodd" d="M31.31 82.3177C37.7337 78.8602 40.6036 72.0062 40.2026 64.846C35.5429 64.1532 31.0755 61.5922 29.0399 57.2607C23.0528 57.6953 17.465 61.528 15.2159 67.0959C14.5239 68.8086 14.1844 70.6351 14.2329 72.4697C15.0316 71.7801 15.9775 71.2798 16.9864 70.8853C17.9161 70.5164 19.022 71.36 18.9347 72.3414C18.4997 77.3015 16.7713 81.2881 13.363 84.6381C18.9815 83.9838 25.1919 81.3427 27.1563 75.8069C27.5169 74.7902 28.9494 74.3251 29.6834 75.2568C31.3181 77.3319 31.7756 79.8368 31.31 82.3177ZM46.151 17.6379C43.2116 17.7518 40.2786 17.9699 37.3408 18.0709C34.0505 18.1816 22.2314 30.5168 19.7948 33.0521C14.8554 38.203 10.131 43.4983 5.30467 48.7165C5.09772 48.9571 3.88993 50.1005 3.84628 50.3105C3.80101 50.5222 4.29577 51.0819 4.41865 51.2182C4.77112 51.6063 5.58761 52.6343 6.08236 52.793C6.56095 52.9518 7.32087 52.5685 7.7267 52.3552C9.39205 51.4876 11.0526 50.6104 12.7502 49.8086C18.33 47.1738 23.3325 45.32 29.4474 44.5374C31.0109 34.3751 39.0385 24.9473 46.151 17.6379ZM54.6103 61.2282C55.5481 69.6569 54.557 77.7489 52.2901 85.8954C52.1705 86.3348 51.9522 87.1542 52.2093 87.584C52.4745 88.0282 53.6612 88.5991 54.1188 88.8589C54.2772 88.9487 54.9337 89.3079 55.1342 89.2181C55.3314 89.1299 56.2013 87.7171 56.3791 87.4814C60.4989 81.6746 64.7059 75.9656 68.7205 70.0787C71.4966 66.0102 74.2825 61.8183 76.6948 57.5269C77.4903 56.1093 80.0319 51.5069 79.7312 49.876C79.133 46.6462 78.6948 43.3812 78.0707 40.1579C74.0577 44.8133 69.9348 48.864 65.1295 52.7962C61.6501 55.6443 58.0752 58.3592 54.6103 61.2282ZM85.8898 15.4955C86.0919 11.3885 85.7491 7.2431 85.6974 3.13297C81.2963 3.70547 76.8581 4.19137 72.5152 5.12949C75.3948 8.67836 81.6941 14.1003 85.8898 15.4955ZM50.5375 60.7855C52.08 59.4738 53.6467 58.1908 55.2296 56.9272C49.0872 53.8835 37.4766 45.7289 33.774 39.8965C32.8104 42.4399 32.2186 45.1003 32.196 47.8329C36.1993 55.6234 41.7968 59.2765 50.5375 60.7855ZM59.7858 28.2108C56.9547 31.1374 54.2013 34.2052 51.4688 37.22C51.4995 37.8855 52.9272 39.6431 53.3265 40.0809C53.6984 40.4866 55.5416 42.302 56.1722 42.0261C56.1851 42.0213 56.1964 42.0117 56.2094 42.0005C57.6209 40.7224 58.9839 39.3496 60.3048 37.9753C62.0171 36.1969 63.684 34.3607 65.296 32.4877C63.4593 32.2664 61.8635 31.3025 60.6718 29.7823C60.2935 29.2996 59.9992 28.772 59.7858 28.2108ZM69.9719 19.9103C69.4837 19.5078 68.9242 19.2624 68.2888 19.2288C65.2378 19.0604 62.0235 23.5009 62.3906 26.3233C62.764 29.189 66.4925 30.5569 68.8094 28.9388C70.339 27.8692 71.6874 25.9961 71.6324 24.0717C71.6098 23.3084 71.3948 21.7689 70.997 21.1146C70.74 20.6961 70.4263 20.3401 70.077 19.9953C70.0398 19.9728 70.0043 19.9392 69.9719 19.9103ZM59.8295 23.2138C59.0776 23.9354 58.3485 24.7084 57.6273 25.4589C56.4778 26.66 55.3379 27.8724 54.2061 29.0896C53.0323 30.3548 51.8617 31.6329 50.717 32.9271C50.0266 33.7064 49.1777 34.6237 48.594 35.48C47.2359 37.4782 49.6207 40.5748 50.9304 42.0005C51.8487 43.0044 52.9676 44.0178 54.1236 44.7411C54.8755 45.2158 56.2271 45.9342 57.0372 45.2094C61.6646 40.8908 66.0382 36.4711 69.9525 31.5158C71.5419 30.6435 72.8645 29.2932 73.702 27.696C75.2024 24.8399 74.5686 20.3946 72.5605 17.9314C72.4861 17.7822 72.3843 17.6524 72.263 17.5385C71.3139 16.626 70.1482 16.0471 68.8078 15.9477C65.8134 15.728 62.9904 17.9218 61.3574 20.2262C60.7107 21.1371 60.1803 22.1506 59.8295 23.2138ZM85.6052 18.5761C80.3327 17.1392 72.4522 10.3045 69.3737 5.89604C68.6283 6.10452 67.8862 6.33224 67.1538 6.57759C61.0146 8.6495 55.7421 12.0701 51.2537 16.7014C45.7532 22.3831 39.813 28.3823 35.9261 35.3261C37.3052 41.0768 52.9239 51.6111 58.5506 54.3101C59.8958 53.2549 61.2378 52.2061 62.5668 51.1332C65.0066 49.1623 67.3624 47.1289 69.6114 44.9399C72.3729 42.2506 74.9373 39.3865 77.3706 36.407C81.6682 31.1486 84.6593 25.2953 85.6052 18.5761ZM14.8554 77.1892C15.0672 76.6392 15.2531 76.0699 15.4099 75.4797C15.1529 75.9111 14.9896 76.4066 14.912 76.9679C14.9103 76.9872 14.9071 77.0016 14.9023 77.0208C14.8877 77.077 14.8748 77.1363 14.8554 77.1892ZM42.6586 62.4662C42.8753 62.6971 43.0175 62.9938 43.0563 63.3354C44.2124 73.5329 39.3505 83.0938 29.2146 86.4037C27.934 86.8239 26.8814 85.3983 27.4894 84.2677C28.2299 82.8918 28.7004 81.2384 28.4934 79.67C24.4643 85.6949 15.9581 88.1517 9.00725 87.7171C7.54239 87.6241 7.04925 85.8072 8.25865 84.9893C11.3614 82.8902 13.5522 80.4574 14.8052 77.3175C14.2765 78.4914 12.443 78.3471 12.0291 77.077C10.8618 73.4784 10.9944 69.6842 12.3848 66.1658C15.1981 59.0472 22.5192 54.2619 30.1927 54.2619C31.1014 54.2619 31.711 55.006 31.6527 55.8463C33.2744 59.5812 37.3473 61.0614 41.1 61.8456C39.5397 61.1608 38.0522 60.3077 36.6698 59.2878C33.0982 56.6578 30.3075 52.9598 29.2242 48.6412C29.221 48.6235 29.2146 48.6011 29.2129 48.5818C29.1887 48.4776 29.1774 48.3686 29.1758 48.2595C29.1725 48.0222 29.1758 47.7816 29.1806 47.5426C20.794 48.7438 14.0405 52.3472 6.62886 56.2857C6.04033 56.5952 5.30143 56.5199 4.83417 56.0308C3.37416 54.5137 1.99499 52.9132 0.450907 51.4748C-0.148942 50.9151 -0.158643 49.876 0.471926 49.3388C1.48892 48.4728 2.4574 47.5154 3.39679 46.5693C4.68541 45.2735 5.94655 43.9473 7.19637 42.6099C10.249 39.3513 13.2498 36.0381 16.2717 32.7506C19.8579 28.8522 23.4812 24.9088 27.276 21.2092C28.7683 19.7515 32.8007 15.7969 34.8654 15.3976C39.3069 14.5429 44.5794 14.5734 49.1422 14.6199C53.3168 10.4568 58.0574 6.7989 63.6355 4.69813C71.0585 1.89977 79.0166 1.09315 86.8227 0.0154953C86.9601 -0.00374603 87.1008 -0.00535583 87.2398 0.0122833C88.1242 0.102089 88.7677 0.871857 88.6255 1.75386C88.5737 4.68692 88.8874 7.69053 88.9715 10.6332C89.0766 14.2911 88.9149 17.9025 88.0903 21.4803C86.7338 27.3672 84.3311 32.5502 80.5024 37.2553C80.5041 37.2617 80.5057 37.2681 80.5089 37.2762C81.0522 39.6207 81.5777 41.97 82.011 44.3386C82.4524 46.7392 82.8339 49.2602 82.8921 51.7041C82.9843 55.6042 72.4021 70.555 69.9412 74.0701C65.6404 80.2201 61.1893 86.2466 56.7882 92.3244C56.3791 93.0124 55.3751 93.208 54.7122 92.7574C52.9676 91.5691 51.0953 90.5748 49.2893 89.4844C48.7105 89.1364 48.4728 88.434 48.6555 87.7973C50.9595 79.747 52.4648 71.9068 51.8471 63.5599C51.8342 63.5727 51.8196 63.5855 51.8051 63.5983C51.4364 63.9159 50.9643 64.0394 50.4954 63.9367C47.8147 63.8549 45.1631 63.3642 42.6586 62.4662Z" fill="#FFD600"/>
</svg>
