<?xml version="1.0" encoding="utf-8"?>
<svg width="14" height="12" viewBox="0 0 14 12" fill="none" xmlns="http://www.w3.org/2000/svg">
<path d="M2.0378 12H1.0458L1.74727 11.3171C2.12549 10.949 2.36167 10.4701 2.42517 9.95059C1.43821 9.32008 0.716508 8.49056 0.330179 7.53925C-0.055876 6.58867 -0.10439 5.54224 0.189897 4.51307C0.542998 3.27816 1.37118 2.15259 2.52184 1.34365C3.77224 0.46464 5.32884 0 7.0234 0C9.15808 0 10.9574 0.59704 12.2267 1.72653C13.3702 2.74411 14 4.11667 14 5.59141C14 6.30789 13.8501 7.00504 13.5546 7.66349C13.2487 8.34485 12.8009 8.95155 12.2235 9.46667C10.9524 10.6006 9.15425 11.2 7.02337 11.2C6.23233 11.2 5.40689 11.0972 4.66992 10.9086C3.97235 11.6052 3.02709 12 2.0378 12ZM7.0234 0.8C3.62555 0.8 1.54061 2.77261 0.981594 4.7276C0.45334 6.57507 1.23205 8.32075 3.06467 9.39733L3.26943 9.51763L3.26313 9.75035C3.25064 10.211 3.13784 10.6547 2.93592 11.0557C3.4276 10.8938 3.87376 10.6002 4.22314 10.1984L4.39686 9.99856L4.6545 10.0736C5.37749 10.2841 6.21877 10.4 7.0234 10.4C11.2522 10.4 13.1782 7.90739 13.1782 5.59141C13.1782 4.34405 12.6434 3.18117 11.6722 2.31701C10.557 1.32459 8.9494 0.8 7.0234 0.8Z" fill="#C4C4C4"/>
<path d="M14 5.45455C14 8.46701 10.866 10.9091 7 10.9091C3.13401 10.9091 1.53481e-09 8.46701 1.53481e-09 5.45455C1.53481e-09 2.44208 3.13401 0 7 0C10.866 0 14 2.44208 14 5.45455Z" fill="#C4C4C4"/>
<path d="M2.15385 11.4545L2.69231 9.27273L4.84615 9.81818L3.23077 11.4545H2.15385Z" fill="#C4C4C4"/>
</svg>
