<?xml version="1.0" encoding="utf-8"?>
<svg width="15" height="19" viewBox="0 0 15 19" fill="none" xmlns="http://www.w3.org/2000/svg">
<path d="M13.0053 1.9149C11.7287 0.638306 9.89362 0 7.89894 0C4.86702 0 3.03192 1.2766 1.99468 2.31384C0.718086 3.59044 0 5.26596 0 7.02128C0 9.17554 0.87766 10.7713 2.39362 11.4096C2.47341 11.4894 2.63298 11.4894 2.71276 11.4894C3.03191 11.4894 3.27129 11.25 3.35108 10.9309C3.43086 10.7713 3.51064 10.2926 3.59043 10.0532C3.67022 9.65427 3.59044 9.49469 3.35108 9.17554C2.95214 8.69681 2.71276 8.05852 2.71276 7.26065C2.71276 4.94682 4.46809 2.47341 7.65958 2.47341C10.2128 2.47341 11.8085 3.90958 11.8085 6.22341C11.8085 7.65958 11.4894 9.01597 10.9309 10.0532C10.5319 10.7713 9.81384 11.5692 8.7766 11.5692C8.29788 11.5692 7.89895 11.4096 7.65958 11.0106C7.42022 10.6915 7.34042 10.2926 7.42021 9.89363C7.49999 9.41491 7.65957 8.93618 7.81914 8.45746C8.05851 7.5798 8.37766 6.70214 8.37766 6.06384C8.37766 4.94682 7.65957 4.14894 6.62233 4.14894C5.26595 4.14894 4.22872 5.50532 4.22872 7.18086C4.22872 8.05852 4.4681 8.61703 4.54788 8.85639C4.38831 9.57448 3.35107 13.8032 3.19149 14.5213C3.1117 15 2.39361 18.6702 3.51064 18.9096C4.70744 19.2287 5.82447 15.6383 5.90425 15.2394C5.98404 14.9202 6.3032 13.6436 6.46277 12.9255C7.02129 13.484 7.97874 13.883 8.93619 13.883C10.6915 13.883 12.2075 13.0851 13.3245 11.6489C14.3617 10.2926 15 8.37767 15 6.22341C14.9202 4.78724 14.2819 3.11171 13.0053 1.9149Z" fill="white"/>
</svg>
