<?xml version="1.0" encoding="utf-8"?>
<svg width="45" height="246" viewBox="0 0 45 246" fill="none" xmlns="http://www.w3.org/2000/svg">
<path d="M2.5 36C1.11875 36 0 34.8806 0 33.5059V2.49207C0 1.11728 1.11875 0 2.5 0C3.88125 0 5 1.11728 5 2.49207V33.5059C5 34.8806 3.88125 36 2.5 36Z" fill="#FFD600"/>
<path d="M20.5 54C19.1187 54 18 52.8829 18 51.5079V20.4941C18 19.1194 19.1187 18 20.5 18C21.8792 18 23 19.1194 23 20.4941V51.5079C23 52.8829 21.8792 54 20.5 54Z" fill="#FFD600"/>
<path d="M42.5 41C41.1208 41 40 39.8847 40 38.5078V7.49221C40 6.11526 41.1208 5 42.5 5C43.8812 5 45 6.11526 45 7.49221V38.5078C45 39.8847 43.8812 41 42.5 41Z" fill="#FFD600"/>
<path d="M2.5 84C1.11875 84 0 82.8845 0 81.5103V50.4922C0 49.1153 1.11875 48 2.5 48C3.88125 48 5 49.1153 5 50.4922V81.5103C5 82.8845 3.88125 84 2.5 84Z" fill="#FFD600"/>
<path d="M20.5 103C19.1187 103 18 101.88 18 100.505V69.492C18 68.1171 19.1187 67 20.5 67C21.8792 67 23 68.1171 23 69.492V100.505C23 101.88 21.8792 103 20.5 103Z" fill="#FFD600"/>
<path d="M42.5 89C41.1208 89 40 87.8845 40 86.5078V55.4897C40 54.1155 41.1208 53 42.5 53C43.8812 53 45 54.1155 45 55.4897V86.5078C45 87.8845 43.8812 89 42.5 89Z" fill="#FFD600"/>
<path d="M2.5 129C1.11875 129 0 127.883 0 126.508V95.4945C0 94.1196 1.11875 93 2.5 93C3.88125 93 5 94.1196 5 95.4945V126.508C5 127.883 3.88125 129 2.5 129Z" fill="#FFD600"/>
<path d="M20.5 148C19.1187 148 18 146.885 18 145.508V114.49C18 113.115 19.1187 112 20.5 112C21.8792 112 23 113.115 23 114.49V145.508C23 146.885 21.8792 148 20.5 148Z" fill="#FFD600"/>
<path d="M42.5 134C41.1208 134 40 132.885 40 131.51V100.492C40 99.1155 41.1208 98 42.5 98C43.8812 98 45 99.1155 45 100.492V131.51C45 132.885 43.8812 134 42.5 134Z" fill="#FFD600"/>
<path d="M2.5 178C1.11875 178 0 176.88 0 175.505V144.492C0 143.117 1.11875 142 2.5 142C3.88125 142 5 143.117 5 144.492V175.505C5 176.88 3.88125 178 2.5 178Z" fill="#FFD600"/>
<path d="M20.5 196C19.1187 196 18 194.883 18 193.508V162.495C18 161.12 19.1187 160 20.5 160C21.8792 160 23 161.12 23 162.495V193.508C23 194.883 21.8792 196 20.5 196Z" fill="#FFD600"/>
<path d="M42.5 183C41.1208 183 40 181.885 40 180.508V149.492C40 148.115 41.1208 147 42.5 147C43.8812 147 45 148.115 45 149.492V180.508C45 181.885 43.8812 183 42.5 183Z" fill="#FFD600"/>
<path d="M2.5 228C1.11875 228 0 226.88 0 225.505V194.492C0 193.117 1.11875 192 2.5 192C3.88125 192 5 193.117 5 194.492V225.505C5 226.88 3.88125 228 2.5 228Z" fill="#FFD600"/>
<path d="M20.5 246C19.1187 246 18 244.883 18 243.508V212.495C18 211.12 19.1187 210 20.5 210C21.8792 210 23 211.12 23 212.495V243.508C23 244.883 21.8792 246 20.5 246Z" fill="#FFD600"/>
<path d="M42.5 233C41.1208 233 40 231.885 40 230.508V199.492C40 198.115 41.1208 197 42.5 197C43.8812 197 45 198.115 45 199.492V230.508C45 231.885 43.8812 233 42.5 233Z" fill="#FFD600"/>
</svg>
