<?xml version="1.0" encoding="utf-8"?>
<svg width="20" height="21" viewBox="0 0 20 21" fill="none" xmlns="http://www.w3.org/2000/svg">
<g clip-path="url(#clip0)">
<path d="M0.585067 15.6864H15.8983C16.0356 15.6864 16.1683 15.6384 16.2736 15.5508C16.4207 15.4276 19.7758 12.5414 19.9804 6.31104H3.53434C3.33054 11.9665 0.240637 14.6248 0.208527 14.6513C0.020276 14.8103 -0.0489849 15.0702 0.0357064 15.3013C0.119812 15.5319 0.339001 15.6864 0.585067 15.6864Z" fill="#0BBC63"/>
<path d="M19.4138 2.79546H16.484V2.2095C16.484 1.88136 16.2262 1.62354 15.898 1.62354C15.5699 1.62354 15.3121 1.88136 15.3121 2.2095V2.79546H12.3432V2.2095C12.3432 1.88136 12.0853 1.62354 11.7572 1.62354C11.4291 1.62354 11.1712 1.88136 11.1712 2.2095V2.79546H8.24142V2.2095C8.24142 1.88136 7.9836 1.62354 7.65546 1.62354C7.32732 1.62354 7.06949 1.88136 7.06949 2.2095V2.79546H4.13967C3.81154 2.79546 3.55371 3.05329 3.55371 3.38143V5.13932H19.9998V3.38143C19.9998 3.05329 19.7419 2.79546 19.4138 2.79546Z" fill="#0BBC63"/>
<path d="M17.0259 16.4493C16.7077 16.7142 16.3083 16.8585 15.898 16.8585H3.55371V18.6164C3.55371 18.9402 3.81579 19.2023 4.13967 19.2023H19.4138C19.7377 19.2023 19.9998 18.9402 19.9998 18.6164V12.0479C18.87 14.8195 17.2935 16.2253 17.0259 16.4493Z" fill="#0BBC63"/>
</g>
<defs>
<clipPath id="clip0">
<rect width="20" height="20" fill="white" transform="translate(0 0.413086)"/>
</clipPath>
</defs>
</svg>
