<?xml version="1.0" encoding="utf-8"?>
<svg width="233" height="264" viewBox="0 0 233 264" fill="none" xmlns="http://www.w3.org/2000/svg">
<path d="M121.354 36.1263H111.646V0H121.354V36.1263Z" fill="#FFD600"/>
<path d="M77.8369 47.2421L65.5312 12.3368L72.6423 8.33684L84.9479 43.2422L77.8369 47.2421Z" fill="#FFD600"/>
<path d="M50.347 72.2526L26.6979 48.4778L32.1739 41.6842L55.8229 65.4589L50.347 72.2526Z" fill="#FFD600"/>
<path d="M36.209 108.379L4.85417 97.5255L7.47865 88.9263L38.8333 99.7798L36.209 108.379Z" fill="#FFD600"/>
<path d="M0.893443 152.842L0 142.976L33.0856 138.947L33.9792 148.814L0.893443 152.842Z" fill="#FFD600"/>
<path d="M16.5305 205.642L12.1354 197.073L41.7195 177.853L46.1146 186.421L16.5305 205.642Z" fill="#FFD600"/>
<path d="M50.6667 244.547L43.6875 238.855L63.4007 208.421L70.3854 214.113L50.6667 244.547Z" fill="#FFD600"/>
<path d="M95.3493 264L87.375 262.125L93.9634 227.874L101.938 229.749L95.3493 264Z" fill="#FFD600"/>
<path d="M137.651 264L131.062 229.749L139.037 227.874L145.625 262.125L137.651 264Z" fill="#FFD600"/>
<path d="M182.328 244.547L162.615 214.113L169.599 208.421L189.312 238.855L182.328 244.547Z" fill="#FFD600"/>
<path d="M216.47 205.642L186.885 186.421L191.28 177.853L220.865 197.073L216.47 205.642Z" fill="#FFD600"/>
<path d="M232.107 152.842L199.021 148.814L199.919 138.947L233 142.976L232.107 152.842Z" fill="#FFD600"/>
<path d="M196.791 108.379L194.167 99.7798L225.522 88.9263L228.146 97.5255L196.791 108.379Z" fill="#FFD600"/>
<path d="M182.657 72.2526L177.177 65.4589L200.822 41.6842L206.302 48.4778L182.657 72.2526Z" fill="#FFD600"/>
<path d="M155.165 47.2421L148.052 43.2422L160.361 8.33684L167.469 12.3368L155.165 47.2421Z" fill="#FFD600"/>
</svg>
