<?xml version="1.0" encoding="utf-8"?>
<svg width="182" height="157" viewBox="0 0 182 157" fill="none" xmlns="http://www.w3.org/2000/svg">
<path d="M179.148 18.0625C173.572 18.0625 168.296 14.3291 163.196 10.7183C158.626 7.48177 153.897 4.13435 149.635 4.13435C145.374 4.13435 140.646 7.48177 136.073 10.7183C130.976 14.3291 125.702 18.0625 120.121 18.0625C114.545 18.0625 109.271 14.3291 104.171 10.7183C99.5979 7.48177 94.8723 4.13435 90.6095 4.13435C86.3493 4.13435 81.6186 7.48177 77.0456 10.7183C71.9453 14.3291 66.6717 18.0625 61.0931 18.0625C55.5197 18.0625 50.2435 14.3291 45.1432 10.7183C40.5702 7.48177 35.8421 4.13435 31.5793 4.13435C27.3191 4.13435 22.591 7.48177 18.018 10.7183C12.9202 14.3291 7.64408 18.0625 2.06806 18.0625C0.925458 18.0625 0 17.1365 0 15.9944C0 14.8513 0.925458 13.9233 2.06806 13.9233C6.32827 13.9233 11.0564 10.5789 15.6294 7.34243C20.7297 3.7334 26.0059 0.000291793 31.5793 0.000291793C37.1579 0.000291793 42.4314 3.7334 47.5318 7.34243C52.1048 10.5789 56.8329 13.9233 61.0931 13.9233C65.3559 13.9233 70.084 10.5789 74.6544 7.34243C79.7548 3.7334 85.0309 0.000291793 90.6095 0.000291793C96.1855 0.000291793 101.462 3.7334 106.559 7.34243C111.133 10.5789 115.861 13.9233 120.121 13.9233C124.384 13.9233 129.114 10.5789 133.685 7.34243C138.788 3.7303 144.059 0.000291793 149.635 0.000291793C155.213 0.000291793 160.487 3.7303 165.587 7.34243C170.16 10.5789 174.888 13.9233 179.148 13.9233C180.294 13.9233 181.219 14.8513 181.219 15.9944C181.219 17.1365 180.294 18.0625 179.148 18.0625" fill="#FFD600"/>
<path d="M179.148 38.1235C173.572 38.1235 168.296 34.3873 163.196 30.7793C158.626 27.542 153.897 24.1946 149.635 24.1946C145.374 24.1946 140.646 27.542 136.073 30.7793C130.976 34.3873 125.702 38.1235 120.121 38.1235C114.545 38.1235 109.271 34.3873 104.171 30.7793C99.5979 27.542 94.8723 24.1946 90.6095 24.1946C86.3493 24.1946 81.6186 27.542 77.0456 30.7793C71.9453 34.3904 66.6717 38.1235 61.0931 38.1235C55.5197 38.1235 50.2435 34.3873 45.1432 30.7793C40.5702 27.542 35.8421 24.1946 31.5793 24.1946C27.3191 24.1946 22.591 27.542 18.018 30.7793C12.9202 34.3873 7.64408 38.1235 2.06806 38.1235C0.925458 38.1235 0 37.1976 0 36.0555C0 34.9126 0.925458 33.9874 2.06806 33.9874C6.32827 33.9874 11.0564 30.639 15.6294 27.4027C20.7297 23.7937 26.0059 20.0585 31.5793 20.0585C37.1579 20.0585 42.4314 23.7937 47.5318 27.4027C52.1048 30.639 56.8329 33.9874 61.0931 33.9874C65.3559 33.9874 70.084 30.639 74.6544 27.4027C79.7548 23.7937 85.0309 20.0585 90.6095 20.0585C96.1855 20.0585 101.462 23.7937 106.559 27.4027C111.133 30.639 115.861 33.9874 120.121 33.9874C124.384 33.9874 129.114 30.639 133.685 27.4027C138.788 23.7916 144.059 20.0585 149.635 20.0585C155.213 20.0585 160.487 23.7916 165.587 27.4027C170.16 30.639 174.888 33.9874 179.148 33.9874C180.294 33.9874 181.219 34.9126 181.219 36.0555C181.219 37.1976 180.294 38.1235 179.148 38.1235Z" fill="#FFD600"/>
<path d="M179.148 58.1826C173.572 58.1826 168.296 54.4474 163.196 50.8384C158.626 47.6019 153.897 44.2545 149.635 44.2545C145.374 44.2545 140.646 47.6019 136.073 50.8384C130.976 54.4474 125.702 58.1826 120.121 58.1826C114.545 58.1826 109.271 54.4474 104.171 50.8384C99.5979 47.6019 94.8723 44.2545 90.6095 44.2545C86.3493 44.2545 81.6186 47.6019 77.0456 50.8384C71.9453 54.4505 66.6717 58.1826 61.0931 58.1826C55.5197 58.1826 50.2435 54.4474 45.1432 50.8384C40.5702 47.6019 35.8421 44.2545 31.5793 44.2545C27.3191 44.2545 22.591 47.6019 18.018 50.8384C12.9202 54.4474 7.64408 58.1826 2.06806 58.1826C0.925458 58.1826 0 57.2577 0 56.1146C0 54.9694 0.925458 54.0465 2.06806 54.0465C6.32827 54.0465 11.0564 50.6991 15.6294 47.4626C20.7297 43.8535 26.0059 40.1183 31.5793 40.1183C37.1579 40.1183 42.4314 43.8535 47.5318 47.4626C52.1048 50.6991 56.8329 54.0465 61.0931 54.0465C65.3559 54.0465 70.084 50.6991 74.6544 47.4626C79.7548 43.8535 85.0309 40.1183 90.6095 40.1183C96.1855 40.1183 101.462 43.8535 106.559 47.4626C111.133 50.6991 115.861 54.0465 120.121 54.0465C124.384 54.0465 129.114 50.6991 133.685 47.4626C138.788 43.8517 144.059 40.1183 149.635 40.1183C155.213 40.1183 160.487 43.8517 165.587 47.4626C170.16 50.6991 174.888 54.0465 179.148 54.0465C180.294 54.0465 181.219 54.9694 181.219 56.1146C181.219 57.2577 180.294 58.1826 179.148 58.1826Z" fill="#FFD600"/>
<path d="M179.148 78.3232C173.572 78.3232 168.296 74.5881 163.196 70.977C158.626 67.7397 153.897 64.3923 149.635 64.3923C145.374 64.3923 140.646 67.7397 136.073 70.977C130.976 74.5881 125.702 78.3232 120.121 78.3232C114.545 78.3232 109.271 74.5881 104.171 70.977C99.5979 67.7397 94.8723 64.3923 90.6095 64.3923C86.3493 64.3923 81.6186 67.7428 77.0456 70.979C71.9478 74.5881 66.6717 78.3232 61.0931 78.3232C55.5197 78.3232 50.2435 74.5881 45.1432 70.977C40.5702 67.7397 35.8421 64.3923 31.5793 64.3923C27.3191 64.3923 22.591 67.7397 18.018 70.977C12.9202 74.5881 7.64408 78.3232 2.06806 78.3232C0.925458 78.3232 0 77.3952 0 76.2552C0 75.1102 0.925458 74.1851 2.06806 74.1851C6.32827 74.1851 11.0564 70.8397 15.6294 67.6003C20.7297 63.9913 26.0033 60.2561 31.5793 60.2561C37.1579 60.2561 42.4314 63.9913 47.5318 67.6003C52.1048 70.8397 56.8329 74.1851 61.0931 74.1851C65.3559 74.1851 70.084 70.8397 74.6544 67.6003C79.7548 63.9913 85.0309 60.2561 90.6095 60.2561C96.1855 60.2561 101.462 63.9913 106.559 67.6003C111.133 70.8397 115.861 74.1851 120.121 74.1851C124.384 74.1851 129.114 70.8366 133.685 67.6003C138.785 63.9913 144.059 60.2561 149.635 60.2561C155.213 60.2561 160.489 63.9913 165.587 67.6003C170.16 70.8366 174.888 74.1851 179.148 74.1851C180.294 74.1851 181.219 75.1102 181.219 76.2552C181.219 77.3952 180.294 78.3232 179.148 78.3232" fill="#FFD600"/>
<path d="M179.148 97.9854C173.572 97.9854 168.296 94.2502 163.196 90.6422C158.626 87.4026 153.897 84.0572 149.635 84.0572C145.374 84.0572 140.646 87.4026 136.073 90.6422C130.976 94.2502 125.702 97.9854 120.121 97.9854C114.545 97.9854 109.271 94.2502 104.171 90.6422C99.5979 87.4026 94.8723 84.0572 90.6095 84.0572C86.3493 84.0572 81.6186 87.4026 77.0456 90.6422C71.9453 94.253 66.6717 97.9854 61.0931 97.9854C55.5197 97.9854 50.2435 94.2502 45.1432 90.6422C40.5702 87.4026 35.8421 84.0572 31.5793 84.0572C27.3191 84.0572 22.591 87.4026 18.018 90.6422C12.9202 94.2502 7.64408 97.9854 2.06806 97.9854C0.925458 97.9854 0 97.0604 0 95.9152C0 94.7752 0.925458 93.8472 2.06806 93.8472C6.32827 93.8472 11.0564 90.5018 15.6294 87.2653C20.7297 83.6563 26.0059 79.9211 31.5793 79.9211C37.1579 79.9211 42.4314 83.6563 47.5318 87.2653C52.1048 90.5018 56.8329 93.8472 61.0931 93.8472C65.3559 93.8472 70.084 90.5018 74.6544 87.2653C79.7548 83.6563 85.0309 79.9211 90.6095 79.9211C96.1855 79.9211 101.462 83.6563 106.559 87.2653C111.133 90.5018 115.861 93.8472 120.121 93.8472C124.384 93.8472 129.114 90.5018 133.685 87.2653C138.788 83.6542 144.059 79.9211 149.635 79.9211C155.213 79.9211 160.487 83.6542 165.587 87.2653C170.16 90.5018 174.888 93.8472 179.148 93.8472C180.294 93.8472 181.219 94.7752 181.219 95.9152C181.219 97.0604 180.294 97.9854 179.148 97.9854" fill="#FFD600"/>
<path d="M179.148 117.645C173.572 117.645 168.296 113.913 163.196 110.306C158.626 107.067 153.897 103.722 149.635 103.722C145.374 103.722 140.646 107.067 136.073 110.306C130.976 113.913 125.702 117.645 120.121 117.645C114.545 117.645 109.271 113.913 104.171 110.306C99.5979 107.067 94.8723 103.722 90.6095 103.722C86.3493 103.722 81.6186 107.067 77.0456 110.306C71.9453 113.915 66.6717 117.645 61.0931 117.645C55.5197 117.645 50.2435 113.913 45.1432 110.306C40.5702 107.067 35.8421 103.722 31.5793 103.722C27.3191 103.722 22.591 107.067 18.018 110.306C12.9202 113.913 7.64408 117.645 2.06806 117.645C0.925458 117.645 0 116.722 0 115.58C0 114.435 0.925458 113.512 2.06806 113.512C6.32827 113.512 11.0564 110.166 15.6294 106.927C20.7297 103.316 26.0059 99.5836 31.5793 99.5836C37.1579 99.5836 42.4314 103.316 47.5318 106.927C52.1048 110.166 56.8329 113.512 61.0931 113.512C65.3559 113.512 70.084 110.166 74.6544 106.927C79.7548 103.316 85.0309 99.5836 90.6095 99.5836C96.1855 99.5836 101.462 103.316 106.559 106.927C111.133 110.166 115.861 113.512 120.121 113.512C124.384 113.512 129.114 110.166 133.685 106.927C138.788 103.316 144.059 99.5836 149.635 99.5836C155.213 99.5836 160.487 103.316 165.587 106.927C170.16 110.166 174.888 113.512 179.148 113.512C180.294 113.512 181.219 114.435 181.219 115.58C181.219 116.722 180.294 117.645 179.148 117.645Z" fill="#FFD600"/>
<path d="M179.148 137.338C173.572 137.338 168.296 133.603 163.196 129.997C158.626 126.757 153.897 123.413 149.635 123.413C145.374 123.413 140.646 126.757 136.073 129.997C130.976 133.603 125.702 137.338 120.121 137.338C114.545 137.338 109.271 133.603 104.171 129.997C99.5979 126.757 94.8723 123.413 90.6095 123.413C86.3493 123.413 81.6186 126.757 77.0456 129.997C71.9453 133.606 66.6717 137.338 61.0931 137.338C55.5197 137.338 50.2435 133.603 45.1432 129.997C40.5702 126.757 35.8421 123.413 31.5793 123.413C27.3191 123.413 22.591 126.757 18.018 129.997C12.9202 133.603 7.64408 137.338 2.06806 137.338C0.925458 137.338 0 136.413 0 135.27C0 134.128 0.925458 133.202 2.06806 133.202C6.32827 133.202 11.0564 129.854 15.6294 126.618C20.7297 123.009 26.0059 119.274 31.5793 119.274C37.1579 119.274 42.4314 123.009 47.5318 126.618C52.1048 129.854 56.8329 133.202 61.0931 133.202C65.3559 133.202 70.084 129.854 74.6544 126.618C79.7548 123.009 85.0309 119.274 90.6095 119.274C96.1855 119.274 101.462 123.009 106.559 126.618C111.133 129.854 115.861 133.202 120.121 133.202C124.384 133.202 129.114 129.854 133.685 126.618C138.788 123.009 144.059 119.274 149.635 119.274C155.213 119.274 160.487 123.009 165.587 126.618C170.16 129.854 174.888 133.202 179.148 133.202C180.294 133.202 181.219 134.128 181.219 135.27C181.219 136.413 180.294 137.338 179.148 137.338" fill="#FFD600"/>
<path d="M179.148 157C173.572 157 168.296 153.267 163.196 149.656C158.626 146.42 153.897 143.071 149.635 143.071C145.374 143.071 140.646 146.42 136.073 149.656C130.976 153.267 125.702 157 120.121 157C114.545 157 109.271 153.267 104.171 149.656C99.5979 146.42 94.8723 143.071 90.6095 143.071C86.3493 143.071 81.6186 146.42 77.0456 149.656C71.9453 153.27 66.6717 157 61.0931 157C55.5197 157 50.2435 153.267 45.1432 149.656C40.5702 146.42 35.8421 143.071 31.5793 143.071C27.3191 143.071 22.591 146.42 18.018 149.656C12.9202 153.267 7.64408 157 2.06806 157C0.925458 157 0 156.078 0 154.932C0 153.789 0.925458 152.864 2.06806 152.864C6.32827 152.864 11.0564 149.519 15.6294 146.283C20.7297 142.671 26.0059 138.938 31.5793 138.938C37.1579 138.938 42.4314 142.671 47.5318 146.283C52.1048 149.519 56.8329 152.864 61.0931 152.864C65.3559 152.864 70.084 149.519 74.6544 146.283C79.7548 142.671 85.0309 138.938 90.6095 138.938C96.1855 138.938 101.462 142.671 106.559 146.283C111.133 149.519 115.861 152.864 120.121 152.864C124.384 152.864 129.114 149.519 133.685 146.283C138.788 142.668 144.059 138.938 149.635 138.938C155.213 138.938 160.487 142.668 165.587 146.283C170.16 149.519 174.888 152.864 179.148 152.864C180.294 152.864 181.219 153.789 181.219 154.932C181.219 156.078 180.294 157 179.148 157" fill="#FFD600"/>
</svg>
