<?xml version="1.0" encoding="utf-8"?>
<svg width="200" height="226" viewBox="0 0 200 226" fill="none" xmlns="http://www.w3.org/2000/svg">
<path d="M135.964 75.1481C135.652 75.4369 135.449 75.5109 135.207 75.1166C135.09 74.914 135.095 72.2009 135.226 72.04C135.417 71.8681 135.623 71.866 135.814 72.002C136.701 72.61 136.762 74.4236 135.964 75.1481ZM116.789 100.917C116.26 101.156 116.298 101.726 116.163 102.186C116.041 102.609 115.937 103.088 115.352 103.017C114.928 102.961 114.616 102.613 114.712 102.217C114.856 101.616 114.33 101.429 113.985 101.062C115.886 100.706 116.146 100.445 116.447 98.7222C116.586 97.9077 117.267 98.0066 117.905 97.4897C117.928 98.9692 118.325 100.227 116.789 100.917ZM98.0357 109.223C98.1645 110.316 98.4777 111.462 97.782 112.528C96.5369 111.494 96.8306 110.134 96.9104 108.817C97.4305 108.673 97.988 108.818 98.0357 109.223ZM97.2357 114.674C97.6527 115.174 98.073 115.724 97.823 116.447C97.7271 116.706 97.5945 117.315 97.5257 117.192C97.194 116.566 96.4693 117.926 96.3187 116.9C96.2799 116.657 95.9094 116.602 95.668 116.468C94.7957 115.984 94.8112 115.979 95.3912 115.048C95.7435 114.488 95.5666 114.03 95.1093 113.642C94.9332 113.493 94.7858 113.344 94.9492 113.096C95.126 112.912 95.4397 112.846 95.5169 113.018C95.8818 113.811 96.7368 114.061 97.2357 114.674ZM98.0113 121.026C98.1737 121.734 97.6536 121.813 97.1229 122.032C96.7773 120.821 96.7897 119.63 95.9186 118.76C97.3269 118.875 97.7452 119.869 98.0113 121.026ZM73.2658 123.054C73.1649 122.37 72.4267 121.894 72.6126 121.117C72.7102 120.729 72.697 120.113 73.322 120.269C73.8951 120.409 73.5305 120.858 73.4305 121.197C73.405 121.29 73.4477 121.401 73.4617 121.541C74.1687 121.832 74.7967 120.695 75.544 121.357C75.0365 122.277 73.7532 122.136 73.2658 123.054ZM65.963 146.945C65.8153 146.369 65.7294 145.891 65.5741 145.444C65.2311 144.449 65.8379 144.364 66.734 144.351C66.2717 145.151 67.3241 146.263 65.963 146.945ZM134.259 5.11055C133.562 6.31425 133.315 7.6975 133.229 9.05836C133.151 10.3884 132.256 11.372 131.951 12.6101C131.364 15.0499 131.212 17.5894 130.216 19.9335C130.153 20.0749 130.194 20.2623 130.171 20.4221C129.933 21.7537 129.874 23.1109 129.499 24.4259C129.298 25.1136 129.245 25.8227 129.143 26.5275C128.828 28.678 129.46 31.0462 127.635 32.8499C127.505 32.9802 127.463 33.2752 127.493 33.4777C127.645 34.5998 127.302 35.6476 127.08 36.7176C126.484 39.5916 127.198 42.5856 126.16 45.4204C126.149 45.4653 126.156 45.5306 126.173 45.5844C126.636 46.8397 125.927 47.8555 125.299 48.7716C124.925 49.3089 125.103 49.5302 125.245 50.026C125.541 51.1113 126.516 52.2991 125.108 53.3903C124.667 53.7344 124.999 54.1861 125.189 54.5818C125.789 55.8615 126.415 57.1171 126.538 58.5853C126.658 60.0282 125.842 61.0844 124.337 61.1623C124.72 62.7833 124.704 64.3947 124.128 65.9986C123.969 66.4297 124.173 66.8659 124.198 67.3022C124.237 68.3957 124.388 69.535 123.768 70.5113C123.405 71.0855 123.281 71.4726 123.69 72.1034C124.289 73.0243 123.743 74.0464 123.494 74.9579C123.325 75.5595 122.524 75.2083 122.018 75.2978C121.49 75.3946 121.237 75.6159 121.276 76.1677C121.33 76.9045 121.36 77.6419 121.412 78.6079C120.649 77.6339 121.061 76.484 120.363 75.7299C119.827 76.1952 120.205 76.9042 119.684 77.262C119.163 77.0186 119.036 76.6176 118.99 76.0651C118.912 75.2091 118.924 74.1246 118.286 73.6311C117.555 73.0542 117.56 72.4751 117.64 71.7827C117.694 71.2778 117.862 70.7289 117.408 70.4029C116.792 69.9572 116.859 69.5083 117.044 68.8491C117.275 68.0056 116.961 67.6747 116.033 67.706C115.572 67.7298 115.268 67.6485 115.109 67.2589C114.924 66.7893 114.778 66.1878 115.274 65.9005C116.621 65.13 115.738 63.9295 116.341 62.7028C115.437 63.0736 115.548 64.1752 114.669 63.805C114.553 63.7504 114.551 64.0407 114.559 64.1944C114.579 64.5081 114.714 64.9444 114.228 64.9547C113.822 64.9682 113.831 64.5111 113.72 64.2185C113.551 63.7426 113.622 63.2447 113.607 62.7449C113.569 61.6946 114.018 60.5854 113.168 59.6133C112.946 59.3649 113.034 58.874 113.275 58.525C113.674 57.9417 113.327 57.561 112.865 57.3288C112.295 57.0418 112.013 56.1775 111.055 56.5881C109.351 57.3459 107.666 58.0933 106.175 59.247C105.122 60.067 105.098 60.0313 105.488 61.3782C104.875 61.4629 103.988 61.1637 103.772 61.8884C103.524 62.7069 102.949 63.2313 102.4 63.8294C102.686 63.9788 102.83 64.049 102.973 64.1355C103.275 64.3098 103.898 64.2493 103.767 64.7735C103.593 65.512 104.038 66.3368 103.417 66.9977C103.126 67.3143 102.951 67.0714 102.733 66.9025C102.444 66.6736 102.137 66.3172 101.728 66.5658C101.228 66.8681 101.524 67.3588 101.565 67.7648C101.6 68.2023 101.583 68.6699 102.023 68.9347C102.373 69.1391 102.39 69.425 102.292 69.778C101.743 71.7243 101.903 73.9281 100.134 75.4188C99.753 75.7376 100.089 75.9974 100.274 76.2533C100.445 76.4857 100.614 76.7652 100.901 76.4755C101.352 76.0287 101.891 75.8139 102.353 76.2485C102.84 76.7026 102.35 77.2754 102.252 77.7942C102.211 78.0058 102.137 78.2389 101.999 78.3941C101.641 78.8187 101.249 79.0923 100.816 78.4547C100.465 77.9281 99.838 77.6031 99.8049 76.8473C99.793 76.5231 99.5531 76.2008 99.1279 76.3361C98.7264 76.4715 98.6777 76.7062 98.666 77.1901C98.6204 78.7249 99.9277 79.4084 100.522 80.5221C100.689 80.8351 101.118 80.6721 101.386 80.4291C101.603 80.2392 101.635 79.7466 102.206 80.047C102.171 80.922 102.151 81.8451 102.076 82.7689C101.986 83.9713 101.683 84.0924 100.688 83.4133C100.357 83.1861 100.089 82.6353 99.5853 82.9473C99.0913 83.2546 99.2317 83.8272 99.2627 84.3137C99.2885 84.7627 99.406 85.1913 99.692 85.5371C100.427 86.4324 100.267 87.6112 100.633 88.6307C101.033 89.7475 100.372 90.152 99.2238 89.8581C98.3348 89.6288 97.8199 89.2551 97.6726 88.2786C97.5932 87.7775 97.6216 87.1757 97.2471 86.7265C96.3777 86.7496 96.3325 87.3675 96.2989 87.9896C96.184 90.3548 96.4285 92.6601 97.0618 94.9389C97.2379 95.5618 97.5049 95.9706 98.1573 96.1356C98.4943 94.6907 98.8185 93.3666 98.7752 91.9836C98.7684 91.6528 98.8867 91.303 99.2811 91.223C99.654 91.1476 99.9152 91.3982 100.088 91.673C100.276 91.9862 100.196 92.3154 99.9429 92.5835C99.8329 92.6948 99.6726 92.7671 99.5419 92.8745C99.0423 93.2718 99.1285 93.6428 99.4952 94.1271C100.497 95.484 100.582 96.924 99.8687 98.7366C99.3257 98.2043 99.9752 97.2504 99.0606 96.7457C98.9452 97.761 98.3157 98.0777 97.4357 97.8311C97.347 98.3452 97.9042 98.776 97.8095 98.7788C96.6517 98.716 97.1229 99.7345 96.817 100.205C96.4023 100.848 96.8066 101.666 96.5929 102.386C95.5159 102.153 96.1353 101.087 95.5308 100.536C95.244 101.141 95.1085 101.654 95.2984 102.193C95.4928 102.748 95.4851 103.323 95.1873 103.784C94.7466 104.458 94.9401 105.006 95.2126 105.634C95.3781 106.023 95.7411 106.368 95.7227 107.032C95.1328 106.439 94.681 105.989 94.1678 105.479C93.737 106.186 93.7667 106.69 94.3928 107.086C95.313 107.666 95.4977 108.558 95.561 109.598C95.2728 109.543 95.1143 109.515 94.9542 109.481C93.8669 109.282 93.6757 109.431 93.7641 110.492C93.7979 110.922 94.107 111.435 93.9572 111.741C93.4321 112.821 93.9544 114.021 93.4171 115.092C93.2279 115.474 93.3056 115.967 93.6148 116.337C94.3116 117.168 94.2014 117.86 93.4304 118.632C92.9999 119.054 92.8823 119.711 93.2258 120.322C94.0438 121.756 93.9626 123.09 92.8942 124.428C92.381 125.076 92.3217 125.869 93.2383 126.303C93.627 126.485 93.537 126.874 93.4218 126.94C92.5198 127.443 92.7798 128.237 92.8721 128.963C93.0608 130.565 92.4424 132.013 92.1983 133.88C91.1447 132.418 89.7025 131.707 89.7433 129.98C89.751 129.699 89.3692 129.613 89.1898 129.415C88.5661 128.73 87.7294 128.102 87.4413 127.284C87.2163 126.642 87.0448 125.92 86.7318 125.316C86.0766 124.061 85.6903 122.691 84.9185 121.483C84.4672 120.778 84.0604 120.926 83.3624 121.469C84.3167 119.646 84.1969 119.5 82.7817 118.678C81.7043 118.06 80.3971 117.679 79.7914 116.391C79.6014 115.988 79.2181 115.745 78.7651 115.645C76.0521 115.034 73.7723 115.94 71.7522 117.718C71.1555 118.249 70.808 119.015 69.9831 119.387C69.4104 119.646 69.1208 120.277 69.9199 120.765C70.2749 120.985 70.2577 121.293 70.0883 121.626C69.9251 121.933 69.6675 122.109 69.3071 122.139C68.0665 122.245 67.7481 122.574 67.7906 123.813C67.8004 124.148 67.867 124.461 67.6707 124.761C66.9508 125.887 66.9077 127.149 66.8609 128.415C66.8578 128.554 66.7797 128.618 66.6672 128.621C66.2921 128.562 66.3955 128 65.9311 128.005C65.7789 128.225 65.6759 128.532 65.8485 128.737C66.6872 129.778 66.1372 130.964 66.2186 132.072C66.2389 132.331 66.1528 132.413 65.9127 132.543C64.4691 133.287 63.8605 134.617 64.2022 136.135C64.3639 136.83 64.9172 137.681 63.4745 137.67C63.1124 137.664 63.0319 138.191 63.0904 138.485C63.3239 139.848 62.8874 141.234 63.2927 142.593C63.5499 143.458 63.5647 144.253 62.6443 144.909C62.0301 145.349 62.0714 145.951 62.7318 146.552C63.5891 147.333 63.8256 148.829 63.0924 149.303C62.0646 149.976 61.8418 150.649 62.3266 151.688C62.4103 151.865 62.3494 152.133 62.3074 152.346C62.1691 153.059 61.9698 153.838 62.5003 154.401C63.153 155.102 62.131 155.745 62.5293 156.368C62.7799 156.752 62.8842 157.039 62.3378 157.249C62.0613 157.35 61.8051 157.673 61.9157 157.878C62.3886 158.767 61.7441 159.546 61.7573 160.336C61.7916 162.311 61.686 164.309 62.0267 166.272C62.1385 166.918 62.1219 167.505 61.2657 167.64C61.032 167.673 60.8637 167.828 60.9694 168.106C61.0942 168.344 61.3031 168.346 61.5317 168.321C62.1395 168.273 62.6498 168.442 62.7877 169.101C62.9095 169.688 62.3753 169.965 62.0473 170.306C61.5969 170.754 61.2543 170.323 60.8912 170.114C60.6417 169.962 60.3724 169.843 60.2291 170.226C60.1396 170.453 60.2578 170.7 60.4706 170.764C61.1773 170.965 61.8076 171.303 61.3625 172.112C61.0871 172.619 61.5495 173.332 60.6198 173.736C59.814 174.076 59.6151 175.902 60.1376 176.484C60.8187 177.231 61.1442 177.964 60.6917 178.933C60.5781 179.178 60.7047 179.36 60.8927 179.487C61.7736 180.08 61.8388 180.884 61.4557 181.795C61.2725 182.234 61.6263 182.645 61.5001 183.065C61.1665 182.991 60.8484 182.912 60.5342 182.86C60.2008 182.809 59.9194 183.02 60.0009 183.308C60.4355 184.945 59.1769 186.475 59.6999 188.127C59.8097 188.461 59.4243 188.877 60.0187 189.177C60.5257 189.425 60.6094 189.74 59.9242 190.167C59.2195 190.602 60.0728 191.904 59.0271 192.367C59.9335 192.859 59.2534 193.28 58.9695 193.744C58.7874 194.049 58.8254 194.428 59.0385 194.689C59.4844 195.24 59.3421 195.66 58.8717 196.11C58.7307 196.238 58.5948 196.64 58.6498 196.683C59.5701 197.458 58.9411 198.536 59.1926 199.431C59.4026 200.176 59.5747 200.874 58.3537 200.75C58.0647 200.717 57.9227 201.082 57.8839 201.35C57.8091 201.838 57.7263 202.345 57.7797 202.82C58.0115 204.96 58.0559 207.057 56.8762 208.998C56.7448 209.222 56.7602 209.532 56.7097 209.802C56.1776 212.148 55.3843 214.358 53.5852 216.082C53.4636 216.195 53.3441 216.311 53.2395 216.438C53.0503 216.654 52.9314 216.92 53.0821 217.184C53.201 217.4 53.4654 217.427 53.6664 217.333C54.245 217.066 54.3543 217.454 54.624 217.842C54.955 218.311 55.4256 218.734 55.8526 219.117C57.5308 220.623 59.4695 221.581 61.8185 221.745C63.6897 221.878 65.0603 220.709 66.6559 220.159C67.3731 219.91 67.7693 219.118 68.23 218.499C68.3964 218.284 68.6141 218.101 68.7722 217.873C70.2905 215.789 71.848 213.736 72.1749 211.06C72.2048 210.803 72.3777 210.557 72.5309 210.329C72.906 209.777 73.1856 209.226 73.1808 208.509C73.1832 207.744 72.4838 207.489 72.1517 206.946C72.7326 206.677 73.5114 207.124 73.6691 206.158C73.814 205.278 73.4947 204.758 72.6437 204.57C73.828 203.007 75.0724 201.615 74.2701 199.58C74.168 199.311 74.2719 199.041 74.3536 198.778C74.5813 198.032 74.4146 197.387 73.9144 196.792C73.5196 196.315 73.1151 195.603 73.4831 195.133C74.1207 194.324 73.7029 193.788 73.3748 193.142C73.2537 192.899 73.1629 192.633 73.0846 192.371C72.8309 191.449 72.9155 191.325 73.9342 191.251C74.2325 191.226 74.5131 191.21 74.6252 190.922C74.8206 190.45 74.2979 190.456 74.1153 190.232C74.0877 190.192 74.0269 190.151 73.9772 190.154C72.6315 190.261 72.746 189.239 72.6295 188.394C72.5661 187.971 72.7212 187.674 73.0813 187.418C73.5427 187.085 73.7573 187.381 74.034 187.655C74.1834 187.8 74.3972 187.894 74.7381 187.777C74.6 187.224 74.4625 186.655 74.3083 186.095C74.2201 185.771 74.0725 185.397 74.5065 185.25C75.629 184.876 75.1622 184.213 74.8771 183.557C74.3415 182.36 73.3013 181.466 72.8934 180.194C72.7619 179.783 72.4665 179.81 72.1052 179.977C71.7712 180.123 71.5984 179.888 71.574 179.572C71.5497 179.316 71.6995 179.176 71.9472 179.118C72.369 179.033 72.8326 179.202 73.3166 178.78C72.9515 178.324 72.9452 177.767 73.004 177.165C73.1021 176.255 72.502 175.41 71.6205 175.05C70.8542 174.731 70.0246 173.573 70.1446 172.756C70.3236 171.409 70.339 170.107 69.9642 168.784C69.5119 167.191 70.1759 165.375 68.9702 163.92C68.8421 163.761 68.9795 163.185 69.4971 163.466C69.9038 163.684 70.2929 163.92 70.6655 163.453C71.0889 162.913 70.783 162.456 70.5547 162.067C69.868 161.998 70.1776 162.999 69.5593 162.813C69.0912 162.664 68.7977 162.146 68.99 161.755C69.3291 161.083 70.424 160.533 69.0488 159.856C69.1084 159.771 69.1508 159.656 69.232 159.611C69.7285 159.353 69.4832 158.985 69.4377 158.606C69.267 157.215 68.9386 155.861 68.435 154.402C69.0774 154.476 69.579 154.513 70.001 154.185C70.2253 154.015 70.4614 153.787 70.2785 153.502C70.1002 153.199 69.8011 153.057 69.4811 153.38C69.3751 153.489 69.3307 153.673 69.0409 153.633C69.0448 153.327 69.0825 153.007 69.053 152.692C68.9976 152.085 69.5246 151.719 69.6428 151.174C69.8446 150.273 68.794 150.465 68.6447 149.904C68.576 149.638 68.4535 149.376 68.4448 149.107C68.4035 147.864 68.4002 146.619 68.3828 145.096C69.1504 145.814 69.8745 146.106 70.7145 146.179C70.7677 145.68 70.2337 145.339 70.3803 144.804C70.8813 142.987 69.9161 141.967 68.2102 141.212C68.8587 140.977 69.3243 140.932 69.791 141.127C70.2303 141.306 70.5425 141.12 70.7913 140.782C70.9767 140.535 70.9156 140.261 70.7604 140.016C70.4559 139.513 70.0993 139.891 69.7539 139.97C69.5416 140.019 69.3166 140.082 69.1025 140.066C68.6507 140.025 68.3128 139.664 68.4882 139.294C68.7962 138.647 69.0533 138.042 68.9079 137.312C68.8746 137.174 69.1282 137.079 69.2899 137.127C70.2975 137.413 70.3783 136.6 70.5036 136.008C70.6434 135.308 70.6296 134.572 70.696 133.732C71.2551 134.206 71.3704 135.128 72.178 134.723C72.8946 134.362 72.8018 133.631 72.6906 132.968C72.6684 132.808 72.578 132.661 72.5011 132.519C72.2143 131.993 72.7101 131.73 72.8668 131.346C73.1628 130.647 73.6405 131.634 73.9481 131.213C73.8554 130.225 73.4813 129.39 72.7685 128.655C72.5287 129.96 72.5288 129.96 71.6576 130.53C71.4669 129.33 71.9771 128.209 71.8705 127.081L71.8291 126.953C71.0744 127.719 70.4005 128.523 70.4398 129.707C70.4579 130.083 70.3108 130.462 70.2297 130.839C70.1681 131.137 70.018 131.383 69.6891 131.313C69.3384 131.238 69.3732 130.915 69.3904 130.636C69.4012 130.426 69.4476 130.2 69.4784 129.986C69.7115 128.134 70.0721 126.356 71.2081 124.743C71.7813 123.927 72.2573 123.243 73.2578 123.072C73.7887 124.374 74.9934 125.18 75.5919 126.659C76.0464 125.786 76.3627 125.151 76.6968 124.53C76.8283 124.292 76.9536 124.003 77.2816 124.007C77.5934 124.01 77.7699 124.212 77.86 124.495C78.3518 126.112 79.5169 127.483 79.5356 129.268C79.5378 129.424 79.6606 129.566 79.8234 129.573C80.0467 129.502 80.0734 129.333 80.1046 129.173C80.1457 128.93 80.2536 128.723 80.5256 128.778C80.8072 128.842 80.7994 129.086 80.682 129.292C80.3382 129.924 80.4932 130.454 80.9717 130.937C81.5467 131.518 81.1328 132.16 81.0884 132.798C81.0353 133.536 82.2705 133.665 82.0124 134.564C81.9949 134.609 82.0226 134.685 81.9939 134.723C81.3305 135.731 82.1266 136.547 82.3336 137.433C82.4514 137.958 82.4919 138.554 83.1651 138.73C83.4055 138.797 83.5299 138.982 83.4792 139.229C83.2767 140.289 83.8877 141.262 83.7733 142.315C83.7168 142.764 83.8045 143.141 84.0937 143.536C84.6816 144.342 84.9842 145.247 84.7446 146.28C84.5071 147.303 85.3654 148.288 84.8467 149.343C84.802 149.439 85.0122 149.761 85.1757 149.853C85.5906 150.084 85.5104 150.504 85.6505 150.843C85.8519 151.343 85.5875 152.31 86.0652 152.311C87.407 152.308 85.9258 153.101 86.4505 153.364C87.3064 153.794 87.111 154.778 87.3538 155.542C87.6273 156.431 87.9823 157.299 88.5499 158.048C88.8175 158.396 89.4027 158.92 89.5345 158.778C89.9458 158.323 90.1158 158.449 90.4787 158.778C91.0766 159.316 91.6453 159.952 92.6215 159.662C92.9254 159.569 93.0697 159.865 93.1968 160.123C93.3852 160.52 93.6033 160.901 93.8521 161.249C94.3037 161.87 94.8636 161.841 95.4154 161.376C95.8284 161.028 96.0303 160.352 96.6145 160.299C97.2887 160.239 97.2225 161.139 97.7263 161.361C97.8281 161.41 97.9217 161.471 98.0094 161.538C99.8137 162.897 101.942 162.599 103.984 162.55C105.22 162.518 105.585 161.957 105.757 160.656C105.817 160.21 105.914 159.768 106.241 159.456C106.99 158.745 106.978 157.756 107.2 156.875C107.304 156.462 107.208 156.007 107.427 155.594C108.427 153.735 108.132 151.63 108.554 149.661C108.599 149.459 108.543 149.208 108.451 149.017C107.949 147.91 108.217 146.923 108.724 145.877C109.2 144.884 108.457 143.691 109.101 142.668C109.126 142.621 109.174 142.581 109.206 142.54C109.532 142.187 109.37 141.882 109.173 141.505C108.624 140.475 108.165 139.412 109.076 138.293C109.263 138.067 109.226 137.76 109.132 137.497C108.866 136.809 109.211 136.233 109.448 135.626C109.83 135.653 109.78 136.387 110.314 136.141C110.303 134.165 110.335 134.178 111.314 131.892C111.612 131.206 111.423 130.471 111.018 129.843C110.749 129.429 110.453 129.045 110.492 128.504C110.504 128.354 110.419 128.056 110.537 128.075C111.61 128.264 111.189 127.618 111.084 127.15C110.997 126.78 111.102 126.509 111.459 126.34C112.251 125.972 111.923 125.641 111.43 125.307C111.118 125.101 110.734 124.965 110.578 124.405C111.358 124.331 111.496 123.783 111.656 123.093C111.907 122.038 110.607 122.485 110.551 121.834C110.747 121.588 110.98 121.679 111.186 121.66C112.608 121.517 112.601 121.518 112.538 120.137C112.513 119.589 112.554 119.039 112.53 118.491C112.457 116.889 112.426 115.278 110.803 114.297C110.443 114.084 110.161 113.582 110.936 113.408C111.391 113.302 111.685 112.952 111.674 112.605C111.594 110.749 112.524 112.591 112.91 112.182C113.003 111.511 113.674 110.907 113.545 110.094C113.275 108.393 112.848 106.715 113.417 104.985C113.477 104.81 113.308 104.567 113.27 104.354C113.207 104.021 112.933 103.66 113.342 103.31C113.738 103.658 114.038 104.015 114.202 104.498C114.353 104.942 114.229 105.494 114.677 105.84C115.095 105.61 115.048 105.075 115.49 104.835C116.017 104.545 116.441 104.238 116.903 104.845C117.134 105.143 117.389 105.309 117.736 105.049C118.004 104.852 117.94 104.575 117.835 104.311C117.561 103.588 117.923 103.315 118.588 103.193C119.191 103.076 119.577 103.066 119.813 103.825C120.493 106.087 121.759 107.184 124.133 107.813C124.397 107.88 124.777 107.883 124.852 108.142C125.198 109.509 126.476 109.499 127.433 109.859C130.492 111.011 133.164 110.296 135.538 108.018C137.211 106.411 137.766 104.397 137.892 102.206C137.946 101.279 137.984 100.34 138.245 99.4365C138.813 97.4502 138.121 95.3836 138.723 93.3994C138.747 93.317 138.699 93.1672 138.628 93.1004C137.558 91.9222 138.235 90.6029 138.37 89.3348C138.394 89.0857 138.646 88.8943 138.438 88.5855C138.119 88.1004 138.138 88.0085 138.508 87.9505C139.45 87.8101 139.643 87.4416 139.084 86.6478C138.898 86.3852 138.556 85.8771 139.128 85.7018C139.867 85.4696 139.729 84.8949 139.627 84.5067C138.974 81.9389 139.688 79.3047 139.283 76.7162C139.138 75.7963 138.769 74.916 138.78 73.9916C138.788 72.8278 138.957 71.6747 138.046 70.7272C137.828 70.4988 137.91 70.1047 137.954 69.7703C138.022 69.2217 138.036 68.6618 138.171 68.1309C138.466 66.9982 138.204 66.0399 137.234 65.4102C136.72 65.0824 136.688 64.6488 136.64 64.1662C137.112 64.175 137.6 64.3194 138.148 64.0413C137.999 63.3209 137.915 62.6385 138.415 61.9247C138.837 61.3245 138.536 61.0369 137.696 61.1437C137.478 61.1696 137.268 61.2156 137.046 61.253C136.419 60.5189 136.885 59.6907 136.872 58.9015C136.83 57.485 137.247 56.0648 136.899 54.655C137.894 53.1481 137.224 51.4238 137.6 49.8366C137.763 49.1897 137.624 48.7496 136.897 48.4248C135.709 47.9051 135.149 46.6173 135.493 45.3901C135.674 44.7408 135.686 44.1897 135.259 43.6941C134.63 42.9645 134.596 42.1474 134.824 41.2127C135.284 41.4843 135.337 42.5239 136.004 41.9699C136.324 41.7062 136.817 41.3097 136.888 40.8041C136.94 40.3826 136.761 39.9352 136.435 39.6112C136.285 39.4525 136.062 39.3702 135.918 39.2115C135.33 38.5306 135.487 37.5826 136.299 36.9915C136.592 36.7783 136.623 36.5053 136.492 36.2912C136.006 35.4337 136.209 34.658 136.472 33.7677C136.686 33.0245 136.867 31.9762 136.521 31.4227C136.059 30.7092 135.902 30.1057 135.981 29.3181C135.998 29.0758 135.894 28.7518 135.734 28.5672C134.468 27.138 133.912 25.4771 133.975 23.5708C133.982 23.2678 133.791 22.9421 133.653 22.6455C133.51 22.3489 133.305 22.0719 133.379 21.7198C133.677 20.2794 133.213 18.7615 133.75 17.3586C134.175 16.2435 134.135 15.196 133.859 14.0671C133.579 12.9303 134.105 12.024 135.217 11.4153C134.874 10.7449 134.477 10.029 134.787 9.25814C135.666 7.07309 135.447 4.64438 136.345 2.45751C136.577 1.89391 136.381 1.21328 136.043 0.203562C135.396 2.10392 135.073 3.69664 134.259 5.11055Z" fill="#FFD600"/>
</svg>
