<?xml version="1.0" encoding="utf-8"?>
<svg width="220" height="182" viewBox="0 0 220 182" fill="none" xmlns="http://www.w3.org/2000/svg">
<path d="M77.4133 172.168C77.3802 172.003 77.5626 171.805 77.6218 171.618C77.7416 171.265 78.1827 171.451 78.6559 171.081C79.7526 170.212 80.7801 171.445 81.7288 170.722C82.7265 169.963 83.633 169.947 84.8262 170.497C86.1425 171.104 87.6875 170.472 87.9269 169.314C88.096 168.487 88.3605 168.925 88.8619 169.066C91.0016 169.68 91.9847 169.299 92.7293 167.7C92.9124 167.314 93.2052 167 92.8919 166.599C92.7535 166.42 93.107 166.143 93.3496 166.285C94.1343 166.754 94.7359 166.965 94.9759 165.901C95.118 165.271 96.6747 165.256 96.4011 164.537C95.8674 163.131 97.5699 161.633 96.3391 160.332C97.4399 159.967 96.9628 161.111 97.8303 160.855C98.3468 160.316 97.6104 159.806 97.908 159.345C98.5825 158.294 97.929 157.556 97.5103 156.654C96.8445 155.205 96.475 153.601 98.115 151.814C99.3907 153.851 99.4834 155.853 99.6244 157.859C99.6938 158.899 99.0364 160.031 99.6627 160.964C100.537 162.26 100.658 163.586 99.5981 165.349C101.93 164.707 103.32 163.649 104.946 162.912C105.712 163.55 105.155 164.352 105.414 165.024C105.767 165.941 106.401 166.088 107.552 165.481C108.697 164.876 110.324 164.81 111.356 165.316C113.017 166.157 114.801 165.914 116.291 164.577C116.66 164.246 116.933 164.124 117.411 164.288C117.72 164.382 118.267 164.596 118.331 164.534C119.587 163.469 121.84 163.581 122.885 162.335C123.692 161.375 124.778 160.987 126.264 160.821C127.928 160.623 128.437 160.027 127.685 159.062C127.277 158.536 127.474 158.612 128 158.367C130.326 157.3 130.423 155.309 131.84 153.845C132.057 153.617 132.018 153.156 131.86 152.883C130.752 151.027 131.099 148.924 130.567 146.964C130.427 146.473 130.412 146.098 131.212 145.881C131.907 146.698 132.357 147.523 132.435 148.447C132.481 149.01 132.658 149.425 133.414 149.675C134.448 150.014 134.758 150.57 133.961 151.392C133.709 151.66 133.703 152.051 134.174 152.244C135.146 152.627 134.949 153.565 135.634 154.041C137.171 155.121 136.237 157.579 139.414 157.715C139.529 157.724 139.707 157.922 139.676 158.009C139.352 159.247 140.81 159.755 141.356 160.616C141.953 161.559 142.583 161.323 143.409 160.899C144.854 160.157 146.229 160.052 147.809 160.425C149.73 160.876 151.628 160.42 153.14 159.333C154.245 158.528 155.423 157.937 156.876 157.565C158.868 157.042 162.158 154.604 163.117 153.118C163.228 152.929 163.129 152.372 163.895 152.707C164.958 153.166 165.299 152.707 165.431 151.963C165.632 150.75 166.361 149.475 164.744 148.683C165.146 147.927 166.527 148.26 166.546 147.687C166.571 146.869 166.707 146.095 166.981 145.278C167.182 144.682 166.03 144.923 165.555 144.7C165.009 144.45 165.159 144.058 165.286 143.651C166.05 141.103 166.71 138.567 165.86 136.052C165.712 135.575 165.663 135.041 165.902 134.493C166.147 133.915 167.297 134.142 167.437 133.529C165.678 132.451 165.391 131.591 166.049 130.014C166.39 129.207 166.408 128.406 166.136 127.569C165.338 125.16 164.514 122.731 165.633 120.122C165.752 119.848 165.694 119.646 165.5 119.408C164.569 118.271 164.583 117.009 164.866 115.64C164.979 115.099 164.966 114.428 164.739 113.783C164.353 112.678 164.177 111.432 164.571 110.209C164.875 109.268 164.936 108.439 164.124 107.645C163.45 106.982 163.083 106.186 164.153 105.333C164.673 104.914 164.41 104.489 164.188 104.045C163.191 102.078 162.538 100.063 163.065 97.8401C163.238 97.1199 162.791 96.409 162.82 95.7392C162.868 94.5405 162.152 93.5287 162.176 92.2903C162.224 90.5284 163.191 88.5323 161.59 86.9278C161.123 86.4651 161.773 86.0696 162.023 85.658C162.486 84.906 160.705 85.2991 161.037 84.6063C161.09 84.5026 161.366 84.4541 161.446 84.3404C161.824 83.8455 162.036 83.4145 161.423 82.9288C161.053 82.6387 161.069 82.0903 160.844 81.6837C160.169 80.4392 160.619 78.9279 159.831 77.7757C158.239 75.4225 158.73 72.8008 158.505 70.2676C158.385 68.8984 158.63 67.5102 157.088 66.5221C156.356 66.0587 156.515 65.3236 156.066 64.7679C156.714 64.583 156.741 65.2697 157.374 64.8705C155.812 62.6022 156.108 59.9136 155.025 57.525C154.766 56.9618 155.669 56.9155 156.099 56.935C156.651 56.9688 156.647 57.2915 156.404 57.6791C155.833 58.5595 155.459 59.2948 157.582 59.0344C158.447 58.935 159.248 59.2999 158.854 60.42C158.211 62.2338 158.478 64.0126 160.16 65.4558C160.412 65.667 160.51 65.8576 160.971 65.6275C161.342 65.4327 161.806 64.8662 162.189 65.5091C162.368 65.8084 162.756 66.1867 162.098 66.5587C161.187 67.0726 161.514 67.6218 161.884 68.1284C162.071 68.3959 162.632 68.5895 162.308 68.9452C161.332 70.0372 162.22 70.8522 162.741 71.6848C163.317 72.596 163.642 73.5705 164.389 74.4522C164.888 75.0301 164.608 76.0227 164.84 76.835C165.329 78.6142 165.695 80.3688 167.191 81.8127C167.282 81.9093 167.243 82.0695 167.266 82.1922C167.636 84.5093 168.234 86.7723 169.744 88.802C169.951 89.0853 170.05 89.4616 169.733 89.7379C168.679 90.655 169.131 91.1933 170.338 91.532C170.876 91.6797 171.088 91.9561 171.324 92.3199C171.95 93.2426 172.636 94.0835 171.562 95.2073C171.108 95.6757 171.284 96.264 171.662 96.7034C172.021 97.1224 172.579 96.9313 173.112 96.739C173.485 96.6053 173.953 96.5952 173.868 96.9428C173.569 98.0561 175.781 98.9775 173.921 100.201C173.821 100.27 173.947 100.57 174.052 100.717C174.784 101.852 174.186 102.977 173.517 104.081C173.31 104.421 173.084 104.829 173.592 104.892C174.429 104.988 174.524 105.202 174.245 105.762C173.98 106.283 174.257 106.779 174.465 107.284C175.705 110.417 177.855 113.265 178.541 116.612C179.088 119.307 180.637 121.841 181.779 124.436C181.935 124.792 182.181 125.184 182.57 125.394C183.812 126.064 184.363 127.068 185.093 128.006C185.652 128.714 186.183 129.421 187.347 129.761C187.993 129.947 188.324 130.263 187.947 130.978C187.38 132.021 188.083 132.944 189.153 133.518C190.322 134.15 191.624 133.684 192.656 133.003C193.695 132.323 194.414 132.435 195.164 133.076C196.149 133.907 197.44 133.749 198.57 133.127C199.839 132.426 201.267 131.955 202.56 131.294C204.304 130.403 205.932 129.366 207.994 128.792C210.791 128.033 212.302 126.274 213.517 124.418C213.826 123.951 214.242 123.253 213.668 122.917C212.491 122.233 212.987 121.452 213.406 120.64C213.698 120.048 213.879 119.436 213.534 118.896C212.651 117.536 214.101 115.72 212.418 114.505C212.292 114.414 212.377 114.109 212.491 113.931C213.706 111.944 211.105 110.081 212.883 108.076C212.916 108.042 212.827 107.964 212.784 107.91C212.154 107.175 212.505 106.228 212.161 105.466C211.553 104.134 212.591 102.531 211.282 101.354C209.918 100.131 210.235 98.6613 210.389 97.1474C210.566 95.44 210.716 93.7594 209.842 92.068C209.118 90.6921 209.163 89.032 208.343 87.6033C208.288 87.5156 208.366 87.3301 208.467 87.2335C209.537 86.1285 208.772 85.0698 208.259 84.2529C206.821 82.0092 207.252 79.4326 206.346 77.1118C206.085 76.4278 206.685 75.7584 206.442 74.9936C205.732 72.7351 204.717 70.5842 204.362 68.2053C203.749 64.0571 202.767 59.9421 201.61 55.8742C201.188 54.3667 200.18 52.9758 200.294 51.3784C200.368 50.2528 200.281 49.1629 199.652 48.2176C198.838 47.0152 199.506 45.6905 199.235 44.4508C198.966 43.1863 198.338 42.0138 198.105 40.7137C197.569 37.6582 196.73 34.6378 196.039 31.6034C195.973 31.2886 195.947 30.927 196.1 30.6361C196.638 29.6345 196.205 28.7039 196.038 27.7983C195.628 25.4867 195.402 23.1791 196.018 20.8058C196.095 20.4839 196.304 19.9046 195.991 19.9043C194.78 19.9328 194.675 18.8975 193.564 18.8219C192.136 18.7219 190.846 18.3041 189.502 17.9779C187.382 17.4767 185.098 17.5364 182.791 17.8616C179.959 18.2722 177.923 19.676 176.928 21.412C175.082 24.6065 171.561 27.5032 172.012 31.1626C172.013 31.2176 171.924 31.2773 171.885 31.3424C171.062 32.7129 170.931 34.1392 171.472 35.4143C172.303 37.3692 171.586 39.517 172.405 41.4553C172.602 41.9317 171.845 42.6041 172.642 43.0709C172.897 43.2156 172.648 43.5135 172.395 43.4636C170.196 43.0498 171.49 44.0672 171.524 44.4876C171.605 45.885 173.118 47.003 172.545 48.5388C172.515 48.6257 172.657 48.7859 172.785 48.8406C174.303 49.5635 173.133 51.3955 174.965 51.9896C175.055 52.0265 175.085 52.2969 174.997 52.3627C173.101 53.7612 174.557 54.9528 174.905 56.2295C175.085 56.8772 175.412 57.5629 174.282 58.1849C176.824 58.3831 176.824 58.3831 177.258 60.4276C176.843 60.5148 176.477 60.0798 175.909 60.5409C176.609 61.5777 176.363 62.9477 176.957 63.9578C177.495 64.8556 175.982 65.2353 176.547 65.8901C177.092 66.5279 177.476 67.238 177.971 67.9071C178.602 68.7861 179.53 69.5941 178.571 70.762C178.395 70.9717 178.419 71.329 178.922 71.3494C181.181 71.4558 180.317 72.8011 180.503 73.724C180.528 73.8632 180.277 74.192 180.124 74.2128C179.193 74.3521 178.258 73.987 177.324 74.415C177.081 74.0876 176.642 73.7823 176.648 73.4332C176.648 72.2823 175.36 71.4391 175.855 70.2577C175.108 70.246 174.948 70.8433 174.465 70.6927C173.967 70.5319 174.064 70.2732 174.38 69.9003C174.914 69.2644 174.588 68.7395 174.15 68.1226C173.135 66.6729 171.765 65.3728 171.972 63.439C172.076 62.3092 171.538 61.0462 170.551 59.9885C169.704 59.0729 167.877 58.2494 169.342 56.6765C169.515 56.4917 169.303 56.3458 169.091 56.2073C166.768 54.6659 166.253 52.4653 165.641 50.3177C165.523 49.8904 165.726 49.3962 165.301 49.0215C163.258 47.2331 162.979 44.8254 161.704 42.7575C160.067 40.1037 159.309 37.1506 157.488 34.5572C156.8 33.5662 156.404 32.566 156.526 31.4217C156.55 31.156 156.729 30.8906 156.231 30.8097C154.588 30.5411 154.632 29.4933 154.355 28.566C154.022 27.4483 154.037 26.0561 153.095 25.3268C152.053 24.516 151.963 23.7672 152.109 22.8175C152.173 22.4497 152.02 22.2849 151.683 22.0316C150.377 21.0589 149.575 19.9745 149.538 18.4283C149.506 17.4906 148.881 16.4311 147.662 15.6152C145.356 14.0531 142.78 12.8576 139.88 11.9701C137.464 11.2332 135.046 10.4472 132.532 9.88003C129.993 9.30257 128.909 9.82774 128.637 11.7951C128.154 15.2718 127.941 18.7471 128.8 22.1299C129.039 23.0977 129.424 24.1424 128.725 25.0293C127.733 26.2723 127.565 27.374 127.78 28.7241C127.894 29.4756 128.278 30.1782 128.295 30.9554C128.397 35.4126 129.219 39.7657 130.299 44.0773C130.383 44.4203 130.575 44.856 130.078 44.9176C128.402 45.1214 129.338 46.0311 129.447 46.2556C130.357 48.1156 130.074 50.2347 131.264 52.038C131.653 52.6387 132.045 53.4353 131.777 54.041C131.227 55.3389 132.07 56.1891 132.761 57.1014C133.068 57.4984 133.347 57.8731 133.297 58.3418C133.095 60.6586 133.965 62.7572 134.874 64.8812C135.205 65.6753 135.871 66.6341 134.825 67.6513C134.495 67.9663 134.47 68.628 134.694 68.9871C135.892 70.9397 135.182 73.3212 136.66 75.2049C136.783 75.3493 136.884 75.6055 136.788 75.7505C135.681 77.5433 136.871 79.0903 137.265 80.6967C137.852 83.1455 137.38 85.8167 139.15 88.0335C139.23 88.1361 139.24 88.2974 139.19 88.4178C138.254 90.4694 139.933 92.2782 139.497 94.2848C139.437 94.5569 139.566 94.791 139.82 94.9849C140.988 95.8676 140.262 97.0758 140.428 98.1197C140.582 99.1604 141.679 99.9638 140.973 101.24C140.539 102.025 140.926 103.051 141.147 103.926C141.25 104.32 141.906 104.596 142.228 104.966C142.547 105.317 143.404 105.831 142.026 106.048C141.031 106.208 141.604 106.843 140.954 107.147C140.877 106.881 140.792 106.653 140.728 106.41C140.388 105.151 140.355 105.089 138.725 105.617C137.994 105.861 137.351 105.912 136.41 105.848C138.814 104.598 138.979 104.395 139.427 103.094C139.779 102.093 139.38 101.158 139.311 100.208C139.281 99.7628 138.79 99.1224 137.83 99.9007C137.405 100.258 136.676 100.423 136.451 100.06C136.218 99.677 135.861 99.1687 136.202 98.6788C137.13 97.3586 137.175 97.3417 135.643 96.6928C134.974 96.4127 134.718 96.1715 134.837 95.4955C135.026 94.3312 136.087 92.8869 133.855 92.1831C133.635 92.1179 133.465 91.5718 133.593 91.4885C134.737 90.7095 133.342 90.4072 133.315 89.8892C133.244 88.9292 131.553 88.8835 131.603 88.025C131.666 87.1173 131.534 86.1947 132.066 85.2829C132.158 85.12 132.16 84.8205 132.023 84.744C130.719 83.9629 131.06 82.7472 130.713 81.7096C130.489 81.0329 130.308 80.1937 129.648 79.8172C128.687 79.2471 128.623 78.4763 128.162 77.7842C127.09 76.1918 127.028 74.2763 125.564 72.8448C124.967 72.2618 125.062 71.6366 125.304 70.9868C125.771 69.7785 125.554 68.7954 124.139 68.0891C123.3 67.6696 123.324 67.0909 123.867 66.4C124.487 65.602 124.419 65.5868 123.042 65.2052C122.829 65.1453 122.683 64.9549 122.543 64.8128C122.186 64.4351 122.246 63.9542 122.083 63.5499C121.464 62.0585 121.636 60.447 120.896 58.9106C120.122 57.2839 119.049 55.5015 119.652 53.5305C118.171 53.6065 117.734 53.4512 117.837 52.4415C117.968 51.1884 117.768 50.1248 116.482 49.2935C116.259 49.1567 116.059 48.8003 116.16 48.6132C117.241 46.6553 115.572 45.2702 114.717 43.7679C114.247 42.916 113.71 42.245 114.201 41.213C114.571 40.4383 114.516 39.5467 112.747 39.7693C112.214 39.8359 111.93 39.6045 111.727 39.3038C110.822 37.9589 109.21 37.2964 107.275 36.8773C106.456 36.6959 105.477 36.5347 105.376 35.746C105.277 34.9264 104.683 34.7189 103.575 34.7564C102.796 34.7843 101.995 34.559 101.268 34.3405C98.4106 33.501 95.511 32.8836 92.1837 33.5458C91.036 33.7806 89.8148 33.7368 88.6361 33.7778C84.3137 33.942 84.4737 33.7821 84.1037 37.3386C84.0334 37.9297 84.0037 38.503 84.3962 39.0433C84.8038 39.6046 84.8065 40.2456 84.6052 40.9266C83.1523 40.4711 83.1523 40.4711 81.9673 41.969C81.5809 41.5184 81.3708 40.8582 80.8346 40.721C79.1582 40.2975 77.1004 40.3862 76.5858 38.724C76.5136 38.4991 75.6371 38.4759 75.1547 38.3376C73.843 37.9348 72.1467 37.896 71.8435 36.5534C71.8185 36.4601 71.6055 36.3096 71.4859 36.3137C69.5802 36.5013 67.7801 35.645 65.8836 36.2626C64.6523 36.6637 63.6146 36.6441 62.4991 36.3696C62.1632 36.2895 61.7121 36.1546 61.4669 36.254C59.6671 37.0379 57.9351 36.6925 56.1945 36.4986C55.643 36.4296 55.1179 36.4536 54.6411 36.7518C54.004 37.1624 53.2928 37.1872 52.5678 37.0774C51.2812 36.8692 50.9305 37.4264 50.8684 38.2021C50.8476 38.4565 50.8487 38.7249 50.9416 38.9654C51.3632 40.0695 51.4776 41.3489 52.3306 42.2284C53.5096 43.421 51.6792 44.3303 51.9097 45.3545C51.9316 45.4819 52.0204 45.6018 52.0493 45.7237C53.1789 49.5929 53.1687 53.5851 53.1913 57.5806C53.2002 58.5384 53.5258 59.4699 53.1885 60.4749C52.3645 60.3954 52.3844 59.9201 52.2283 59.6115C51.1102 57.4086 50.0765 55.1697 48.9628 52.954C48.4146 51.8473 48.3071 50.7541 48.7419 49.5256C49.3322 47.8571 49.2077 46.2323 47.6974 44.9145C46.3527 43.7384 44.9438 42.5879 43.6053 41.4569C43.1881 41.6166 43.2714 41.8323 43.188 42.0232C42.9387 42.6571 42.2642 43.2339 41.4773 43.1556C40.3911 43.0397 41.719 42.4091 41.4431 42.057C41.1505 41.6842 40.8941 41.1253 40.4149 41.0111C39.2057 40.7386 38.9008 39.9593 38.2188 39.3741C37.639 38.8716 36.9586 38.2524 35.8948 38.3008C35.0277 38.3346 35.1768 39.2134 34.4916 39.4863C34.362 39.5408 34.1678 39.4829 34.0111 39.4859C33.741 39.2664 33.9671 38.9824 33.885 38.742C33.5159 37.5709 32.4773 36.663 31.0421 36.2465C29.8045 35.9011 28.6106 36.6331 27.7586 37.4443C27.2792 37.8933 26.6985 37.9602 26.0307 37.9193C25.2008 37.8759 24.6445 37.7722 25.4973 37.0575C25.7206 36.8767 25.5409 36.5299 25.2249 36.3812C24.7501 36.1636 24.4039 36.4026 24.0694 36.6829C23.3513 37.2902 22.8239 38.404 21.4841 37.2747C21.1726 37.0118 20.6142 37.2429 20.4258 37.623C20.2631 37.9322 20.1876 38.2601 20.1191 38.5932C20.0627 38.8464 20.1074 39.1287 19.5977 39.1859C19.2128 39.2323 18.8695 39.1885 18.6567 38.949C18.3847 38.6255 18.1468 38.2928 17.8462 37.9855C17.5526 37.6849 17.2443 37.3663 16.6028 37.3831C15.548 37.418 14.5188 37.5399 13.455 37.3735C13.061 37.3075 12.4169 37.8817 11.8558 38.1377C11.4651 38.3106 11.0293 38.5142 10.6052 38.5782C8.4378 38.8798 8.07847 39.9952 7.60713 41.3054C7.21246 42.4209 8.61976 43.254 8.08322 44.0407C6.93674 45.7421 8.74923 47.3899 7.30941 49.007C8.06757 50.7726 6.47488 52.5901 6.81114 54.3901C6.98799 55.3372 6.50576 56.3865 6.64633 57.3386C7.10419 60.3019 7.09848 63.2994 7.2774 66.2839C7.3272 67.2253 6.36641 68.0744 6.63784 69.0148C7.19725 70.904 6.84293 72.9486 7.35087 74.8218C8.2553 78.18 8.25944 81.6564 9.00813 85.0358C9.34076 86.5494 10.1718 88.1377 8.77315 89.7968C8.33296 90.3186 8.8893 90.8182 9.27909 91.2146C9.98918 91.9157 10.0853 92.7112 10.1963 93.5707C10.5833 96.4547 10.7619 99.3917 12.2515 102.072C12.6507 102.797 12.5847 103.59 12.742 104.348C13.2431 106.827 12.0913 109.765 15.558 111.493C15.9043 111.661 16.2635 112.397 14.9588 112.227C14.0847 112.119 14.0851 112.562 14.0662 112.955C13.9963 114.69 14.8322 116.326 14.6756 118.092C14.6356 118.499 15.0342 118.948 15.5803 119.203C16.1075 119.455 16.3619 119.864 16.6607 120.248C17.1039 120.811 17.3454 121.306 16.0672 121.589C15.4544 121.726 15.3749 122.024 15.7624 122.313C16.3446 122.743 16.3816 123.014 15.4195 123.278C14.6076 123.502 14.6985 123.999 14.8578 124.456C15.2984 125.744 15.693 127.058 16.6752 128.128C17.8148 128.014 17.8733 127.245 18.3757 126.74C19.0804 127.627 17.543 127.998 17.6496 128.655C17.7699 129.357 18.4842 129.919 18.4014 130.68C18.3742 130.875 18.4196 131.073 18.4211 131.264C18.4169 131.991 18.2961 132.732 19.465 133.059C19.7661 133.143 19.4233 135.001 19.1577 135.12C18.2855 135.173 18.4775 134.062 17.0236 134.435C18.007 135.559 17.6669 136.894 17.9513 138.144C18.0818 138.706 18.2701 139.252 18.8984 139.669C19.8523 140.306 20.7844 140.963 21.6202 141.672C23.4754 143.271 25.9574 144.622 25.2934 147.523C26.1567 146.795 26.6515 146.313 27.244 145.903C27.8321 145.494 28.403 145.445 28.6599 146.087C29.2088 147.47 30.4441 148.5 31.7988 149.478C32.1527 149.735 32.4449 150.025 32.4755 150.465C32.6231 152.835 33.842 153.563 37.0512 153.143C37.3622 154.893 39.4582 155.931 40.0746 157.628C40.2897 158.234 41.4538 158.561 41.1969 159.41C42.8577 159.233 42.7077 160.392 43.3839 160.935C43.6137 161.118 43.842 161.471 44.0613 161.453C45.8533 161.312 45.9461 162.57 46.8007 163.19C47.9145 162.751 48.2478 162.021 48.7749 161.38C49.8032 160.144 50.2509 158.751 51.1242 157.475C51.4341 157.014 51.501 156.263 52.4167 156.28C53.2063 156.288 53.8931 156.648 54.1619 157.253C54.3259 157.621 54.6071 157.955 54.7053 158.325C55.3528 160.646 57.1445 162.445 59.1097 164.197C60.8855 165.79 62.7543 167.41 61.8666 169.857C61.8014 170.046 61.8545 170.255 61.8871 170.448C62.0729 171.597 63.1899 172.29 64.676 171.757C66.3515 171.158 67.0662 171.768 67.9125 172.372C69.5464 173.545 69.5063 173.557 71.4529 172.302C71.7581 172.112 71.9738 171.626 72.5381 171.879C73.485 172.295 74.7757 172.137 75.6554 172.682C76.0563 172.934 75.9578 173.715 76.9239 173.379C77.7051 173.11 77.5181 172.62 77.4133 172.168Z" fill="#FFD600"/>
</svg>
