<?xml version="1.0" encoding="utf-8"?>
<svg width="241" height="96" viewBox="0 0 241 96" fill="none" xmlns="http://www.w3.org/2000/svg">
<path d="M220.538 75.3078C220.579 75.2184 220.655 75.1875 220.728 75.2302C220.863 75.3107 220.994 75.3898 221.075 75.4377C221.136 75.5821 221.118 75.6831 221.01 75.7677L220.835 75.7681L220.479 75.493C220.479 75.493 220.504 75.3686 220.538 75.3078ZM221.289 79.4079C221.818 79.3351 222.414 78.9505 222.84 79.2553C222.886 79.2869 222.924 79.349 222.912 79.4054C222.896 79.4613 222.828 79.5586 222.772 79.5764C222.351 79.7208 221.921 79.902 221.51 79.8789C221.307 79.8672 221.218 79.7486 221.216 79.5837C221.216 79.5837 221.261 79.4653 221.289 79.4079ZM223.284 85.4368C223.522 85.3784 223.712 85.4326 223.885 85.5099C223.86 85.5729 223.846 85.6449 223.797 85.6994C223.509 86.0402 223.073 86.1045 222.868 85.834C222.868 85.834 222.85 85.7114 222.882 85.6619C222.965 85.5086 223.141 85.4754 223.284 85.4368ZM178.025 81.7939C177.864 81.8416 177.762 81.8162 177.69 81.703L177.71 81.5242L178.029 81.2046C178.029 81.2046 178.155 81.2343 178.221 81.276C178.306 81.3286 178.328 81.4066 178.277 81.4736C178.181 81.6008 178.084 81.7238 178.025 81.7939ZM173.878 83.2097C173.843 83.2587 173.776 83.2866 173.716 83.27C173.659 83.2539 173.565 83.1757 173.552 83.1201C173.443 82.6927 173.293 82.2566 173.352 81.8521C173.388 81.6511 173.515 81.5734 173.693 81.5819C173.693 81.5819 173.811 81.6421 173.87 81.6711C173.899 82.1943 174.233 82.8126 173.878 83.2097ZM167.262 83.8252C167.194 83.795 167.126 83.7731 167.07 83.7243C166.735 83.4235 166.702 82.9864 167.004 82.8004C167.004 82.8004 167.131 82.785 167.186 82.8167C167.34 82.9125 167.358 83.0838 167.384 83.2319C167.427 83.4678 167.351 83.6559 167.262 83.8252ZM239.028 40.5712C238.83 39.811 239.099 39.208 239.001 38.4898C238.819 37.2167 238.422 35.9463 237.654 34.7331C236.999 33.7093 235.121 32.6463 234.171 32.7484L232.307 33.0473L230.028 33.518C229.567 33.5873 229.038 33.4817 228.655 33.7474C228.268 34.0084 227.822 34.1874 227.459 34.4631C226.73 35.0196 226.036 35.6143 225.042 35.7306C224.953 35.7386 224.877 35.8075 224.8 35.8497L222.62 37.2233L219.901 39.0809L216.712 40.8652L213.543 42.5044L210.579 43.9574L208.764 44.9151C208.045 45.3157 207.137 45.3866 206.581 46.0698C206.475 46.2032 206.265 46.2328 206.088 46.2753C205.141 46.517 204.329 47.0084 203.54 47.5323C203.247 47.7236 202.924 47.8772 202.607 48.0284C201.9 48.3735 201.163 48.6322 200.439 48.9128C200.218 48.8744 199.948 48.8631 199.973 48.6185C200.056 47.9175 199.671 47.5435 199.208 47.2664C198.263 46.676 197.659 45.7415 196.617 45.2613C196.426 45.1827 196.32 44.9825 196.192 44.8206C195.872 44.4353 195.568 44.0523 195.101 43.7948C194.693 43.5705 194.262 43.3021 194.286 42.6912C194.294 42.5024 194.197 42.39 194.027 42.3542C193.697 42.2852 193.492 42.0759 193.291 41.8629C193.166 41.7352 193.042 41.595 192.824 41.6023C192.557 41.5988 192.538 41.4357 192.565 41.2041C192.624 40.5854 192.32 40.2603 191.77 40.1276C191.564 40.0795 191.27 40.1463 191.132 39.9007C191.397 39.3352 191.085 39.0206 190.737 38.8088C190.242 38.5147 189.868 38.101 189.434 37.7583L187.013 35.8175L185.023 34.468C184.453 34.0985 183.812 33.8088 183.298 33.3803C182.62 32.823 181.721 32.5238 181.143 31.8596L180.997 31.7576C179.929 31.3077 179.083 30.5873 178.019 30.1422C177.189 29.8112 176.515 29.2375 175.734 28.835C174.348 28.1109 173.12 27.1487 171.47 26.8341L171.125 26.7292C170.956 26.6779 170.958 26.3604 170.715 26.451C170.469 26.541 170.222 26.7556 170.115 26.4687C169.439 26.8593 168.792 26.7957 168.132 27.0987C166.968 27.633 165.86 28.3764 164.901 29.4335C164.09 30.3332 163.537 32.3729 163.855 33.2031L164.579 34.7976L165.552 36.715C165.723 37.1212 165.745 37.636 166.077 37.8995C166.417 38.1714 166.677 38.5327 167.023 38.7813C167.713 39.2747 168.431 39.7437 168.757 40.6077C168.788 40.6869 168.857 40.729 168.924 40.7918L170.688 42.3956C171.455 43.0599 172.285 43.6547 173.017 44.3598L175.345 46.7986L177.513 49.2728L179.449 51.6089L180.68 53.0411C181.188 53.605 181.41 54.4096 182.16 54.7636C182.31 54.8292 182.37 55.0104 182.441 55.1594C182.693 55.6726 183.105 56.0536 183.472 56.4579C183.05 56.7056 182.698 57.0831 182.759 57.8036C182.79 58.1339 182.667 58.266 182.457 58.344C182.155 58.4677 181.866 58.631 181.508 58.6152C181.135 58.5889 181.052 59.0483 180.69 59.0688C180.398 59.0914 180.062 59.1366 180.089 59.6468C180.097 59.805 179.944 59.8539 179.804 59.8065C179.424 59.6758 179.395 59.8903 179.46 60.279C179.495 60.5391 179.347 60.6181 179.157 60.4478C178.819 60.1381 178.561 60.0989 178.243 60.2203C177.851 60.3698 177.556 60.659 177.212 60.8846C176.933 61.0651 176.937 61.0657 176.529 60.565C176.482 60.5049 176.428 60.4079 176.377 60.3883C176.015 60.2158 175.657 60.0595 175.3 60.0691C174.994 60.0813 175.025 60.4644 174.853 60.6225L174.79 60.6836C174.51 61.1121 174.518 61.2113 174.921 61.7861L175.705 62.9351C175.802 63.0802 175.826 63.2479 175.744 63.3603C175.542 63.622 175.246 63.6685 174.901 63.5963C174.579 63.5284 174.415 63.2623 174.267 62.9372C174.203 62.7894 174.119 62.6376 173.965 62.6041C173.399 62.9599 173.13 63.5248 173.338 64.4847C173.394 64.7477 173.326 65.0024 173.48 65.287C173.53 65.3803 173.507 65.6084 173.507 65.6084C173.284 65.6561 173.207 65.9178 173.025 65.9966C172.83 66.0767 172.603 66.0798 172.4 66.1261C172.159 66.1883 172.082 65.8518 171.946 65.7552C171.505 65.4569 171.228 65.6167 171.062 66.1629C170.962 66.4754 170.747 66.5413 170.468 66.3546L170.284 66.2019C169.472 65.5968 169.178 65.5655 168.684 66.1948C168.365 66.601 167.865 66.8096 167.736 67.4475C167.721 67.5319 167.629 67.626 167.554 67.6243C166.977 67.6157 166.743 68.083 166.52 68.5603C166.315 68.9852 166.108 69.3444 165.54 69.1238C165.438 69.0763 165.307 69.1745 165.222 69.2495C165.12 69.3222 165.108 69.4767 165.135 69.6461C165.172 69.8357 165.278 69.9207 165.426 69.9651C165.622 70.0329 165.836 70.0914 165.977 70.3407C166.177 70.7139 166.389 71.0898 166.413 71.5003C166.423 71.7001 166.405 71.8991 166.247 71.9559C166.058 72.0252 165.928 72.0866 166.103 72.427C166.251 72.7235 166.143 72.997 166.051 73.1787C165.748 73.7802 165.679 74.5094 165.635 75.261C165.621 75.4944 165.6 75.71 165.395 75.7688C165.116 75.8543 165.182 76.0448 165.319 76.3895C165.546 76.9352 165.457 77.0678 165.034 77.1338L164.937 77.1407C164.822 77.163 164.667 77.1578 164.739 77.3702C164.766 77.4477 164.92 77.5139 165.011 77.5506C165.337 77.6813 165.568 77.5154 165.822 77.4306C166.001 77.3757 166.244 77.1861 166.344 77.3696C166.553 77.7356 166.883 77.6811 167.106 78.0121L167.46 78.6627C167.556 78.8191 167.602 78.9742 167.526 79.1C167.445 79.2379 167.312 79.1744 167.178 79.0771L166.714 78.7461C166.609 78.6864 166.488 78.7734 166.509 78.8712L166.853 80.3973C167.292 80.7292 167.083 80.8949 166.868 81.022C166.713 81.1201 166.572 81.2329 166.478 81.41C166.377 81.5906 166.411 81.6775 166.727 81.9135C166.902 82.0364 166.963 82.3907 166.837 82.514C166.737 82.6039 166.618 82.5919 166.479 82.5688C166.19 82.5086 166.054 82.5935 165.982 82.9626C165.77 84.0597 165.274 84.9157 164.545 85.5417C164.287 85.7578 164.21 86.0196 164.336 86.1571C164.555 86.3713 164.721 86.2504 164.888 86.1939C165.116 86.1141 165.368 86.0406 165.545 85.8758C166.114 85.3219 166.885 85.1542 167.539 84.7692C167.716 84.6614 168.01 84.7139 168.129 84.5485C168.445 84.0924 168.897 84.1537 169.422 84.2576C169.895 84.3471 170.463 84.4738 170.46 83.6408C170.455 83.5779 170.538 83.548 170.575 83.4949C170.806 83.2097 170.924 83.2331 171.176 83.6261L171.453 84.0478C171.763 84.5056 171.773 84.5196 172.013 84.1722C172.309 83.7512 172.678 83.4257 173.224 83.7182C173.996 84.1321 174.447 83.8841 174.803 83.3226C174.964 83.0647 175.162 82.8975 175.437 82.8113C175.703 82.7324 175.918 82.559 176.226 82.3866C176.21 82.7516 175.773 82.7377 176.049 83.1086C176.231 83.3686 176.404 83.1399 176.579 83.1181C176.85 83.0895 177.005 82.9006 177.106 82.6252C177.211 82.3387 177.422 82.2639 177.731 82.3512C178.01 82.427 178.265 82.4237 178.439 82.8357C178.515 83.019 178.681 83.0246 178.807 83.0216C179.102 83.0078 179.393 82.9809 179.463 82.5946C179.524 82.261 179.764 82.1902 180.036 82.1901C180.36 82.2015 180.69 82.2335 181.036 82.3628C181.438 82.5165 181.548 82.4491 181.485 81.9795C181.378 81.1693 181.738 80.8267 182.212 80.565C182.37 80.4788 182.555 80.41 182.75 80.4238C183.056 80.4484 183.254 80.4056 183.168 79.9655L183.275 79.8228C183.844 79.69 184.386 79.3921 185.074 79.7534C185.471 79.9645 185.769 79.8973 185.955 79.6303C186.254 79.213 186.584 78.8494 186.985 78.5661C187.097 78.4863 187.047 78.1746 187.262 78.2207C187.511 78.2744 187.605 78.5352 187.708 78.7633C187.784 78.9341 187.919 78.9893 188.057 79.0533C188.473 79.2502 188.839 79.3284 189.171 79.0684C189.535 78.7886 189.577 78.8186 189.262 78.2367C189.13 77.9834 189.1 77.7652 189.114 77.5444C189.122 77.3925 189.201 77.2428 189.361 77.3268C189.965 77.6431 190.293 77.2633 190.453 76.8607C190.692 76.2664 191.172 75.9897 191.481 75.504C191.598 75.3173 191.744 75.1314 191.995 75.1326C192.212 75.141 192.373 75.3613 192.552 75.529C192.892 75.8517 193.226 75.8273 193.517 75.7392C193.75 75.6631 193.472 75.3078 193.511 75.1199C193.55 74.948 193.633 74.8019 193.713 74.6652C193.828 74.4696 194.016 74.4709 194.238 74.5918L194.529 74.7875C195.026 75.1028 195.112 75.0808 195.266 74.6237L195.364 74.2085C195.385 74.0552 195.55 74.106 195.618 74.0076C195.887 74.2056 196.212 74.3362 196.741 74.2011C197.06 74.1252 197.201 74.2194 197.305 74.3895C197.453 74.6492 197.646 74.8853 197.656 75.2159C197.682 75.5539 198.132 75.5653 198.187 75.8905C198.234 76.1565 198.311 76.4591 198.802 76.3485C198.961 76.3205 199.027 76.4528 198.991 76.5884C198.895 76.9583 199.104 76.9541 199.485 76.8326C199.742 76.7609 199.833 76.8799 199.677 77.0813C199.402 77.4398 199.387 77.6814 199.533 77.9567C199.718 78.2909 200.03 78.5179 200.28 78.7998C200.479 79.0241 200.479 79.0241 200.021 79.4696C199.96 79.5224 199.877 79.5777 199.854 79.6326C199.718 79.9845 199.599 80.3355 199.634 80.6611C199.668 80.938 200.043 80.8569 200.212 80.9875L200.282 81.0381C200.718 81.2334 200.814 81.2095 201.355 80.7627L202.432 79.8831C202.567 79.778 202.738 79.7262 202.854 79.7916C203.122 79.9398 203.194 80.2092 203.151 80.5325C203.109 80.8361 202.859 81.0205 202.541 81.2C202.396 81.2796 202.253 81.3795 202.234 81.5255C202.63 81.9951 203.209 82.1686 204.151 81.8437C204.401 81.7574 204.66 81.7883 204.936 81.6073C205.023 81.5536 205.254 81.5439 205.254 81.5439C205.315 81.7411 205.582 81.7772 205.677 81.9388C205.771 82.1046 205.784 82.3123 205.848 82.4939C205.927 82.7105 205.594 82.8225 205.509 82.9628C205.239 83.4043 205.42 83.6399 205.978 83.723C206.289 83.7736 206.371 83.9662 206.195 84.2473L206.057 84.4344C205.508 85.2504 205.495 85.5293 206.15 85.9062C206.577 86.1499 206.81 86.5815 207.457 86.6239C207.548 86.632 207.638 86.7022 207.646 86.7729C207.669 87.3079 208.15 87.464 208.629 87.6239C209.063 87.7566 209.43 87.9183 209.234 88.4647C209.201 88.5583 209.303 88.6671 209.38 88.7441C209.457 88.8283 209.616 88.8298 209.777 88.7768C209.968 88.7246 210.046 88.6201 210.09 88.4731C210.14 88.2899 210.193 88.0872 210.431 87.9337C210.792 87.7115 211.15 87.471 211.568 87.4085C211.765 87.3772 211.965 87.3759 212.03 87.5165C212.112 87.6838 212.171 87.7995 212.511 87.6019C212.797 87.4349 213.076 87.5096 213.264 87.5763C213.89 87.7932 214.621 87.7974 215.378 87.7651C215.613 87.7516 215.826 87.7594 215.894 87.9374C215.997 88.1909 216.183 88.1127 216.518 87.9566C217.055 87.695 217.197 87.7638 217.281 88.1583L217.29 88.2459C217.317 88.353 217.327 88.499 217.535 88.4111C217.606 88.3797 217.663 88.2355 217.697 88.1408C217.819 87.8282 217.637 87.6262 217.544 87.3909C217.482 87.2296 217.281 87.0165 217.451 86.9077C217.811 86.6811 217.732 86.3729 218.052 86.141L218.69 85.7494C218.839 85.6377 218.992 85.5878 219.122 85.6466C219.265 85.7071 219.209 85.8441 219.119 85.9765L218.818 86.4379C218.758 86.5459 218.848 86.6488 218.952 86.6218L220.46 86.1668C220.775 85.7274 220.946 85.911 221.092 86.1038C221.199 86.2417 221.316 86.3653 221.5 86.4473C221.691 86.5228 221.78 86.481 221.995 86.164C222.11 85.9908 222.46 85.9022 222.587 86.0144C222.688 86.1062 222.682 86.2161 222.665 86.3456C222.622 86.6248 222.713 86.7522 223.089 86.7905C224.201 86.9045 225.089 87.3225 225.768 87.9622C226.004 88.1926 226.272 88.2533 226.398 88.1174C226.607 87.9031 226.479 87.7453 226.407 87.5952C226.315 87.3769 226.229 87.1469 226.046 86.9902C225.461 86.4909 225.251 85.7648 224.826 85.1722C224.705 85.0113 224.74 84.7237 224.569 84.6256C224.092 84.3592 224.134 83.9239 224.203 83.4141C224.265 82.9562 224.349 82.403 223.51 82.4792C223.451 82.487 223.412 82.4078 223.361 82.3767C223.049 82.1855 223.065 82.0684 223.449 81.7944L223.858 81.4953C224.291 81.1627 224.306 81.152 223.939 80.9503C223.496 80.7087 223.138 80.3837 223.397 79.8343C223.757 79.0621 223.474 78.6492 222.882 78.3631C222.615 78.2319 222.43 78.058 222.318 77.8001C222.221 77.5601 222.021 77.3715 221.825 77.0937C222.191 77.0738 222.215 77.4927 222.568 77.1946C222.817 76.9931 222.569 76.8486 222.532 76.6874C222.48 76.4281 222.275 76.3022 221.988 76.2294C221.693 76.1567 221.602 75.9671 221.661 75.6575C221.709 75.3886 221.692 75.1426 222.085 74.932C222.26 74.845 222.257 74.679 222.24 74.5616C222.203 74.2843 222.148 74.0089 221.751 73.9761C221.415 73.9506 221.32 73.7278 221.3 73.4739C221.276 73.1615 221.282 72.8404 221.383 72.4953C221.492 72.0943 221.413 71.993 220.942 72.1064C220.14 72.294 219.762 71.9917 219.453 71.5667C219.355 71.4246 219.261 71.2515 219.256 71.0735C219.246 70.7799 219.184 70.5941 218.756 70.725L218.597 70.6379C218.409 70.106 218.056 69.6328 218.343 68.9299C218.515 68.5249 218.424 68.2445 218.135 68.0976C217.682 67.8631 217.274 67.5936 216.941 67.2477C216.85 67.1488 216.545 67.2436 216.57 67.0285C216.589 66.7875 216.845 66.6659 217.059 66.5346C217.222 66.4365 217.266 66.3021 217.313 66.1692C217.467 65.7447 217.491 65.3808 217.2 65.0944C216.869 64.7899 216.901 64.7405 216.348 65.1192C216.114 65.2763 215.896 65.3333 215.672 65.3525C215.521 65.3615 215.36 65.3101 215.424 65.1457C215.677 64.5205 215.256 64.2619 214.831 64.1631C214.216 64.009 213.871 63.5991 213.345 63.3716C213.144 63.2862 212.937 63.1759 212.911 62.9381C212.89 62.7284 213.095 62.542 213.233 62.3508C213.366 62.1747 213.27 62.0467 213.275 61.8943C213.393 61.8165 213.508 61.7413 213.634 61.6761C214.096 61.4412 214.546 61.2058 214.918 60.8067C215.237 60.4585 215.609 60.0932 216.224 60.2378C216.414 60.2847 216.551 60.204 216.621 60.0574C216.768 59.7429 217.023 59.5875 217.291 59.435C217.45 59.3406 217.612 59.2475 217.667 59.0323C217.719 58.7713 217.896 58.7911 218.13 58.8567C218.745 59.0424 219.142 58.8167 219.4 58.303C219.494 58.1099 219.495 57.8168 219.778 57.7318C220.292 58.1106 220.691 57.8767 220.987 57.5823C221.402 57.1691 221.904 56.8868 222.365 56.541L224.92 54.617L226.788 52.9984C227.31 52.5301 227.767 51.9737 228.33 51.5763C229.07 51.05 229.609 50.2578 230.441 49.8504L230.582 49.7376C231.321 48.8197 232.276 48.1578 233.022 47.2461C233.595 46.5356 234.358 46.0292 234.991 45.3732C236.112 44.2191 237.431 43.2764 238.245 41.7839L238.462 41.4757C238.566 41.3242 238.877 41.4075 238.862 41.15C238.842 40.892 238.707 40.5972 239.028 40.5712Z" fill="#FFD600"/>
<path d="M155.606 29.0907C155.537 29.1637 155.326 29.0528 155.326 29.0528C155.288 28.8492 155.357 28.6982 155.471 28.5691C155.569 28.4589 155.703 28.4032 155.849 28.4305C155.96 28.4497 155.979 28.6211 155.879 28.769L155.606 29.0907ZM155.315 27.0389C155.162 27.3031 154.907 27.3382 154.72 27.1196C154.582 26.9891 154.528 26.8341 154.613 26.6346C154.677 26.4828 154.749 26.3407 154.957 26.3236C155.159 26.3098 155.341 26.421 155.385 26.5873C155.427 26.7418 155.402 26.8904 155.315 27.0389ZM154.208 28.6372L154.125 28.6302L154.154 28.4158L154.27 28.3324L154.324 28.3681C154.352 28.4752 154.298 28.563 154.208 28.6372ZM153.607 27.4879C153.497 27.6217 153.278 27.6332 153.144 27.4873C153.144 27.4873 153.093 27.3643 153.115 27.2976C153.182 27.0798 153.329 26.9183 153.556 26.8215C153.65 26.7762 153.784 26.865 153.788 26.9595C153.799 27.151 153.733 27.3319 153.607 27.4879ZM146.549 42.7866C146.33 43.0123 146.07 43.1469 145.642 43.2207C145.915 42.9032 146.144 42.7486 146.427 42.6678L146.568 42.7111L146.549 42.7866ZM144.536 40.6542L143.748 41.2819C143.846 40.9036 144.035 40.6116 144.406 40.4636L144.562 40.4563C144.663 40.5153 144.603 40.5936 144.536 40.6542ZM140.793 37.7691L140.659 37.8248L140.561 37.7575C140.567 37.6476 140.842 37.4992 140.954 37.5429C141.003 37.5707 140.998 37.6111 140.945 37.6609L140.793 37.7691ZM135.327 49.31L135.363 49.1999L135.505 49.1653C135.575 49.1748 135.585 49.2215 135.533 49.2725C135.476 49.3259 135.41 49.3751 135.327 49.31ZM130.888 51.8363L130.744 51.8454C130.674 51.7208 130.739 51.6062 130.859 51.5232L131.007 51.5148C131.106 51.6476 130.963 51.7389 130.888 51.8363ZM124.247 60.8817C124.16 60.816 124.126 60.7249 124.182 60.629C124.182 60.629 124.261 60.665 124.324 60.6894L124.378 60.8699L124.247 60.8817ZM121.086 58.5196C120.815 58.5399 120.575 58.4999 120.391 58.2564L120.38 58.18L120.424 58.125L121.1 58.262C121.16 58.2817 121.192 58.4475 121.151 58.4746L121.086 58.5196ZM111.417 48.0814C111.538 48.1432 111.642 48.2395 111.757 48.3175C111.635 48.3832 111.497 48.4426 111.408 48.3028C111.359 48.2308 111.424 48.1572 111.417 48.0814ZM110.584 49.8445C110.564 49.903 110.378 49.9147 110.359 49.8668L110.318 49.8C110.348 49.5275 110.43 49.2833 110.729 49.1466L110.806 49.1402L110.861 49.1889L110.584 49.8445ZM111.22 46.9426L111.31 47.0529L111.23 47.1454C111.068 47.173 110.932 47.0965 110.799 47.0247C110.927 46.9439 111.062 46.8799 111.22 46.9426ZM116.837 35.1571C116.906 35.1992 116.962 35.2522 116.915 35.3451L116.795 35.3372L116.738 35.206C116.734 35.139 116.778 35.1207 116.837 35.1571ZM119.595 40.1806C119.659 40.1651 119.745 40.185 119.82 40.2111C119.82 40.2111 119.908 40.2727 119.944 40.3186C120.38 40.897 120.827 41.4525 121.454 41.8552C121.5 41.8816 121.522 41.9383 121.566 41.9812C121.431 42.0832 121.331 42.2058 121.235 42.3246C120.623 41.8164 120.076 41.2558 119.626 40.5975L119.527 40.374C119.5 40.2912 119.509 40.1985 119.595 40.1806ZM120.183 38.9909L120.223 39.1241C120.106 39.22 119.987 39.1743 119.879 39.0732L119.847 38.9412C119.967 38.8213 120.078 38.9355 120.183 38.9909ZM121.392 40.5194L121.574 40.6591L121.684 40.8059C121.724 40.882 121.762 40.9737 121.679 41.0205C121.621 41.0538 121.52 41.0601 121.457 41.0273C121.339 40.9702 121.23 40.8847 121.134 40.7893C121.056 40.7134 121.011 40.5911 121.101 40.5084C121.183 40.4256 121.296 40.461 121.392 40.5194ZM122.844 42.1134C122.802 42.1489 122.762 42.1889 122.724 42.2249C122.754 42.1962 122.76 42.1475 122.789 42.1186C122.804 42.1038 122.825 42.1236 122.844 42.1134ZM124.567 41.2425C124.619 41.3783 124.659 41.5188 124.556 41.6662L124.424 41.7433L124.346 41.6461C124.35 41.4853 124.455 41.3591 124.567 41.2425ZM121.974 43.1329L122.361 42.6209C122.39 42.6249 122.411 42.5949 122.431 42.5734C122.414 42.8424 122.303 43.0836 122.116 43.2925C122.068 43.2448 122.03 43.1827 121.974 43.1329ZM128.909 52.8995C128.807 52.8192 128.728 52.7261 128.661 52.6263C128.723 52.5694 128.778 52.502 128.848 52.4586C128.948 52.3973 129.077 52.3694 129.151 52.4702C129.213 52.5651 129.152 52.673 129.075 52.7563L128.909 52.8995ZM129.353 51.0098L129.608 50.9493C129.697 50.9372 129.785 50.965 129.791 51.0491C129.798 51.1239 129.749 51.2038 129.711 51.2683C129.711 51.2683 129.626 51.3433 129.576 51.3703C129.192 51.5525 128.865 51.83 128.513 52.0544C128.498 52.0481 128.5 52.0273 128.484 52.0209L128.082 51.7859C128.512 51.5383 128.887 51.2104 129.353 51.0098ZM128.158 65.8884C128.215 65.9003 128.3 65.9816 128.309 66.0408L128.351 66.591L128.274 66.6914L128.13 66.6548C128.061 66.6002 127.972 66.5227 127.972 66.5227C127.776 66.2734 127.765 66.1115 127.949 65.9508C128.001 65.9082 128.094 65.8671 128.158 65.8884ZM132.733 60.6972L132.942 60.9397L132.872 61.0251L132.662 60.7909L132.606 60.6472L132.733 60.6972ZM131.054 70.176C131.217 70.2108 131.371 70.4259 131.356 70.5673L131.315 70.624C131.18 70.6638 130.892 70.3809 130.937 70.2393L131.054 70.176ZM132.75 69.7266L132.883 69.7942C132.939 69.8673 132.895 69.9774 132.816 69.9497L132.707 69.8527L132.75 69.7266ZM133.879 73.3177L134.017 73.5748L133.971 73.6014L133.776 73.3775L133.722 73.2467C133.807 73.1718 133.845 73.2634 133.879 73.3177ZM106.153 61.089L105.87 61.2689L105.792 61.1931L106.069 61.0038C106.069 61.0038 106.167 60.9843 106.224 60.9667L106.153 61.089ZM107.459 52.7634L107.254 52.7925L107.271 52.6672C107.349 52.5871 107.452 52.5599 107.548 52.6309C107.548 52.6309 107.496 52.7062 107.459 52.7634ZM101.141 56.1639L100.552 56.1579L100.456 56.071L100.513 55.9257L100.679 55.7794C100.974 55.6094 101.144 55.6115 101.294 55.8132C101.333 55.8639 101.356 55.9663 101.323 56.024C101.306 56.0829 101.209 56.1562 101.141 56.1639ZM96.5231 60.3808C96.4324 60.4339 96.3313 60.3748 96.3664 60.2972L96.4805 60.1977L96.6154 60.2529L96.5231 60.3808ZM95.8966 58.7995L95.8405 58.755C95.8171 58.6199 96.1536 58.3563 96.3016 58.4091L96.3514 58.5309C96.2885 58.687 96.0437 58.8268 95.8966 58.7995ZM92.6445 61.1113L92.3546 61.2207L92.327 61.1716L92.5937 60.9967L92.741 60.9597C92.812 61.0517 92.7072 61.0828 92.6445 61.1113ZM108.213 26.4689L108.228 26.3264L108.299 26.3244C108.576 26.4727 108.76 26.6919 108.922 27.0684C108.553 26.8938 108.356 26.7109 108.213 26.4689ZM106.494 28.8821L106.446 28.7352C106.49 28.6335 106.577 28.6707 106.646 28.7169L107.424 29.2963C107.035 29.2931 106.716 29.1845 106.494 28.8821ZM104.631 33.0928C104.523 33.1151 104.327 32.8995 104.355 32.7831C104.366 32.736 104.409 32.725 104.467 32.7614L104.597 32.874L104.675 32.9837L104.631 33.0928ZM92.727 23.073L92.6214 22.9891L92.6379 22.929C92.7329 22.8765 92.8296 22.9023 92.9221 22.9603L92.9363 23.0403L92.727 23.073ZM92.3445 21.5175C92.3384 21.409 92.4976 21.3442 92.6625 21.3918L93.0336 21.553C93.1119 21.5921 93.0605 21.8162 93.0605 21.8162C92.8764 21.9104 92.7163 21.8887 92.5664 21.823C92.4406 21.7648 92.3506 21.6576 92.3445 21.5175ZM91.8992 24.3378C91.6732 24.3398 91.4844 24.253 91.3375 24.0716C91.2806 23.9985 91.326 23.8485 91.4183 23.8156C91.6021 23.754 91.7839 23.7703 91.9672 23.8363C92.1136 23.8973 92.1745 24.0955 92.0648 24.2569C92.0648 24.2569 91.966 24.3384 91.8992 24.3378ZM90.9187 23.1538C90.7616 23.1409 90.6056 23.1198 90.543 22.934C90.484 22.7529 90.5397 22.5579 90.6946 22.4639C90.8315 22.379 90.9795 22.3664 91.1426 22.397C91.4307 22.4604 91.5211 22.6879 91.3516 22.9203C91.2624 23.0854 91.1326 23.1786 90.9187 23.1538ZM161.605 27.1421C161.414 26.9432 161.111 26.9316 160.897 26.7791C160.708 26.6374 160.543 26.4672 160.332 26.3553C160.134 26.2461 159.889 26.1971 159.589 26.0983C159.877 25.9232 159.952 25.7687 159.697 25.5896C159.589 25.5169 159.696 25.3425 159.839 25.3039C160.018 25.2501 160.173 25.2827 160.316 25.3644C160.409 25.4182 160.512 25.4607 160.628 25.4067C160.628 25.4067 160.709 25.3354 160.732 25.2847L160.73 25.2148C160.612 25.1534 160.502 25.072 160.377 25.0392C160.12 24.9622 159.925 24.8618 159.992 24.5459C160.026 24.4218 159.942 24.365 159.85 24.2998L158.94 23.673C158.88 23.6279 158.79 23.5788 158.718 23.5891C158.179 23.6732 157.678 23.4522 157.154 23.534C156.854 23.5799 156.617 23.5436 156.374 23.3987C156.148 23.2699 156.005 23.3739 156.056 23.6405C156.096 23.8432 156.057 23.9414 155.843 23.983L155.673 24.0053C155.445 24.0229 155.284 24.1287 155.275 24.3543C155.267 24.4978 155.103 24.6571 155.269 24.7904L155.682 24.7357C156.111 24.72 156.28 24.9814 156.093 25.3391C156.003 25.5126 155.882 25.6692 155.701 25.7723C155.505 25.8861 155.299 25.8623 155.218 25.6656C155.149 25.4958 155.1 25.3331 154.901 25.2523C154.755 25.1914 154.739 25.0573 154.775 24.9218C154.832 24.6615 154.716 24.5266 154.459 24.4706C154.212 24.417 154.064 24.2112 153.869 24.0813C153.248 23.6637 152.368 23.7785 151.839 24.3831C151.611 24.6413 151.38 24.8938 151.085 25.068L148.805 26.4037C148.593 26.5227 148.395 26.5296 148.201 26.3629C148.047 26.2344 147.745 26.3622 147.78 26.54C147.835 26.8736 147.59 27.0461 147.406 27.228C147.038 27.5938 146.54 27.7615 146.08 27.9798C145.95 28.0402 145.807 28.0166 145.699 27.9154C145.529 27.7562 145.395 27.8742 145.285 28.007L145.117 28.2933C144.886 28.6124 144.737 28.6956 144.216 28.8064C144.362 28.649 144.498 28.5144 144.733 28.2623C144.329 28.409 144.074 28.4989 143.91 28.7479C143.42 29.5267 142.582 29.8541 141.806 30.2722C141.702 30.3288 141.593 30.3298 141.485 30.2951C141.212 30.2085 141.143 30.351 141.108 30.5732C141.053 30.9245 140.801 31.1498 140.469 31.2863C140.265 31.3694 140.009 31.4666 139.823 31.4297C139.529 31.3687 139.429 31.4627 139.302 31.6882C139.101 32.0283 138.955 32.4325 138.419 32.4379C138.335 32.4433 138.242 32.5712 138.156 32.646C138.047 32.742 137.924 32.8203 137.779 32.8049C137.478 32.7767 137.293 32.9415 137.143 33.147C137.001 33.3387 136.791 33.4337 136.614 33.5701C136.455 33.693 136.308 33.7017 136.164 33.5872L136.024 33.5723C136.092 33.8453 135.839 34.0422 135.802 34.284C135.802 34.284 135.91 34.382 135.978 34.4113C136.104 34.4654 136.248 34.506 136.175 34.685C136.135 34.7872 136.038 34.8605 135.923 34.8776C135.744 34.9029 135.679 34.7876 135.629 34.6689L135.504 34.3839C135.41 34.215 135.199 34.2064 135.124 34.3862C134.934 34.8637 134.51 35.1808 134.219 35.5781C134.069 35.7846 133.853 35.8958 133.544 36.0469C133.64 35.8954 133.683 35.8273 133.721 35.7617C133.799 35.6489 133.782 35.5601 133.679 35.488C133.586 35.43 133.477 35.4078 133.364 35.4622C133.297 35.4985 133.209 35.5603 133.187 35.6323C133.005 36.0772 132.602 36.3728 132.257 36.6932C132.038 36.8935 131.744 37.0267 131.479 37.1891C131.09 37.0994 130.835 37.3159 130.603 37.5768C130.505 37.6838 130.394 37.7668 130.247 37.8007C129.993 37.8528 129.861 38.0207 129.777 38.2403C129.703 38.4445 129.615 38.6383 129.416 38.777C129.191 38.9268 129.014 38.9324 128.814 38.7734C128.732 38.7042 128.678 38.6104 128.589 38.5613C128.526 38.5274 128.402 38.5191 128.351 38.5533C127.971 38.832 127.474 39.0073 127.336 39.5077C127.319 39.8441 127.1 40.0455 126.808 40.1947L126.659 40.1788L126.64 40.0443L126.896 39.4481C126.427 39.4266 126.043 39.6711 125.831 40.0254C125.527 40.5443 125.077 40.9001 124.576 41.2109C124.573 40.8898 124.813 40.5636 124.636 40.2388C124.158 40.4663 123.69 40.6793 123.647 41.2707C123.643 41.3651 123.53 41.4605 123.442 41.5562C123.134 41.2053 122.799 40.8749 122.548 40.4789C122.372 40.1955 122.161 39.9358 121.937 39.6827L120.149 37.6674C119.949 37.4471 119.823 37.1493 119.435 37.1959C119.342 37.2075 119.195 37.0599 119.103 36.961L117.356 35.0303C117.153 34.8001 116.949 34.571 116.674 34.4134C116.25 34.1786 115.911 33.8487 115.615 33.4667C115.494 33.3183 115.371 33.1444 115.218 33.0413C114.32 32.4415 113.608 31.6569 112.866 30.9041L112.797 30.8505L110.161 28.6209C109.877 28.3766 109.609 28.1303 109.456 27.66C110.077 28.1072 110.545 28.5327 110.955 29.0251L111.107 29.0795C111.199 29.0467 111.19 28.9589 111.136 28.8936C110.678 28.2954 110.202 27.7032 109.645 27.1866C109.441 26.9943 109.216 26.8066 109.053 26.5913C108.386 25.6841 107.519 24.9649 106.722 24.1804C106.644 24.1045 106.509 24.0238 106.5 23.9403C106.455 23.6209 106.241 23.4072 106.038 23.1812L106.024 23.0389L106.158 23.0034C106.479 23.1418 106.703 23.3949 106.957 23.6151L107.862 24.3731L108.008 24.4088L107.985 24.2622C107.092 23.3612 106.276 22.3852 105.246 21.6271L104.738 21.1836C104.5 20.936 104.228 20.743 103.931 20.5666C103.466 20.2977 103.027 19.9901 102.74 19.5186C102.685 19.4288 102.598 19.3305 102.504 19.2892L101.349 18.7981C101.274 18.772 101.169 18.7736 101.152 18.8621C101.139 18.9268 101.173 19.0179 101.215 19.0774L101.549 19.4519C101.653 19.5811 101.546 19.785 101.384 19.8083C101.191 19.8402 101.003 19.8106 100.828 19.713L100.253 19.3668C99.9639 19.1831 98.3286 18.5697 98.0201 18.5321C97.6912 18.4959 97.3698 18.5219 97.0482 18.4002C96.8828 18.3493 96.7265 18.3977 96.5788 18.4684C96.4765 18.5126 96.4072 18.5897 96.4213 18.7067L96.4916 19.0169C96.5741 19.2761 96.5602 19.4968 96.2977 19.6174C96.0699 19.7268 96.0316 19.9148 96.0671 20.1422C96.0739 20.2181 96.0613 20.3113 96.0211 20.3628C95.9225 20.4982 95.7776 20.5567 95.6025 20.5456C95.4675 20.5315 95.2855 20.358 95.2759 20.2164C95.2574 20.045 95.4041 20.0365 95.5217 19.9743C95.6932 19.8773 95.6929 19.8245 95.5354 19.6913L95.097 19.3184C94.9311 19.1513 94.7379 19.0354 94.5162 19.0665C94.1156 19.124 93.8483 18.9063 93.5918 18.6404L93.0791 18.1055C92.718 17.7177 92.3294 17.377 91.8085 17.2114C91.624 17.1536 91.469 17.0334 91.3435 16.8802C91.0605 16.5327 90.6661 16.4507 90.2616 16.3504C89.9224 16.2632 89.8365 16.4035 89.702 16.6248C89.5618 16.8569 89.6199 17.137 89.5289 17.3758C89.4414 17.5908 89.3213 17.7972 89.2701 18.0213C89.2152 18.2408 89.2297 18.4727 89.2091 18.7791C88.97 18.5694 88.8028 18.5383 88.7005 18.8304C88.6594 18.9483 88.4611 18.9003 88.3891 18.784C88.297 18.6311 88.2875 18.4852 88.3341 18.327C88.3602 18.2271 88.3785 18.123 88.2986 18.033L88.1529 17.9679L88.0862 17.9968C88.0528 18.12 88.007 18.2414 88.006 18.3732C87.9965 18.6273 87.9475 18.8348 87.6339 18.8661C87.5156 18.8754 87.4737 18.9689 87.439 19.0708L87.0627 20.0876C87.037 20.1538 87.0115 20.2495 87.036 20.3151C87.244 20.7844 87.1574 21.3002 87.363 21.7565C87.4737 22.0184 87.5027 22.2366 87.4242 22.5066C87.3538 22.7482 87.4865 22.8485 87.7295 22.7211C87.9096 22.6263 88.0133 22.6319 88.1016 22.8127C88.1016 22.8127 88.1424 22.9132 88.165 22.9617C88.2377 23.1657 88.3735 23.2738 88.5897 23.2208C88.7317 23.1905 88.9234 23.2872 89.012 23.0966L88.8558 22.7377C88.7406 22.3549 88.944 22.1187 89.3358 22.1888C89.527 22.2274 89.6951 22.2829 89.8433 22.4222C89.9915 22.5626 90.0156 22.7548 89.8551 22.8903C89.7062 23.002 89.5601 23.0929 89.5331 23.2919C89.5118 23.4494 89.384 23.4974 89.2441 23.5122C88.9814 23.5378 88.8872 23.678 88.8912 23.9255C88.8957 24.1698 88.741 24.3546 88.6574 24.5701C88.4137 25.2577 88.7156 26.0205 89.4136 26.3294C89.7047 26.4638 89.991 26.6019 90.229 26.8199L92.0058 28.5118C92.1726 28.6695 92.2156 28.8452 92.1012 29.0724C92.0108 29.2458 92.1957 29.4851 92.3654 29.4048C92.6691 29.2613 92.8834 29.4381 93.0982 29.5496C93.5254 29.789 93.787 30.2044 94.09 30.5579C94.1809 30.6609 94.1827 30.7973 94.1068 30.9231C93.9921 31.1218 94.1314 31.2072 94.2851 31.2734L94.588 31.3514C94.9486 31.47 95.0577 31.5882 95.2691 32.0337C95.0936 31.9392 94.9336 31.8562 94.6449 31.7052C94.8681 32.032 95.0067 32.2407 95.2849 32.3196C96.1348 32.5542 96.6098 33.2412 97.16 33.8392C97.2368 33.9203 97.2567 34.018 97.2419 34.1268C97.2093 34.3988 97.3695 34.4248 97.5858 34.4004C97.9383 34.3574 98.2033 34.5337 98.3938 34.7938C98.5157 34.9676 98.6644 35.165 98.6607 35.3502C98.656 35.6292 98.7712 35.7029 99.0107 35.7597C99.3735 35.8543 99.8061 35.876 99.9063 36.3676C99.9205 36.4445 100.067 36.5055 100.152 36.5582C100.267 36.635 100.362 36.7302 100.378 36.8643C100.402 37.144 100.598 37.2782 100.824 37.3658C101.035 37.444 101.163 37.6143 101.329 37.7435C101.477 37.8543 101.51 37.9822 101.424 38.1479L101.44 38.2789C101.687 38.1508 101.926 38.3362 102.167 38.3109C102.167 38.3109 102.243 38.1851 102.261 38.1179C102.286 37.9937 102.302 37.847 102.482 37.8672C102.597 37.8829 102.679 37.9563 102.72 38.0599C102.783 38.2089 102.679 38.2982 102.572 38.3744L102.322 38.5588C102.175 38.6866 102.199 38.8798 102.388 38.9012C102.881 38.9597 103.267 39.2684 103.711 39.4395C103.933 39.5277 104.076 39.7033 104.282 39.9495C104.113 39.8982 104.045 39.8721 103.973 39.8538C103.853 39.8092 103.765 39.8467 103.72 39.9557C103.674 40.0528 103.672 40.1643 103.747 40.2527C103.794 40.3087 103.87 40.3675 103.939 40.3769C104.407 40.4372 104.76 40.7404 105.128 40.9835C105.362 41.1397 105.537 41.3819 105.741 41.5784C105.715 41.9538 105.974 42.1418 106.267 42.2923C106.387 42.3583 106.485 42.4412 106.543 42.5693C106.643 42.7803 106.824 42.8671 107.051 42.8936C107.266 42.9101 107.465 42.9498 107.635 43.1132C107.813 43.2808 107.85 43.4389 107.724 43.6602C107.671 43.7438 107.59 43.8193 107.555 43.9138C107.539 43.9738 107.548 44.0944 107.589 44.1285C107.917 44.4252 108.166 44.8378 108.677 44.8616C109.003 44.7993 109.233 44.9582 109.43 45.1949L109.445 45.3331L109.309 45.3801L108.688 45.2757C108.742 45.7072 109.032 46.0061 109.421 46.1255C109.971 46.295 110.386 46.6267 110.775 47.0214C110.465 47.0869 110.105 46.9389 109.815 47.1676C110.095 47.5317 110.367 47.8734 110.886 47.8405C110.851 47.8769 110.815 47.8973 110.789 47.935C110.629 48.1317 110.538 48.3704 110.302 48.5073C110.001 48.6891 109.781 48.9272 109.65 49.2398C109.541 49.492 109.311 49.676 109.105 49.8707C109.028 49.9468 108.911 50.0048 108.806 49.9536C108.724 49.9087 108.731 49.8232 108.746 49.7429L108.83 49.4377L108.845 49.2002L108.757 49.0806C108.679 49.0374 108.576 49.0562 108.534 49.1253L108.054 49.8885C107.92 50.0677 107.733 50.2195 107.481 50.1357C107.321 50.0855 107.17 50.0197 107.002 50.1246C106.823 50.2364 106.699 50.3842 106.629 50.5646L106.479 51.0222L106.319 51.3962L106.192 51.474L106.091 51.3781L106.15 51.0726C106.17 50.9846 106.149 50.8953 106.062 50.8877C105.991 50.8865 105.893 50.9301 105.844 50.9816L105.489 51.4452C105.328 51.6828 105.13 51.8702 104.816 51.9057C104.591 51.929 104.525 52.0803 104.524 52.2407C104.517 52.8168 104.176 53.2983 103.919 53.8037L103.556 54.4507C103.481 54.5683 103.382 54.6784 103.217 54.6318C103.08 54.5931 103.087 54.3956 103.227 54.2205L103.454 53.9716C103.65 53.7545 103.775 53.5445 103.702 53.2466C103.622 52.8812 103.787 52.5332 104.007 52.2043C104.127 52.0265 104.321 51.8597 104.214 51.6341C104.158 51.5199 103.902 51.7152 103.679 52.0564L103.589 52.1973C103.429 52.6081 103.161 52.9464 102.76 53.2011C102.503 53.3647 102.378 53.6114 102.324 53.8837L102.254 54.2784C102.226 54.4234 102.16 54.5379 101.979 54.5134C101.741 54.4894 101.573 54.742 101.329 54.6847L101.266 54.2267C101.218 54.0598 100.992 54.0291 100.861 54.1601C100.806 54.2265 100.732 54.2819 100.701 54.3526C100.558 54.6952 100.362 54.945 99.9198 55C99.6513 55.0385 99.5639 55.2493 99.6362 55.4891L99.7945 55.9232C99.8908 56.1051 99.7991 56.2288 99.6245 56.3085C99.3883 56.4168 99.1502 56.5079 98.8879 56.5009C98.7585 56.5002 98.6891 56.4285 98.724 56.2971L98.79 56.1499C98.8251 56.0724 98.8294 55.9779 98.7371 55.9485C98.6683 55.935 98.5619 55.9459 98.5028 55.9875C97.9692 56.3393 97.9141 56.5956 98.2441 57.0899C98.4245 57.3613 98.3853 57.5871 98.1108 57.859C98.0236 57.9421 97.9124 57.9967 97.8028 57.9364C97.7535 57.9055 97.7204 57.8102 97.7173 57.7391L97.7392 57.1121C97.7289 56.9746 97.6201 56.886 97.4631 56.8679C97.3118 56.8473 97.1893 56.9141 97.114 57.0431C97.0184 57.1874 96.9988 57.3324 96.9935 57.4974C96.9793 57.7835 96.8767 57.8931 96.6109 57.9435L96.1879 57.9769C96.0742 57.9868 95.9547 58.1268 95.8218 58.0022C96.1592 57.763 96.2615 57.435 96.3575 57.0977L96.3004 56.9665L96.1437 56.978L96.0211 57.0848C95.7351 57.4659 95.4092 57.8016 94.974 58.0518C94.7207 58.1989 94.6365 58.4174 94.7738 58.6672C94.8316 58.7615 94.8484 58.8588 94.7679 58.9555C94.5386 59.2336 94.312 59.5152 93.9832 59.7228C93.8419 59.8102 93.6945 59.9105 93.5112 59.873C93.0344 59.7829 92.6976 60.0179 92.3756 60.3245L91.9223 60.7083C91.7267 60.8875 91.5361 61.0305 91.2414 60.9789C91.055 60.941 90.9182 61.0501 90.8111 61.1928C90.7418 61.2773 90.6775 61.3804 90.554 61.3921L90.3954 61.3622C90.3183 61.3148 90.3083 61.2312 90.3879 61.1723L90.6725 60.984C90.9642 60.8052 91.1004 60.543 91.1809 60.2574C91.1944 60.1896 91.1882 60.0769 91.1379 60.0458C91.0359 59.9697 90.925 60.0454 90.8514 60.1304C90.6292 60.3799 90.4445 60.6608 90.1888 60.8815C89.9224 61.1176 89.681 61.3275 89.6999 61.6846C89.7061 61.7889 89.6535 61.901 89.5533 61.9613C89.2192 62.1755 88.9662 62.4999 88.5376 62.5779C88.4301 62.6002 88.281 62.6212 88.2254 62.6917C87.8864 63.0952 87.3404 63.2069 86.9539 63.5291C86.705 63.7306 86.4198 63.8607 86.1269 63.9866C85.4159 64.2975 84.7762 64.7298 84.134 65.1503L84.1164 65.2798L84.1927 65.3028L84.5056 65.1838L86.5655 64.1116C86.9014 63.9472 87.2421 63.8077 87.5441 63.5849C88.1014 63.174 88.7927 63.0082 89.3941 62.6772C89.6192 62.5558 89.838 62.7258 90.0602 62.6653C90.3156 62.5965 90.1483 62.2604 90.4019 62.1503L90.6364 62.0544L91.184 61.8037C91.2557 61.7723 91.2925 61.7773 91.3053 61.8328C91.2324 61.9992 90.9302 61.9792 90.9142 62.2862C91.2001 62.1193 91.5205 62.187 91.7416 62.0397C92.3487 61.6272 93.0322 61.4319 93.7024 61.2009L94.0197 61.0552L95.355 60.4565C95.4125 60.4274 95.5348 60.4566 95.5708 60.4984C95.6147 60.5455 95.6056 60.6678 95.5664 60.712C95.0611 61.2661 94.5457 61.8314 93.7289 61.9917C93.4935 62.0389 93.29 62.1506 93.1108 62.2962C92.7098 62.6333 92.2292 62.8234 91.7378 62.991C91.3821 63.12 91.0436 63.2725 90.7494 63.5006C90.6835 63.5528 90.632 63.625 90.6005 63.6988L90.6687 63.8115C90.8495 63.836 91.0066 63.7581 91.146 63.6536C91.4682 63.4081 91.8153 63.2241 92.2181 63.1184C92.7167 62.9845 93.1916 62.7809 93.6448 62.5248C94.0245 62.3125 94.4286 62.1658 94.872 62.226C95.1385 62.2653 95.3678 62.1445 95.6186 62.0551L98.2063 61.0987C98.675 60.9407 99.1458 60.8231 99.5887 60.6109C99.9072 60.4558 100.244 60.3738 100.59 60.3553C100.846 60.3447 101.095 60.3204 101.332 60.1753C101.424 60.1223 101.537 60.0512 101.633 60.1793C101.32 60.6359 100.814 60.8267 100.329 60.9172C99.7894 61.0086 99.4252 61.2641 99.0882 61.6183C99.0389 61.6738 99.0015 61.768 99.0101 61.823C99.036 61.9162 99.1386 61.8931 99.2224 61.8676C100.047 61.6091 100.871 61.3579 101.585 60.8407C101.696 60.7566 101.844 60.7144 101.977 60.6585C102.57 60.4213 103.168 60.2018 103.72 59.8937C103.987 59.7441 104.25 59.6765 104.54 59.7695C104.823 59.866 105.103 59.8375 105.35 59.6494C105.7 59.3835 106.104 59.2316 106.503 59.0673C106.817 58.941 107.064 58.6569 107.435 58.6957C107.324 59.0837 106.91 59.1477 106.632 59.3485C106.334 59.5719 105.983 59.7268 105.75 60.0287L104.753 61.184C104.595 61.3641 104.335 61.4933 104.453 61.7901C104.486 61.8853 104.365 61.9797 104.271 62.0535L103.876 62.3839L103.883 62.5126L103.95 62.5375C104.09 62.4911 104.241 62.4619 104.355 62.3909C105.038 61.9475 105.78 61.6199 106.503 61.2567C106.951 61.0327 107.435 60.9453 107.9 60.8153L108.019 60.8926L107.996 61.034C107.951 61.1473 107.728 61.1623 107.791 61.3776L108.393 61.0057C108.923 60.703 109.447 60.4691 110.097 60.495C110.606 60.523 111.058 60.1516 111.508 59.8866C111.572 59.8499 111.626 59.7581 111.645 59.6826C111.796 59.1512 112.293 58.9338 112.739 58.6692C112.802 58.6367 112.92 58.6315 112.97 58.6626C113.046 58.7151 112.992 58.8101 112.922 58.8628L112.373 59.279C112.316 59.3283 112.264 59.4247 112.279 59.4763C112.296 59.5609 112.412 59.5439 112.488 59.5046L113.992 58.8055C114.262 58.6902 114.494 58.5486 114.731 58.3739C115.001 58.1762 115.232 57.7665 115.672 58.0606C115.745 58.1126 115.817 58.0106 115.872 57.9442L116.2 57.5603C116.51 57.2805 116.743 56.9744 116.744 56.5746C116.742 56.3717 116.872 56.2163 117.042 56.099L117.632 55.7264C117.66 55.7091 117.691 55.6932 117.727 55.6728L117.761 55.7059C117.839 55.7787 117.918 55.8718 117.858 55.9755C117.858 55.9755 117.721 56.0223 117.645 56.0289L117.41 56.0013C117.261 56.001 117.202 56.125 117.284 56.2637C117.384 56.4462 117.577 56.6254 117.796 56.7743C117.67 56.8607 117.582 56.9891 117.437 57.0432C117.366 57.0705 117.303 57.1612 117.369 57.2356L117.515 57.2311C117.717 57.1023 117.944 57.0255 118.164 56.9192C118.271 56.9622 118.385 57.04 118.482 57.0362C118.847 57.0288 119.139 57.1918 119.449 57.3415C119.657 57.4394 119.652 57.6286 119.482 57.7745C119.275 57.9479 119.042 57.9005 118.808 57.8718L118.705 57.9571L118.735 58.1014C118.847 58.257 119.026 58.3267 119.19 58.4102C119.397 58.5174 119.647 58.5629 119.813 58.7542C120.031 58.9991 120.284 59.1611 120.608 59.2378C120.868 59.2932 121.078 59.4746 121.287 59.6306C121.369 59.6956 121.445 59.7839 121.397 59.8925C121.365 59.9789 121.28 59.9885 121.2 59.9861L120.886 59.9592L120.654 59.9857L120.548 60.0833C120.512 60.1607 120.541 60.2554 120.613 60.281L121.419 60.6002C121.615 60.6933 121.775 60.8385 121.72 61.0864C121.691 61.2439 121.637 61.3885 121.765 61.5293C121.892 61.6742 122.046 61.7659 122.238 61.8045L122.709 61.8727L123.095 61.9495L123.185 62.0649L123.096 62.1595L122.783 62.1581C122.699 62.1594 122.611 62.1887 122.617 62.2718C122.616 62.3339 122.676 62.4243 122.73 62.456L123.227 62.709C123.478 62.8255 123.68 62.9762 123.745 63.2615C123.789 63.4659 123.946 63.5031 124.108 63.4839C124.671 63.3998 125.186 63.6386 125.707 63.8084L126.385 64.0482C126.511 64.1033 126.626 64.1759 126.592 64.3358C126.565 64.4683 126.375 64.4921 126.188 64.3886L125.924 64.2124C125.688 64.0654 125.466 63.9816 125.18 64.0873C124.823 64.2203 124.46 64.1257 124.11 63.9621C123.932 63.8811 123.744 63.7279 123.534 63.8597C123.424 63.9272 123.643 64.1383 123.999 64.29L124.149 64.3516C124.572 64.4374 124.934 64.6311 125.223 64.971C125.402 65.1843 125.659 65.2614 125.935 65.265L126.33 65.2775C126.481 65.2779 126.6 65.3267 126.594 65.4947C126.588 65.7208 126.857 65.8395 126.82 66.0742L126.373 66.1949C126.214 66.263 126.205 66.4771 126.347 66.5744C126.416 66.6207 126.479 66.679 126.552 66.6972C126.905 66.7778 127.164 66.928 127.26 67.3325C127.319 67.5758 127.533 67.626 127.764 67.5285L128.18 67.3212C128.359 67.2135 128.483 67.2801 128.576 67.4287C128.703 67.6317 128.817 67.8454 128.83 68.0857C128.838 68.2061 128.769 68.2832 128.642 68.266L128.494 68.2217C128.404 68.2011 128.315 68.2143 128.299 68.2986C128.286 68.3623 128.301 68.4636 128.345 68.5107C128.749 68.9611 129.002 68.9743 129.47 68.6052C129.727 68.4059 129.956 68.4074 130.248 68.6285C130.335 68.6983 130.396 68.7974 130.341 68.8965C130.317 68.9596 130.226 69.0012 130.163 69.0126L129.532 69.0716C129.391 69.0936 129.317 69.207 129.31 69.3507C129.303 69.4974 129.381 69.6029 129.514 69.6621C129.661 69.7232 129.815 69.7284 129.975 69.7174C130.264 69.6859 130.378 69.7719 130.45 70.0002L130.519 70.3926C130.53 70.4964 130.684 70.5881 130.565 70.7323C130.306 70.4461 129.968 70.3874 129.627 70.3454L129.499 70.4188L129.523 70.5582L129.643 70.6568C130.04 70.8752 130.392 71.1373 130.673 71.5098C130.836 71.7251 131.058 71.7763 131.3 71.6234C131.393 71.5622 131.486 71.5252 131.585 71.5924C131.882 71.7773 132.18 71.9569 132.401 72.2349C132.501 72.3551 132.609 72.4858 132.586 72.6557C132.529 73.1049 132.792 73.3886 133.116 73.6551L133.528 74.0277C133.728 74.1867 133.877 74.3556 133.839 74.6354C133.81 74.812 133.929 74.9231 134.076 75.0137C134.169 75.0675 134.271 75.114 134.289 75.2273L134.269 75.3775C134.229 75.4544 134.148 75.4719 134.081 75.4101L133.876 75.1638C133.689 74.9115 133.413 74.8119 133.119 74.7677C133.054 74.7589 132.946 74.7812 132.914 74.8265C132.85 74.9339 132.929 75.0269 133.012 75.0878C133.277 75.2641 133.567 75.4099 133.797 75.6185C134.047 75.8423 134.274 76.0503 134.633 75.9914C134.731 75.9763 134.844 76.0116 134.915 76.1005C135.149 76.3833 135.484 76.5891 135.586 76.9786C135.614 77.0805 135.642 77.2131 135.715 77.2599C136.142 77.5321 136.284 78.0251 136.624 78.3593C136.837 78.5697 136.979 78.82 137.119 79.0827C137.46 79.7136 137.919 80.2708 138.369 80.8383L138.498 80.8401L138.52 80.7723L138.388 80.4874L137.226 78.6636C137.048 78.3684 136.894 78.0582 136.649 77.8024C136.199 77.3256 136.004 76.7008 135.636 76.1771C135.5 75.9814 135.66 75.7562 135.594 75.5615C135.506 75.3227 135.178 75.5178 135.054 75.294L134.949 75.0825L134.663 74.6026C134.629 74.5401 134.635 74.4997 134.687 74.4867C134.86 74.5345 134.859 74.8192 135.162 74.8023C134.982 74.5594 135.033 74.2446 134.871 74.0537C134.428 73.5282 134.171 72.9278 133.902 72.3225L133.731 72.0481L133.045 70.8757C133.014 70.8219 133.03 70.7038 133.074 70.6654C133.112 70.6253 133.236 70.6082 133.285 70.6486C133.872 71.0576 134.473 71.4725 134.694 72.2158C134.753 72.4306 134.884 72.6045 135.039 72.7491C135.407 73.0923 135.625 73.5176 135.824 73.9604C135.97 74.2766 136.141 74.5806 136.387 74.8366L136.593 74.9511L136.699 74.8705C136.714 74.7037 136.628 74.5643 136.515 74.4455C136.256 74.1677 136.05 73.8634 135.916 73.499C135.756 73.0447 135.525 72.625 135.231 72.2316C134.995 71.9063 134.819 71.5406 134.846 71.1242C134.869 70.8667 134.728 70.6702 134.617 70.4452L133.471 68.134C133.272 67.724 133.117 67.2946 132.865 66.9058C132.688 66.6307 132.579 66.3279 132.527 66.0074C132.493 65.7675 132.448 65.5346 132.284 65.335C132.222 65.2612 132.14 65.1592 132.268 65.0531C132.742 65.282 132.977 65.7382 133.108 66.1854C133.248 66.6656 133.531 66.9847 133.921 67.2518C133.979 67.2882 134.075 67.318 134.132 67.2962C134.216 67.2664 134.187 67.1676 134.155 67.0978C133.83 66.3572 133.498 65.6201 132.925 65.0146C132.833 64.9188 132.776 64.7876 132.708 64.6718C132.42 64.1462 132.153 63.6152 131.788 63.133C131.61 62.9062 131.517 62.6637 131.588 62.3883C131.651 62.1131 131.598 61.8494 131.384 61.6473C131.08 61.3592 130.886 60.9994 130.684 60.6459C130.528 60.3736 130.22 60.1788 130.218 59.8241C130.613 59.8734 130.715 60.2587 130.951 60.4881C131.202 60.7374 131.395 61.039 131.713 61.2224L132.97 61.9945C133.175 62.1214 133.328 62.348 133.607 62.2011C133.701 62.1517 133.809 62.2571 133.89 62.3377L134.252 62.6632L134.384 62.64L134.398 62.5722C134.343 62.4487 134.299 62.3151 134.212 62.2167C133.715 61.6218 133.301 60.9799 132.865 60.3446C132.591 59.9571 132.463 59.5145 132.282 59.0943L132.345 58.9667L132.49 58.9747C132.609 58.9982 132.647 59.206 132.851 59.1177L132.415 58.6016C132.056 58.1445 131.77 57.6858 131.725 57.0614C131.69 56.5828 131.264 56.2116 130.952 55.8305C130.906 55.7747 130.806 55.741 130.732 55.7311C130.179 55.6729 129.905 55.2316 129.588 54.8541C129.549 54.8034 129.527 54.6938 129.554 54.6395C129.603 54.5554 129.698 54.5978 129.758 54.6514L130.239 55.108C130.296 55.1527 130.4 55.1911 130.453 55.1698C130.533 55.1311 130.5 55.0358 130.45 54.9668L129.575 53.6578C129.557 53.6301 129.536 53.6103 129.514 53.583C129.617 53.5316 129.728 53.4886 129.824 53.4277L132.256 52.0431C132.528 51.89 132.86 51.8158 132.891 51.4275C132.898 51.342 133.082 51.2276 133.2 51.157L135.552 49.8069C135.834 49.6467 136.106 49.4863 136.326 49.2524C136.667 48.8903 137.08 48.6245 137.539 48.4103C137.722 48.3202 137.922 48.2365 138.065 48.1071C138.877 47.3563 139.845 46.8196 140.785 46.2381L140.855 46.1853L143.755 44.0979C144.073 43.8731 144.395 43.6656 144.907 43.6147C144.307 44.1191 143.756 44.4896 143.152 44.7822L143.067 44.9153C143.07 45.0107 143.165 45.0235 143.249 44.9854C143.966 44.6658 144.68 44.3301 145.345 43.9011C145.588 43.741 145.826 43.558 146.09 43.4546C147.178 43.0166 148.132 42.3335 149.129 41.7396C149.227 41.6833 149.344 41.5672 149.43 41.5748C149.769 41.6122 150.033 41.4455 150.316 41.3034L150.46 41.3229L150.461 41.4624C150.238 41.7296 149.925 41.9015 149.641 42.0929L148.646 42.7947L148.574 42.9294L148.731 42.9424C149.869 42.2895 151.048 41.7035 152.096 40.9013L152.681 40.5152C152.983 40.3421 153.259 40.1315 153.514 39.8865C153.908 39.5031 154.333 39.1523 154.889 38.9925C154.991 38.9567 155.115 38.8997 155.185 38.8184L155.992 37.8231C156.044 37.7563 156.065 37.6558 155.982 37.6161C155.924 37.5871 155.819 37.5939 155.748 37.6255L155.281 37.8544C155.123 37.9194 154.942 37.7672 154.96 37.605C154.986 37.4102 155.069 37.2326 155.214 37.0877L155.725 36.6209C155.989 36.3972 157.07 34.9652 157.197 34.6765C157.325 34.3773 157.397 34.0568 157.608 33.7762C157.711 33.634 157.699 33.4636 157.679 33.3037C157.665 33.1952 157.607 33.105 157.487 33.0887L157.15 33.0799C156.868 33.0944 156.647 33.0275 156.598 32.7412C156.561 32.4925 156.379 32.4139 156.137 32.3853C156.062 32.3752 155.976 32.3434 155.928 32.2916C155.821 32.1609 155.803 32.0066 155.868 31.8381C155.919 31.7131 156.15 31.5798 156.293 31.6035C156.474 31.628 156.441 31.7755 156.475 31.8993C156.506 32.0935 156.564 32.1013 156.747 31.9816L157.26 31.6555C157.472 31.5365 157.64 31.3779 157.674 31.1557C157.742 30.7523 158.041 30.5543 158.383 30.3698L159.079 30.0188C159.577 29.7688 160.045 29.4904 160.367 29.0275C160.485 28.8663 160.653 28.7403 160.843 28.6638C161.276 28.483 161.485 28.1199 161.709 27.7588C161.897 27.4541 161.788 27.3325 161.605 27.1421Z" fill="#FFD600"/>
<path d="M77.7929 18.2399C77.7351 18.327 77.4678 18.1715 77.4448 18.0945C77.3173 17.7712 77.357 17.5708 77.4499 17.4103C77.5271 17.2721 77.6707 17.2303 77.8596 17.3172C78.0013 17.3818 78.0852 17.657 78.0136 17.8456C77.9565 17.9898 77.8762 18.1193 77.7929 18.2399ZM76.0192 14.9539C75.8051 14.7138 75.6851 14.4591 75.7225 14.1834C75.7504 13.9773 75.7814 13.7799 76.0255 13.8289C76.2736 13.8794 76.5316 14.1033 76.6499 14.3716C76.7536 14.6241 76.7744 14.8411 76.7186 15.0361C76.6251 15.3864 76.3245 15.3531 76.0192 14.9539ZM75.8221 17.0534C75.8029 16.9484 75.7732 16.8283 75.7812 16.7387L75.8939 16.6474L75.9725 16.715C76.0372 16.8853 76.0126 17.0054 75.9302 17.0891L75.8221 17.0534ZM74.2182 14.9807C74.1975 14.9167 74.119 14.7869 74.12 14.6878C74.1283 14.3798 74.2507 14.1863 74.4907 14.1113C74.5906 14.0837 74.7848 14.2546 74.8267 14.408C74.9077 14.7039 74.8883 14.9398 74.7936 15.1453C74.7037 15.3146 74.4437 15.2593 74.2182 14.9807ZM70.4854 36.5469C70.7113 36.1449 70.9416 35.9873 71.2519 35.9503C71.2519 35.9503 71.3807 36.0173 71.4414 36.0625L71.4517 36.1716C71.2617 36.4634 70.9793 36.5728 70.4854 36.5469ZM67.5406 32.9575C67.5398 32.4087 67.6638 32.0182 68.0624 31.9151C68.1185 31.9026 68.2052 31.9102 68.2542 31.9495C68.3917 32.0758 68.3406 32.1755 68.2819 32.2382L67.5406 32.9575ZM62.7976 26.6012C62.7976 26.6012 62.7191 26.6559 62.6581 26.6434L62.5139 26.5046C62.4784 26.3352 62.7641 26.2009 62.9044 26.3065C62.9764 26.3617 62.9882 26.4286 62.9394 26.4801L62.7976 26.6012ZM60.0865 42.6712L60.0873 42.5109C60.0873 42.5109 60.1913 42.4839 60.2472 42.5031C60.3306 42.5355 60.3613 42.6177 60.3195 42.6785C60.2686 42.7455 60.2031 42.7978 60.0865 42.6712ZM51.0641 61.7554C50.8477 61.8411 50.5082 61.6019 50.6172 61.4141L50.8199 61.3065C51.0513 61.2957 51.221 61.4928 51.143 61.6669L51.0641 61.7554ZM48.0049 57.8698C48.0049 57.8698 47.9029 58.0047 47.8505 58.0219C47.7764 58.0446 47.6966 58.0464 47.6451 58.0267C47.5632 57.9829 47.4925 57.9491 47.4508 57.9181C47.2396 57.6879 47.2911 57.4923 47.615 57.2313C47.7086 57.1574 47.869 57.0843 47.9567 57.0845C48.0452 57.0797 48.136 57.15 48.1308 57.2189C48.1151 57.4268 48.0644 57.6468 48.0049 57.8698ZM43.9375 52.2647C43.8346 52.2222 43.8108 52.1198 43.9348 51.9762C43.9348 51.9762 44.037 51.9932 44.1191 52.0044L44.1279 52.2166C44.0625 52.2362 43.9375 52.2647 43.9375 52.2647ZM40.1333 50.4496C39.7321 50.5724 39.384 50.6117 39.2165 50.3674L39.2286 50.2783L39.3157 50.1909L39.3363 50.1937C39.4279 50.2262 39.4759 50.1504 39.6011 50.275C39.6927 50.3697 39.7391 50.2441 39.7839 50.1594L40.2522 50.128C40.3363 50.1236 40.323 50.3149 40.2437 50.3748L40.1333 50.4496ZM28.0956 39.2298C28.1633 39.1314 28.2692 39.1215 28.4016 39.2545C28.4016 39.2545 28.3669 39.3564 28.3429 39.4407L28.1156 39.4215C28.1079 39.355 28.0956 39.2298 28.0956 39.2298ZM30.8299 16.4276L31.6878 16.944C31.1555 17.0775 30.7454 17.0503 30.566 16.7084C30.566 16.7084 30.5292 16.5799 30.5578 16.5226C30.6543 16.3658 30.7605 16.3844 30.8299 16.4276ZM33.8913 12.5642L33.9969 12.5246C34.32 12.6392 34.4931 12.8727 34.5725 13.3361C34.127 13.2303 33.9261 13.0469 33.8223 12.7647C33.8223 12.7647 33.8614 12.6297 33.8913 12.5642ZM42.6803 21.5714C42.7514 21.6022 42.8157 21.652 42.7169 21.7948L42.5584 21.8229C42.5584 21.8229 42.5084 21.7296 42.5208 21.669C42.5364 21.5846 42.6097 21.5376 42.6803 21.5714ZM44.7415 27.3909C44.7352 27.4069 44.7147 27.4041 44.6965 27.4143C44.7123 27.3911 44.715 27.3714 44.7289 27.3607C44.7278 27.369 44.7432 27.3784 44.7415 27.3909ZM56.6911 49.1189L56.9188 49.3513L56.7886 49.4783L56.5466 49.2597C56.5466 49.2597 56.5311 49.1584 56.5217 49.1044C56.5797 49.108 56.6911 49.1189 56.6911 49.1189ZM53.5677 60.1863C53.6287 60.1988 53.7419 60.2268 53.7419 60.2268C53.8075 60.2979 53.6958 60.4432 53.5839 60.4364C53.5247 60.4411 53.4567 60.3569 53.4567 60.3569C53.4567 60.3569 53.5306 60.2435 53.5677 60.1863ZM54.0577 64.1232L54.1718 64.3909L54.0857 64.4404L53.8677 64.2293L53.8447 64.0911C53.9947 63.9711 54.0267 64.0736 54.0577 64.1232ZM29.4367 52.2061L29.1586 52.4068L29.0402 52.2631L29.3075 52.0482C29.3075 52.0482 29.4212 52.0426 29.4804 52.0379C29.4685 52.0943 29.4367 52.2061 29.4367 52.2061ZM22.108 42.9095C21.887 42.8753 21.6585 42.8031 21.426 42.7304C21.426 42.7304 21.3036 42.6157 21.2907 42.5559C21.2709 42.4867 21.286 42.4065 21.3182 42.3539C21.3744 42.2781 21.4248 42.2153 21.4566 42.1658C21.7413 41.9775 21.9373 42.0422 22.1731 42.3991C22.2313 42.4936 22.2884 42.6585 22.2804 42.7482C22.2688 42.8332 22.1819 42.9195 22.108 42.9095ZM18.0994 48.2399C18.0162 48.2983 17.877 48.1844 17.8929 48.0673C17.9053 48.0067 17.9972 47.9453 17.9972 47.9453C17.9972 47.9453 18.1115 48.0273 18.1676 48.0761C18.1435 48.1298 18.0994 48.2399 18.0994 48.2399ZM16.8981 45.5413L16.8216 45.457C16.7511 45.2375 17.0546 44.9114 17.2384 45.0355L17.3347 45.2501C17.3121 45.4782 17.0779 45.6321 16.8981 45.5413ZM13.8814 48.2733L13.5806 48.3644L13.5418 48.281L13.7901 48.0836L13.9475 48.0639C14.0507 48.2266 13.9432 48.249 13.8814 48.2733ZM26.4211 23.1663C26.2612 23.2353 26.0789 23.0079 26.1553 22.8453C26.195 22.7683 26.2574 22.7399 26.3198 22.7727L26.4608 22.8741C26.4608 22.8741 26.5275 22.9369 26.5285 22.9909L26.4211 23.1663ZM15.1185 11.6738C14.8439 11.8803 14.6399 11.9054 14.4654 11.8659C14.3159 11.8287 14.2438 11.7124 14.2836 11.511C14.3116 11.367 14.5539 11.2141 14.749 11.2237C14.9059 11.2376 15.048 11.2686 15.1837 11.3165C15.2724 11.3402 15.1913 11.6299 15.1185 11.6738ZM14.2122 13.5789L14.0967 13.5052L14.1473 13.4098C14.2915 13.3017 14.4093 13.2965 14.5076 13.3425L14.5009 13.4535C14.4059 13.506 14.3027 13.5585 14.2122 13.5789ZM12.6357 15.6781C12.3442 15.762 12.1271 15.6987 12.0029 15.5046C11.9518 15.4196 12.0703 15.193 12.2067 15.1123C12.4659 14.9575 12.7027 14.9073 12.912 14.9357C13.092 14.9644 13.0984 15.2248 12.8896 15.5015C12.8296 15.5429 12.7235 15.6478 12.6357 15.6781ZM11.794 14.3641C11.593 14.398 11.397 14.4252 11.3831 14.1891C11.3734 13.9525 11.5271 13.6515 11.7614 13.4648C11.9724 13.2961 12.1749 13.2202 12.3774 13.2065C12.7259 13.1958 12.7676 13.4737 12.4508 13.8676C12.2764 14.1362 12.0636 14.3183 11.794 14.3641ZM84.4865 17.3056C84.1804 16.9433 83.808 16.8221 83.4901 16.5152C83.205 16.2454 82.939 15.9255 82.6447 15.6914C82.3579 15.4636 82.045 15.3051 81.6357 15.0564C81.9265 14.8849 81.972 14.6726 81.5935 14.3205C81.4334 14.1753 81.5068 13.9426 81.6626 13.9342C81.8692 13.9211 82.065 14.0183 82.2715 14.1898C82.4067 14.3032 82.5517 14.4051 82.6707 14.3601C82.6707 14.3601 82.7414 14.2705 82.7655 14.2157L82.7304 14.1044C82.5647 13.97 82.4023 13.8119 82.2362 13.7112C81.8954 13.512 81.6116 13.2931 81.5924 12.8494C81.5791 12.6703 81.4533 12.5499 81.3234 12.4288L79.9849 11.172C79.8922 11.0856 79.7689 10.9781 79.6863 10.97C79.0539 10.918 78.3612 10.4156 77.7382 10.3554C77.3871 10.3246 77.0878 10.1891 76.7355 9.89013C76.4133 9.61533 76.2772 9.72453 76.4368 10.1503C76.5568 10.4673 76.5423 10.6057 76.2932 10.593L76.0956 10.5704C75.8223 10.5207 75.6656 10.6271 75.725 10.9602C75.7713 11.1733 75.6249 11.3591 75.8733 11.6239L76.3598 11.6731C76.8821 11.7978 77.1842 12.2513 77.0774 12.7306C77.0213 12.9583 76.9325 13.1521 76.7476 13.2515C76.5535 13.357 76.2926 13.2467 76.1233 12.923C75.9732 12.6431 75.8548 12.3759 75.5915 12.1914C75.3845 12.0525 75.3212 11.8414 75.3146 11.6431C75.2908 11.2643 75.0972 11.028 74.7736 10.8564C74.4451 10.6884 74.2008 10.3334 73.9149 10.0677C73.0007 9.22719 71.9766 9.10409 71.5422 9.84078C71.35 10.1482 71.1613 10.4613 70.8676 10.623L68.5564 11.8838C68.3413 11.9907 68.1105 11.9351 67.8078 11.6091C67.5696 11.3626 67.2588 11.465 67.3587 11.7466C67.5462 12.2743 67.3083 12.4562 67.1538 12.6705C66.8404 13.1018 66.2893 13.1885 65.805 13.3697C65.673 13.4182 65.4925 13.3316 65.3221 13.1396C65.0658 12.841 64.9424 12.9804 64.8537 13.1414C64.7971 13.2498 64.7975 13.4018 64.7522 13.5192C64.5836 13.93 64.4351 14.008 63.8382 14.0019C63.9637 13.8163 64.0741 13.6498 64.2816 13.353C63.8437 13.4371 63.5653 13.4868 63.4582 13.8142C63.1236 14.8324 62.2351 15.0654 61.4484 15.442C61.337 15.4923 61.2085 15.4537 61.0618 15.3641C60.7119 15.1394 60.6681 15.3392 60.7067 15.6705C60.7613 16.1928 60.538 16.4517 60.1865 16.5475C59.9615 16.6035 59.6974 16.6711 59.4544 16.5516C59.0873 16.3614 58.9929 16.4721 58.9189 16.7712C58.7987 17.2255 58.7577 17.8046 58.1196 17.6399C58.0186 17.6146 57.9422 17.7773 57.8763 17.8623C57.7802 17.9853 57.6578 18.0552 57.4791 17.9856C57.1096 17.8447 56.9409 18.0403 56.8331 18.3105C56.7334 18.5524 56.5144 18.6261 56.3466 18.7848C56.2032 18.9173 56.0279 18.8851 55.8115 18.6626C55.7677 18.6155 55.7009 18.6149 55.6404 18.5983C55.8159 19.0304 55.5808 19.2539 55.6156 19.6132C55.6203 19.6708 55.7784 19.7999 55.8732 19.8708C56.0402 19.9958 56.2304 20.1039 56.2009 20.3521C56.1853 20.4977 56.0917 20.5715 55.9546 20.5655C55.76 20.5518 55.6446 20.3547 55.5438 20.1426L55.2941 19.6719C55.1252 19.3767 54.8643 19.2971 54.8426 19.5495C54.7773 20.2159 54.3792 20.5618 54.1619 21.0852C54.0584 21.3551 53.8403 21.4532 53.5165 21.5907C53.5819 21.3854 53.611 21.2943 53.6396 21.2075C53.6885 21.0622 53.6374 20.9149 53.4927 20.7802C53.3639 20.6509 53.2145 20.5811 53.1119 20.6294C53.0402 20.665 52.9558 20.7317 52.9467 20.8296C52.8858 21.464 52.5156 21.7894 52.2092 22.1678C52.0047 22.4123 51.7018 22.5189 51.445 22.6867C50.9511 22.4139 50.7286 22.6676 50.5348 22.9874C50.4539 23.121 50.3536 23.214 50.1895 23.2213C49.9044 23.2279 49.8085 23.4418 49.7831 23.7517C49.76 24.0451 49.7233 24.3155 49.5233 24.4656C49.3144 24.6188 49.1066 24.579 48.8157 24.2589L48.4754 23.8708C48.3939 23.7933 48.2417 23.7442 48.1946 23.7831C47.8691 24.0566 47.4649 24.2318 47.3702 24.7761L46.4781 23.7729C46.2752 23.5428 46.197 23.1945 45.6272 23.3894C45.4953 23.4369 45.34 23.2882 45.2448 23.1888L43.46 21.2161C43.2501 20.9765 43.043 20.7469 42.7122 20.6282C42.2047 20.4559 41.8521 20.1274 41.5737 19.715C41.4581 19.5505 41.3492 19.3669 41.1686 19.2812C40.1241 18.785 39.411 17.9707 38.6405 17.2109L38.5727 17.1563L35.7338 15.0353C35.4224 14.8042 35.1431 14.5521 35.1016 13.965C35.7932 14.3512 36.2907 14.7816 36.6826 15.3128C36.6826 15.3128 36.8143 15.3592 36.869 15.3255C37.0084 15.2536 37.0248 15.1324 36.9801 15.0609C36.5643 14.3978 36.1153 13.7639 35.5383 13.2413C35.3258 13.0511 35.0818 12.8777 34.9349 12.6361C34.3559 11.6047 33.4302 10.9104 32.62 10.104C32.5389 10.0234 32.3845 9.9602 32.3998 9.84726C32.458 9.41831 32.2417 9.19477 32.0445 8.95382C32.0445 8.95382 32.0389 8.80957 32.0743 8.76478C32.119 8.7128 32.2766 8.66033 32.2766 8.66033C32.6575 8.74894 32.8844 9.01817 33.1434 9.2348L34.1092 9.97259C34.1092 9.97259 34.2433 9.96971 34.2984 9.96452C34.3071 9.90028 34.3206 9.77019 34.3206 9.77019C33.4325 8.82876 32.6434 7.77417 31.5289 7.0542C31.3369 6.92897 31.1662 6.76968 31.0048 6.60427C30.7676 6.34944 30.475 6.16513 30.1387 6.02453C29.6086 5.80383 29.1235 5.52806 28.9076 4.96274C28.8638 4.85444 28.7815 4.75249 28.6688 4.72032L27.2865 4.43359C27.1962 4.42133 27.0524 4.46411 26.9969 4.59691C26.9549 4.6904 26.963 4.81498 27.001 4.87396L27.317 5.28715C27.405 5.43943 27.1895 5.76474 26.9638 5.85757C26.6889 5.97328 26.4438 5.99282 26.2446 5.92043L25.5989 5.62705C25.2864 5.46542 23.3156 5.17272 22.9184 5.2349C22.4973 5.28857 22.0547 5.43846 21.6731 5.38668C21.4796 5.36465 21.2434 5.50254 21.0234 5.64573C20.8761 5.745 20.7534 5.88029 20.7231 6.04185C20.6993 6.18635 20.7011 6.32691 20.7035 6.46335C20.7206 6.79912 20.6232 7.1162 20.2229 7.38688C19.8864 7.61769 19.7684 7.90237 19.7261 8.21424C19.7123 8.31578 19.6561 8.45276 19.5809 8.54491C19.4089 8.76532 19.1894 8.90437 18.9661 8.94793C18.786 8.98154 18.6105 8.79631 18.6491 8.60422C18.6861 8.36232 18.8875 8.29463 19.0639 8.16555C19.3286 7.97039 19.3426 7.89843 19.1849 7.76624L18.7429 7.3887C18.5878 7.20726 18.3739 7.12018 18.0646 7.24283C17.5127 7.46024 17.2361 7.24966 16.9998 6.95802L16.5272 6.37474C16.1959 5.95098 15.8137 5.59414 15.1902 5.53803C14.9705 5.5251 14.8071 5.40376 14.7009 5.23212C14.4583 4.83305 13.9705 4.8534 13.4816 4.85249C13.0676 4.85435 12.9028 5.08316 12.6437 5.45215C12.3782 5.83715 12.3513 6.22074 12.1452 6.60008L11.5639 7.61866C11.4187 7.94928 11.3521 8.28633 11.2045 8.72743C10.9789 8.5111 10.7665 8.53607 10.5257 8.98563C10.4249 9.17454 10.1901 9.17969 10.1432 9.03297C10.0758 8.85079 10.1208 8.64267 10.2329 8.40252C10.3041 8.24652 10.3683 8.08215 10.2936 7.9855C10.2936 7.9855 10.1942 7.94776 10.1362 7.94411L10.039 8.01324C9.9506 8.20278 9.84509 8.39526 9.79114 8.57682C9.68627 8.94985 9.54612 9.27377 9.12822 9.42705C8.96132 9.48672 8.87895 9.63173 8.79432 9.7933L7.93008 11.3876C7.87321 11.4991 7.7996 11.641 7.81364 11.7221C7.90931 12.3112 7.59883 13.09 7.68775 13.6666C7.73933 13.9955 7.68476 14.3046 7.48335 14.711C7.30283 15.0864 7.43673 15.1784 7.79966 14.9058C8.06953 14.7039 8.20282 14.6767 8.2507 14.909L8.27226 15.0892C8.29049 15.3555 8.4267 15.4605 8.7274 15.3082C8.92094 15.2067 9.1324 15.2808 9.32413 14.9766L9.26087 14.5184C9.25038 14.0105 9.61106 13.6015 10.0891 13.5598C10.326 13.5382 10.5313 13.566 10.6673 13.7036C10.8103 13.8507 10.7694 14.1216 10.4975 14.3697C10.2641 14.5807 10.0421 14.769 9.92644 15.0667C9.84116 15.2947 9.65879 15.4061 9.46986 15.4743C9.12142 15.6086 8.93788 15.8517 8.8491 16.1984C8.76954 16.5379 8.48672 16.8668 8.29939 17.2001C7.70653 18.273 7.82291 19.2332 8.60523 19.4132C8.94208 19.4874 9.26948 19.5698 9.49117 19.7845L11.1763 21.5052C11.33 21.6664 11.3238 21.8967 11.0787 22.2549C10.8945 22.5348 11.0555 22.7962 11.3 22.6268C11.7615 22.3063 11.9814 22.4723 12.2123 22.5575C12.6962 22.7181 12.8869 23.1924 13.1527 23.5746C13.2251 23.6878 13.1788 23.8757 13.0341 24.0787C12.8033 24.3935 12.9527 24.4633 13.1277 24.4987C13.2373 24.522 13.3897 24.4773 13.5093 24.4893C13.9308 24.5254 14.036 24.6431 14.1434 25.1768C13.9472 25.1132 13.7662 25.0602 13.4415 24.9581C13.6083 25.331 13.714 25.568 14.0473 25.5763C15.0823 25.5891 15.4732 26.3428 15.9883 26.9519C16.0516 27.0396 16.0429 27.1661 15.9846 27.3185C15.8327 27.6978 16.0358 27.68 16.3364 27.5604C16.8261 27.3705 17.1171 27.5049 17.2773 27.8031C17.3739 27.9851 17.4899 28.2076 17.4097 28.4606C17.3036 28.8419 17.4301 28.8959 17.7316 28.8915C18.1849 28.8781 18.7523 28.7619 18.7017 29.3818C18.6928 29.4788 18.8645 29.5063 18.9638 29.5451C19.0978 29.6045 19.1854 29.6986 19.1525 29.8799C19.0826 30.2407 19.2939 30.3475 19.5694 30.3807C19.8202 30.4115 19.9337 30.5915 20.111 30.7021C20.2735 30.798 20.2721 30.9624 20.091 31.2186C20.0511 31.267 20.0638 31.3267 20.0563 31.3827C20.4469 31.1223 20.697 31.2807 21.0398 31.1574C21.0929 31.1361 21.1921 30.9596 21.2392 30.8594C21.3272 30.673 21.4032 30.4817 21.647 30.4409C21.7922 30.4184 21.88 30.4799 21.8958 30.6098C21.9133 30.7894 21.7459 30.944 21.5633 31.0891L21.1494 31.4286C20.8967 31.6581 20.8621 31.913 21.1143 31.8723C21.7638 31.7673 22.1657 32.0403 22.7127 32.1061C22.9847 32.1346 23.1153 32.3127 23.3061 32.5696C23.0934 32.5661 23.0067 32.5585 22.9194 32.5541C22.7659 32.5459 22.6377 32.6278 22.5239 32.7896C22.4245 32.9365 22.3789 33.0875 22.447 33.1706C22.4927 33.2348 22.5735 33.287 22.663 33.2738C23.2864 33.1769 23.6646 33.4392 24.0776 33.6303C24.3415 33.7495 24.495 34.0046 24.7027 34.1984C24.5166 34.7082 24.8013 34.8586 25.1476 34.9552C25.2887 34.9944 25.3993 35.0717 25.4258 35.2156C25.475 35.4692 25.6997 35.5081 26.0031 35.4585C26.2938 35.4114 26.5612 35.3813 26.7375 35.5297C26.7636 35.5533 26.7055 35.6119 26.7228 35.6385C26.7184 35.6706 26.6834 35.6827 26.6784 35.719L26.6632 36.1084C26.6361 36.1543 26.6894 36.1616 26.6478 36.2213L26.3223 36.6182C26.3072 36.6373 26.3213 36.6561 26.314 36.6794L26.2931 36.3716C26.2855 36.2429 26.2344 36.0956 26.1268 36.0567C26.047 36.029 25.9414 36.0685 25.9068 36.1377L25.6431 36.7571C25.5277 37.0834 25.3575 37.3209 25.0077 37.2808C24.7567 37.251 24.7271 37.4696 24.7799 37.7279C24.9578 38.6342 24.7142 39.2903 24.5749 40.0089L24.3589 40.923C24.311 41.0906 24.2329 41.2361 24.0249 41.1045C23.8547 41.0033 23.7952 40.703 23.9027 40.4654L24.0889 40.1403C24.2521 39.8617 24.322 39.562 24.1536 39.0781C23.9402 38.4635 24.017 37.959 24.1663 37.5055C24.2527 37.2692 24.4235 37.0581 24.2285 36.6771C24.1271 36.4692 23.8903 36.7051 23.7464 37.1804L23.6874 37.3698C23.6296 37.9803 23.4299 38.4354 23.0411 38.7129C22.7991 38.8943 22.7349 39.2444 22.7621 39.6596L22.802 40.2591C22.8135 40.4832 22.7746 40.6468 22.5571 40.5551C22.2767 40.4347 22.1621 40.7864 21.8584 40.6217L21.6414 39.8789C21.537 39.601 21.2637 39.49 21.1616 39.6566C21.1132 39.7366 21.0487 39.8112 21.0356 39.9075C20.9797 40.4117 20.8346 40.7424 20.3377 40.7077C20.0435 40.6888 20.0106 40.9925 20.1652 41.3934L20.4834 42.1287C20.6491 42.4477 20.5804 42.6157 20.4077 42.6872C20.1761 42.7919 19.9237 42.8653 19.622 42.779C19.4734 42.7335 19.3704 42.6003 19.3721 42.4021L19.4047 42.1923C19.4171 42.0706 19.3907 41.9266 19.2783 41.8618C19.1969 41.8138 19.078 41.7977 19.0168 41.8475C18.5145 42.2531 18.5296 42.635 19.0612 43.5228C19.3595 44.0043 19.3832 44.3537 19.1481 44.7006C19.0746 44.8109 18.9591 44.8607 18.8262 44.7318C18.7518 44.6637 18.6854 44.5059 18.6545 44.3951L18.4874 43.408C18.438 43.1871 18.2859 43.0134 18.1037 42.9391C17.9178 42.8612 17.8002 42.9275 17.7504 43.1096C17.6895 43.3124 17.705 43.5372 17.7489 43.7985C17.8262 44.2458 17.7362 44.3856 17.4557 44.3887C17.3045 44.3935 17.1456 44.3635 16.9836 44.3246C16.8533 44.2995 16.7637 44.4974 16.563 44.2517C16.8809 43.973 16.9022 43.4768 16.8999 42.97C16.9 42.9077 16.8409 42.7889 16.7965 42.746C16.7482 42.7025 16.6207 42.7179 16.6207 42.7179C16.5717 42.7397 16.5306 42.7964 16.5142 42.8554C16.301 43.3794 16.0326 43.8168 15.6115 44.0857C15.3648 44.2411 15.3407 44.5723 15.5703 45.0066C15.6595 45.1801 15.7179 45.3358 15.6546 45.4633C15.47 45.8382 15.3042 46.2282 14.9905 46.4453C14.855 46.5503 14.7137 46.6673 14.4943 46.5594C13.9225 46.2761 13.6088 46.5543 13.3378 46.9501L12.9309 47.4226C12.7691 47.6602 12.5878 47.8255 12.2431 47.6553C12.016 47.5422 11.892 47.6857 11.8157 47.878C11.7624 47.9942 11.7225 48.1334 11.5815 48.1259C11.5271 48.1269 11.4533 48.0842 11.3978 48.0313C11.2904 47.9302 11.2535 47.8017 11.3236 47.7163L11.5952 47.5009C11.8727 47.3043 11.9453 46.9227 11.9466 46.4818C11.9516 46.3833 11.9049 46.2039 11.8429 46.1374C11.7004 45.9862 11.5998 46.0802 11.5348 46.1906C11.3597 46.5256 11.2346 46.9244 11.0132 47.2004C10.7805 47.498 10.565 47.7611 10.6991 48.3448C10.7346 48.5143 10.7126 48.6759 10.6149 48.7492C10.3055 48.9963 10.1075 49.439 9.64788 49.4379C9.53124 49.4347 9.36896 49.4296 9.32244 49.5256C9.05924 50.0798 8.47138 50.0992 8.1196 50.5041C7.90225 50.7511 7.62527 50.8824 7.32879 51.0036C6.61106 51.3019 6.01908 51.8146 5.41328 52.3054C5.41328 52.3054 5.4162 52.4377 5.43505 52.5141L5.52388 52.5684C5.63205 52.5409 5.75249 52.516 5.84793 52.4593L7.86055 51.3353C8.19341 51.1621 8.54483 51.0367 8.81581 50.7643C9.32726 50.2607 10.063 50.199 10.6506 49.8419C10.8655 49.7065 11.1748 50.0449 11.4005 50.0144C11.6809 49.9817 11.3849 49.3897 11.6329 49.2872L11.874 49.2049L12.4259 48.9579C12.4929 48.9259 12.5435 48.9528 12.5694 49.0397C12.543 49.2957 12.1878 49.1726 12.2558 49.6567C12.5354 49.4751 12.9302 49.6774 13.1381 49.4999C13.7012 49.016 14.4194 48.8982 15.1278 48.7305C15.2363 48.6998 15.3335 48.6307 15.4391 48.5922L16.7827 48.0243C16.8441 48.0031 16.9969 48.0777 17.0487 48.1585C17.1038 48.2452 17.1408 48.4348 17.1073 48.4968C16.6935 49.2362 16.2745 49.9824 15.3898 50.0027C15.1386 50.0056 14.9347 50.1225 14.7764 50.3036C14.4183 50.7246 13.9313 50.8938 13.4207 51.0218C13.0484 51.1159 12.7062 51.2668 12.4416 51.5527C12.3836 51.6103 12.3447 51.7126 12.334 51.822L12.4447 52.0227C12.6581 52.1139 12.8114 52.0313 12.9414 51.9044C13.2368 51.6068 13.5765 51.4144 14.0023 51.3561C14.5345 51.2848 15.015 51.102 15.4581 50.8245C15.8238 50.5934 16.2486 50.4822 16.7771 50.7143C17.0934 50.8479 17.3189 50.7266 17.5683 50.6444L20.2518 49.8751C20.7398 49.7599 21.2517 49.7144 21.6972 49.511C22.014 49.3641 22.3779 49.3311 22.7691 49.4053C23.0596 49.4521 23.3463 49.4952 23.5767 49.3376C23.66 49.2782 23.7671 49.1977 23.9185 49.4367C23.7039 50.0639 23.1817 50.2157 22.6389 50.2117C22.0585 50.2068 21.7056 50.4976 21.4287 50.9666C21.3861 51.0346 21.3668 51.1766 21.4005 51.2677C21.4551 51.4197 21.5727 51.4145 21.6546 51.3972C22.5292 51.2351 23.4038 51.0742 24.0671 50.4678C24.1728 50.366 24.3307 50.3421 24.4667 50.2951C25.0758 50.0886 25.6967 49.9175 26.2431 49.5875C26.5022 49.4338 26.7907 49.4022 27.1507 49.6452C27.5118 49.8799 27.8289 49.9145 28.0595 49.6936C28.3792 49.3708 28.8045 49.2554 29.2208 49.1135C29.5361 49.0086 29.7371 48.636 30.1867 48.8035C30.1755 49.3792 29.7073 49.3484 29.4519 49.5987C29.1737 49.8617 28.8201 50.0036 28.6357 50.407L27.8419 51.9444C27.7053 52.1812 27.4494 52.3111 27.6736 52.8153C27.7482 52.9742 27.628 53.0898 27.5485 53.1824L27.1892 53.5821C27.1892 53.5821 27.2162 53.7219 27.2391 53.7999L27.3316 53.8568C27.4742 53.8234 27.6335 53.8196 27.7456 53.7325C28.3988 53.2313 29.1663 52.9355 29.8921 52.5771C30.3487 52.3541 30.8782 52.3637 31.3771 52.2921C31.3771 52.2921 31.5185 52.3893 31.5432 52.4539C31.5806 52.517 31.5726 52.6067 31.5637 52.672C31.5412 52.8377 31.2921 52.7955 31.4241 53.1468L32.0101 52.7399C32.5343 52.4195 33.0734 52.2046 33.8398 52.4405C34.4372 52.6281 34.8571 52.1828 35.2957 51.9078C35.3601 51.8638 35.3942 51.7365 35.3931 51.6203C35.4017 50.8185 35.9201 50.6324 36.3556 50.3496C36.415 50.3123 36.5564 50.3483 36.6186 50.4137C36.7296 50.5196 36.6916 50.6463 36.6323 50.7132L36.1143 51.2033C36.0651 51.2588 36.0337 51.398 36.0678 51.485C36.123 51.6328 36.2447 51.6293 36.324 51.5989L37.6147 51.0522C37.8245 51.0765 38.0546 51.075 38.1799 51.1986C38.4033 51.4315 38.7189 51.5397 39.1696 51.5143C39.5359 51.4944 39.771 51.6413 40.0257 51.7666C40.1285 51.8101 40.1955 51.9015 40.0904 52.0603C40.0129 52.169 39.8809 52.2176 39.7698 52.2353L39.3115 52.3166L38.9616 52.4306C38.8905 52.462 38.8092 52.5375 38.764 52.5937C38.6865 52.7024 38.6969 52.8103 38.7879 52.8185L39.8517 52.9259C40.1056 52.9646 40.2976 53.0898 40.1226 53.4248C40.0161 53.6246 39.892 53.8304 40.0208 53.9586C40.1532 54.0927 40.3546 54.1485 40.6127 54.1255L41.2884 54.0441L41.828 54.0107L41.9184 54.1138C41.9184 54.1138 41.8074 54.2549 41.7553 54.2689L41.2977 54.3756C41.1685 54.4035 41.0251 54.4748 41.0038 54.57C40.98 54.6533 41.0304 54.7435 41.1028 54.7649L41.7411 54.8969C42.076 54.955 42.3195 55.0704 42.3125 55.3997C42.3064 55.6289 42.5207 55.621 42.7659 55.5393C43.6515 55.2352 44.3203 55.3587 45.0407 55.3784L45.9643 55.4414C46.1332 55.4601 46.2853 55.5092 46.1771 55.7214C46.0832 55.8902 45.7906 55.9824 45.5476 55.9251L45.2093 55.8001C44.9224 55.6957 44.6206 55.6717 44.1536 55.9091C43.5677 56.1915 43.0646 56.2024 42.6066 56.1276C42.3651 56.0906 42.1472 55.9703 41.7804 56.2097C41.5884 56.3313 41.8406 56.5058 42.3219 56.5627L42.5148 56.5889C43.1182 56.5473 43.5871 56.6648 43.8961 56.9747C44.0871 57.1695 44.4415 57.1763 44.8507 57.0873L45.4434 56.9704C45.6632 56.9211 45.8289 56.932 45.7583 57.1451C45.6624 57.4201 46.023 57.4732 45.8817 57.7759L45.1676 58.079C44.9019 58.2191 44.8082 58.4786 44.9869 58.5482C45.0743 58.5812 45.1474 58.6281 45.2564 58.626C45.7481 58.6061 46.0915 58.6939 46.0921 59.152C46.0916 59.4326 46.3949 59.4157 46.7854 59.2175L47.4829 58.8215C47.7898 58.6236 47.9558 58.663 48.0438 58.8153C48.1628 59.0161 48.2584 59.2359 48.1943 59.5237C48.1576 59.6717 48.0338 59.7826 47.8426 59.8052L47.6294 59.8058C47.5117 59.8099 47.3721 59.8532 47.3147 59.9689C47.2703 60.0494 47.2671 60.165 47.312 60.2038C47.7544 60.61 48.1345 60.5497 48.9745 59.9345C49.4331 59.6052 49.7768 59.5369 50.1472 59.7022C50.2531 59.7535 50.319 59.8531 50.1992 59.9972C50.1302 60.0744 49.9851 60.1581 49.8752 60.197L48.9046 60.4811C48.6856 60.5548 48.5295 60.7193 48.4679 60.8967C48.4022 61.0724 48.481 61.1697 48.6615 61.1942C48.8667 61.222 49.0936 61.1831 49.3505 61.1072C49.7898 60.9811 49.9321 61.0415 49.9596 61.3006C49.9749 61.4346 49.9581 61.5885 49.9337 61.7382C49.9079 61.8666 50.1093 61.9224 49.8839 62.1356C49.5883 61.8813 49.0933 61.9249 48.5862 61.9965C48.5265 62.0052 48.4128 62.0721 48.3693 62.1158C48.333 62.1679 48.3597 62.2791 48.3597 62.2791C48.3597 62.2791 48.4422 62.3483 48.5034 62.3598C49.0303 62.4809 49.4802 62.678 49.775 63.0314C49.9478 63.2363 50.2804 63.2193 50.6919 62.9585C50.8572 62.8491 51.013 62.7794 51.1411 62.8211C51.5218 62.9423 51.9245 63.055 52.1692 63.3151C52.2786 63.4333 52.401 63.5481 52.3056 63.7578C52.0582 64.3183 52.358 64.5732 52.7692 64.7778L53.2698 65.0926C53.5117 65.2204 53.6923 65.3683 53.5377 65.7061C53.4407 65.9283 53.5828 66.0214 53.7795 66.0808C53.9004 66.1141 54.0353 66.1367 54.0388 66.2648C54.0388 66.2648 54.0013 66.3874 53.9561 66.4424C53.8616 66.5541 53.7303 66.5975 53.6455 66.5449L53.4163 66.3239C53.2097 66.0901 52.8246 66.0631 52.3883 66.1063C52.2858 66.1219 52.1148 66.181 52.048 66.2416C51.9065 66.3912 52.0038 66.4751 52.1156 66.5146C52.4575 66.6433 52.8616 66.715 53.1519 66.8863C53.4487 67.0711 53.7313 67.2371 54.299 67.0577C54.4695 67.0028 54.6317 67.009 54.7092 67.0849C54.9698 67.3513 55.4243 67.4826 55.4497 67.9113C55.452 68.0182 55.4527 68.1671 55.5485 68.2001C56.1211 68.3854 56.1693 68.9239 56.5905 69.2079C56.8464 69.3861 56.9886 69.6322 57.1244 69.8944C57.4442 70.5266 57.978 71.0285 58.4928 71.5468C58.4928 71.5468 58.629 71.5283 58.7026 71.5098L58.7481 71.4211L58.6367 71.1337L57.43 69.3671C57.243 69.0822 57.102 68.7655 56.8148 68.5408C56.2868 68.1189 56.1901 67.4462 55.7978 66.9488C55.6566 66.7566 55.9753 66.441 55.9366 66.2331C55.8833 65.979 55.3112 66.3139 55.1992 66.0919L55.0947 65.8762L54.8251 65.3986C54.7877 65.3355 54.8113 65.2849 54.8953 65.2509C55.1506 65.2486 55.0495 65.5937 55.5257 65.4726C55.3314 65.2404 55.5131 64.8567 55.3193 64.6827C54.8155 64.206 54.644 63.5602 54.4327 62.93C54.3966 62.8259 54.3192 62.75 54.2697 62.6526L53.615 61.4705C53.5923 61.4221 53.6588 61.2707 53.7332 61.2154C53.8088 61.1507 54.0004 61.0944 54.0638 61.1199C54.8308 61.4128 55.6042 61.7204 55.6853 62.5397C55.7034 62.7764 55.839 62.9477 56.027 63.0714C56.4729 63.3587 56.6683 63.7979 56.8277 64.2563C56.9407 64.5935 57.1139 64.8882 57.4093 65.114C57.4742 65.1597 57.5804 65.1784 57.6839 65.185L57.8808 65.0587C57.9586 64.8551 57.8683 64.7194 57.7321 64.6144C57.4237 64.3615 57.2089 64.0654 57.1276 63.6787C57.0311 63.1876 56.8083 62.7659 56.5003 62.3864C56.2468 62.0671 56.1024 61.6845 56.3009 61.1754C56.4146 60.8617 56.2694 60.6689 56.1753 60.4377L55.2148 58.0281C55.057 57.5899 54.9705 57.1171 54.7223 56.7289C54.5511 56.4503 54.4872 56.1198 54.526 55.742C54.5516 55.4606 54.572 55.1869 54.3928 54.9979C54.3272 54.9268 54.231 54.8356 54.4595 54.6609C55.1031 54.7851 55.3029 55.2533 55.3466 55.7626C55.3897 56.3076 55.7096 56.599 56.2046 56.8023C56.2769 56.8237 56.418 56.8312 56.512 56.786C56.6513 56.7141 56.6404 56.6092 56.6134 56.5317C56.3784 55.7369 56.1351 54.942 55.4743 54.3902C55.3687 54.3062 55.3247 54.1684 55.2667 54.0413C55.0101 53.4989 54.7859 52.9325 54.4021 52.4646C54.2181 52.2497 54.1589 51.9779 54.3675 51.6105C54.5633 51.2455 54.5717 50.9376 54.3242 50.7594C53.971 50.4973 53.8054 50.116 53.6298 49.7461C53.4885 49.4631 53.0931 49.3272 53.2161 48.8828C53.7901 48.8119 53.8134 49.256 54.0823 49.4614C54.3782 49.683 54.5534 49.9949 54.9801 50.115L56.5907 50.6596C56.85 50.7518 57.0076 50.9757 57.4843 50.6975C57.6381 50.6117 57.7636 50.7027 57.8627 50.7742L58.2962 51.0598C58.2962 51.0598 58.44 51.017 58.507 50.985L58.5571 50.8926C58.512 50.763 58.4913 50.6083 58.3956 50.512C57.8355 49.958 57.4417 49.2862 57.0112 48.639C56.743 48.2438 56.6939 47.7423 56.5697 47.2717C56.5697 47.2717 56.6468 47.1344 56.7109 47.0935C56.7703 47.0562 56.8628 47.0519 56.9295 47.0535C57.0936 47.0463 57.0816 47.2884 57.4221 47.1204L56.9467 46.619C56.8567 46.5119 56.9014 46.3364 56.829 46.2231L57.3003 45.9537C57.5759 45.8011 57.9455 45.789 57.8621 45.2016C57.8433 45.0629 58.0226 44.9427 58.145 44.8727L60.5122 43.5077C60.8006 43.3537 61.0738 43.1882 61.2599 42.8958C61.5513 42.4416 61.9618 42.1585 62.4379 41.9762C62.6282 41.8986 62.8418 41.8337 62.9728 41.6699C63.7019 40.7632 64.6844 40.2371 65.6261 39.6431L65.6924 39.5856L68.5069 37.2967C68.8079 37.0495 69.1257 36.8331 69.7325 36.9196C69.1764 37.5068 68.6305 37.8949 68.0016 38.1557C68.0016 38.1557 67.9235 38.2686 67.9398 38.3331C67.9822 38.4834 68.0968 38.5316 68.1844 38.5023C68.9475 38.2387 69.6975 37.9489 70.3558 37.5022C70.599 37.3421 70.8239 37.1331 71.1147 37.0533C72.2913 36.7307 73.2182 35.9986 74.2265 35.4063C74.3273 35.3419 74.4286 35.2111 74.5404 35.2505C74.958 35.4063 75.2301 35.2501 75.5246 35.1128C75.5246 35.1128 75.6754 35.1407 75.7058 35.1944C75.7531 35.2462 75.7562 35.408 75.7562 35.408C75.5796 35.7545 75.2531 35.9127 74.9668 36.1124L73.9939 36.8752C73.9939 36.8752 73.9687 36.9995 73.9568 37.0559C74.021 37.0762 74.152 37.1267 74.152 37.1267C75.3127 36.4896 76.5507 35.9601 77.5569 35.0752C77.7366 34.9223 77.9417 34.7971 78.1491 34.6849C78.4645 34.5177 78.7218 34.2846 78.9492 33.9947C79.3035 33.5394 79.7088 33.1407 80.3289 33.0686C80.4513 33.0599 80.576 33.0029 80.6313 32.9039L81.2783 31.6473C81.3227 31.5668 81.3137 31.4168 81.1999 31.3318C81.1162 31.2708 80.9947 31.2417 80.9164 31.2648L80.421 31.4656C80.248 31.5076 79.9772 31.2239 79.9482 30.9762C79.9069 30.6952 79.9451 30.444 80.0769 30.273L80.5471 29.7343C80.7913 29.4751 81.6276 27.6554 81.6855 27.2592C81.742 26.8426 81.7174 26.3772 81.8747 26.0197C81.9573 25.8409 81.8888 25.5762 81.8005 25.3332C81.7445 25.161 81.6401 25.0065 81.4907 24.9366C81.3525 24.8767 81.2098 24.85 81.0761 24.8192C80.7312 24.7428 80.4409 24.5715 80.281 24.1172C80.1497 23.729 79.8946 23.5456 79.5936 23.4225C79.4942 23.3847 79.3723 23.2975 79.3017 23.2014C79.1269 22.9803 79.0475 22.7342 79.07 22.5062C79.0906 22.3233 79.329 22.1995 79.5101 22.2821C79.7382 22.3869 79.7513 22.5987 79.8292 22.7949C79.9504 23.1037 80.0162 23.1422 80.2042 23.0189L80.709 22.6874C80.9371 22.578 81.0876 22.3927 81.053 22.062C80.9867 21.4726 81.2865 21.2653 81.6535 21.1178L82.3852 20.8087C82.9145 20.604 83.3823 20.3298 83.6247 19.7444C83.7119 19.5335 83.8752 19.408 84.0792 19.3523C84.5523 19.2234 84.6845 18.7422 84.8313 18.2757C84.9606 17.8775 84.7818 17.6548 84.4865 17.3056Z" fill="#FFD600"/>
</svg>
