<?xml version="1.0" encoding="utf-8"?>
<svg width="95" height="88" viewBox="0 0 95 88" fill="none" xmlns="http://www.w3.org/2000/svg">
<path fill-rule="evenodd" clip-rule="evenodd" d="M65.8236 26.3218C67.7344 25.3335 66.3597 22.2715 64.4054 23.2834C61.6805 24.693 61.9966 27.9756 63.0724 30.3718C63.7015 31.7746 64.8209 33.3991 66.1837 34.1804C68.068 35.2591 69.9236 32.465 68.0208 31.377C67.0563 30.8249 66.4333 29.7553 66.0759 28.7347C65.9592 28.4019 65.3716 26.5562 65.8236 26.3218ZM69.3047 34.0968C67.5934 35.4546 69.6802 38.0847 71.3915 36.7269C71.5102 36.6327 71.6295 36.5381 71.747 36.4448C73.4593 35.0862 71.3725 32.4561 69.6602 33.8147C69.5426 33.908 69.4234 34.0026 69.3047 34.0968ZM81.2722 27.5588C80.3214 20.6705 75.6793 16.0023 68.5072 18.2861C65.5613 19.2232 63.1802 21.5597 61.9304 24.3551C61.0848 26.2562 60.4924 29.241 62.0186 30.968C64.7607 34.0772 69.1929 37.9108 73.4897 38.3512C74.8104 38.4876 76.1505 38.3339 77.3456 37.7324C80.9396 35.9298 81.4782 31.1163 81.2722 27.5588ZM42.7553 48.3791C44.7429 47.4694 43.3902 44.3964 41.4042 45.307C36.7796 47.4234 38.8894 53.874 41.8517 56.4791C43.5058 57.9345 45.5512 55.2733 43.9416 53.859C42.9277 52.9665 40.8611 49.2451 42.7553 48.3791ZM47.8206 57.8327C48.1085 56.4069 46.4065 55.1378 45.1305 56.1721C44.2632 56.8777 44.1386 57.9558 44.8244 58.8382C45.8304 60.136 47.7757 59.2861 47.8206 57.8327ZM43.093 42.9397C39.0735 46.2816 36.1007 50.3198 39.6997 55.2377C41.3965 57.5557 44.713 59.4194 47.4034 60.2729C50.7033 61.3254 54.659 61.4345 57.3807 58.9783C57.4011 58.9599 57.4193 58.9455 57.4414 58.9302C57.9984 58.5209 58.4781 58.0269 58.8767 57.4619C60.788 54.7349 60.57 50.7289 59.7774 47.6542C59.013 44.6946 56.7005 39.5433 53.5035 38.54C50.0809 37.4649 45.5174 40.9223 43.093 42.9397ZM59.8244 34.3296C59.7929 34.3567 59.7616 34.3816 59.7339 34.4057C59.1856 34.8604 58.7284 35.4588 58.297 36.0213C58.0445 36.3482 57.7902 36.6765 57.5535 37.017C57.6215 37.0983 57.6889 37.1822 57.7542 37.2656C62.4874 42.2999 65.915 50.3267 63.2003 57.1395C62.537 58.8065 61.534 60.2763 60.2471 61.4893C58.0313 63.7164 55.2893 65.0414 52.1263 65.1191C47.1006 65.244 42.0713 62.2396 38.5074 58.8992C37.8093 58.2426 37.1612 57.5245 36.6077 56.7422C32.376 55.9907 28.1369 55.2363 23.8514 54.9003C21.6652 54.7265 19.4665 54.8418 17.2791 54.9219C15.9462 54.974 14.1672 55.4302 12.9166 55.875C11.8443 56.2547 9.60775 57.1983 9.31587 58.4528C9.05355 59.5879 10.6022 60.8107 11.3753 61.362C13.1553 62.6281 11.1944 65.353 9.41071 64.0812C3.84623 60.123 6.82232 53.9338 12.4419 52.2057C19.4462 50.0507 27.7497 51.672 34.9314 53.0209C33.9938 48.6523 36.5071 44.5598 39.6349 41.5372C43.0299 38.2546 49.7958 33.1348 54.8727 35.0697C55.7159 33.814 56.8826 32.3714 58.0754 31.5056C57.4222 27.618 58.149 23.7544 60.3698 20.5681C55.5266 20.7641 50.6656 20.9698 45.9058 21.9525C42.9581 22.5596 36.4325 26.4722 39.832 30.0085C41.3508 31.5865 38.8069 33.7707 37.3003 32.2048C36.0954 30.9514 35.339 29.4162 35.4777 27.6486C35.6811 25.04 37.7458 22.7822 39.7299 21.2647C43.6813 18.2407 54.8716 16.7667 59.8835 16.8207C62.0543 16.8454 64.3451 16.1815 66.4215 15.6006C69.1948 14.8244 72.299 13.9056 75.1951 14.4192C80.1215 15.2891 82.5243 20.0569 83.9494 24.368C84.6335 26.4403 84.9603 28.6915 84.8415 30.8731C84.57 35.743 82.1313 39.6911 77.5434 41.6519C77.5256 41.6595 77.5083 41.6668 77.4889 41.6734C73.0753 43.1709 69.0052 41.8287 65.3747 39.1998C63.9827 38.1929 62.7324 37.0519 61.4932 35.8627C61.2438 35.6244 60.3348 34.7185 59.8244 34.3296Z" fill="#FFD600"/>
</svg>
