<?xml version="1.0" encoding="utf-8"?>
<svg width="118" height="119" viewBox="0 0 118 119" fill="none" xmlns="http://www.w3.org/2000/svg">
<path fill-rule="evenodd" clip-rule="evenodd" d="M73.6884 60.3146C74.5825 62.5577 77.073 63.689 79.3063 64.1115C83.0122 64.8128 86.8198 64.6403 90.1277 62.6755C91.0455 62.1307 92.0825 61.4526 92.8203 60.6445C92.8162 60.6057 92.8121 60.567 92.806 60.5288C92.584 59.1759 91.0258 58.142 89.904 57.5748C88.0278 56.63 85.7526 56.101 83.6698 55.9136C80.2701 55.6107 74.4825 56.1293 73.6884 60.3146ZM74.9939 54.1619C77.7275 52.8111 81.2016 52.6089 84.0419 52.907C86.0066 53.1123 88.3544 53.6459 90.4452 54.5766C88.2108 52.9714 84.6131 51.7662 82.0898 51.6478C79.5344 51.5304 76.6555 52.1087 74.9939 54.1619ZM44.7309 70.5859C44.7275 70.5838 44.7221 70.5823 44.717 70.5804C44.4453 70.4693 44.1627 70.4061 43.868 70.3924C41.6415 70.2818 39.4904 72.8657 38.4669 74.5784C37.1013 76.8675 35.0578 82.5431 39.7325 82.3558C44.9373 82.1496 49.8773 74.2167 44.732 70.5866C44.732 70.5866 44.732 70.5866 44.7309 70.5859ZM38.4199 42.4739C35.7442 42.5927 31.0317 46.0375 29.6103 48.1447C28.5139 49.7675 28.007 51.8678 29.2884 53.5448C30.3413 54.9254 32.1468 55.3738 33.8 55.0639C35.619 54.7222 37.4315 53.5364 38.7611 52.2865C42.0683 49.1804 44.1604 44.1452 38.4199 42.4739ZM60.7282 30.7196C59.6571 30.4694 58.5069 30.4815 57.4552 30.8159C55.1019 31.5677 54.0034 33.5269 56.2746 35.2256C57.775 36.3449 59.9384 37.459 61.8628 37.2653C63.4366 37.1072 65.7429 36.0211 65.0483 34.0704C64.9684 33.8432 64.8692 33.6242 64.753 33.415C64.6236 33.3251 64.5091 33.2114 64.4158 33.0838C64.0204 32.5434 63.5328 32.0781 62.9796 31.7002C62.4624 31.4109 61.8982 31.1993 61.3292 31.041C61.1058 30.9784 60.899 30.8715 60.7282 30.7196ZM87.5149 41.5274C88.4254 41.3094 89.4871 40.8665 89.8128 39.9003C90.9997 36.3778 82.2814 29.1135 78.8831 33.1791C78.3059 33.8707 77.9739 34.6629 78.0393 35.5739C78.2099 37.9493 80.945 40.1628 83.0379 40.9113C84.4061 41.4007 86.0632 41.8727 87.5149 41.5274ZM21.4602 59.4357C22.4696 62.3399 21.3859 65.6598 22.2971 68.7557C22.8419 70.6001 25.748 69.8793 25.1932 68.0017C24.3073 64.9872 25.4297 61.7608 24.336 58.6199C23.6981 56.7869 20.8193 57.591 21.4602 59.4357ZM49.0257 25.9313C45.0074 24.7117 40.6192 27.249 37.2407 29.1827C32.381 31.9607 28.0715 36.0507 26.0063 41.3432C25.2926 43.1734 28.1451 44.0891 28.841 42.3043C30.6396 37.6925 34.5338 34.2907 38.69 31.8015C41.1784 30.314 45.1678 27.8908 48.1635 28.8012C50.0264 29.367 50.8956 26.5015 49.0257 25.9313ZM94.2839 53.7214C94.2573 53.6784 94.2305 53.6408 94.1957 53.6008C92.4914 51.74 90.2792 50.3991 87.9055 49.5744C83.2825 47.9749 77.1607 48.1674 73.3581 51.5785C71.0933 53.6141 69.7879 56.414 70.3291 59.4806C70.9054 62.7403 73.3793 65.2391 76.4023 66.4035C82.2526 68.663 89.2137 67.5575 94.0549 63.5664C97.5349 60.6956 97.09 56.847 94.2839 53.7214ZM45.9553 67.8755C45.9107 67.8538 45.87 67.8333 45.8257 67.8137C39.465 65.2035 31.409 76.7669 34.4572 82.4456C35.2902 83.9952 36.7768 84.8493 38.4563 85.2223C47.3147 87.1929 54.0503 73.4981 46.3821 68.0881C46.2513 67.9955 46.1058 67.9239 45.9553 67.8755ZM42.3098 41.0431C42.2843 41.0131 42.2579 40.9844 42.2287 40.9563C42.2116 40.9347 42.1954 40.9203 42.1738 40.9037C41.2157 40.1114 40.1045 39.6391 38.8669 39.5225C38.8065 39.515 38.747 39.5092 38.6843 39.5112C34.6647 39.2508 30.0926 42.8769 27.657 45.791C23.8448 50.3543 25.3396 56.7035 31.4448 57.9809C40.1683 59.8035 49.7382 46.4558 42.3098 41.0431ZM66.9541 31.2145C66.93 31.1725 66.9026 31.1332 66.8744 31.0954C66.8624 31.0769 66.8518 31.061 66.8364 31.0453C66.7917 30.9936 66.7465 30.9451 66.7021 30.8953C65.8458 29.8872 64.681 29.147 63.4761 28.6224C60.8493 27.4767 57.6274 27.3238 55.0067 28.5815C51.1627 30.4258 51.1168 34.8418 54.2506 37.4175C57.4843 40.0755 62.0627 41.2876 65.8306 38.9682C67.7901 37.7604 68.4419 35.4896 67.9426 33.3213C67.7677 32.5507 67.4255 31.8445 66.9541 31.2145ZM77.9498 30.1241C72.9344 32.9528 75.3106 39.2181 78.926 42.0435C82.3913 44.7516 89.9993 46.3262 92.6893 41.7534C92.8054 41.5569 92.9069 41.3514 92.9902 41.1395C93.733 39.2899 93.2226 37.1773 92.3364 35.4735C91.3148 33.5104 89.6588 31.7712 87.7839 30.6025C86.7827 29.9755 85.6847 29.4937 84.5333 29.216C82.2547 28.6648 79.995 28.9704 77.9498 30.1241ZM102.907 57.1743C104.241 53.0038 104.094 48.862 102.438 44.8094C101.293 42.0109 99.5256 39.4894 97.4831 37.2737C93.3653 32.8044 87.22 28.7144 81.5386 26.5166C78.16 25.212 74.8047 24.3034 71.2033 23.8832C60.5769 22.644 48.0988 23.014 38.2775 27.6355C35.062 29.1473 32.2132 31.265 29.7976 33.8713C18.2772 46.2935 17.3989 68.8701 27.8889 82.1596C33.7916 89.6334 42.9466 96.8073 53.0692 94.1736C57.6235 92.9869 61.8266 90.6423 65.2335 87.3971C68.8802 83.9262 71.7462 79.7516 75.6168 76.4859C79.6539 73.0792 84.0716 70.2945 88.8851 68.1199C90.6147 67.3389 92.3635 66.6051 94.0663 65.7638C97.9024 63.8718 101.542 61.4487 102.907 57.1743ZM40.8207 96.258C43.333 97.6164 46.0637 98.4734 49.0182 98.6462C53.2777 98.893 57.4124 97.6965 61.1822 95.7772C67.6375 92.4937 73.3439 86.9835 77.8725 81.4018C81.5677 76.8472 85.0946 75.033 90.2245 72.6684C92.6653 71.5428 95.0392 70.4062 97.3582 69.0426C99.3325 67.8791 100.748 66.1298 101.758 64.1417C100.337 65.5824 98.6642 66.7708 96.8127 67.7096C91.0188 70.6454 84.8166 72.918 79.6888 77.0134C75.6306 80.2549 72.4702 84.3774 68.841 88.0524C63.2569 93.7065 55.4282 98.3844 47.2107 97.6767C45.0069 97.4894 42.8688 96.9976 40.8207 96.258ZM106.586 49.4963C106.603 49.5398 106.614 49.5903 106.62 49.6413C107.167 54.077 107.065 58.9322 105.536 63.1691C104.274 66.6732 102.191 69.7815 98.9294 71.7017C96.5157 73.124 94.0552 74.3038 91.5186 75.4721C86.8762 77.6141 83.6195 79.232 80.281 83.348C75.4676 89.2781 69.4416 95.0464 62.5848 98.5355C58.3165 100.708 53.6549 102.011 48.8365 101.731C43.6441 101.428 39.0382 99.3295 35.0286 96.0779C30.0395 92.0284 26.1735 86.3788 23.1776 80.7487C19.3764 74.3356 17.0021 66.4563 17.5867 58.957C18.3108 49.6544 20.3255 40.0368 26.3992 32.6595C30.7941 27.3229 37.457 24.0211 44.0016 22.1632C51.5624 20.0212 59.8387 19.5128 67.6405 20.3331C83.7433 22.0242 101.651 30.0205 106.201 46.9794C106.203 46.9932 106.207 47.0048 106.208 47.0199C106.379 47.8371 106.505 48.6646 106.586 49.4963Z" fill="#0BBC63"/>
</svg>
