<?xml version="1.0" encoding="utf-8"?>
<svg width="59" height="61" viewBox="0 0 59 61" fill="none" xmlns="http://www.w3.org/2000/svg">
<path d="M24.798 25.0185C17.8818 32.3356 6.61116 46.5854 15.464 56.5272C21.7897 63.6312 33.3352 60.4913 39.605 55.2122C47.6022 48.4791 52.3551 33.532 46.4574 24.1823C41.3799 16.1328 29.8093 16.5226 21.7605 18.7454C12.7619 21.2325 3.05176 27.4598 0.542078 36.9201C-2.32761 47.7359 6.62175 57.1747 17.3556 56.3411C28.9525 55.4388 41.475 46.0796 45.6902 35.3394C50.0085 24.3307 43.4807 13.6039 31.8496 11.8356C16.5715 9.51438 -4.97146 22.4626 4.63353 39.5165C5.28971 40.6805 7.08794 39.6365 6.43285 38.4712C-1.20687 24.9066 13.6053 14.8569 25.8918 13.7293C32.0737 13.1628 38.7617 14.8528 42.5233 20.0685C46.6693 25.8184 45.1646 32.9277 41.6909 38.5373C35.7715 48.092 17.8059 60.5115 6.89865 51.4666C2.27826 47.6348 1.17599 40.7398 3.2321 35.3677C5.13382 30.3988 9.72759 26.6964 14.212 24.1149C21.5383 19.9026 32.0289 17.375 40.0138 21.219C50.2598 26.1488 47.2491 40.6805 42.6143 48.4521C38.0909 56.0376 27.4179 61.6485 19.0027 56.7484C6.88968 49.6957 20.5485 32.5366 26.271 26.4806C27.1904 25.5108 25.7194 24.0434 24.798 25.0185Z" fill="#FFD600"/>
<path d="M28.2533 38.7436C28.9507 37.9018 29.654 37.0635 30.3604 36.2306C32.4638 33.9141 34.7062 31.7106 36.987 29.5604C34.0692 32.7704 31.1709 36.001 28.2967 39.2506C28.2813 39.0823 28.2682 38.9119 28.2533 38.7436ZM26.2102 34.3415C26.1581 34.3953 26.106 34.4491 26.0542 34.503C26.0519 33.3095 26.0519 32.1165 26.057 30.9245C26.0912 32.0628 26.1458 33.2025 26.2102 34.3415ZM27.9424 34.4407C32.2429 30.2363 36.6521 26.1394 41.1454 22.1503C36.4844 26.7151 32.0861 31.5542 28.0873 36.6876C28.0334 35.9376 27.9842 35.1885 27.9424 34.4407ZM26.307 36.0513C26.353 36.9581 26.4156 37.8655 26.4995 38.7694C26.3621 38.9538 26.2241 39.138 26.0879 39.3225C26.0759 38.3124 26.0663 37.3027 26.0606 36.2937C26.1424 36.2136 26.2252 36.1313 26.307 36.0513ZM57.7693 6.78554C53.4178 10.1748 49.1222 13.6082 44.9268 17.1793C48.322 13.735 51.7186 10.2909 55.1216 6.85534C55.8603 6.10869 54.6256 5.03622 53.8968 5.78954C45.23 14.7536 36.5231 23.6763 27.8567 32.638C27.6206 26.9343 27.7562 21.2179 28.2714 15.5246C28.3684 14.4515 26.8289 14.1026 26.5725 15.0346C26.4989 14.6389 26.4199 14.2422 26.3341 13.8468C26.3338 13.8467 26.334 13.8443 26.3342 13.8419C26.3338 13.8418 26.3335 13.8418 26.3331 13.8417C26.3204 13.7858 26.3096 13.7279 26.297 13.6696C26.1151 12.8524 25.026 13.2746 24.9979 13.9658C24.9348 15.532 24.8874 17.1011 24.8475 18.6666C24.7747 17.2923 24.6604 15.9202 24.4809 14.5557C24.4012 13.9495 23.4011 13.8256 23.3544 14.506C23.3513 14.5493 23.3486 14.5902 23.3455 14.6335C23.3172 14.2583 23.29 13.8832 23.2566 13.507C23.2175 13.0787 22.5068 13.0099 22.4779 13.4722C22.1906 18.0944 22.2834 22.7543 22.3158 27.3813C22.3471 31.9156 22.2172 36.4984 22.8372 40.9964C22.9802 42.0329 24.5096 41.9077 24.4476 40.847C24.3796 39.6927 24.3189 38.5324 24.2649 37.371C24.4318 38.6821 24.6557 39.989 24.9595 41.2909C25.0928 41.8606 25.7841 41.7505 26.0258 41.3418C26.1217 41.3057 26.2137 41.2421 26.2938 41.135C26.4302 40.9675 26.5687 40.8005 26.7063 40.6308C26.722 40.7529 26.7351 40.8746 26.7519 40.997C26.7161 41.0367 26.6796 41.0788 26.6438 41.1185C26.1541 41.6768 26.9946 42.3876 27.4995 41.8613C27.5201 41.8407 27.5402 41.82 27.5608 41.7994C28.0336 41.8297 28.524 41.515 28.4585 40.8919C28.4576 40.882 28.4568 40.8721 28.4557 40.8622C38.0271 30.8871 47.3378 20.6551 56.6436 10.4271C56.7438 10.3163 56.7967 10.1921 56.8141 10.0686C57.4427 9.32139 58.0585 8.55963 58.6584 7.78523C59.1113 7.20072 58.4008 6.29448 57.7693 6.78554Z" fill="#0BBC63"/>
</svg>
